<svg xmlns="http://www.w3.org/2000/svg" viewBox="41.1 115 1005.8 330"><style>.st0{fill:#fff}</style><title/><path d="M1046.9 406.9c0 26-15.9 38.1-44.4 38.1H948v-26h54.5c5 0 9.2-.8 10.9-2.6 1.7-1.7 3.3-4.3 3.3-7.8s-1.7-6.9-3.3-8.6c-1.7-1.7-5-2.6-10.1-2.6-26-.9-58.7.9-58.7-37.3 0-17.3 10.9-36.4 40.2-36.4h56.2v26h-52c-5 0-8.4 0-10.9 1.7-2.5 2.6-4.2 5.2-4.2 9.5s2.5 6.9 5.8 8.6c3.4.9 6.7 1.7 10.9 1.7h15.1c15.9 0 26 3.5 32.7 9.5 5.1 6.3 8.5 14.1 8.5 26.2zm-118.2-26c-6.7-6.1-16.8-9.5-32.7-9.5h-15.1c-4.2 0-7.6-.9-10.9-1.7-3.4-1.7-5.9-4.3-5.9-8.6 0-4.4.8-7 4.2-9.5 2.5-1.7 5.8-1.7 10.9-1.7h52v-26H875c-30.2 0-40.2 19.1-40.2 36.4 0 38.1 32.7 36.4 58.7 37.3 5 0 8.4.9 10.1 2.6 1.7 1.7 3.4 5.2 3.4 8.6 0 3.5-1.7 6.1-3.4 7.8-2.5 1.7-5.9 2.6-10.9 2.6h-54.5v26h54.5c28.5 0 44.4-12.1 44.4-38.1 0-12.3-3.4-20.1-8.4-26.2zm-107.3 39h-66.2v-24.2h64.5v-24.3h-64.5v-22.5h66.2v-25.1h-93.8v121.3h93.8v-25.2zm-124-90.1c-9.2-5.2-20.1-6.1-34.4-6.1h-64.5V445H627v-44.2h30.2c10 0 15.9.9 20.1 5.2 5 6.1 5 16.5 5 24.3V445h27.6v-23.4c0-11.2-.8-16.5-4.2-22.5-2.5-3.5-7.6-7.8-14.2-10.4 7.5-2.6 20.1-13 20.1-32.1 0-13.8-5-21.6-14.2-26.8zm-159.3-6.1h-89.7l-36 39.9-34.4-39.9H264.9V445h111.5l36-39.9 34.4 39.9h54.5v-40.7h35.2c24.3 0 48.6-6.9 48.6-40.7 0-32.9-25.2-39.9-47-39.9zM674.7 374c-4.2 1.7-8.4 1.7-13.4 1.7l-34.4.9v-27.7h34.4c5 0 10 0 13.4 2.6 3.3 1.7 5.9 5.2 5.9 10.4s-2.5 9.5-5.9 12.1zm-136.6 6h-36.9v-31.2h36.9c10.1 0 16.7 4.3 16.7 14.7.1 10.5-6.6 16.5-16.7 16.5zM430 384.3l43.6-47.6v97.9L430 384.3zm-67.9 35.6h-69.5v-24.2h62v-24.3h-62v-22.5H363l31 35.5-31.9 35.5zm606.8-183.6h-40.2l-52.8-90.9v90.9h-57L808 209.4h-58.7l-10.9 26.9h-32.7c-13.4 0-31-3.5-41.1-13.9-9.2-10.4-14.2-24.2-14.2-45.9 0-18.2 2.5-34.6 15.1-47.6 8.4-9.5 23.5-13.8 42.7-13.8H735v26h-26.8c-10.1 0-15.9 1.7-21.8 6.9-5 5.2-7.6 14.7-7.6 27.7s2.5 22.5 7.6 28.6c4.2 4.3 11.7 6.1 19.3 6.1h12.6l40.2-95.3h41.9l46.9 114.3V115H891l49.5 84v-84H969l-.1 121.3zM636.2 115h-28.5v121.2h28.5V115zm-59.5 5.2c-9.2-5.2-19.3-5.2-33.5-5.2h-64.5v121.2h27.6V192h30.2c10.1 0 16.8.9 21 5.2 5 6.1 4.2 16.5 4.2 23.4v15.6h28.5V212c0-10.4-.8-15.6-5-21.7-2.5-3.5-7.5-7.8-13.4-10.4 7.6-3.5 20.1-13 20.1-32-.1-13.8-6-21.6-15.2-27.7zm-118.2 90.9h-65.4v-24.3h64.5v-25.1h-64.5v-21.6h65.4V115h-93.9v121.2h93.9v-25.1zM343.7 115h-46.1l-34.4 82.3-36.9-82.3H181v114.3L133.3 115H91.4L41.1 236.3h30.2l10.9-26.9h58.7l10.9 26.9h57V141l41.1 95.3h24.3l41.1-95.3v95.3h28.5l-.1-121.3zM798 183.4l-19.3-47.6-19.3 47.6H798zm-243.1-19c-4.2 2.6-8.4 2.6-14.2 2.6h-34.4v-26.8h34.4c5 0 10.9 0 14.2 1.7 3.4 2.6 5 6.1 5 11.3 0 5.1-1.7 9.4-5 11.2zm-462.6 19l19.3-47.6 19.3 47.6H92.3z" class="st0"/></svg>