<svg xmlns="http://www.w3.org/2000/svg" xmlns:xlink="http://www.w3.org/1999/xlink" viewBox="0 0 1500 210.7"><style>.st0{fill:#9fd34a}.st1{opacity:.5}.st2{clip-path:url(#XMLID_30_)}.st3{clip-path:url(#SVGID_2_);fill:url(#SVGID_3_)}.st4{clip-path:url(#SVGID_5_);fill:url(#SVGID_6_)}.st5{clip-path:url(#SVGID_8_);fill:url(#SVGID_9_)}.st6{clip-path:url(#SVGID_11_);fill:url(#SVGID_12_)}.st7{clip-path:url(#SVGID_14_);fill:url(#SVGID_15_)}.st8{display:none}.st9{display:inline}.st10{opacity:.5;clip-path:url(#SVGID_19_);fill:url(#SVGID_20_)}</style><path d="M527.6 0H1500v210.7H0V0h527.6" class="st0"/><g class="st1"><defs><path id="XMLID_27_" d="M527.3 0h971.9v210.7H0V0h527.3" class="st1"/></defs><clipPath id="XMLID_30_"/><g class="st2"><defs><path id="SVGID_1_" d="M1467 468.2L930.9-67.9c-11-11-11-28.9 0-39.9l101.8-101.8c11-11 28.9-11 39.9 0l536.1 536.1c11 11 11 28.9 0 39.9l-101.8 101.8c-11 11-28.9 11-39.9 0z"/></defs><clipPath id="SVGID_2_"><use xlink:href="#SVGID_1_" overflow="visible"/></clipPath><linearGradient id="SVGID_3_" x1="-1514.089" x2="-1313.675" y1="1281.179" y2="1281.179" gradientUnits="userSpaceOnUse" gradientTransform="rotate(-45 -1462.135 -2534.684)"><stop offset="0" stop-color="#9FD34A" stop-opacity="0"/><stop offset="1" stop-color="#9FD34A"/></linearGradient><path d="M1628.6 346.4l-141.7 141.8-576-576 141.7-141.8z" class="st3"/><defs><path id="SVGID_4_" d="M1985.62-448.7l-576 576-141.7-141.7 576-576z"/></defs><clipPath id="SVGID_5_"><use xlink:href="#SVGID_4_" overflow="visible"/></clipPath><linearGradient id="SVGID_6_" x1="-809.528" x2="-609.114" y1="537.417" y2="537.417" gradientUnits="userSpaceOnUse" gradientTransform="rotate(45 1387.575 2972.745)"><stop offset="0" stop-color="#9FD34A" stop-opacity="0"/><stop offset="1" stop-color="#9FD34A"/></linearGradient><path d="M1409.6 127.3L1267.9-14.4l576-576 141.7 141.7z" class="st4"/></g><g class="st2"><defs><path id="SVGID_7_" d="M-338 160.8l536.1-536.1c11-11 28.9-11 39.9 0l101.8 101.8c11 11 11 28.9 0 39.9l-536.1 536.1c-11 11-28.9 11-39.9 0L-338 200.7c-11-11-11-28.9 0-39.9z"/></defs><clipPath id="SVGID_8_"><use xlink:href="#SVGID_7_" overflow="visible"/></clipPath><linearGradient id="SVGID_9_" x1="-2047.186" x2="-1846.772" y1="119.4" y2="119.4" gradientUnits="userSpaceOnUse" gradientTransform="rotate(45 -784.627 2393.141)"><stop offset="0" stop-color="#9FD34A" stop-opacity="0"/><stop offset="1" stop-color="#9FD34A"/></linearGradient><path d="M-216.2 322.5L-358 180.8l576-576 141.8 141.7z" class="st5"/><defs><path id="SVGID_10_" d="M578.92 679.37l-576-576 141.7-141.7 576 576z"/></defs><clipPath id="SVGID_11_"><use xlink:href="#SVGID_10_" overflow="visible"/></clipPath><linearGradient id="SVGID_12_" x1="-1971.306" x2="-1770.892" y1="1070.514" y2="1070.514" gradientUnits="userSpaceOnUse" gradientTransform="rotate(135 -599.357 1158.084)"><stop offset="0" stop-color="#9FD34A" stop-opacity="0"/><stop offset="1" stop-color="#9FD34A"/></linearGradient><path d="M2.9 103.4L144.6-38.3l576 576-141.7 141.7z" class="st6"/><defs><path id="SVGID_13_" d="M145.12 245.14l-576 576-141.7-141.7 576-576z"/></defs><clipPath id="SVGID_14_"><use xlink:href="#SVGID_13_" overflow="visible"/></clipPath><linearGradient id="SVGID_15_" x1="-1203.575" x2="-1003.161" y1="1067.504" y2="1067.504" gradientUnits="userSpaceOnUse" gradientTransform="rotate(45 71.874 1838.156)"><stop offset="0" stop-color="#9FD34A" stop-opacity="0"/><stop offset=".651" stop-color="#9FD34A"/></linearGradient><path d="M-431.5 821.3l-141.8-141.8 576-576 141.8 141.8z" class="st7"/><defs><path id="SVGID_16_" d="M2.87 103.38l576 576-141.7 141.7-576-576z"/></defs><clipPath id="SVGID_17_"><use xlink:href="#SVGID_16_" overflow="visible"/></clipPath></g></g><g id="XMLID_28_" class="st9"><defs><path id="SVGID_18_" d="M0 82.9h1500v127.5H0z"/></defs><clipPath id="SVGID_19_"><use xlink:href="#SVGID_18_" overflow="visible"/></clipPath><linearGradient id="SVGID_20_" x1="-958.236" x2="-830.708" y1="1143.088" y2="1143.088" gradientUnits="userSpaceOnUse" gradientTransform="rotate(90 425.463 1467.625)"><stop offset="0" stop-color="#9FD34A" stop-opacity="0"/><stop offset="1" stop-color="#9FD34A"/></linearGradient><path d="M0 83.9h1500v127.5H0z" class="st10"/></g></svg>