<svg id="Layer_1" xmlns="http://www.w3.org/2000/svg" viewBox="0 0 227 201.3"><style>.st0{fill:none;stroke:#d5d2d0;stroke-width:2;stroke-linecap:round;stroke-linejoin:round;stroke-miterlimit:10}</style><path class="st0" d="M111.2 126.5l1.7 18-46.3 55.8-43.4-36.1 54.3-65.6zM93.6 150.1l-28.1-23.3M93.4 142.7l-24.3-20.2M86.3 158.8l-28.1-23.3M86.2 151.4l-24.4-20.2M79 160.1l-24.4-20.2"/><circle class="st0" cx="50.8" cy="150.1" r="3.5"/><path class="st0" d="M45 166.4L68.6 186M48.7 164.9l10.3-1.6s-6.1.7-4 3.5 7.9 2.9 6.6 3.7-1.1 7.5 6.3 7.1M112.9 144.5l-9.8-8.1 8.1-9.9z"/><g><path class="st0" d="M32.1 1l11.1 7 11.7 51.5-40.1 9.1L1 8.1zM37.9 21.6l-26 6M33.5 18.4L11 23.5M39.7 29.7l-25.9 5.9M35.3 26.5l-22.4 5.1M37.2 34.5l-22.5 5.1"/><circle class="st0" cx="18.9" cy="46.4" r="2.6"/><path class="st0" d="M25.7 57l21.9-5M26.5 54.2l3.6-6.6s-2.3 3.9.3 3.9 5.2-3.3 5-2.2c-.2 1.1 3.8 4 6.9-.5M43.2 8l-9.1 2-2-9z"/></g><g><path class="st0" d="M187.2 10.1l12.7 3.5L226 59.5l-35.8 20.4-30.7-54zM198.7 28.2l-23.1 13.2M193.6 26.4l-20 11.4M202.8 35.4l-23.1 13.1M197.7 33.6l-20 11.4M201.8 40.7l-20.1 11.4"/><circle class="st0" cx="187.7" cy="57.4" r="2.6"/><path class="st0" d="M197.3 65.5l19.5-11M197.2 62.6l1.6-7.4s-1.1 4.4 1.4 3.6c2.4-.7 4.1-4.7 4.2-3.5s4.8 2.7 6.4-2.5M199.9 13.6l-8.1 4.6-4.6-8.1z"/></g></svg>