<svg id="Layer_1" xmlns="http://www.w3.org/2000/svg" viewBox="0 0 227.9 220.2"><style>.st0{fill:none;stroke:#d5d2d0;stroke-width:2;stroke-linecap:round;stroke-linejoin:round;stroke-miterlimit:10}</style><path class="st0" d="M172.4 1l17.5 4.4 37 62.3-48.5 28.9-43.6-73.2zM188.7 25.5l-31.4 18.7M181.6 23.1l-27.2 16.2M194.5 35.2l-31.4 18.7M187.4 32.9L160.2 49M193.2 42.6L166 58.7"/><circle class="st0" cx="174.3" cy="65.8" r="3.5"/><path class="st0" d="M187.7 76.7L214.1 61M187.5 72.7l1.9-10.2s-1.3 6 2 4.9 5.4-6.5 5.7-5c.2 1.5 6.7 3.5 8.8-3.6M189.9 5.4l-11 6.5L172.4 1z"/><g><path class="st0" d="M162.3 164l1.8 13-31.8 42.2-32.9-24.8 37.4-49.6zM150.2 181.8l-21.2-16M149.9 176.4l-18.4-13.9M145.3 188.4L124 172.3M144.9 182.9l-18.4-13.8M139.9 189.5l-18.4-13.9"/><circle class="st0" cx="119.1" cy="183.2" r="2.6"/><path class="st0" d="M115.4 195.2l17.9 13.5M118 194l7.4-1.5s-4.4.7-2.8 2.7c1.6 2 5.9 1.9 4.9 2.4-1 .6-.6 5.5 4.9 4.9M164.1 177l-7.4-5.5 5.6-7.5z"/></g><g><path class="st0" d="M28.7 55.6l12.7 3.5L67.5 105l-35.8 20.3L1 71.3zM40.2 73.7L17.1 86.8M35.1 71.8l-20 11.4M44.3 80.8L21.2 94M39.2 79L19.1 90.4M43.3 86.2L23.2 97.6"/><circle class="st0" cx="29.2" cy="102.8" r="2.6"/><path class="st0" d="M38.8 111l19.4-11.1M38.7 108.1l1.6-7.4s-1.1 4.4 1.4 3.6c2.4-.7 4.1-4.7 4.2-3.5.1 1.1 4.8 2.7 6.4-2.5M41.4 59.1l-8.1 4.6-4.6-8.1z"/></g></svg>