<svg xmlns="http://www.w3.org/2000/svg" viewBox="0 0 112.2 18.8"><style>.st0{fill:#fdfeff}</style><path id="XMLID_1679_" d="M26.4-4H.2c-.1.1-.2 0-.2-.1v-14.4c0-.1.1-.2.2-.2h26.2c.1 0 .2.1.2.2v14.4s0 .1-.2.1z" class="st0"/><path id="XMLID_1676_" d="M53.8 4l-23-7.9c-.1 0-.1-.1-.1-.2v-14.3c0-.1.1-.2.3-.2l23 7.9c.1 0 .1.1.1.2V3.8c0 .1-.1.2-.3.2z" class="st0"/><path id="XMLID_1673_" d="M81.4-4l-23 8c-.1 0-.3-.1-.3-.2v-14.3c0-.1.1-.2.1-.2l23-8c.1 0 .3.1.3.2v14.3c0 .1 0 .2-.1.2z" class="st0"/><path id="XMLID_1670_" d="M112-4.1H85.8c-.1 0-.2-.1-.2-.2v-14.4c0-.1.1-.2.2-.2H112c.1 0 .2.1.2.2v14.4c0 .1-.1.2-.2.2z" class="st0"/><path id="XMLID_1667_" d="M26.5 14.8H.3c-.1 0-.2-.1-.2-.2L0 .3C0 .2.1.1.2.1h26.2c.1 0 .2.1.2.2v14.4c.1 0 0 .1-.1.1z" class="st0"/><path id="XMLID_1664_" d="M53.9 22.8l-23-7.9c-.1 0-.1-.1-.1-.2V.4c0-.1.1-.2.3-.2L54 8c.1 0 .1.1.1.2v14.3c0 .2-.1.3-.2.3z" class="st0"/><path id="XMLID_1661_" d="M81.4 14.8l-23 8c-.1 0-.3-.1-.3-.2V8.3c0-.1.1-.2.1-.2l23-8c.1 0 .3.1.3.2v14.3c.1.1 0 .2-.1.2z" class="st0"/><path id="XMLID_1658_" d="M112 14.7H85.8c-.1 0-.2-.1-.2-.2V.1c0-.1.1-.2.2-.2H112c.1 0 .2.1.2.2v14.4c0 .1-.1.2-.2.2z" class="st0"/><path id="XMLID_1655_" d="M26.5 33.6H.3c-.1 0-.2-.1-.2-.2V19c0-.1.1-.2.2-.2h26.2c.1 0 .2.1.2.2v14.4c0 .1-.1.2-.2.2z" class="st0"/><path id="XMLID_1652_" d="M53.9 41.6l-23-7.9c-.1 0-.1-.1-.1-.2V19.2c0-.1.1-.2.3-.2l23 7.9c.1 0 .1.1.1.2v14.3c0 .1-.2.2-.3.2z" class="st0"/><path id="XMLID_1649_" d="M81.4 33.6l-23 8c-.1 0-.3-.1-.3-.2V27.1c0-.1.1-.2.1-.2l23-8c.1 0 .3.1.3.2v14.3c.1.1 0 .2-.1.2z" class="st0"/><path id="XMLID_1646_" d="M112 33.5H85.8c-.1 0-.2-.1-.2-.2V18.9c0-.1.1-.2.2-.2H112c.1 0 .2.1.2.2v14.4c0 .1 0 .2-.2.2z" class="st0"/></svg>