<svg xmlns="http://www.w3.org/2000/svg" viewBox="-423 271.2 112.2 18.8"><style>.st0{fill:#19212d}</style><path id="XMLID_1679_" d="M-396.6 267.2h-26.2c-.1.1-.2 0-.2-.1v-14.4c0-.1.1-.2.2-.2h26.2c.1 0 .2.1.2.2v14.4s0 .1-.2.1z" class="st0"/><path id="XMLID_1676_" d="M-369.2 275.2l-23-7.9c-.1 0-.1-.1-.1-.2v-14.3c0-.1.1-.2.3-.2l23 7.9c.1 0 .1.1.1.2V275c0 .1-.1.2-.3.2z" class="st0"/><path id="XMLID_1673_" d="M-341.6 267.2l-23 8c-.1 0-.3-.1-.3-.2v-14.3c0-.1.1-.2.1-.2l23-8c.1 0 .3.1.3.2V267c0 .1 0 .2-.1.2z" class="st0"/><path id="XMLID_1670_" d="M-311 267.1h-26.2c-.1 0-.2-.1-.2-.2v-14.4c0-.1.1-.2.2-.2h26.2c.1 0 .2.1.2.2v14.4c0 .1-.1.2-.2.2z" class="st0"/><path id="XMLID_1667_" d="M-396.5 286h-26.2c-.1 0-.2-.1-.2-.2l-.1-14.3c0-.1.1-.2.2-.2h26.2c.1 0 .2.1.2.2v14.4c.1 0 0 .1-.1.1z" class="st0"/><path id="XMLID_1664_" d="M-369.1 294l-23-7.9c-.1 0-.1-.1-.1-.2v-14.3c0-.1.1-.2.3-.2l22.9 7.8c.1 0 .1.1.1.2v14.3c0 .2-.1.3-.2.3z" class="st0"/><path id="XMLID_1661_" d="M-341.6 286l-23 8c-.1 0-.3-.1-.3-.2v-14.3c0-.1.1-.2.1-.2l23-8c.1 0 .3.1.3.2v14.3c.1.1 0 .2-.1.2z" class="st0"/><path id="XMLID_1658_" d="M-311 285.9h-26.2c-.1 0-.2-.1-.2-.2v-14.4c0-.1.1-.2.2-.2h26.2c.1 0 .2.1.2.2v14.4c0 .1-.1.2-.2.2z" class="st0"/><path id="XMLID_1655_" d="M-396.5 304.8h-26.2c-.1 0-.2-.1-.2-.2v-14.4c0-.1.1-.2.2-.2h26.2c.1 0 .2.1.2.2v14.4c0 .1-.1.2-.2.2z" class="st0"/><path id="XMLID_1652_" d="M-369.1 312.8l-23-7.9c-.1 0-.1-.1-.1-.2v-14.3c0-.1.1-.2.3-.2l23 7.9c.1 0 .1.1.1.2v14.3c0 .1-.2.2-.3.2z" class="st0"/><path id="XMLID_1649_" d="M-341.6 304.8l-23 8c-.1 0-.3-.1-.3-.2v-14.3c0-.1.1-.2.1-.2l23-8c.1 0 .3.1.3.2v14.3c.1.1 0 .2-.1.2z" class="st0"/><path id="XMLID_1646_" d="M-311 304.7h-26.2c-.1 0-.2-.1-.2-.2v-14.4c0-.1.1-.2.2-.2h26.2c.1 0 .2.1.2.2v14.4c0 .1 0 .2-.2.2z" class="st0"/></svg>