<svg xmlns="http://www.w3.org/2000/svg" viewBox="0 0 793 521.6"><style>.st0{fill:#f4f4f5}</style><path d="M.1 406.6h560.1c8 0 16-.3 23.8-1.9 34.8-7.5 62.9-37.6 68.8-72.7 8.1-48.3 16.7-96.5 24.9-144.8 4.3-25.3-2.2-46.9-23.5-62.7-9.5-7-20.5-9.9-32.2-10.4-4.5-.2-9-.1-13.4-.1H54.9c-3.2 0-6.4.5-9.9-.8 2-12.2 4-24.2 6.1-36.1C55 54.6 58.7 32 62.9 9.5 65-1.6 63.1.3 73.9.3 262.9.3 452 .3 641 .2c30.4 0 58.6 7.6 84.2 24.1 34.1 21.8 54.4 53.3 63.6 92.3 5.6 23.6 5.3 47.4 1.2 71.1-6.3 36.5-12.6 73-19 109.5-3.2 17.9-5.4 35.9-10 53.5-11.4 43.7-34.9 80.1-67.5 110.8-29 27.4-62.9 46.1-101.8 55.3-13.9 3.3-27.9 5-42.2 5-74.5 0-148.9.3-223.4-.3-29.1-.2-58.3-.3-87.4-.4-7 0-13.1-1.7-19.2-4.8-31.5-15.6-63.2-31-94.7-46.5-28.7-14.1-57.3-28.4-85.9-42.4-12-5.9-24.1-11.6-36.2-17.3-.9-.4-1.7-1-2.5-1.6-.2-.8-.1-1.4-.1-1.9z" class="st0"/></svg>