<svg xmlns="http://www.w3.org/2000/svg" viewBox="0 0 114.06 103.58"><defs><style>.cls-1,.cls-2{fill:none;stroke-miterlimit:10;stroke-width:2px;}.cls-1{stroke:#19212d;}.cls-2{stroke:#9fd34a;}</style></defs><title>financial-incentives</title><g id="Layer_2" data-name="Layer 2"><g id="Content"><path class="cls-1" d="M35.36,39c-6.72-8.7-18.87-10.31-20.47-8.3-1.13,1.43,2.43,7.66,4.87,11.89a23.14,23.14,0,0,0-8.08,9.75,19.85,19.85,0,0,1-8.75,1.51c-3.4,0-1.87,9.39,1.25,15.34,2.85,5.43,21.25,16.61,23.7,17v16.35H35.2l4.89-9.77a68.19,68.19,0,0,0,17.09,2.44,58.24,58.24,0,0,0,17-2.24l4.94,9.57h7.33l3.22-18.7c6.05-5.78,9-13.66,9-22.82,0-18.33-21.1-31.75-43.78-31.75-6.09,0-16.44,1.83-23.13,6.06"/><line class="cls-1" x1="18.07" y1="53.73" x2="22.95" y2="53.73"/><path class="cls-1" d="M98.7,61.06l4.45-3a2.64,2.64,0,0,1,4,1.36h0a2.64,2.64,0,0,0,4.37,1l1.86-1.87"/><circle class="cls-2" cx="46.85" cy="53.73" r="7.33"/><path class="cls-2" d="M66.85,80.6h0a7.33,7.33,0,0,1-7.33-7.33h0a7.33,7.33,0,0,1,7.33-7.33h0a7.33,7.33,0,0,1,7.33,7.33h0A7.33,7.33,0,0,1,66.85,80.6Z"/><line class="cls-2" x1="43.42" y1="80.6" x2="70.28" y2="46.4"/><path class="cls-2" d="M43.6,25.42a14.66,14.66,0,1,1,21.84,0"/></g></g></svg>