<svg id="Layer_1" xmlns="http://www.w3.org/2000/svg" viewBox="0 0 110 31.9"><style>.st0{fill:#757a81}</style><g id="Symbols_3_"><g id="Hitachi_1_"><g id="Shape_22_"><path class="st0" d="M84.8-.3v6.1h8s-.1-6.1 0-6.1h3.9v15.1h-3.9V8.2h-8v6.6h-4s.1-15.1 0-15.1h4zM47.4-.3v2.6h-6.1v12.5h-3.9V2.3h-6.1V-.3zM62.7 14.8h-4.4L57 11.6h-7.4l-1.2 3.2H44L51-.3h4.8l6.9 15.1zM53.3 2.3l-2.7 6.8h5.5l-2.8-6.8zM99.8-.3h4v15.1h-4zM11-.3v6.1h7.9V-.3h4v15.1h-4V8.2H11v6.6H7V-.3zM26-.3h4v15.1h-4zM62.6 10.6c-.4-1-.6-2.1-.5-3.2 0-1.5.3-3.1 1.1-4.4.8-1.3 2-2.3 3.4-2.8 3-1.2 6.4-1.1 9.3.3 1.4.6 2.5 1.9 2.8 3.5l.2.9h-4.2c0-.4-.1-.7-.2-1.1-.3-.8-1-1.5-1.9-1.8-.6-.1-1.2-.2-1.7-.3-.7 0-1.3.1-1.9.4-1 .3-1.8 1.2-2.2 2.2-.3 1-.5 2.1-.5 3.1 0 .9.1 1.8.4 2.6.3 1.1 1.1 1.9 2.1 2.4.7.2 1.4.3 2.1.4.6 0 1.2-.1 1.8-.3.8-.2 1.4-.8 1.7-1.6.2-.5.3-1 .3-1.6h4.2c0 .5-.1 1-.2 1.5-.4 1.5-1.4 2.7-2.7 3.3-1.6.7-3.4 1.1-5.1 1.1-1.4 0-2.7-.2-4-.6-2-.6-3.6-2.1-4.3-4zM3.5 19l-3.5.3v.5h.1c1.4.2 1.4.2 1.4 1.2v7.4h2.1v-9.5l-.1.1zM11 21.8c-1 0-2 .6-2.5 1.5v-1.5h-.2l-2.9.4v.5h.1c.9.1 1.1.3 1.1 1.1v4.7h1.7v-3.4c0-.9.9-2.1 1.7-2.1s.9.7.9 1.9v3.6h1.7v-4.7c.3-1.3-.4-2-1.6-2zM17.9 24.4c-.7-.3-1.3-.6-1.3-1.1 0-.5.7-.5.9-.5.6 0 1.2.2 1.7.5l.3.2V22h-.2c-.5-.2-1.1-.3-1.6-.3-1.7 0-2.7.8-2.7 2 0 1.1 1.1 1.6 2 2.1.7.3 1.4.7 1.4 1.2s-.4.8-1.2.8c-.7 0-1.4-.3-1.9-.7l-.2-.1v1.4l.2.1c.6.2 1.3.2 1.9.3 1.8 0 2.9-.8 2.9-2s-1.2-1.9-2.2-2.4zM25.7 21.8c-.7 0-1.4.4-1.9.9v-.9h-.1l-2.8.4v.5h.1c.9.1 1.1.3 1.1 1.1v7.4h1.7v-3.4c.4.6 1.1.9 1.9.8 1.8 0 2.8-1.3 2.8-3.5 0-2.1-1-3.3-2.8-3.3zm-.5 1c1.2 0 1.4 1.3 1.4 2.3 0 1.7-.4 2.5-1.3 2.5-1.2 0-1.4-1.1-1.4-2v-.5c-.1-.7 0-2.3 1.3-2.3zM29.7 22.2v.5h.1c.9.1 1.1.3 1.1 1.1v4.7h1.7v-6.7h-.1l-2.8.4zM31.8 21c.6 0 1.1-.4 1.1-.9 0-.3-.1-.5-.3-.7-.2-.2-.5-.3-.8-.3-.6 0-1.1.4-1.1 1 .1.5.5.9 1.1.9zM40.1 23.3v-1.4l-.1-.1c-.3 0-.5-.1-.8-.1-.8 0-1.5.5-1.8 1.3v-1.3h-.2l-2.8.4v.5h.1c.9.1 1.1.3 1.1 1.1v4.7h1.8V25c0-.5.1-1.9 1.8-1.9.2 0 .4.1.6.1l.3.1zM47.2 24.5c0-1.8-1-2.7-3-2.7-2.2 0-3.3 1.1-3.3 3.2 0 2.3 1.4 3.7 3.9 3.7.7 0 1.5-.2 2.2-.4l.1-.1v-.8l-.1.1c-.5.1-1 .2-1.4.2-1.9 0-2.6-1.6-2.6-3h4.4l-.2-.2zm-3.1-2c.3 0 .7.1.9.4.2.3.4.6.3 1h-2.6c0-.4.1-.7.4-.9s.7-.5 1-.5zM63.4 21.8c-1 0-2 .6-2.5 1.5v-4.5h-.1l-2.8.4v.5h.1c.9.1 1.1.3 1.1 1.1v7.7h1.7v-3.4c0-1.2.9-2.1 1.7-2.1 1 0 1 .8 1 1.4v4.1h1.8v-4.3c0-.7 0-2.4-2-2.4zM73.3 24.5c0-1.8-1-2.7-2.9-2.7-2.2 0-3.4 1.1-3.4 3.2 0 2.3 1.4 3.7 3.9 3.7.7 0 1.5-.2 2.2-.4l.1-.1v-.8H73c-.4.1-.9.2-1.4.2-1.9 0-2.6-1.6-2.7-3h4.4v-.1zm-2.9-2c.9 0 1.2.7 1.2 1.3H69c0-.7.6-1.3 1.4-1.3zM53.4 19.9V22h-1.2v.8h1.2v4c0 1.8 1.1 1.9 2.4 1.9.4 0 .7-.1 1.1-.1h.1v-.8h-.1c-.2.1-.4.1-.5.1-1.1 0-1.1-.3-1.1-1.2v-3.8h2V22h-2v-2.1h-1.9zM88.4 19.1h-1.8v7.1c-.4-.5-4.6-7.1-4.6-7.1h-4.1v.5l.4.1c1.1.2 1.1.3 1.1 1.3v7.5h1.9V21l4.9 7.4h2.4v-9.3h-.2zM96.4 24.5c0-1.8-.9-2.7-2.9-2.7-2.2 0-3.3 1.1-3.3 3.2 0 2.3 1.4 3.7 3.9 3.7.7 0 1.5-.1 2.2-.4l.1-.1v-.8l-.1.1c-.5.1-1 .2-1.4.2-1.9 0-2.6-1.6-2.6-3h4.3l-.2-.2zm-3-2c.9 0 1.2.7 1.2 1.3H92c0-.4.1-.7.4-.9.3-.2.7-.4 1-.4zM106.2 19.9V22H105v.8h1.2v4c0 1.8 1.1 1.9 2.4 1.9.4 0 .7-.1 1.1-.1h.1v-.8h-.1c-.2.1-.4.1-.5.1-1.1 0-1.1-.3-1.1-1.2v-3.8h2V22h-2v-2.1h-1.9zM102.6 24l1.9-2.1h-1.9l-1.7 2-1.6-2h-2.7v.5h.1c.9.1 1.2.3 1.7 1l1.1 1.5-1.9 2.1h1.9l.8-.9 1.7 2.3h2.1l-3.4-4.4h1.9zM106.2 19.9h-1.9l2.3-2.7h1.9z" transform="translate(0 .632)"/></g></g></g></svg>