<svg xmlns="http://www.w3.org/2000/svg" viewBox="0 0 234.2 210.9"><style>.st0,.st1{fill:none;stroke:#19212d;stroke-width:2;stroke-linecap:round;stroke-linejoin:round;stroke-miterlimit:10}.st1{stroke:#9fd34a}</style><path d="M7.2 171.2H16c2.4 0 4.8-1 6.4-2.7l5-5.2m198.6 2.6h-11.1c-2.1 0-3.9-1.7-3.9-3.9v-3.1m-96.1 2.5h-9.4m75.4 0h-9.4" class="st0"/><circle cx="43.8" cy="193.6" r="11.3" class="st0"/><circle cx="173.4" cy="193.6" r="11.3" class="st0"/><circle cx="43.8" cy="193.6" r="16.3" class="st0"/><circle cx="173.4" cy="193.6" r="16.3" class="st0"/><path d="M227.8 173.9l-3.1-13.8c-.6-2.6-2.7-4.5-5.3-5l-23.3-3.9-30.6-18c-3-1.8-6.5-2.7-10-2.7h-52.1c-3.8 0-7.4 1.1-10.6 3.1l-33.9 21.5-36.3 4.7c-6.8.9-12.6 5.2-15.4 11.4l-1.9 4.2-4.3 3.5 1.4 10.3c.9 6.8 6.8 11.9 13.7 11.9h7c-1.5-3.6-2.1-7.7-1.4-12 1.6-9.9 9.8-17.7 19.8-18.6 13.2-1.2 24.4 9.2 24.4 22.1 0 3-.6 5.8-1.7 8.4H153c-1.5-3.6-2.1-7.7-1.4-12 1.6-9.9 9.9-17.7 19.9-18.5 13.2-1.2 24.3 9.2 24.3 22.1 0 3-.6 5.8-1.7 8.4h30.5c2.2 0 4.1-1.5 4.6-3.6l3.8-14.8c.6-2.2-.5-4.6-2.6-5.6-1.3-.4-2.3-1.6-2.6-3.1zm-46.9-20.1H72.1m85.1-19.1H99.7m24.7 19.1v-14.4" class="st0"/><path d="M103 41.8l-.6-2.1c-.4-1.3-1.8-2.1-3.1-1.7l-4.8 1.4c-1.3.4-2.1 1.8-1.7 3.1l.6 2.1c.3 1-.1 2.1-.9 2.7-.6.4-1.1.9-1.7 1.4-.8.7-1.9.8-2.8.3l-1.9-1c-1.2-.7-2.7-.2-3.3 1l-2.4 4.4c-.7 1.2-.2 2.7 1 3.3l1.9 1c.9.5 1.4 1.5 1.3 2.5-.1.7-.2 1.4-.2 2.2-.1 1-.8 1.9-1.8 2.2l-2 .6c-1.3.4-2.1 1.8-1.7 3.1l1.4 4.8c.4 1.3 1.8 2.1 3.1 1.7l2-.6c1-.3 2.1.1 2.7.9" class="st1"/><path d="M89.6 79.5l-1 1.9c-.7 1.2-.2 2.7 1 3.3l4.4 2.4c1.2.7 2.7.2 3.3-1l1-1.9c.5-.9 1.5-1.4 2.5-1.3.7.1 1.4.2 2.1.2 1 .1 1.9.8 2.2 1.8l.6 2.1c.4 1.3 1.8 2.1 3.1 1.7l4.8-1.4c1.3-.4 2.1-1.8 1.7-3.1l-.6-2.1c-.3-1 .1-2.1.9-2.7.6-.4 1.1-.9 1.7-1.4.8-.7 1.9-.8 2.8-.3l1.9 1c1.2.7 2.7.2 3.3-1l2.4-4.4c.7-1.2.2-2.7-1-3.3l-1.9-1c-.9-.5-1.4-1.5-1.3-2.5.1-.7.2-1.4.2-2.1.1-1 .8-1.9 1.8-2.2l2.1-.6c1.3-.4 2.1-1.8 1.7-3.1l-1.4-4.8c-.4-1.3-1.8-2.1-3.1-1.7l-2.1.6c-1 .3-2.1-.1-2.7-.9-.4-.6-.9-1.1-1.3-1.7-.7-.8-.8-1.9-.3-2.8l1-1.9c.7-1.2.2-2.7-1-3.3l-4.4-2.4c-1.2-.7-2.7-.2-3.3 1l-1 1.9c-.5.9-1.5 1.4-2.5 1.3" class="st0"/><circle cx="104.1" cy="63.4" r="8.1" class="st0"/><path d="M147.5 23.4c.7-1.2.2-2.7-1-3.4l-1.5-.8c-1.2-.7-2.7-.2-3.3 1-.5.9-1.5 1.4-2.5 1.3h-.3c-1-.1-1.9-.8-2.2-1.8-.4-1.3-1.8-2.1-3.1-1.7l-1.6.5c-1.3.4-2.1 1.8-1.7 3.1.3 1-.1 2-.9 2.6-.1.1-.2.1-.3.2-.8.6-1.9.8-2.8.3-1.2-.7-2.7-.2-3.3 1l-.8 1.5c-.7 1.2-.2 2.7 1 3.3.9.5 1.4 1.5 1.3 2.5v.3c-.1 1-.8 1.9-1.8 2.2-1.3.4-2.1 1.8-1.7 3.1l.5 1.6c.4 1.3 1.8 2.1 3.1 1.7 1-.3 2 .1 2.6.9.1.1.1.2.2.3.7.8.8 1.9.3 2.8-.7 1.2-.2 2.7 1 3.3l1.5.8c1.2.7 2.7.2 3.3-1 .5-.9 1.5-1.4 2.5-1.3h.3c1 .1 1.9.8 2.2 1.8.4 1.3 1.8 2.1 3.1 1.7l1.6-.5c1.3-.4 2.1-1.8 1.7-3.1" class="st0"/><path d="M146 44.7c.8-.7 1.9-.8 2.8-.3 1.2.7 2.7.2 3.3-1l.8-1.5c.7-1.2.2-2.7-1-3.3-.9-.5-1.4-1.5-1.3-2.5v-.3c.1-1 .8-1.9 1.8-2.2 1.3-.4 2.1-1.8 1.7-3.1l-.5-1.6c-.4-1.3-1.8-2.1-3.1-1.7-1 .3-2-.1-2.6-.9-.1-.1-.1-.2-.2-.3" class="st1"/><circle cx="137.7" cy="34.5" r="5.3" class="st0"/><path d="M151.2 73.2l.6.3c.7.4 1.5.1 1.9-.6l1-1.7c.4-.7.1-1.5-.6-1.9l-.6-.3c-.5-.3-.8-.9-.7-1.4 0-.2.1-.5.1-.7 0-.6.4-1.1 1-1.3l.6-.2c.7-.2 1.2-1 1-1.8l-.6-1.9c-.2-.7-1-1.2-1.8-1l-.6.2c-.6.2-1.2 0-1.5-.5-.1-.2-.3-.4-.5-.6-.4-.4-.5-1.1-.2-1.6l.3-.6c.4-.7.1-1.5-.6-1.9l-1.7-1c-.7-.4-1.5-.1-1.9.6l-.3.6c-.3.5-.9.8-1.4.7-.2 0-.5-.1-.7-.1-.6 0-1.1-.4-1.3-1l-.2-.6c-.2-.7-1-1.2-1.8-1l-1.9.6c-.7.2-1.2 1-1 1.8l.2.6c.2.6 0 1.2-.5 1.5-.2.1-.4.3-.6.5-.4.4-1.1.5-1.6.2l-.6-.3c-.7-.4-1.5-.1-1.9.6l-1 1.7c-.4.7-.1 1.5.6 1.9l.6.3c.5.3.8.9.7 1.4 0 .2-.1.5-.1.7 0 .6-.4 1.1-1 1.3l-.6.2c-.7.2-1.2 1-1 1.8l.6 1.9c.2.7 1 1.2 1.8 1l.6-.2c.6-.2 1.2 0 1.5.5" class="st0"/><path d="M136.3 74.1l-.3.6c-.4.7-.1 1.5.6 1.9l1.7 1c.7.4 1.5.1 1.9-.6l.3-.6c.3-.5.9-.8 1.4-.7.2 0 .5.1.7.1.6 0 1.1.4 1.3 1l.2.6c.2.7 1 1.2 1.8 1l1.9-.6c.7-.2 1.2-1 1-1.8l-.2-.6c-.2-.6 0-1.2.5-1.5" class="st1"/><circle cx="143.3" cy="66.2" r="3.9" class="st0"/><path d="M169.5 53.4c0-29-23.5-52.4-52.4-52.4S64.7 24.4 64.7 53.4c0 26.5 19.6 48.3 45.1 51.9l7.3 13.9 7.3-13.9c25.5-3.6 45.1-25.5 45.1-51.9zM1 178.9h14.3m202.1 0h14.2m-107.2-17.5v31.8" class="st0"/></svg>