<svg id="Layer_1" xmlns="http://www.w3.org/2000/svg" viewBox="0 0 36.9 38.7"><style>.st0{fill:none;stroke:#19212d;stroke-width:1.6;stroke-miterlimit:10}</style><g id="XMLID_15_"><path id="XMLID_22_" class="st0" d="M24.1 34.6c0 1.4-1.4 2.8-3 3.1-1.7.4-3-.5-3-1.9s1.4-2.8 3-3.1c1.6-.3 3 .6 3 1.9z"/><path id="XMLID_21_" class="st0" d="M36.1 30.3c0 1.4-1.4 2.8-3 3.1-1.7.4-3-.5-3-1.9s1.4-2.8 3-3.1c1.7-.3 3 .5 3 1.9z"/><path id="XMLID_20_" class="st0" d="M36.1 30.1V14.6L24 18.9v15.5"/><path id="XMLID_19_" class="st0" d="M36.1 18.9l-12 4.3"/><path id="XMLID_18_" class="st0" d="M34.5 12.9c-.3-1-.8-2-1.3-3-.6-1-.4-2.3.4-3.1l.7-.7c1-1 1-2.6 0-3.7l-.7-.7c-1-1-2.6-1-3.7 0l-.7.7c-.8.8-2.1 1-3.1.4-2.3-1.3-5.1-2-8.1-2s-5.7.7-8.2 2.1c-1 .6-2.3.4-3.1-.4l-.6-.7c-1-1-2.6-1-3.7 0l-.6.6c-1 1-1 2.6 0 3.7l.7.7c.8.8 1 2.1.4 3.1C1.6 12.3.8 15.1.8 18.1s.7 5.7 2.1 8.2c.6 1 .4 2.3-.4 3.1l-.7.6c-1 1-1 2.6 0 3.7l.7.7c1 1 2.6 1 3.7 0l.7-.7c.8-.8 2.1-1 3.1-.4 1.7.9 3.6 1.6 5.6 1.9"/><path id="XMLID_17_" class="st0" d="M18 31c-7.1 0-12.9-5.8-12.9-13S10.9 5.1 18 5.1c5.6 0 10.4 3.6 12.2 8.6"/><path id="XMLID_16_" class="st0" d="M21.5 23c-1 .7-2.2 1.1-3.4 1.1-3.3 0-6-2.7-6-6s2.7-6 6-6c2.4 0 4.5 1.4 5.5 3.4"/></g></svg>