<svg xmlns="http://www.w3.org/2000/svg" viewBox="0 0 19.4 21.28"><defs><style>.cls-1,.cls-2{fill:none;stroke-linejoin:round;stroke-width:0.6px;}.cls-1{stroke:#19212d;}.cls-2{stroke:#9fd34a;}</style></defs><title>Asset 3</title><g id="Layer_2" data-name="Layer 2"><g id="Top_navigation" data-name="Top navigation"><path class="cls-1" d="M5,11.11V9.7a.94.94,0,0,1,.94-.94H18.16a.94.94,0,0,1,.94.94V20a.94.94,0,0,1-.94.94H5.94A.94.94,0,0,1,5,20V19.1"/><path class="cls-1" d="M7.35,8.76V5A4.7,4.7,0,0,1,12.05.3h0A4.69,4.69,0,0,1,16.75,5V8.76"/><path class="cls-2" d="M12.05,13.93H6.25a3,3,0,0,0-2.87-1.89,3,3,0,0,0-3.08,3A3.08,3.08,0,0,0,6,16.75H7.35l.47-.47.47.47H9.7l.47-.47h.94l.47.47h.47"/><line class="cls-2" x1="2.65" y1="14.4" x2="2.65" y2="15.81"/><line class="cls-1" x1="12.05" y1="12.99" x2="12.05" y2="17.69"/></g></g></svg>