<svg id="Layer_1" xmlns="http://www.w3.org/2000/svg" viewBox="0 0 98.9 83.1"><style>.st0,.st1{fill:none;stroke:#19212d;stroke-width:1.5;stroke-miterlimit:10}.st1{stroke:#9fd34a;stroke-linejoin:round}</style><path class="st0" d="M89 6.9L50.4 45.7l-3.3 11.9L59 54.3l38.7-38.8c.8-.8.6-2.5-.6-3.7l-4.3-4.3c-1.3-1.1-2.9-1.4-3.8-.6zM93.1 20.1l-8.6-8.6"/><path class="st0" d="M73.7 15.8v-4.3C73.7 5.6 68.9.8 63 .8H11.5C5.6.8.8 5.6.8 11.5v45.1c0 5.9 4.8 10.7 10.7 10.7h6.4v12.9c0 2.1 2.6 2.9 3.9 1.3l15.5-14.2H63c5.9 0 10.7-4.8 10.7-10.7V48"/><path class="st1" d="M17.9 20.1h38.7M17.9 28.7h38.7M17.9 37.2h21.5"/></svg>