<svg id="Layer_1" xmlns="http://www.w3.org/2000/svg" viewBox="0 0 247.1 264.4"><style>.st0{stroke-linejoin:round}.st0,.st1,.st2{fill:none;stroke:#19212d;stroke-width:2;stroke-miterlimit:10}.st2{stroke:#9fd34a;stroke-linecap:round;stroke-linejoin:round}</style><path class="st0" d="M82.1 107.1h81.8M82.1 131.7h47.5M82.1 156.3h57.3M82.1 168.6h49.7M82.1 119.4h77.2M82.1 180.9h49.7"/><g><path class="st1" d="M169.7 61.7H77.6c-4.8 0-8.8 3.9-8.8 8.8v184.2c0 4.8 3.9 8.8 8.8 8.8h92.1c4.8 0 8.8-3.9 8.8-8.8V70.5c-.1-4.9-4-8.8-8.8-8.8z"/><path class="st0" d="M68.8 237.1h109.6M68.8 83.6h109.6M117 250.2h13.2"/></g><g><path class="st2" d="M18.1 45.7l4.5 9.9 10.4.9c.7.1 1 .9.5 1.4l-7.6 7.5 1.9 9.8c.1.7-.6 1.2-1.1.9l-9.2-4.6-9.3 4.6c-.6.3-1.3-.2-1.1-.9L9 65.4l-7.6-7.6c-.5-.5-.2-1.3.5-1.4l10.4-.9 4.5-9.9c.1-.5 1-.5 1.3.1zM124.3 1.5l4.5 9.9 10.4.9c.7.1 1 .9.5 1.4l-7.6 7.5L134 31c.1.7-.6 1.2-1.1.9l-9.2-4.6-9.3 4.6c-.6.3-1.3-.2-1.1-.9l1.9-9.8-7.6-7.6c-.5-.5-.2-1.3.5-1.4l10.4-.9 4.5-9.9c.1-.6 1-.6 1.3.1zM230.5 45.7l4.5 9.9 10.4.9c.7.1 1 .9.5 1.4l-7.6 7.5 1.9 9.8c.1.7-.6 1.2-1.1.9l-9.2-4.6-9.3 4.6c-.6.3-1.3-.2-1.1-.9l1.9-9.8-7.6-7.6c-.5-.5-.2-1.3.5-1.4l10.4-.9 4.5-9.9c.1-.5 1-.5 1.3.1zM67.9 12.5l4.5 9.9 10.4.9c.7.1 1 .9.5 1.4l-7.6 7.5 1.9 9.8c.1.7-.6 1.2-1.1.9l-9.2-4.6-9.3 4.6c-.6.3-1.3-.2-1.1-.9l1.9-9.8-7.8-7.5c-.5-.5-.2-1.3.5-1.4l10.4-.9 4.5-9.9c.3-.6 1.2-.6 1.5 0zM180.7 12.5l4.5 9.9 10.4.9c.7.1 1 .9.5 1.4l-7.6 7.5 1.9 9.8c.1.7-.6 1.2-1.1.9l-9.2-4.6-9.3 4.6c-.6.3-1.3-.2-1.1-.9l1.9-9.8-7.6-7.6c-.5-.5-.2-1.3.5-1.4l10.4-.9 4.5-9.9c.2-.5 1-.5 1.3.1z"/></g></svg>