<svg id="Layer_1" xmlns="http://www.w3.org/2000/svg" viewBox="0 0 104.9 66"><style>.st0{fill:none;stroke:#19212d;stroke-width:2;stroke-miterlimit:10}.st1{fill:#19212d}.st2{font-family:&apos;Montserrat-SemiBold&apos;}.st3{font-size:6px}.st4{letter-spacing:2}</style><path class="st0" d="M17 17s5.8-12.5 6.9-13.7C24.9 2 26.8 1 28.4 1h48C78.1 1 80 2 81 3.3 82.1 4.5 87.9 17 87.9 17M14.7 30.7l1.2 1.2C18 34 21 35.2 24 35.2h6.7M91.3 30.7l-1.2 1.2C88 34 85 35.2 82 35.2h-6.7M10.1 53.6v9.1c0 1.3 1 2.3 2.3 2.3h16c1.3 0 2.3-1 2.3-2.3v-6.9M94.9 53.6v9.1c0 1.3-1 2.3-2.3 2.3h-16c-1.3 0-2.3-1-2.3-2.3v-6.9M33.2 40.5h39.1v9.8H33.2z"/><path class="st0" d="M51.3 55.9H14.7c-3.8 0-6.9-3.1-6.9-6.9V34.9c0-2.7.8-5.4 2.3-7.6l2.3-3.4-9.1-2.3c-1.3 0-2.3-1-2.3-2.3v-4.6c0-1.3 1-2.3 2.3-2.3h11.4l4.6 6.9 6.9 2.3H78.8l6.9-2.3 4.6-6.9h11.4c1.3 0 2.3 1 2.3 2.3v4.6c0 1.3-1 2.3-2.3 2.3l-9.1 2.3 2.3 3.4c.7 1.1 1.3 2.2 1.7 3.5l.6 4v14.1c0 3.8-3.1 7-6.9 7h-39z"/><text transform="translate(40.027 48.181)" class="st1 st2 st3 st4">REG01</text></svg>