<svg id="Layer_1" xmlns="http://www.w3.org/2000/svg" xmlns:xlink="http://www.w3.org/1999/xlink" viewBox="0 0 61.5 58.5"><style>.st0{clip-path:url(#XMLID_122_);fill:#a0cd4c}</style><g id="XMLID_54_"><defs><path id="XMLID_55_" d="M60.7 22.3c-.1-.5-.5-1-1-1-2.2-.3-4.4-.6-6.6-1l-10.5-1.5-1.8-.3-2.7-5.4-4.8-9.6c-.4-.7-.7-1.5-1.1-2.2-.3-.6-1.2-.9-1.9-.6-.3.1-.6.3-.7.6-1 2-2 4-3.1 6.1L21.7 17c-.3.5-.5 1.1-.8 1.6l-6 .9L4.4 21c-.8.1-1.6.2-2.4.4-.5.1-.9.6-1 1-.1.5 0 1.1.4 1.5 1.4 1.5 3 3.1 4.6 4.6 2.5 2.5 5.1 5 7.6 7.5l1.2 1.2c-.3 1.9-.7 3.8-1 5.7L12 53.4c-.1.8-.3 1.6-.4 2.4-.1.6 0 1.2.5 1.6.5.4 1.1.4 1.7.1 2-1 4-2.1 6-3.1 3.2-1.7 6.3-3.3 9.5-5 .5-.2 1-.5 1.4-.7 1.7.9 3.5 1.8 5.2 2.7 3.2 1.7 6.3 3.3 9.5 5 .7.4 1.4.8 2.2 1.1.5.3 1.2.3 1.7-.1s.6-1 .5-1.6c-.4-2.2-.8-4.4-1.1-6.6l-1.8-10.5-.3-1.5c1.4-1.4 2.8-2.8 4.3-4.2 2.6-2.5 5.1-5 7.7-7.5.6-.6 1.2-1.2 1.8-1.7.3-.4.4-.9.3-1.5z"/></defs><clipPath id="XMLID_122_"><use xlink:href="#XMLID_55_" overflow="visible"/></clipPath><path id="XMLID_56_" class="st0" d="M-23.2 31.8h108v37.7h-108z"/><use xlink:href="#XMLID_55_" overflow="visible" fill="none" stroke="#d8d5d3" stroke-miterlimit="10"/></g></svg>