<svg id="Layer_1" xmlns="http://www.w3.org/2000/svg" viewBox="-466 267.5 27 27.5"><style>.st0{fill:#fff}.st1{fill:#9fd34a}</style><title>Auctions</title><g id="Layer_2"><g id="Artwork"><path class="st0" d="M-446.4 295h-12.3c-.8 0-1.5-.7-1.5-1.5v-24.6c0-.8.7-1.5 1.5-1.5h12.3c.8 0 1.5.7 1.5 1.5v24.6c0 .8-.6 1.5-1.5 1.5zm-12.3-27c-.5 0-.9.4-.9.9v24.6c0 .5.4.9.9.9h12.3c.5 0 .9-.4.9-.9v-24.6c0-.5-.4-.9-.9-.9h-12.3z"/><path class="st0" d="M-459.8 290.9h14.6v.6h-14.6zM-459.8 270.4h14.6v.6h-14.6zM-453.4 292.7h1.8v.6h-1.8z"/><path class="st1" d="M-457.2 283.6h.6v5.3h-.6zM-454.3 279.5h.6v9.4h-.6zM-451.3 285.3h.6v3.5h-.6zM-448.4 281.8h.6v7h-.6z"/><path class="st0" d="M-442.6 285.3h.6v3.5h-.6zM-439.6 280.6h.6v8.2h-.6zM-466 285.3h.6v3.5h-.6zM-463.1 279.5h.6v9.4h-.6z"/></g></g></svg>