<svg xmlns="http://www.w3.org/2000/svg" viewBox="-438 221.7 82.3 119.3"><style>.st0{fill:#f4f4f5}.st1,.st2,.st3{fill:none;stroke:#8c9096;stroke-width:2.05;stroke-linecap:round;stroke-linejoin:round}.st2,.st3{stroke:#19212d}.st3{stroke:#9fd34a}</style><title>5</title><path d="M-435.6 226.7h77.5c.8 0 1.4.6 1.4 1.4v110.5c0 .8-.6 1.4-1.4 1.4h-77.5c-.8 0-1.4-.6-1.4-1.4V228.1c0-.8.6-1.4 1.4-1.4z" class="st0"/><path d="M-359.4 226.7h-19.8v9.3h13.7v94.8h-62.8V236h13.7v-9.4h-19.8c-1.5 0-2.7 1.2-2.7 2.6v108c0 1.5 1.2 2.7 2.7 2.7h75c1.5 0 2.7-1.2 2.7-2.7V229.4c0-1.5-1.2-2.7-2.7-2.7.1 0 0 0 0 0z" class="st1"/><path d="M-416.4 247.2h10.5c2.2 0 4 1.8 4 4v10.5c0 2.2-1.8 4-4 4h-10.5c-2.2 0-4-1.8-4-4v-10.5c0-2.2 1.8-4 4-4zm40 11.9h-20.3m24.7-5.2h-24.7" class="st2"/><path d="M-405.7 253.9l-6.5 6.5-3.6-3.6" class="st3"/><path d="M-416.4 274.1h10.5c2.2 0 4 1.8 4 4v10.5c0 2.2-1.8 4-4 4h-10.5c-2.2 0-4-1.8-4-4v-10.5c0-2.2 1.8-4 4-4zm40 12h-20.3m24.7-5.9h-24.7" class="st2"/><path d="M-405.7 280.2l-6.5 6.4-3.6-3.5" class="st3"/><path d="M-416.4 301.1h10.5c2.2 0 4 1.8 4 4v10.5c0 2.2-1.8 4-4 4h-10.5c-2.2 0-4-1.8-4-4v-10.5c0-2.2 1.8-4 4-4zm40 11.9h-20.3m24.7-5.9h-24.7" class="st2"/><path d="M-405.7 307.1l-6.5 6.5-3.6-3.5" class="st3"/><path d="M-410.5 222.7h27.4c2.2 0 4 1.8 4 4v9.3c0 2.2-1.8 4-4 4h-27.4c-2.2 0-4-1.8-4-4v-9.3c0-2.2 1.8-4 4-4z" class="st2"/></svg>