<svg id="Layer_1" xmlns="http://www.w3.org/2000/svg" viewBox="0 0 27 27.6"><style>.st0{fill:#fff}.st1{fill:#a0cd4c}</style><path id="XMLID_39_" class="st0" d="M19.6 27.6H7.3c-.8 0-1.5-.7-1.5-1.5V1.5C5.9.7 6.5 0 7.3 0h12.3c.8 0 1.5.7 1.5 1.5v24.6c0 .8-.7 1.5-1.5 1.5zM7.3.6c-.4 0-.8.4-.8.9v24.6c0 .5.4.9.9.9h12.3c.5 0 .9-.4.9-.9V1.5c0-.5-.4-.9-.9-.9H7.3z"/><path id="XMLID_38_" class="st0" d="M6.2 23.4h14.6v.6H6.2z"/><path id="XMLID_37_" class="st0" d="M6.2 2.9h14.6v.6H6.2z"/><path id="XMLID_36_" class="st0" d="M12.6 25.2h1.8v.6h-1.8z"/><path id="XMLID_35_" class="st1" d="M8.8 16.1h.6v5.3h-.6z"/><path id="XMLID_34_" class="st1" d="M11.7 12h.6v9.4h-.6z"/><path id="XMLID_33_" class="st1" d="M14.6 17.9h.6v3.5h-.6z"/><path id="XMLID_32_" class="st1" d="M17.6 14.4h.6v7h-.6z"/><path id="XMLID_31_" class="st0" d="M23.4 17.9h.6v3.5h-.6z"/><path id="XMLID_30_" class="st0" d="M26.4 13.2h.6v8.2h-.6z"/><path id="XMLID_29_" class="st0" d="M0 17.9h.6v3.5H0z"/><path id="XMLID_28_" class="st0" d="M2.9 12h.6v9.4h-.6z"/></svg>