<svg id="Layer_1" xmlns="http://www.w3.org/2000/svg" viewBox="0 0 40.1 30.7"><style>.st0{fill:none;stroke:#19212d;stroke-width:.8;stroke-linecap:round;stroke-linejoin:round;stroke-miterlimit:10}.st1{fill:#19212d}.st2{font-family:&apos;Montserrat-Regular&apos;}.st3{font-size:8.3683px}</style><path class="st0" d="M20.1 14.1h7.7M7.2 17c-1-.6-1.7-1.7-1.7-3 0-1.9 1.5-3.4 3.4-3.4s3.4 1.5 3.4 3.4c0 1.3-.7 2.4-1.7 3"/><circle class="st0" cx="31.2" cy="14.1" r="3.4"/><path class="st0" d="M14.1 14.1h2.5l8.6 8.5-7.7 7.7-8.6-8.5v-7.7h1.8M34.6 14.1h5.1V9.8c0-2-2.9-3.8-11.1-5.1C25.3 1.5 22.3.4 19.1.4H14c-3.3 0-7.9 3.2-9.4 4.3H2c-.5 0-.8.4-.8.9V9l-.9 1.7v1.7c0 .9.8 1.7 1.7 1.7h3.4"/><path class="st0" d="M26.1 5.7l-1.7.7H8.1l-.9-.9"/><text transform="rotate(41.071 -21.507 25.741)" class="st1 st2 st3">£</text></svg>