<svg id="Layer_1" xmlns="http://www.w3.org/2000/svg" viewBox="0 0 118.6 90.7"><style>.st0{fill:none;stroke:#19212d;stroke-width:2;stroke-linejoin:round;stroke-miterlimit:10}.st1{fill:#19212d}.st2{font-family:&apos;Montserrat-Light&apos;}.st3{font-size:24.8116px}</style><path class="st0" d="M59.3 41.6h22.8M21.3 50.3c-3-1.8-5.1-5-5.1-8.8 0-5.6 4.5-10.1 10.1-10.1s10.1 4.5 10.1 10.1c0 3.8-2 7-5.1 8.8"/><ellipse class="st0" cx="92.2" cy="41.6" rx="10.1" ry="10.1"/><path class="st0" d="M41.6 41.6h7.6l25.3 25.3-22.8 22.8-25.4-25.3V41.6h5.1M102.4 41.6h15.2V28.9c0-5.9-8.7-11.4-32.8-15.2C74.9 4.3 66.2 1 56.6 1h-15C31.7 1 18 10.5 13.7 13.7H6.1c-1.4 0-2.5 1.1-2.5 2.5v10.1L1 31.4v5.1c0 2.8 2.3 5.1 5.1 5.1h10.1"/><path class="st0" d="M77.3 16.7l-5.1 2H23.8l-2.5-2.5"/><text transform="rotate(41.071 -64.348 77.988)" class="st1 st2 st3">£</text></svg>