<svg id="Layer_1" xmlns="http://www.w3.org/2000/svg" xmlns:xlink="http://www.w3.org/1999/xlink" viewBox="0 0 226.8 226.9"><style>.st0{clip-path:url(#SVGID_2_)}.st1,.st2{fill:none;stroke:#9fd34a;stroke-width:2;stroke-linecap:round;stroke-linejoin:round;stroke-miterlimit:10}.st2{stroke:#19212d}</style><defs><circle id="SVGID_1_" cx="81.2" cy="81.2" r="70.5"/></defs><clipPath id="SVGID_2_"><use xlink:href="#SVGID_1_" overflow="visible"/></clipPath><g class="st0"><circle class="st1" cx="8.7" cy="110.2" r="5.6"/><circle class="st1" cx="114.3" cy="110.2" r="5.6"/><path class="st1" d="M110.9 97.1c10.1-2.4 18.9 6.4 16.5 16.5-1.1 4.7-5 8.6-9.8 9.8-10.1 2.4-18.9-6.4-16.5-16.5 1.2-4.8 5.1-8.7 9.8-9.8zM5.3 97c10.1-2.4 18.9 6.4 16.5 16.5-1.1 4.7-5 8.6-9.8 9.8-10 2.4-18.9-6.4-16.4-16.5 1.1-4.7 5-8.6 9.7-9.8z"/><path class="st1" d="M-42.4 93.5v-37h10.6v8.6h2.3l14.2-23.3h85.4l31.2 25 35.4 4.6c2.4.3 4.4 2 5.1 4.4l3.5 11.5c.3 1.2 1 2.2 2 3 1.7 1.4 2.5 3.5 2.2 5.7l-1.8 11.5c-.5 3-3.1 5.3-6.1 5.3h-7.8c.9-4.1.6-8.7-2-13.5-2.7-5-7.4-8.8-12.9-10-13-2.9-24.4 6.9-24.4 19.4 0 1.4.2 2.8.4 4.1H28.2c.8-3.8.6-7.9-1.3-12.3-2.4-5.4-7.2-9.6-12.9-11.1C.7 86-11.2 95.9-11.2 108.6c0 1.4.2 2.8.4 4.1h-16.9l-4.1-19.5-10.6.3z"/><path class="st1" d="M35.2 47.1v19.4h45.3M-15.9 66.4l43.1.1V47.1M-31.7 56.5l-.1 29.2M144.4 84.3h-11.5v-8.2M35.2 79.8h11.3M-15.9 79.8h11.4M-18.3 104.6h-11.1M88.5 104.6H28.1M140.9 104.6h-7.2"/></g><circle class="st2" cx="81.2" cy="81.2" r="80.2"/><path class="st2" d="M165.4 153.8L143.6 132M132 143.7l21.8 21.7M157.7 157.8c-5.1 5.1-5.1 13.5 0 18.6l45.6 45.6c5.1 5.1 13.5 5.1 18.6 0 5.1-5.1 5.1-13.5 0-18.6l-45.6-45.6c-5.1-5.2-13.4-5.2-18.6 0z"/><circle class="st2" cx="81.2" cy="81.2" r="70.5"/><path class="st2" d="M48.2 128.2c9.3 6.6 20.7 10.4 32.9 10.4M170.2 161.4l47.4 47.5"/></svg>