<svg id="Layer_1" xmlns="http://www.w3.org/2000/svg" viewBox="0 0 255.5 205.3"><style>.st0,.st1{fill:none;stroke:#19212d;stroke-width:2;stroke-linecap:round;stroke-linejoin:round;stroke-miterlimit:10}.st1{stroke:#9fd34a}</style><path class="st0" d="M95 185.4v7.4H83.1v-7.4M194.9 166.5v5.3c0 2.9-2.4 5.3-5.3 5.3s-5.3-2.4-5.3-5.3v-5.3"/><path class="st0" d="M192.4 176.3l2.5 18.8-4.8 7.8h-.9l-4.9-7.8 2.5-18.7M11.8 1h132.9c5.9 0 10.8 4.8 10.8 10.8v61c0 5.9-4.8 10.8-10.8 10.8h-44.1l-17.8 18.7c-2.2 2.3-6.2.8-6.2-2.5V83.5H11.8C5.8 83.5 1 78.7 1 72.7v-61C1 5.8 5.8 1 11.8 1z"/><path class="st0" d="M119.5 83.5v4.7c0 5.9 4.8 10.8 10.8 10.8h7.9l25.4 20.4c2.3 1.9 5.8.2 5.8-2.8V99h74.3c5.9 0 10.8-4.8 10.8-10.8v-61c0-5.9-4.8-10.8-10.8-10.8h-88.4"/><ellipse transform="rotate(34.3 208.148 57.434)" class="st1" cx="208.1" cy="57.4" rx="25.7" ry="25.7"/><path class="st1" d="M208.3 44.2l-4.2 6M220.4 52.4l-4.1 6.1M211.4 70.7c-4.3 1.2-8.5.9-11.9-1.4-3.4-2.3-5.3-6.1-5.7-10.5"/><g><ellipse transform="rotate(-41.976 45.205 41.903)" class="st1" cx="45.2" cy="41.9" rx="24.9" ry="24.9"/><path class="st1" d="M32.8 38.7l4.7 5.3M43.3 29.2l4.8 5.3M58.5 41.9c.2 4.3-1.2 8.2-4.1 10.8-2.9 2.6-7 3.6-11.2 2.9"/></g><g><path class="st0" d="M106.6 204.3v-20.7c0-11.3-20-17.1-30.7-17.1s-30.7 5.8-30.7 17.1v20.7M75.9 156.6c-9.4 0-17-7.7-17-17v-3.4c0-9.4 7.7-17 17-17 9.4 0 17 7.7 17 17v3.4c0 9.3-7.6 17-17 17z"/></g><g><path class="st0" d="M219.5 204.3v-20.7c0-11.3-20-17.1-30.7-17.1s-30.7 5.8-30.7 17.1v20.7M188.8 156.6c-9.4 0-17-7.7-17-17v-3.4c0-9.4 7.7-17 17-17 9.4 0 17 7.7 17 17v3.4c0 9.3-7.6 17-17 17z"/></g><g><path class="st0" d="M85.1 27.7h48.7M85.1 41.4h48.7M85.1 55h32.5"/></g></svg>