<svg id="Layer_1" xmlns="http://www.w3.org/2000/svg" viewBox="0 0 48.5 87.6"><style>.st0{fill:#9fd34a}.st1{fill:#fff}</style><path id="XMLID_9_" class="st0" d="M6.7 49.6h34.7v2H6.7z"/><path id="XMLID_8_" class="st0" d="M6.7 54.8h34.8v2H6.7z"/><g><path id="XMLID_5_" class="st1" d="M43.8 87.6H4.7c-2.6 0-4.7-2.1-4.7-4.7V4.7C0 2.1 2.1 0 4.7 0h39.1c1.3 0 2.4.5 3.3 1.4.9.9 1.4 2.1 1.4 3.3v78.2c0 2.6-2.1 4.7-4.7 4.7zM4.7 2C3.2 2 2 3.2 2 4.7v78.2c0 1.5 1.2 2.7 2.7 2.7h39.1c1.5 0 2.7-1.2 2.7-2.7V4.7A2.732 2.732 0 0 0 43.8 2H4.7z"/><path id="XMLID_4_" class="st1" d="M1 74.4h46.5v2H1z"/><path id="XMLID_3_" class="st1" d="M1 9.3h46.5v2H1z"/><path id="XMLID_2_" class="st1" d="M21.5 80h5.6v2h-5.6z"/></g></svg>