<svg xmlns="http://www.w3.org/2000/svg" viewBox="0 0 83.25 83.25"><defs><style>.cls-1,.cls-2{fill:none;stroke-miterlimit:10;}.cls-1{stroke:#19212d;}.cls-2{stroke:#9fd34a;}</style></defs><title>Asset 2</title><g id="Layer_2" data-name="Layer 2"><g id="Artwork"><path class="cls-1" d="M82.61,32.3,77.19,19.23l-8,2.65A33.79,33.79,0,0,0,61.36,14l2.65-8L50.94.64l-3.75,7.5a33.8,33.8,0,0,0-11.13,0L32.3.64,19.23,6.05l2.65,8A33.79,33.79,0,0,0,14,21.88l-8-2.65L.64,32.3l7.5,3.76a33.8,33.8,0,0,0,0,11.13L.64,50.94,6.05,64l8-2.64a33.75,33.75,0,0,0,7.87,7.86l-2.65,8L32.3,82.61l3.76-7.51a33.53,33.53,0,0,0,11.13,0l3.75,7.5L64,77.19l-2.64-8a34,34,0,0,0,7.86-7.88l8,2.65,5.42-13.07L75.1,47.19a33.53,33.53,0,0,0,0-11.13Z"/><circle class="cls-2" cx="42.14" cy="42.14" r="13.49"/></g></g></svg>