<svg id="Layer_1" xmlns="http://www.w3.org/2000/svg" viewBox="0 0 37.1 41.9"><style>.st0{fill:none;stroke:#19212d;stroke-width:1.6;stroke-miterlimit:10}</style><g id="XMLID_15_"><path id="XMLID_33_" class="st0" d="M18.6 16.4V0"/><path id="XMLID_32_" class="st0" d="M15.9 4.6l2.7 1.8 2.8-1.8"/><path id="XMLID_31_" class="st0" d="M14.1 8.2l4.5 3.6 4.6-3.6"/><path id="XMLID_30_" class="st0" d="M14.7 18.6L.4 10.4"/><path id="XMLID_29_" class="st0" d="M3.1 15L6 13.6l-.2-3.3"/><path id="XMLID_28_" class="st0" d="M5.3 18.4l5.4-2-.8-5.8"/><path id="XMLID_27_" class="st0" d="M14.6 23.2L.4 31.4"/><path id="XMLID_26_" class="st0" d="M5.7 31.4l.2-3.2L3 26.7"/><path id="XMLID_25_" class="st0" d="M9.8 31.2l.9-5.7-5.5-2.2"/><path id="XMLID_24_" class="st0" d="M18.6 25.5v16.4"/><path id="XMLID_23_" class="st0" d="M21.2 37.4l-2.7-1.9-2.8 1.9"/><path id="XMLID_22_" class="st0" d="M23 33.7l-4.5-3.6-4.6 3.6"/><path id="XMLID_21_" class="st0" d="M22.5 23.3l14.2 8.2"/><path id="XMLID_20_" class="st0" d="M34.1 26.9l-2.9 1.4.2 3.3"/><path id="XMLID_19_" class="st0" d="M31.9 23.5l-5.5 2.1.9 5.8"/><path id="XMLID_18_" class="st0" d="M22.5 18.7l14.2-8.2"/><path id="XMLID_17_" class="st0" d="M31.5 10.5l-.3 3.2 3 1.5"/><path id="XMLID_16_" class="st0" d="M27.4 10.7l-.9 5.7 5.4 2.2"/></g></svg>