<svg id="Layer_1" xmlns="http://www.w3.org/2000/svg" viewBox="0 0 19.3 20.1"><style>.st0{fill:#a0cd4c}.st1{fill:#fff}</style><path id="XMLID_38_" class="st0" d="M1.9 16.1c-1 0-1.9-.8-1.9-1.9s.8-1.9 1.9-1.9 1.9.8 1.9 1.9-.9 1.9-1.9 1.9zm0-3.1c-.7 0-1.3.6-1.3 1.3s.6 1.3 1.3 1.3c.7 0 1.3-.6 1.3-1.3S2.5 13 1.9 13z"/><path id="XMLID_35_" class="st0" d="M6.3 20.1c-1 0-1.9-.8-1.9-1.9s.8-1.9 1.9-1.9 1.9.8 1.9 1.9-.9 1.9-1.9 1.9zm0-3.1c-.7 0-1.3.6-1.3 1.3s.6 1.3 1.3 1.3 1.3-.6 1.3-1.3S7 17 6.3 17z"/><path id="XMLID_34_" transform="rotate(39.122 4.075 16.29)" class="st0" d="M3.8 11.7h.6v9.2h-.6z"/><path id="XMLID_33_" class="st1" d="M8.7 19.5H10v.6H8.7z"/><path id="XMLID_32_" class="st1" d="M5.9 11.8h-.6V4.4h4.8V5H5.9z"/><path id="XMLID_29_" class="st1" d="M14.8 20.1h-5V0h5v20.1zm-4.4-.6h3.8V.6h-3.8v18.9z"/><path id="XMLID_28_" class="st1" d="M19.3 20.1h-4.8v-.6h4.2V9.9h-4.2v-.6h4.8z"/></svg>