<svg id="Layer_1" xmlns="http://www.w3.org/2000/svg" viewBox="0 0 126.4 91"><style>.st0{stroke:#19212d}.st0,.st1,.st2{fill:none;stroke-width:2;stroke-linecap:round;stroke-linejoin:round;stroke-miterlimit:10}.st1{stroke-dasharray:0,4;stroke:#19212d}.st2{stroke:#9fd34a}.st3{fill:#9fd34a}</style><path class="st0" d="M82.8 25.5L42.3 42.2M84.4 29.4L43.9 46.1M72.3 39L45.5 50"/><path class="st1" d="M53.2 66l17.9-7.4M90.6 11.1l16.3 39.6"/><path class="st2" d="M51.3 61.6l2.8-8.1s-1.8 4.7 1 4.3c2.8-.5 5.2-4.6 5.2-3.4 0 1.3 5 3.7 7.6-1.9"/><path class="st0" d="M92.4 6.8l-1.8 4.3-4.2-1.8L1 44.4 19.8 90l85.3-35.1 1.8-4.2 4.3 1.8 14.2-5.9L106.6 1z"/><path class="st3" d="M30.2 70.3l9.8-4.1.8 1.9-15 6.3-.8-1.9 2.9-1.2-3.7-8.9-2.9 1.2-.6-1.3 2.9-1.2-1.8-4.1c-.9-2.2-1.1-4.1-.5-5.8.6-1.6 1.9-2.9 4-3.8 1.2-.5 2.4-.7 3.7-.6 1.3.1 2.5.5 3.7 1.1l-.3 2.1c-1.1-.6-2.1-1-3.1-1.1-1-.1-2 0-2.9.4-1.4.6-2.3 1.4-2.6 2.6-.4 1.1-.2 2.5.4 4.1l1.7 4.1 6.1-2.6.6 1.3-6.1 2.6 3.7 8.9z"/></svg>