<svg id="Layer_1" xmlns="http://www.w3.org/2000/svg" viewBox="0 0 102.8 76.4"><style>.st0,.st1{fill:none;stroke:#19212d;stroke-width:1.6;stroke-linecap:round;stroke-linejoin:round;stroke-miterlimit:10}.st1{stroke:#9bcb4c;stroke-width:1.9097}</style><path class="st0" d="M42.5 49.1H14c-3.6 0-6.6-2.9-6.6-6.6v-11c0-1.1.1-2.4.4-2.7l2.3-3.4c.8-1.3.2-3-1.3-3.3L3 20.6c-1.2 0-2.2-1-2.2-2.2V14c0-1.2 1-2.2 2.2-2.2h9.8c.7 0 1.4.4 1.8 1l2.9 4.4c.4.6 4.7 3.4 7.4 3.4h19.8"/><path class="st0" d="M73 15.5s-3.3-8.4-3.9-9.8c-.9-2-2.6-2.6-4.8-3.1C59.9 1.7 54.5.8 44.8.8s-15.2.9-19.6 1.8c-2.2.5-4 1.1-4.8 3.1-.6 1.4-3.9 9.8-3.9 9.8M14 29.3c2.8 2.8 6.6 4.4 10.6 4.4h4.8M9.6 46.9v8.8c0 1.2 1 2.2 2.2 2.2h15.4c1.2 0 2.2-1 2.2-2.2v-6.6M44.7 40.3H29.3"/><path class="st0" d="M82 31.5c0-1.1-.1-2.4-.4-2.7l-2.3-3.4c-.8-1.3-.2-3 1.3-3.3l5.8-1.4c1.2 0 2.2-1 2.2-2.2V14c0-1.2-1-2.2-2.2-2.2h-9.8c-.7 0-1.4.4-1.8 1l-2.9 4.4c-.4.6-4.7 3.4-7.4 3.4H44.7"/><path class="st0" d="M75.5 29.3c-2.8 2.8-6.6 4.4-10.6 4.4h-4.8M44.7 40.3h15.4"/><path class="st1" d="M93 29.3L64.5 57.6l-11-11-8.8 8.8 19.4 20.1 37.7-37.4z"/></svg>