<svg xmlns="http://www.w3.org/2000/svg" viewBox="0 0 118.01 87.48"><defs><style>.cls-1,.cls-2{fill:none;stroke-linejoin:round;}.cls-1{stroke:#9fd34a;}.cls-2{stroke:#19212d;}</style></defs><title>Asset 5</title><g id="Layer_2" data-name="Layer 2"><g id="Artwork"><path class="cls-1" d="M47.45,23.22l4.83,10.59,11.07,1a.85.85,0,0,1,.52,1.46l-8.13,8.06,2,10.5a.86.86,0,0,1-1.23.93l-9.88-5-9.88,4.93a.86.86,0,0,1-1.22-.94l2-10.45-8.13-8.07A.86.86,0,0,1,30,34.8l11.07-1,4.82-10.59A.86.86,0,0,1,47.45,23.22Z"/><path class="cls-2" d="M56.26,30l4-8.77a.71.71,0,0,1,1.29,0l4,8.77,9.17.82A.71.71,0,0,1,75.16,32l-6.74,6.68,1.69,8.71a.71.71,0,0,1-1,.76l-8.18-4.11"/><path class="cls-2" d="M68.12,26.44l4-8.77a.71.71,0,0,1,1.29,0l4,8.77,9.17.82A.71.71,0,0,1,87,28.47l-6.74,6.68L82,43.86a.71.71,0,0,1-1,.77l-8.19-4.11"/><path class="cls-2" d="M109.87,87H8.13A7.63,7.63,0,0,1,.5,79.35V74.26H46.28l2.55,2.55H69.18l2.54-2.55h45.79v5.09A7.63,7.63,0,0,1,109.87,87Z"/><path class="cls-2" d="M8.13,74.26V5.59A5.09,5.09,0,0,1,13.22.5h91.57a5.08,5.08,0,0,1,5.08,5.09V74.26"/></g></g></svg>