<svg id="Layer_1" xmlns="http://www.w3.org/2000/svg" viewBox="0 0 27.2 27"><style>.st0{fill:#f8b63d}</style><path class="st0" d="M13.6 0l-.4 1.4h-1.5l1.2.8-.4 1.3 1.1-.8 1.2.8-.5-1.3 1.2-.8H14zM14 24.8l-.4-1.3-.4 1.3h-1.5l1.2.9-.4 1.3 1.1-.8 1.2.8-.5-1.3 1.2-.9zM1.9 14.5l1.1.8-.4-1.4 1.1-.8H2.3l-.4-1.4-.5 1.4H0l1.2.8-.5 1.4zM7 3.8l-.4 1.3 1.1-.8 1.2.8-.5-1.3 1.2-.9H8.2l-.5-1.3-.4 1.3H5.9zM3.4 5.9L3 7.2H1.6l1.1.9-.4 1.3 1.1-.8 1.2.8-.5-1.3 1.2-.9H3.9zM3.9 19l-.5-1.4L3 19H1.6l1.1.8-.4 1.4 1.1-.9 1.2.9-.5-1.4 1.2-.8zM8.2 23.3l-.5-1.4-.4 1.4H5.9l1.1.8-.4 1.4 1.1-.9 1.2.9-.5-1.4 1.2-.8zM27.2 13.1h-1.4l-.4-1.4-.5 1.4h-1.4l1.1.8-.4 1.4 1.2-.8 1.1.8-.4-1.4zM19.5 1.6L19 2.9h-1.4l1.2.9-.5 1.3 1.2-.8 1.1.8-.4-1.3 1.1-.9h-1.4zM23.1 8.1l-.5 1.3 1.2-.8 1.1.8-.4-1.3 1.1-.9h-1.4l-.4-1.3-.5 1.3h-1.4zM24.2 19l-.4-1.4-.5 1.4h-1.4l1.2.8-.5 1.4 1.2-.9 1.1.9-.4-1.4 1.1-.8zM19.9 23.3l-.4-1.4-.5 1.4h-1.4l1.2.8-.5 1.4 1.2-.9 1.1.9-.4-1.4 1.1-.8z"/></svg>