<svg id="Layer_1" xmlns="http://www.w3.org/2000/svg" viewBox="0 0 45.2 43.6"><style>.st0{fill:#19212d}</style><path id="XMLID_37_" class="st0" d="M28.5 38.5h-.2l-7.1-3c-.1 0-.1-.1-.2-.1L1.8 16.1c-.2-.2-.2-.5 0-.7l4.1-4.1c.2-.2.5-.2.7 0l19.3 19.3s.1.1.1.2l3 7.1c.1.2 0 .4-.1.6h-.4zm-6.8-3.9l5.9 2.5-2.6-5.9L6.2 12.4l-3.3 3.3 18.8 18.9z"/><path id="XMLID_36_" class="st0" d="M1.8 15.1l-1-1c-1-1-1-2.7 0-3.7s2.7-1 3.7 0l1 1-.7.6-1-1c-.6-.6-1.7-.6-2.3 0-.6.6-.6 1.7 0 2.3l1 1-.7.8z"/><path id="XMLID_35_" transform="rotate(45.001 22.933 32.443)" class="st0" d="M22.4 30.3h1v4.3h-1z"/><path id="XMLID_34_" class="st0" d="M42.7 43.6H14.3c-1.4 0-2.5-1.1-2.5-2.5V29.9h1v11.2c0 .8.7 1.5 1.5 1.5h28.4c.8 0 1.5-.7 1.5-1.5V8.8L36.4 1H14.3c-.8 0-1.5.7-1.5 1.5v11.2h-1V2.5c0-1.4 1.1-2.5 2.5-2.5h22.5l8.4 8.4v32.7c0 1.4-1.1 2.5-2.5 2.5z"/><path id="XMLID_33_" class="st0" d="M41.7 10.1h-6.6V3.5h1v5.6h5.6z"/><path id="XMLID_32_" class="st0" d="M31.6 37.5h8.1v1h-8.1z"/><path id="XMLID_31_" class="st0" d="M19.4 15.2h19.3v1H19.4z"/><path id="XMLID_30_" class="st0" d="M19.4 19.3h19.3v1H19.4z"/><path id="XMLID_29_" class="st0" d="M23.4 23.3h15.2v1H23.4z"/><path id="XMLID_28_" class="st0" d="M27.5 27.4h11.2v1H27.5z"/></svg>