<svg id="Layer_1" xmlns="http://www.w3.org/2000/svg" viewBox="0 0 74.5 33.4"><style>.st0{fill:none;stroke:#fff;stroke-linecap:round;stroke-linejoin:round}.st0,.st1,.st2,.st3{stroke-width:1.5;stroke-miterlimit:10}.st1{fill:none;stroke:#fff}.st2,.st3{stroke:#9fd34a}.st2{stroke-linecap:round;stroke-linejoin:round;fill:none}.st3{fill:#9fd34a}</style><path class="st0" d="M23.4.7h48.8c.8 0 1.5.7 1.5 1.5v28.9c0 .8-.7 1.5-1.5 1.5H33.6M15 6.1h15.7M7.9 11.4h15.6M7.9 16.7h15.6M.7 22h15.7M7.9 27.4h15.6"/><circle class="st2" cx="48.5" cy="16.7" r="9.9"/><path class="st3" d="M47.8 19.4h2.7v.5h-4.2v-.5h.8v-2.5h-.8v-.4h.8v-1.2c0-.6.2-1.1.5-1.4.3-.3.7-.5 1.3-.5.3 0 .6.1.9.2.3.2.6.4.8.6l-.3.5c-.2-.3-.4-.4-.6-.6s-.5-.2-.7-.2c-.4 0-.7.1-.9.3-.2.2-.3.6-.3 1v1.1h1.7v.4h-1.7v2.7z"/></svg>