<svg id="Layer_1" xmlns="http://www.w3.org/2000/svg" viewBox="0 0 75.4 70.6"><style>.st0,.st1{fill:none;stroke:#19212d;stroke-width:1.6;stroke-linecap:round;stroke-linejoin:round;stroke-miterlimit:10}.st1{stroke:#9bcb4c}</style><path class="st0" d="M69.8 63.4v6.4H7.2v-6.4M7.2 13.6V.8h62.6v12.8M7.2 10.4h62.6M12 5.6h3.2M18.5 5.6h3.2M24.9 18.5h16v24H20.1M47.4 18.5h12.8M47.4 26.5h12.8M47.4 34.5h12.8M47.4 42.5h12.8M20.1 52.2h40.1M20.1 60.2h40.1"/><path class="st1" d="M15.2 57V36.1c3.3-1.2 6.4-4.5 6.4-8v-1.6c0-4.2-2.7-6.7-6.4-8v8h-8v-8c-3.7 1.3-6.4 3.8-6.4 8v1.6c0 3.5 3.2 6.9 6.4 8V57c0 1.8 1.4 3.2 3.2 3.2H12c1.8 0 3.2-1.4 3.2-3.2zM66.6 52.2V20.1c0-1.8 1.4-3.2 3.2-3.2h1.6c1.8 0 3.2 1.4 3.2 3.2v32.1l-3.2 8h-1.6l-3.2-8zM66.6 24.9h8"/></svg>