<svg id="Layer_1" xmlns="http://www.w3.org/2000/svg" viewBox="0 0 36.3 46.2"><style>.st0{fill:#a0cd4c}.st1{fill:#19212d}</style><path id="XMLID_35_" class="st0" d="M26.5 39.3H.5v-1h25v-8.1l-15.3-9.6H.5v-1h10l16 10.1z"/><path id="XMLID_32_" class="st1" d="M33.9 46.2H2.5C1.1 46.2 0 45 0 43.7V4.9h9.8v3.3L13 5.5c2.4-2.1 6.1-2.4 8.8-.7l12 7.6c1.6 1 2.5 2.7 2.5 4.6v26.7c0 1.3-1.1 2.5-2.4 2.5zM1 5.9v37.8c0 .8.7 1.5 1.5 1.5h31.4c.8 0 1.5-.7 1.5-1.5V16.9c0-1.5-.8-2.9-2.1-3.7l-12-7.6c-2.4-1.5-5.5-1.3-7.6.6l-4.8 4.2V5.9H1z"/><path id="XMLID_29_" class="st1" d="M29.9 24.7c-.3 0-.6-.1-.8-.2L14 14.3c-.4-.2-.6-.6-.7-1.1 0-.4.1-.9.4-1.2l2.5-2.5c.5-.5 1.3-.6 1.8-.2l12.6 8.1c.4.3.7.7.7 1.2v4.5c0 .5-.3 1-.8 1.3-.1.2-.3.3-.6.3zM17 10.2l-2.5 2.5c-.1.1-.2.2-.1.4 0 .1.1.3.2.4l15.1 10.1c.2.1.4.1.5 0 .1 0 .3-.2.3-.4v-4.5c0-.2-.1-.3-.2-.4l-12.6-8.1c-.3-.1-.6-.1-.7 0z"/><path id="XMLID_28_" class="st1" d="M9.8 3.4h-1V1H1v2.4H0V0h9.8z"/></svg>