<svg id="Layer_1" xmlns="http://www.w3.org/2000/svg" viewBox="0 0 48 58.2"><style>.st0{fill:none;stroke:#1a222e;stroke-width:1.5;stroke-miterlimit:10}</style><path class="st0" d="M11.7 16.8H6.8M16.6 25.4v14.8M36.3 35.3v16c0 2.4-3.2 6.2-9.9 6.2h-4.9c-6.6 0-9.9-3.8-9.9-6.2v-16M47.4 31.6L36.3 16.8v-6.2c0-5.9-3-9.9-7.4-9.9H24h-4.9c-4.4 0-7.4 4-7.4 9.9v6.2L.6 31.6"/><path class="st0" d="M24 47.6c4 0 7.4-.8 8.6-1.2 0-1.7-.4-4.4-1.2-6.2-1.1.5-4.2 1.2-7.4 1.2s-6.2-.7-7.4-1.2c-.8 1.8-1.2 4.5-1.2 6.2 1.2.4 4.6 1.2 8.6 1.2zM36.3 16.8h5M24 24.2c3.2 0 6.4.8 7.4 1.2 1.2-2.5 3.7-6 3.7-8.6-2.7-1.1-9-1.2-11.1-1.2-2.1 0-8.4.2-11.1 1.2 0 2.6 2.5 6.1 3.7 8.6 1.1-.5 4.2-1.2 7.4-1.2zM31.4 25.4v14.8"/></svg>