<svg xmlns="http://www.w3.org/2000/svg" viewBox="0 0 138.52 98.44"><defs><style>.cls-1,.cls-2{fill:none;stroke-miterlimit:10;}.cls-1{stroke:#19212d;}.cls-2{stroke:#a0c74f;}</style></defs><title>Asset 1</title><g id="Layer_2" data-name="Layer 2"><g id="Artwork"><path class="cls-1" d="M72.88,36.66l-2.07-12-7.18.71a28.78,28.78,0,0,0-5.12-8.09l3.73-6.18-9.94-7L47.73,9.68a29.41,29.41,0,0,0-9.34-2.11l-1.73-7-12,2.07.71,7.18a29,29,0,0,0-8.09,5.12l-6.18-3.73-7,9.94,5.58,4.57a29.48,29.48,0,0,0-2.11,9.35l-7,1.73,2.07,12,7.18-.72a28.86,28.86,0,0,0,5.12,8.09l-3.73,6.18,9.94,7,4.57-5.59a28.94,28.94,0,0,0,9.35,2.11l1.73,7,12-2.07-.72-7.17a28.89,28.89,0,0,0,8.09-5.13l6.18,3.73,7-9.94-5.59-4.57a28.88,28.88,0,0,0,2.11-9.34Z"/><circle class="cls-2" cx="37.06" cy="37.26" r="11.6" transform="translate(-7.44 65.22) rotate(-77.3)"/><path class="cls-1" d="M137.94,61.64l-2.07-12-7.17.72a29.09,29.09,0,0,0-5.12-8.09l3.73-6.18-10-7-4.57,5.59a28.82,28.82,0,0,0-9.34-2.11l-1.73-7-12,2.07.72,7.17a28.89,28.89,0,0,0-8.09,5.13l-6.18-3.74-7,10,5.59,4.57a28.88,28.88,0,0,0-2.11,9.34l-7,1.73,2.07,12,7.17-.72A29.29,29.29,0,0,0,80,81.15l-3.73,6.18,10,7,4.57-5.59a29.1,29.1,0,0,0,9.34,2.12l1.73,7,12-2.08-.72-7.17a29.29,29.29,0,0,0,8.1-5.12l6.17,3.73,7-10-5.59-4.57a28.82,28.82,0,0,0,2.11-9.34Z"/><circle class="cls-2" cx="102.13" cy="62.25" r="11.6" transform="translate(18.95 148.19) rotate(-77.3)"/></g></g></svg>