<svg id="Layer_1" xmlns="http://www.w3.org/2000/svg" viewBox="0 0 62 39"><style>.st0,.st1{fill:none;stroke:#19212d;stroke-width:2;stroke-linecap:round;stroke-linejoin:round;stroke-miterlimit:10}.st1{stroke:#9fd34a}</style><path class="st0" d="M1.8 38c-.5-2.2-.8-4.6-.8-7C1 14.4 14.4 1 31 1s30 13.4 30 30c0 2.4-.3 4.8-.8 7M56 31h5M1 31h5M54.8 23.3l4.7-1.6M51.2 16.3l4.1-2.9M45.7 10.8l2.9-4.1M38.7 7.2l1.6-4.7M31 6V1M23.3 7.2l-1.6-4.7M16.3 10.8l-2.9-4.1M10.8 16.3l-4.1-2.9M7.2 23.3l-4.7-1.6"/><path class="st1" d="M27 38c0-2.2 1.8-4 4-4s4 1.8 4 4"/><path class="st1" d="M27.5 36L17.3 14.8 31 34"/></svg>