<svg id="Layer_1" xmlns="http://www.w3.org/2000/svg" viewBox="0 0 111.9 117.5"><style>.st0{fill:#fff}</style><path id="XMLID_29_" class="st0" d="M64.1 61.1c-.1 0-.3 0-.4-.1-.4-.2-.6-.5-.6-.9v-16h-45c-.6 0-1-.4-1-1V1c0-.6.4-1 1-1h75.7c.6 0 1 .4 1 1v42.1c0 .6-.4 1-1 1H82.3L64.8 60.8c-.2.2-.5.3-.7.3zm-45-19h45c.6 0 1 .4 1 1v14.7l16.1-15.4c.2-.2.4-.3.7-.3h10.9V2H19.1v40.1z"/><path id="XMLID_26_" class="st0" d="M70.3 35c-.2 0-.3 0-.5-.1l-3.1-1.6-3.1 1.6c-.3.2-.7.1-1.1-.1-.3-.2-.5-.6-.4-1l.6-3.5-2.5-2.5c-.3-.3-.4-.7-.3-1 .1-.4.4-.6.8-.7l3.5-.5 1.6-3.1c.3-.7 1.5-.7 1.8 0l1.6 3.1 3.5.5c.4.1.7.3.8.7.1.4 0 .8-.3 1l-2.5 2.5.6 3.5c.1.4-.1.8-.4 1-.2.1-.4.2-.6.2zm-3.6-3.9c.2 0 .3 0 .5.1l1.8.9-.3-2c-.1-.3.1-.7.3-.9l1.4-1.4-2-.3c-.3 0-.6-.3-.8-.5l-.9-1.8-.9 1.8c-.1.3-.4.5-.8.5l-2 .3 1.4 1.4c.2.2.3.6.3.9l-.3 2 1.8-.9c.2 0 .4-.1.5-.1z"/><path id="XMLID_23_" class="st0" d="M48.7 35c-.2 0-.3 0-.5-.1l-3.1-1.6-3.1 1.6c-.3.2-.7.1-1.1-.1-.3-.2-.5-.6-.4-1l.6-3.5-2.5-2.5c-.3-.3-.4-.7-.3-1s.4-.6.8-.7l3.5-.5 1.6-3.1c.3-.7 1.5-.7 1.8 0l1.6 3.1 3.5.5c.4.1.7.3.8.7s0 .8-.3 1l-2.5 2.5.6 3.5c.1.4-.1.8-.4 1-.2.1-.4.2-.6.2zm-3.5-3.9c.2 0 .3 0 .5.1l1.8.9-.3-2c-.1-.3.1-.7.3-.9l1.4-1.4-2-.3c-.3 0-.6-.3-.8-.5l-.9-1.8-.9 1.8c-.1.3-.4.5-.8.5l-2 .3 1.4 1.4c.2.2.3.6.3.9l-.3 2 1.8-.9c.1 0 .3-.1.5-.1z"/><path id="XMLID_20_" class="st0" d="M81.1 22c-.2 0-.3 0-.5-.1l-3.1-1.6-3.1 1.6c-.3.2-.7.1-1.1-.1-.3-.2-.5-.6-.4-1l.6-3.5-2.5-2.4c-.3-.3-.4-.7-.3-1 .1-.4.4-.6.8-.7l3.5-.5 1.6-3.1c.3-.7 1.5-.7 1.8 0l1.6 3.1 3.5.5c.4.1.7.3.8.7.1.4 0 .8-.3 1l-2.5 2.5.6 3.5c.1.4-.1.8-.4 1-.2 0-.4.1-.6.1zm-3.6-3.9c.2 0 .3 0 .5.1l1.8.9-.3-2c-.1-.3.1-.7.3-.9l1.4-1.4-2-.3c-.3 0-.6-.3-.8-.5l-.9-1.8-.9 1.8c-.1.3-.4.5-.8.5l-2 .3 1.4 1.4c.2.2.3.6.3.9l-.3 2 1.8-.9c.2 0 .3-.1.5-.1z"/><path id="XMLID_17_" class="st0" d="M59.5 22c-.2 0-.3 0-.5-.1l-3.1-1.6-3.1 1.6c-.3.2-.7.1-1.1-.1-.3-.2-.5-.6-.4-1l.6-3.5-2.5-2.5c-.3-.3-.4-.7-.3-1s.4-.6.8-.7l3.5-.5 1.6-3c.3-.7 1.5-.7 1.8 0l1.6 3.1 3.5.5c.4.1.7.3.8.7.1.4 0 .8-.3 1l-2.5 2.5.6 3.5c.1.4-.1.8-.4 1-.2 0-.4.1-.6.1zm-3.6-3.9c.2 0 .3 0 .5.1l1.8.9-.3-2c-.1-.3.1-.7.3-.9l1.4-1.4-2-.3c-.3 0-.6-.3-.8-.5l-.9-1.8-.9 1.9c-.1.3-.4.5-.8.5l-2 .3 1.4 1.4c.2.2.3.6.3.9l-.3 2 1.8-.9c.2-.1.4-.2.5-.2z"/><path id="XMLID_14_" class="st0" d="M37.9 22c-.2 0-.3 0-.5-.1l-3.1-1.6-3.1 1.6c-.3.2-.7.1-1.1-.1-.3-.2-.5-.6-.4-1l.6-3.5-2.5-2.5c-.3-.3-.4-.7-.3-1s.4-.6.8-.7l3.5-.5 1.6-3.1c.2-.3.6-.5 1-.5s.7.2.9.6l1.6 3.1 3.5.5c.4.1.7.3.8.7s0 .8-.3 1l-2.5 2.5.6 3.5c.1.4-.1.8-.4 1-.2 0-.4.1-.7.1zm-7.2-7.1l1.4 1.4c.2.2.3.6.3.9l-.3 2 1.8-.9c.3-.2.6-.2.9 0l1.8.9-.3-2c-.1-.3.1-.7.3-.9l1.4-1.4-2-.3c-.3 0-.6-.3-.8-.5l-.9-1.8-.9 1.8c-.1.3-.4.5-.8.5l-1.9.3z"/><g><path id="XMLID_11_" class="st0" d="M21.4 117.5c-.7 0-1.3-.1-2-.2-2.9-.7-5.2-3-5.9-5.9-.7-2.8.1-5.8 2.1-7.8s4.9-2.8 7.8-2.1c2.9.7 5.2 3 5.9 5.9.7 2.8-.1 5.8-2.1 7.8-1.6 1.4-3.7 2.3-5.8 2.3zm0-14.3c-1.6 0-3.2.6-4.4 1.8-1.5 1.5-2.1 3.7-1.6 5.9.5 2.1 2.3 3.9 4.4 4.4 2.2.5 4.4-.1 5.9-1.6s2.1-3.7 1.6-5.9c-.5-2.1-2.3-3.9-4.4-4.4-.5-.2-1-.2-1.5-.2z"/><path id="XMLID_8_" class="st0" d="M81.7 117.5c-.7 0-1.3-.1-2-.2-2.9-.7-5.2-3-5.9-5.9-.7-2.8.1-5.7 2.1-7.8 2-2 4.9-2.8 7.8-2.1 2.9.7 5.2 3 5.9 5.9.7 2.8-.1 5.7-2.1 7.7-1.6 1.5-3.7 2.4-5.8 2.4zm0-14.3c-1.6 0-3.2.6-4.3 1.8-1.5 1.5-2.1 3.7-1.6 5.9.5 2.1 2.3 3.9 4.4 4.4 2.2.5 4.3-.1 5.9-1.6 1.5-1.5 2.1-3.7 1.6-5.9-.5-2.1-2.3-3.9-4.4-4.4-.6-.1-1.1-.2-1.6-.2z"/><path id="XMLID_5_" class="st0" d="M102.5 111.2h-9.7c-.3 0-.6-.1-.8-.4-.2-.2-.3-.5-.2-.8.2-.7.2-1.4.2-2.1 0-3.2-1.5-6.2-4-8.2-2.5-2-5.9-2.7-9.1-1.8-2.9.7-5.4 2.9-6.7 5.8-.9 2.1-1.2 4.2-.7 6.4.1.3 0 .6-.2.8-.2.2-.5.4-.8.4h-38c-.3 0-.6-.1-.8-.4s-.3-.5-.2-.8c.2-.7.2-1.4.2-2.1 0-3.2-1.4-6.1-3.9-8.1s-5.7-2.7-8.9-2c-2.8.6-5.3 2.6-6.7 5.2-1.2 2.3-1.6 4.6-1.1 7 .1.3 0 .6-.2.8-.2.2-.5.4-.8.4H2.8c-.5 0-.9-.4-1-.8L0 98.8c-.1-.3.1-.7.3-.9l2.1-1.8 2.9-9.5c.1-.4.4-.7.8-.7L28.4 83 46 68.9c.2-.1.4-.2.6-.2h48.8c.3 0 .7.2.9.5l7.5 12.4v-3.5c0-.6.4-1 1-1h6.1c.6 0 1 .4 1 1v21.2c0 .3-.1.5-.3.7-.2.2-.5.3-.7.3l-5.2-.2-2.2 10.3c-.2.5-.6.8-1 .8zm-8.5-2h7.7l2.2-10.4c.1-.5.5-.8 1-.8l5 .2V79.1h-4.1V83c0 .6-.4 1-1 1h-1.3c-.3 0-.7-.2-.9-.5l-7.8-12.8H47l-17.6 14c-.1.1-.3.2-.5.2L7.1 87.8 4.3 97c-.1.2-.2.4-.3.5l-1.9 1.6 1.5 10.1h5.5c-.3-2.5.2-4.9 1.4-7.2 1.7-3.2 4.7-5.5 8-6.2 3.8-.8 7.6.1 10.5 2.4 2.9 2.4 4.6 5.9 4.6 9.6 0 .4 0 .9-.1 1.4h35.8c-.2-2.2.1-4.3 1-6.4 1.5-3.4 4.5-6 8-6.9 3.8-1 7.8-.2 10.8 2.2 3 2.4 4.8 5.9 4.8 9.8.2.4.1.9.1 1.3z"/><path id="XMLID_4_" class="st0" d="M65.4 84.8H41.9c-.6 0-1-.4-1-1s.4-1 1-1h22.5v-7.6c0-.6.4-1 1-1s1 .4 1 1v8.6c0 .5-.5 1-1 1z"/><path id="XMLID_3_" class="st0" d="M94.5 84.8H71.1c-.6 0-1-.4-1-1v-8.6c0-.6.4-1 1-1s1 .4 1 1v7.6h22.4c.6 0 1 .4 1 1s-.4 1-1 1z"/><path id="XMLID_2_" class="st0" d="M104.8 92.1c-.6 0-1-.4-1-1v-13c0-.6.4-1 1-1s1 .4 1 1v13c0 .6-.4 1-1 1z"/></g></svg>