<svg xmlns="http://www.w3.org/2000/svg" viewBox="-454 241.4 49.4 79.6"><style>.st0{fill:#f8b63d}.st1{fill:#fff}</style><title>GB</title><path d="M-429.3 241.4l-.8 2.4h-2.6l2.1 1.6-.8 2.4 2.1-1.5 2.1 1.5-.8-2.4 2.1-1.6h-2.6zm.8 45.1l-.8-2.5-.8 2.5h-2.6l2.1 1.5-.8 2.5 2.1-1.5 2.1 1.5-.8-2.5 2.1-1.5zm-22.1-18.9l2.1 1.5-.8-2.4 2.1-1.5h-2.6l-.8-2.5-.8 2.5h-2.6l2.1 1.5-.8 2.4zm9.3-19.4l-.7 2.5 2-1.5 2.1 1.5-.8-2.5 2.1-1.5h-2.6l-.8-2.5-.8 2.5h-2.5zm-6.5 3.8l-.8 2.5h-2.5l2.1 1.5-.9 2.5 2.1-1.5 2.1 1.5-.8-2.5 2.1-1.5h-2.6zm.8 23.8l-.8-2.4-.8 2.4h-2.5l2.1 1.6-.9 2.4 2.1-1.5 2.1 1.5-.8-2.4 2.1-1.6zm7.8 7.8l-.8-2.4-.8 2.4h-2.5l2 1.5-.7 2.5 2-1.5 2.1 1.5-.8-2.5 2.1-1.5zm34.6-18.4h-2.6l-.8-2.5-.8 2.5h-2.5l2 1.5-.7 2.4 2-1.5 2.1 1.5-.8-2.4zm-14-21l-.8 2.5h-2.6l2.1 1.5-.8 2.5 2.1-1.5 2.1 1.5-.8-2.5 2-1.5h-2.5zm6.5 11.8l-.8 2.5 2.1-1.5 2.1 1.5-.8-2.5 2.1-1.5h-2.6l-.8-2.5-.8 2.5h-2.6zm2.1 19.8l-.8-2.4-.8 2.4h-2.6l2.1 1.6-.8 2.4 2.1-1.5 2.1 1.5-.8-2.4 2.1-1.6zm-7.8 7.8l-.8-2.4-.8 2.4h-2.6l2.1 1.5-.8 2.5 2.1-1.5 2.1 1.5-.8-2.5 2-1.5z" class="st0"/><path d="M-433.4 311.7h3v6.9c-1 .8-2.1 1.4-3.3 1.8-1.2.4-2.5.7-3.8.7-1.7 0-3.4-.4-4.9-1.3-1.4-.8-2.6-2-3.5-3.4-.9-1.4-1.3-3.1-1.3-4.8 0-1.7.4-3.3 1.3-4.8.9-1.4 2.1-2.6 3.5-3.4 1.5-.8 3.3-1.3 5-1.2 1.3 0 2.6.2 3.9.7 1.2.4 2.3 1.1 3.3 1.9l-2 2.6c-.7-.7-1.5-1.2-2.4-1.5-.9-.4-1.8-.6-2.7-.6-1.1 0-2.2.3-3.2.8-.9.5-1.7 1.3-2.3 2.3-1.1 1.9-1.1 4.3 0 6.3.5.9 1.3 1.7 2.3 2.3 1 .6 2.1.8 3.2.8.7 0 1.4-.1 2-.3.7-.2 1.4-.5 2-.8l-.1-5zm19.5-8c1.1.8 1.7 2 1.7 3.3 0 .9-.2 1.8-.8 2.6-.6.7-1.4 1.2-2.3 1.5 1.1.2 2.1.7 2.9 1.6.7.8 1 1.9 1 3 .1 1.5-.6 2.9-1.8 3.7-1.5 1-3.2 1.4-4.9 1.4h-8.3v-18.2h8.1c1.5-.2 3.1.2 4.4 1.1zm-2.6 5.7c.5-.4.8-1 .8-1.7 0-.6-.3-1.2-.8-1.6-.6-.4-1.4-.6-2.1-.6h-4.4v4.4h4.4c.7.1 1.5-.1 2.1-.5zm.5 7.7c.6-.4 1-1.1.9-1.8 0-.7-.3-1.4-.9-1.8-.8-.5-1.7-.7-2.6-.6h-4.5v4.8h4.4c1 .1 1.9-.1 2.7-.6z" class="st1"/></svg>