<svg id="Layer_1" xmlns="http://www.w3.org/2000/svg" viewBox="0 0 60.8 28.1"><style>.st0{fill:#19212d}.st1{fill:#a0cd4c}</style><path id="XMLID_38_" class="st0" d="M18.7 21.9h23.4v1H18.7z"/><path id="XMLID_37_" class="st0" d="M60.3 22.9h-7.8v-1h7.3v-4.6l-1.2-4.9c-1.3-.4-7.4-2.2-15.3-3.8-.1 0-.2-.1-.3-.2-3.5-4.2-9.2-6.3-11.3-6.3H21.3c-4 0-9.5 3.5-12.5 5.4-.6.5-1.2.8-1.6 1 0 .1-.1.1-.2.1H3.1c-.2 0-.4.1-.6.2-.1.2-.2.4-.2.6v5.2c0 .1 0 .2-.1.2L1 17.3v2.5c0 1.2.9 2.1 2.1 2.1h5.2v1H3.1c-1.7 0-3.1-1.4-3.1-3.1v-2.6c0-.1 0-.2.1-.2l1.2-2.5V9.4c0-.5.2-.9.5-1.3.3-.3.8-.5 1.3-.5h3.8c.4-.2.8-.5 1.4-.9 3-2 8.7-5.6 13-5.6h10.4c2.6 0 8.4 2.3 12 6.5 8.9 1.8 15.4 3.9 15.5 3.9.2.1.3.2.3.4l1.3 5.2v5.3c0 .3-.3.5-.5.5z"/><path id="XMLID_36_" class="st1" d="M43.6 8.5l-.5-.9C51 3 57.3.1 57.4.1l.1-.1 2.9 1.1-.4.9-2.5-1c-1 .6-6.8 3.4-13.9 7.5z"/><path id="XMLID_35_" class="st0" d="M38.2 11.2H27.8c-.2 0-.4-.1-.5-.3l-2.6-6.5 1-.4 2.5 6.2h9.9L40.6 9l.4.8-2.6 1.3c-.1.1-.1.1-.2.1z"/><path id="XMLID_34_" class="st0" d="M27.8 11.2H12.2c-.1 0-.3-.1-.4-.1l-1.3-1.3.7-.8 1.2 1.2h15.4v1z"/><path id="XMLID_31_" class="st0" d="M47.3 28.1c-3.1 0-5.7-2.6-5.7-5.7s2.6-5.7 5.7-5.7 5.7 2.6 5.7 5.7-2.6 5.7-5.7 5.7zm0-10.4c-2.6 0-4.7 2.1-4.7 4.7s2.1 4.7 4.7 4.7S52 25 52 22.4s-2.1-4.7-4.7-4.7z"/><path id="XMLID_28_" class="st0" d="M13.5 28.1c-3.1 0-5.7-2.6-5.7-5.7s2.6-5.7 5.7-5.7 5.7 2.6 5.7 5.7-2.6 5.7-5.7 5.7zm0-10.4c-2.6 0-4.7 2.1-4.7 4.7s2.1 4.7 4.7 4.7 4.7-2.1 4.7-4.7-2.1-4.7-4.7-4.7z"/></svg>