<svg id="Layer_1" xmlns="http://www.w3.org/2000/svg" viewBox="0 0 107.8 46.5"><style>.st0{fill:#19212d}.st1{fill:#a0cd4c}</style><path id="XMLID_37_" class="st0" d="M87.5 46.5c-2.1 0-4.2-.8-5.7-2.3-2-2-2.8-4.9-2.1-7.7.7-2.8 3-5.1 5.8-5.8 2.8-.7 5.7.1 7.7 2.1s2.8 4.9 2.1 7.7c-.7 2.8-3 5.1-5.8 5.8-.7.1-1.3.2-2 .2zm-1.7-14.8c-2.4.6-4.5 2.6-5.1 5.1-.6 2.5.1 5 1.8 6.7 1.7 1.7 4.3 2.4 6.7 1.8 2.4-.6 4.5-2.6 5.1-5.1.6-2.5-.1-5-1.8-6.7-1.8-1.7-4.3-2.4-6.7-1.8z"/><path id="XMLID_34_" class="st0" d="M28.9 46.5c-2.1 0-4.2-.8-5.7-2.3-2-2-2.8-4.9-2.1-7.7.7-2.8 3-5.1 5.8-5.8 2.8-.7 5.7.1 7.7 2.1s2.8 4.9 2.1 7.7c-.7 2.8-3 5.1-5.8 5.8-.7.1-1.4.2-2 .2zm0-15c-.6 0-1.2.1-1.7.2-2.4.6-4.5 2.6-5 5.1-.6 2.5.1 5 1.8 6.7 1.7 1.7 4.3 2.4 6.7 1.8 2.4-.6 4.5-2.6 5.1-5 .6-2.5-.1-5-1.8-6.7-1.5-1.4-3.3-2.1-5.1-2.1z"/><path id="XMLID_31_" class="st0" d="M105.6 40.4h-7.3c-.2 0-.3-.1-.4-.2-.1-.1-.1-.3-.1-.4.5-2.5.2-4.8-1.1-7.2-1.5-2.7-4-4.7-6.8-5.3-3.2-.7-6.5 0-9 2.1-2.5 2-3.9 5-3.9 8.2 0 .7.1 1.5.2 2.2 0 .1 0 .3-.1.4s-.2.2-.4.2h-37c-.2 0-.3-.1-.4-.2-.1-.1-.1-.3-.1-.4.5-2.2.2-4.4-.7-6.5-1.3-2.9-3.9-5.1-6.8-5.9-3.3-.8-6.6-.1-9.2 1.9-2.6 2-4.1 5-4.1 8.3 0 .7.1 1.5.2 2.2 0 .1 0 .3-.1.4-.1.1-.2.2-.4.2H8.7c-.2 0-.4-.2-.5-.4L6 29.6l-5.5.2c-.1 0-.3 0-.4-.1 0-.2-.1-.3-.1-.5V8.7c0-.3.2-.5.5-.5h5.9c.3 0 .5.2.5.5V13h.5L15.1.3c.1-.2.3-.3.4-.3H63c.1 0 .2 0 .3.1l17.2 13.8 21.8 2.8c.2 0 .4.2.4.4l2.8 9.4 2.2 1.8c.1.1.2.3.2.5L106.1 40c0 .2-.3.4-.5.4zm-6.7-1h6.3l1.6-10.5-2.1-1.7-.2-.2-2.8-9.2L80.1 15c-.1 0-.2 0-.2-.1L62.8 1h-47L8.1 13.7c-.1.1-.3.2-.4.2H6.4c-.3 0-.5-.2-.5-.5V9.2H1v19.5l5.4-.2c.2 0 .5.2.5.4l2.2 10.5h8.4c-.1-.6-.1-1.2-.1-1.8 0-3.6 1.6-6.9 4.5-9.1 2.8-2.2 6.5-3 10.1-2 3.3.8 6.1 3.2 7.5 6.4.9 2.1 1.2 4.3.9 6.5h35.8c-.2-.6-.2-1.2-.2-1.8 0-3.5 1.6-6.8 4.3-9 2.7-2.2 6.3-3 9.8-2.3 3.1.7 5.9 2.9 7.5 5.8 1.3 2.4 1.7 4.8 1.3 7.3z"/><path id="XMLID_30_" class="st1" d="M68.8 14.7H43.1V3.5h1v10.2h24.7z"/><path id="XMLID_29_" class="st1" d="M39.7 14.7H15.2v-1h23.5V3.5h1z"/><path id="XMLID_28_" class="st0" d="M6.4 25.4c-.3 0-.5-.2-.5-.5V8.7c0-.3.2-.5.5-.5s.5.2.5.5v16.2c0 .3-.2.5-.5.5z"/></svg>