<svg xmlns="http://www.w3.org/2000/svg" viewBox="-898.1 473.5 61 88.3"><style>.st0,.st1{fill:none;stroke:#8c9096;stroke-width:1.74;stroke-miterlimit:10}.st1{stroke:#19212d}.st2{fill:#9fd34a}</style><title>calculator</title><path d="M-894.1 474.4h53.1c1.7 0 3.1 1.4 3.1 3.1v80.4c0 1.7-1.4 3.1-3.1 3.1h-53.1c-1.7 0-3.1-1.4-3.1-3.1v-80.4c.1-1.7 1.4-3.1 3.1-3.1z" class="st0"/><path d="M-887.2 481.9h39c1.7 0 3.1 1.4 3.1 3.1v14.2c0 1.7-1.4 3.1-3.1 3.1h-39c-1.7 0-3.1-1.4-3.1-3.1V485c.1-1.8 1.4-3.1 3.1-3.1zm-.6 28.5h2.7c1.2 0 2.2 1 2.2 2.2v2.7c0 1.2-1 2.2-2.2 2.2h-2.7c-1.2 0-2.2-1-2.2-2.2v-2.7c-.1-1.2.9-2.2 2.2-2.2zm12.8 0h2.7c1.2 0 2.2 1 2.2 2.2v2.7c0 1.2-1 2.2-2.2 2.2h-2.7c-1.2 0-2.2-1-2.2-2.2v-2.7c0-1.2 1-2.2 2.2-2.2zm12.8 0h2.7c1.2 0 2.2 1 2.2 2.2v2.7c0 1.2-1 2.2-2.2 2.2h-2.7c-1.2 0-2.2-1-2.2-2.2v-2.7c0-1.2 1-2.2 2.2-2.2zm12.2 23.3h2.7c1.2 0 2.2 1 2.2 2.2v14.4c0 1.2-1 2.2-2.2 2.2h-2.7c-1.2 0-2.2-1-2.2-2.2v-14.4c-.1-1.2.9-2.2 2.2-2.2zm-37.8-11.7h2.7c1.2 0 2.2 1 2.2 2.2v2.7c0 1.2-1 2.2-2.2 2.2h-2.7c-1.2 0-2.2-1-2.2-2.2v-2.7c-.1-1.2.9-2.2 2.2-2.2zm12.8 0h2.7c1.2 0 2.2 1 2.2 2.2v2.7c0 1.2-1 2.2-2.2 2.2h-2.7c-1.2 0-2.2-1-2.2-2.2v-2.7c0-1.2 1-2.2 2.2-2.2zm12.8 0h2.7c1.2 0 2.2 1 2.2 2.2v2.7c0 1.2-1 2.2-2.2 2.2h-2.7c-1.2 0-2.2-1-2.2-2.2v-2.7c0-1.2 1-2.2 2.2-2.2zm12.2-11.6h2.7c1.2 0 2.2 1 2.2 2.2v2.7c0 1.2-1 2.2-2.2 2.2h-2.7c-1.2 0-2.2-1-2.2-2.2v-2.7c-.1-1.2.9-2.2 2.2-2.2zm0 11.6h2.7c1.2 0 2.2 1 2.2 2.2v2.7c0 1.2-1 2.2-2.2 2.2h-2.7c-1.2 0-2.2-1-2.2-2.2v-2.7c-.1-1.2.9-2.2 2.2-2.2zm-37.8 11.7h2.7c1.2 0 2.2 1 2.2 2.2v2.7c0 1.2-1 2.2-2.2 2.2h-2.7c-1.2 0-2.2-1-2.2-2.2v-2.7c-.1-1.2.9-2.2 2.2-2.2zm12.8 0h2.7c1.2 0 2.2 1 2.2 2.2v2.7c0 1.2-1 2.2-2.2 2.2h-2.7c-1.2 0-2.2-1-2.2-2.2v-2.7c0-1.2 1-2.2 2.2-2.2zm12.8 0h2.7c1.2 0 2.2 1 2.2 2.2v2.7c0 1.2-1 2.2-2.2 2.2h-2.7c-1.2 0-2.2-1-2.2-2.2v-2.7c0-1.2 1-2.2 2.2-2.2zm-25.6 11.6h2.7c1.2 0 2.2 1 2.2 2.2v2.7c0 1.2-1 2.2-2.2 2.2h-2.7c-1.2 0-2.2-1-2.2-2.2v-2.7c-.1-1.2.9-2.2 2.2-2.2zm12.8 0h2.7c1.2 0 2.2 1 2.2 2.2v2.7c0 1.2-1 2.2-2.2 2.2h-2.7c-1.2 0-2.2-1-2.2-2.2v-2.7c0-1.2 1-2.2 2.2-2.2zm12.8 0h2.7c1.2 0 2.2 1 2.2 2.2v2.7c0 1.2-1 2.2-2.2 2.2h-2.7c-1.2 0-2.2-1-2.2-2.2v-2.7c0-1.2 1-2.2 2.2-2.2z" class="st1"/><path d="M-878.9 488.9c.5-.4 1.2-.4 1.7-.1.3.2.6.4.9.7l.6.7 1.2-2.4-.3-.3c-.4-.5-.9-.9-1.5-1.2-.6-.3-1.2-.4-1.9-.4-1 0-2 .4-2.7 1.1-.7.8-1 1.8-.9 2.9v1h-1.3v2.1h1.3v2.4h-1.2v2.5l8.4-.2v-2.5l-4.4.1v-2.4h2.7v-2.1l-2.7.1v-1c-.1-.2 0-.7.1-1zm10.8 0c.5-.4 1.2-.4 1.7-.1.3.2.6.4.8.7l.6.7 1.2-2.4-.3-.3c-.4-.5-.9-.9-1.5-1.2-.6-.3-1.2-.4-1.9-.4-1 0-2 .4-2.7 1.1-.6.8-.9 1.9-.8 2.9v1h-1.3v2.1h1.3v2.5h-1.3l.1 2.5 8.4-.2v-2.5l-4.4.1V493h2.7v-2.1l-2.7.1v-1c-.1-.4-.1-.8.1-1.1zm10.8 0c.5-.4 1.2-.4 1.7-.1.3.2.6.4.9.7l.6.7 1.2-2.4-.3-.3c-.4-.5-.9-.9-1.5-1.2-.6-.3-1.2-.4-1.9-.4-1 0-2 .4-2.7 1.1-.7.8-1 1.8-.9 2.9v1h-1.3v2.1h1.3v2.4h-1.3v2.5l8.4-.2v-2.5l-4.3.2V493h2.7v-2.1l-2.7.1v-1c-.1-.4-.1-.8.1-1.1z" class="st2"/></svg>