<svg id="Layer_1" xmlns="http://www.w3.org/2000/svg" viewBox="0 0 80.2 77.3"><style>.st0,.st1,.st2{fill:none;stroke-miterlimit:10}.st0{stroke-linecap:round;stroke-linejoin:round;stroke:#9ace4a;stroke-width:1.9097}.st1,.st2{stroke:#19212d;stroke-width:2}.st2{stroke-linejoin:round}</style><path class="st0" d="M11 20.7l34.1 34.1 5.4 12.5L37.9 62l-34-34.1zM9.2 20.7l-1.8-1.8c-1.5-1.5-3.9-1.5-5.4 0-1.5 1.5-1.5 3.9 0 5.4l1.8 1.8M43.3 54.8l-5.4 5.4"/><path class="st1" d="M21.8 24.3V4.6c0-2 1.6-3.6 3.6-3.6h39.4l14.3 14.3v57.4c0 2-1.6 3.6-3.6 3.6H25.4c-2 0-3.6-1.6-3.6-3.6V53"/><path class="st1" d="M73.8 17.1H63V6.4"/><path class="st2" d="M55.9 67.3h14.3M34.3 27.9h34.1M34.3 35.1h34.1M41.5 42.2h26.9M48.7 49.4h19.7"/></svg>