<svg id="Layer_1" xmlns="http://www.w3.org/2000/svg" viewBox="0 0 61.7 59.6"><style>.st0{fill:none;stroke:#9fd34a;stroke-width:1.5;stroke-linecap:round;stroke-linejoin:round;stroke-miterlimit:10}.st1{fill:#9fd34a}.st2{fill:none;stroke:#fff;stroke-width:1.5;stroke-linecap:round;stroke-linejoin:round;stroke-miterlimit:10}</style><path class="st0" d="M27.8 35.2c-1.3-.9-2.3-2.3-2.7-4M31.5 22.5c3.3-.2 6.4 2 7.2 5.3.7 2.8-.4 5.6-2.5 7.3"/><path class="st1" d="M31.4 27.6c.1-.3.6-.4 1-.3l.6.3.5.4.4-1.6-.2-.2c-.3-.2-.7-.4-1.1-.5-.4-.1-.8-.1-1.2 0-.7.2-1.2.5-1.5 1.1-.3.5-.3 1.2-.2 1.9l.2.6-.8.2.3 1.3.8-.2.4 1.5-.8.2.4 1.5 5.2-1.3L35 31l-2.7.7-.4-1.5 1.7-.4-.3-1.3-1.8.5-.2-.6c0-.4 0-.6.1-.8z"/><path class="st2" d="M12 51.2c-2.9-.7-5.5 1.9-4.8 4.8.3 1.4 1.5 2.5 2.8 2.8 2.9.7 5.5-1.9 4.8-4.8-.3-1.4-1.4-2.5-2.8-2.8zM42.5 51.2c-2.9-.7-5.5 1.9-4.8 4.8.3 1.4 1.5 2.5 2.8 2.8 2.9.7 5.5-1.9 4.8-4.8-.3-1.4-1.4-2.5-2.8-2.8z"/><path class="st2" d="M56.3 50.2V39.5h-3.1V42h-.7l-4.1-6.7H23.8l-9 7.2-11.4 1.4-1.5 5-1.2 1 .9 5.8H5.4c-.3-1.2-.2-2.5.6-3.9s2.1-2.5 3.7-2.9c3.7-.8 7.1 2 7.1 5.6 0 .4 0 .8-.1 1.2H36c-.2-1.1-.2-2.3.4-3.5.7-1.6 2.1-2.8 3.7-3.2 3.8-1 7.2 1.9 7.2 5.6 0 .4 0 .8-.1 1.2H52l1.2-5.6h3.1z"/><path class="st2" d="M33.9 36.8v5.5H20.8M48.7 42.3H36.2v-5.5"/><g><path class="st2" d="M54.1 13.6l5-1.4c1.6-.5 2.4-2.3 1.6-3.8l-3.4-6.3c-.8-1.4-2.6-1.8-3.9-.9l-5.3 3.9 6 8.5zM37.6 23.2l6-3.2 1-.3c2.5-.9 4.8-2.5 6.5-4.5l3-1.5-6-8.5-9.9 4c-.3.1-.6.3-.9.5l-9.9 7.6c-.5.4-.8.8-1.1 1.3l-5.2 9.7.3 1.3 1.4.9 1.6-.8 6.8-9.1 8-5.1 1 .8-6 5.2"/></g><path class="st2" d="M53.2 39.5v8.4"/></svg>