<svg id="Layer_1" xmlns="http://www.w3.org/2000/svg" viewBox="0 0 25 23.4"><style>.st0{fill:#fff}.st1{fill:#a0cd4c}</style><path id="XMLID_57_" class="st0" d="M6.9 23.4c-.1 0-.3 0-.4-.1-.5-.2-.8-.6-.8-1.1v-3.7H4c-2.2 0-4-1.8-4-4V4c0-2.2 1.8-4 4-4h17c2.2 0 4 1.8 4 4v10.4c0 2.2-1.8 4-4 4h-8.3L7.8 23c-.2.2-.6.4-.9.4zM4 1C2.4 1 1 2.4 1 4v10.4c0 1.7 1.4 3 3 3h2.6v4.7c0 .1.1.2.1.2.1 0 .2 0 .2-.1l5.3-4.9H21c1.7 0 3-1.4 3-3V4c0-1.7-1.4-3-3-3H4z"/><path id="XMLID_56_" class="st1" d="M6.1 6.4h12.7v1H6.1z"/><path id="XMLID_55_" class="st1" d="M6.1 9.2h12.7v1H6.1z"/><path id="XMLID_54_" class="st1" d="M6.1 12h7.1v1H6.1z"/></svg>