<svg id="Layer_1" xmlns="http://www.w3.org/2000/svg" viewBox="-466 270.2 27 21.8"><style>.st0{fill:#fff}.st1{fill:#9fd34a}</style><title>Dashboard</title><g id="Layer_2"><g id="Artwork"><path class="st0" d="M-440.3 292h-24.4c-.7 0-1.3-.6-1.3-1.3v-19.2c0-.7.6-1.3 1.3-1.3h24.4c.7 0 1.3.6 1.3 1.3v19.2c0 .7-.6 1.3-1.3 1.3zm-24.4-21.2c-.4 0-.7.3-.7.7v19.2c0 .4.3.7.7.7h24.4c.4 0 .7-.3.7-.7v-19.2c0-.4-.3-.7-.7-.7h-24.4z"/><path class="st0" d="M-454.7 281.5h-6.6c-.7 0-1.3-.6-1.3-1.3v-2.7c0-.7.6-1.3 1.3-1.3h6.6c.7 0 1.3.6 1.3 1.3v2.7c0 .7-.6 1.3-1.3 1.3zm-6.6-4.7c-.4 0-.7.3-.7.7v2.7c0 .4.3.7.7.7h6.6c.4 0 .7-.3.7-.7v-2.7c0-.4-.3-.7-.7-.7h-6.6zM-443.8 281.5h-6.6c-.7 0-1.3-.6-1.3-1.3v-2.7c0-.7.6-1.3 1.3-1.3h6.6c.7 0 1.3.6 1.3 1.3v2.7c0 .7-.5 1.3-1.3 1.3zm-6.5-4.7c-.4 0-.7.3-.7.7v2.7c0 .4.3.7.7.7h6.6c.4 0 .7-.3.7-.7v-2.7c0-.4-.3-.7-.7-.7h-6.6zM-454.7 288.8h-6.6c-.7 0-1.3-.6-1.3-1.3v-2.7c0-.7.6-1.3 1.3-1.3h6.6c.7 0 1.3.6 1.3 1.3v2.7c0 .7-.6 1.3-1.3 1.3zm-6.6-4.6c-.4 0-.7.3-.7.7v2.7c0 .4.3.7.7.7h6.6c.4 0 .7-.3.7-.7v-2.7c0-.4-.3-.7-.7-.7h-6.6zM-443.8 288.8h-6.6c-.7 0-1.3-.6-1.3-1.3v-2.7c0-.7.6-1.3 1.3-1.3h6.6c.7 0 1.3.6 1.3 1.3v2.7c0 .7-.5 1.3-1.3 1.3zm-6.5-4.6c-.4 0-.7.3-.7.7v2.7c0 .4.3.7.7.7h6.6c.4 0 .7-.3.7-.7v-2.7c0-.4-.3-.7-.7-.7h-6.6z"/><path class="st1" d="M-462.3 273.6h8.6v.6h-8.6z"/></g></g></svg>