<svg xmlns="http://www.w3.org/2000/svg" viewBox="0 0 105.38 98.37"><defs><style>.cls-1,.cls-2{fill:none;stroke-miterlimit:10;}.cls-1{stroke:#a0c74f;}.cls-2{stroke:#19212d;}</style></defs><title>Asset 8</title><g id="Layer_2" data-name="Layer 2"><g id="Artwork"><path class="cls-1" d="M7.31,16.38H52.69a6.81,6.81,0,0,1,6.81,6.81V61.77a6.8,6.8,0,0,1-6.81,6.8H24.77L13.49,80.37A2.27,2.27,0,0,1,9.58,78.8V68.57H7.31A6.8,6.8,0,0,1,.5,61.77V23.19A6.81,6.81,0,0,1,7.31,16.38Z"/><path class="cls-2" d="M23.19,20.92v25A6.81,6.81,0,0,0,30,52.69H55"/><path class="cls-2" d="M93.53,32.27v-25A6.8,6.8,0,0,0,86.73.5H30a6.81,6.81,0,0,0-6.81,6.81v9.07"/><path class="cls-2" d="M59.5,52.69h6.71l12.11,12a2.27,2.27,0,0,0,3.87-1.61V52.69h4.54a6.8,6.8,0,0,0,6.8-6.81V36.81"/><path class="cls-2" d="M36.81,68.57v9.08a6.8,6.8,0,0,0,6.8,6.81H69.26l16,12.91A2.28,2.28,0,0,0,89,95.6V84.46h9.07a6.81,6.81,0,0,0,6.81-6.81V39.07a6.81,6.81,0,0,0-6.81-6.8H59.5"/><line class="cls-2" x1="36.81" y1="52.69" x2="36.81" y2="64.04"/><path class="cls-2" d="M55,32.27H43.61a6.8,6.8,0,0,0-6.8,6.8v9.08"/></g></g></svg>