<svg xmlns="http://www.w3.org/2000/svg" viewBox="0 0 116.36 102.46"><defs><style>.cls-1,.cls-2{fill:none;stroke-miterlimit:10;}.cls-1{stroke:#19212d;}.cls-2{stroke:#a0c74f;}</style></defs><title>Asset 1</title><g id="Layer_2" data-name="Layer 2"><g id="Artwork"><path class="cls-1" d="M75.07,6.64l-2.83-4a4.94,4.94,0,0,0-6.87-1.21L45.18,15.53A4.94,4.94,0,0,0,44,22.4l2.83,4,5.45-.81,2.83,4-4,2.82L62.35,48.65l4-2.83,2.83,4-2.63,4.85,1.42,2a4.92,4.92,0,0,0,6.86,1.21L95.07,43.8a4.94,4.94,0,0,0,1.21-6.87l-1.42-2-5.45.81-2.83-4,4-2.83L79.31,12.7l-4,2.83-2.83-4Z"/><line class="cls-1" x1="55.08" y1="29.67" x2="65.17" y2="22.6"/><line class="cls-1" x1="69.21" y1="19.77" x2="75.27" y2="15.53"/><line class="cls-1" x1="66.39" y1="45.82" x2="76.49" y2="38.75"/><line class="cls-1" x1="80.52" y1="35.92" x2="86.58" y2="31.68"/><path class="cls-1" d="M60.94,46.63,58.9,48a12.1,12.1,0,0,1-4.06,1.91c-4.61,1.16-9.61,4.32-13.49,7.4C30.52,66,15,78.78,12.48,80.56c-4.47,3.13-8,1.53-10.3-1.81S-.47,71.57,4,68.45c2.55-1.79,19.91-12,31.7-19.19,4.23-2.59,8.91-6.21,11.58-10.15A12.25,12.25,0,0,1,50.45,36l2-1.44"/><path class="cls-2" d="M86.78,79.78h7.39a2.47,2.47,0,0,1,2.47,2.46v7.4"/><path class="cls-2" d="M54.73,89.64v-7.4a2.47,2.47,0,0,1,2.47-2.46H79.38"/><path class="cls-2" d="M79.38,89.64H52.27A2.46,2.46,0,0,0,49.8,92.1V102h51.77V92.1a2.47,2.47,0,0,0-2.47-2.46H86.78"/><line class="cls-2" x1="94.17" y1="57.59" x2="94.17" y2="67.45"/><line class="cls-2" x1="105.27" y1="60.56" x2="100.34" y2="69.1"/><line class="cls-2" x1="113.39" y1="68.68" x2="104.85" y2="73.61"/><line class="cls-2" x1="116.36" y1="79.78" x2="106.5" y2="79.78"/></g></g></svg>