<svg id="Layer_1" xmlns="http://www.w3.org/2000/svg" viewBox="0 0 84 67.4"><style>.st0{fill:#19212d}.st1{fill:#a0cd4c}</style><path id="XMLID_41_" class="st0" d="M39.5 67.4h-1v-4.8c0-5-4.1-9.1-9.1-9.1H10.1c-5 0-9.1 4.1-9.1 9.1v4.8H0v-4.8C0 57 4.5 52.5 10.1 52.5h19.2c5.6 0 10.1 4.5 10.1 10.1v4.8z"/><path id="XMLID_38_" class="st0" d="M19.7 43.9c-5.6 0-10.1-4.5-10.1-10.1s4.5-10.1 10.1-10.1 10.1 4.5 10.1 10.1-4.5 10.1-10.1 10.1zm0-19.2c-5 0-9.1 4.1-9.1 9.1s4.1 9.1 9.1 9.1 9.1-4.1 9.1-9.1c0-5.1-4-9.1-9.1-9.1z"/><path id="XMLID_35_" class="st0" d="M61.7 44.5c-12.3 0-22.3-10-22.3-22.3S49.4 0 61.7 0 84 10 84 22.3 74 44.5 61.7 44.5zm0-43.5C50 1 40.4 10.5 40.4 22.3c0 11.7 9.5 21.3 21.3 21.3C73.4 43.5 83 34 83 22.3 83 10.5 73.4 1 61.7 1z"/><g><path id="XMLID_31_" class="st1" d="M64.6 36c-.2 0-.4-.1-.4-.3l-1.1-2.1c-1 .1-2 .1-3.1 0l-1.1 2.1c-.1.2-.4.3-.6.2L54 34.2c-.2-.1-.4-.4-.3-.6l.8-2.3c-.8-.6-1.6-1.4-2.2-2.2l-2.3.8c-.2.1-.5 0-.6-.3l-1.8-4.3c-.1-.2 0-.5.2-.6l2.1-1.1c-.1-1-.1-2 0-3.1l-2.1-1.1c-.2-.1-.3-.4-.2-.6l1.8-4.3c.1-.2.4-.4.6-.3l2.3.8c.6-.8 1.4-1.5 2.2-2.2l-.8-2.3c-.1-.2 0-.5.3-.6l4.3-1.8c.2-.1.5 0 .6.2l1.1 2.1c1-.1 2-.1 3.1 0l1.1-2.1c.1-.2.4-.3.6-.2L69 10c.2.1.4.4.3.6l-.8 2.3c.8.6 1.5 1.4 2.2 2.2l2.3-.8c.3-.1.5 0 .6.3l1.8 4.3c.1.2 0 .5-.2.6L73 20.6c.1 1 .1 2 0 3.1l2.1 1.1c.2.1.3.4.2.6l-1.8 4.3c-.1.2-.4.4-.6.3l-2.3-.8c-.6.8-1.4 1.5-2.2 2.2l.8 2.3c.1.2 0 .5-.3.6L64.8 36h-.2zm-1.3-3.4c.2 0 .4.1.4.3l1 2 3.4-1.4-.7-2.2c-.1-.2 0-.4.2-.6.9-.7 1.8-1.5 2.5-2.5.1-.2.4-.3.6-.2l2.2.7 1.4-3.4-2-1c-.2-.1-.3-.3-.3-.5.2-1.2.2-2.3 0-3.5 0-.2.1-.4.3-.5l2-1-1.4-3.4-2.2.7c-.2.1-.4 0-.6-.2-.7-.9-1.5-1.8-2.5-2.5-.2-.1-.3-.4-.2-.6l.7-2.2-3.4-1.4-1 2c-.1.2-.3.3-.5.3-1.2-.2-2.3-.2-3.5 0-.2 0-.4-.1-.5-.3l-1-2-3.4 1.4.7 2.2c.1.2 0 .4-.2.6-.9.7-1.8 1.5-2.5 2.5-.1.2-.4.3-.6.2l-2.2-.7-1.4 3.4 2 1c.2.1.3.3.3.5-.2 1.2-.2 2.3 0 3.5 0 .2-.1.4-.3.5l-2 1 1.4 3.4 2.2-.7c.2-.1.4 0 .6.2.7.9 1.5 1.8 2.5 2.5.2.1.3.4.2.6l-.7 2.2 3.4 1.4 1-2c.1-.2.3-.3.5-.3 1.2.2 2.4.2 3.6 0z"/><path id="XMLID_28_" class="st1" d="M61.7 27.2c-2.7 0-4.9-2.2-4.9-4.9s2.2-4.9 4.9-4.9 4.9 2.2 4.9 4.9-2.2 4.9-4.9 4.9zm0-8.8c-2.2 0-3.9 1.8-3.9 3.9s1.8 3.9 3.9 3.9 3.9-1.8 3.9-3.9-1.8-3.9-3.9-3.9z"/></g></svg>