<svg id="Layer_1" xmlns="http://www.w3.org/2000/svg" viewBox="0 0 102.1 78.1"><style>.st0,.st1{fill:none;stroke:#19212d;stroke-width:2.0522;stroke-linecap:round;stroke-linejoin:round;stroke-miterlimit:10}.st1{stroke:#9fd34a}</style><path class="st0" d="M51 35.8h19.6M18.4 43.3c-2.6-1.5-4.3-4.3-4.3-7.5 0-4.8 3.9-8.7 8.7-8.7 4.8 0 8.7 3.9 8.7 8.7 0 3.2-1.8 6-4.4 7.5"/><ellipse class="st0" cx="79.3" cy="35.8" rx="8.7" ry="8.7"/><path class="st1" d="M35.8 35.8h6.5l21.8 21.7-19.6 19.6-21.7-21.7V35.8h4.3"/><path class="st0" d="M88 35.8h13V24.9c0-5.1-7.4-9.8-28.2-13C64.4 3.9 56.9 1 48.7 1H35.8c-8.4 0-20.2 8.2-23.9 10.9H5.4c-1.2 0-2.2 1-2.2 2.2v8.7L1 27.1v4.3c0 2.4 1.9 4.3 4.3 4.3H14"/><path class="st0" d="M66.4 14.5l-4.3 1.7H20.6l-2.2-2.1"/></svg>