<svg id="Layer_1" xmlns="http://www.w3.org/2000/svg" viewBox="0 0 34.3 47.8"><style>.st0{fill:#19212d}.st1{fill:#a0cd4c}</style><path id="XMLID_37_" class="st0" d="M28 10.4H6.2V4.2h7.3v-.5c0-2 1.6-3.6 3.6-3.6s3.6 1.6 3.6 3.6v.5H28v6.2zm-20.8-1H27V5.2h-7.7l.2-.7c.1-.3.2-.6.2-.9 0-1.4-1.2-2.6-2.6-2.6s-2.6 1.2-2.6 2.6c0 .3.1.6.2.9l.2.7H7.2v4.2z"/><path id="XMLID_36_" class="st0" d="M34.3 47.8H0V6.2h6.7v1H1v39.6h32.3V7.2h-5.8v-1h6.8z"/><path id="XMLID_35_" class="st0" d="M14.5 26H5.2v-9.4h5.7v1H6.2V25h7.3v-1.6h1z"/><path id="XMLID_34_" class="st1" d="M10.9 23l-2.4-2.4.7-.7 1.7 1.7 5.4-5.3.7.7z"/><path id="XMLID_33_" class="st0" d="M14.5 40.5H5.2v-9.3h5.7v1H6.2v7.3h7.3v-1.6h1z"/><path id="XMLID_32_" class="st1" d="M10.9 37.6l-2.4-2.4.7-.7 1.7 1.7 5.4-5.4.7.7z"/><path id="XMLID_31_" class="st0" d="M19.2 18.7h10.4v1H19.2z"/><path id="XMLID_30_" class="st0" d="M19.2 22.9h6.2v1h-6.2z"/><path id="XMLID_29_" class="st0" d="M19.2 33.3h10.4v1H19.2z"/><path id="XMLID_28_" class="st0" d="M19.2 37.4h6.2v1h-6.2z"/></svg>