<svg id="Layer_1" xmlns="http://www.w3.org/2000/svg" viewBox="-432 245.2 94.9 150.8"><style>.st0,.st1{fill:none;stroke:#fff;stroke-width:2;stroke-linecap:round;stroke-linejoin:round}.st1{stroke:#9fd34a}</style><title>car</title><path class="st0" d="M-400.1 167.7v105.5m30.7-105.5v105.5M-385.3 267h1.1l5.7 6.2H-391l5.7-6.2zm47.2 73.9v-26.3l-21-19.9-4.4 4.4 19.2 18v21.2l-19.4 19.5v8.7l25.6-25.6zm-67.4-41.8l-4.4-4.4-21.1 20V341l25.7 25.7v-8.8l-19.5-19.4v-21.1l19.3-18.3zm12.9-5.1h16.5"/><path class="st1" d="M-375.3 374.2c-.7 3.1 1.2 6.2 4.3 6.9.9.2 1.7.2 2.6 0 2.1-.5 3.8-2.2 4.3-4.3.7-3.1-1.2-6.2-4.3-6.9-3.1-.7-6.2 1.2-6.9 4.3zm0-57.8c-.7 3.1 1.2 6.2 4.3 6.9s6.2-1.2 6.9-4.3c.7-3.1-1.2-6.2-4.3-6.9-.9-.2-1.8-.2-2.6 0-2.1.5-3.8 2.2-4.3 4.3zm-2.7-17.1h-18.4v1c0 2.4 1.9 4.3 4.3 4.3v1.2l-8.4 5.1c-2 1.2-3.2 3.4-3.2 5.7V353c0 1.5.5 3 1.5 4.2l11 13.7 2.2 17.1c.2 1.5 1.3 2.8 2.8 3.2l6.1 1.8 1.7 2 10.1-1.5v-8.4c-1.4.3-2.8.3-4.2 0-4.6-1.1-7.9-5.3-7.7-10.1.2-5.4 4.8-9.7 10.2-9.5.6 0 1.1.1 1.7.2v-38.3c-1.1.2-2.2.3-3.3.1-4.9-.9-8.5-5-8.6-10 .1-5.4 4.5-9.7 9.9-9.7.7 0 1.3.1 2 .2v-3.8l-5.7-.6c-2.4-.1-4.1-2-4-4.3zm-13.3 12.7v49.1m0-26.2h-6.4"/><path class="st0" d="M-404.7 277.8h39.8V294h-39.8v-16.2z"/></svg>