<svg id="Layer_1" xmlns="http://www.w3.org/2000/svg" viewBox="0 0 51.4 55.1"><style>.st0{fill:#19212d}.st1{fill:#a0cd4c}</style><path id="XMLID_36_" class="st0" d="M47.2 39.3l-4.1-4.1v-2.4l-.9-.8-2.5-.2-1.5-1.5v-2.5l-.9-.9h-2.5l-4.9-5.4c-4 1.2-8.4.2-11.2-2.5-4-4-3.8-10.9.6-15.2.2-.2.4-.3.5-.5l.7.7c-.2.1-.3.3-.5.5-4 4-4.3 10.2-.6 13.8 2.5 2.5 6.7 3.4 10.4 2.1l.3-.1 5 5.5h2.4l1.5 1.5v2.5l1 1 2.5.2 1.5 1.3v2.5l3.3 3.3 3.1-2.1v-4.4L35.3 16.4l.2-.3c2.2-3.8 1.5-8.4-2-11.9C31 1.6 27.4.8 24 1.9l-.3-.9c3.8-1.2 7.7-.3 10.5 2.5 3.7 3.7 4.6 8.6 2.3 12.8l14.9 14.8v5.4l-4.2 2.8z"/><path id="XMLID_35_" class="st0" d="M8 13.2l-.7-.8c1-.9 2.3-1.3 3.6-1.3h5.5v1H11c-1.1 0-2.2.4-3 1.1z"/><path id="XMLID_34_" class="st0" d="M16.5 55.1H5.4c-3 0-5.4-2.4-5.4-5.4v-28c0-1.9.8-3.7 2.3-4.9l2.8-2.4.7.8L3 17.6c-1.2 1-1.9 2.5-1.9 4.1v28c0 2.4 2 4.4 4.4 4.4h11.1c2.4 0 4.4-2 4.4-4.4V20.2h1v29.5c-.1 3-2.5 5.4-5.5 5.4z"/><path id="XMLID_33_" class="st1" d="M5.4 34.5h9.8v1H5.4z"/><path id="XMLID_30_" class="st1" d="M14 45.3H7.9c-1.6 0-3-1.3-3-3V27.6c0-1.6 1.3-3 3-3H14c1.6 0 3 1.3 3 3v14.8c0 1.6-1.3 2.9-3 2.9zM7.9 25.6c-1.1 0-2 .9-2 2v14.8c0 1.1.9 2 2 2H14c1.1 0 2-.9 2-2V27.6c0-1.1-.9-2-2-2H7.9z"/><path id="XMLID_29_" class="st0" d="M14 20.7C8.3 20.7 3.7 16 3.7 10.3S8.3 0 14 0s10.3 4.6 10.3 10.3h-1C23.4 5.2 19.2 1 14 1s-9.3 4.2-9.3 9.3 4.2 9.3 9.3 9.3c.8 0 1.6-.1 2.3-.3l.2 1c-.7.3-1.6.4-2.5.4z"/><path id="XMLID_28_" transform="rotate(45.001 25.109 9.113)" class="st0" d="M24.6 5.6h1v7h-1z"/></svg>