<svg id="Layer_1" data-name="Layer 1" xmlns="http://www.w3.org/2000/svg" viewBox="0 0 184.43 184.43"><defs><style>.cls-1,.cls-3,.cls-4{fill:none}.cls-1,.cls-2{stroke:#9fd34a}.cls-1,.cls-3{stroke-linecap:round;stroke-linejoin:round;stroke-width:1.91px}.cls-2{fill:#f4f4f5;stroke-width:2px}.cls-3{stroke:#19212d}.cls-4{stroke:#8c9096;stroke-miterlimit:10;stroke-width:1.99px}</style></defs><title>icon2</title><path class="cls-1" d="M76.84 71.38V55.67h4.51v3.64h.97l6.01-9.89h36.21l13.24 10.61 16.72 2.19 2.18 7.27 1.75 1.45-1.31 8.58H83.09l-1.74-8.29-4.51.15z"/><path class="cls-1" d="M111.62 55.46v4.43h17.35M88.08 59.89h16.41v-4.43M81.35 55.67v10.5"/><path class="cls-2" d="M97.44 73.82a6.59 6.59 0 1 1-4.75 4.75 6.61 6.61 0 0 1 4.75-4.75zM139.25 73.82a6.6 6.6 0 0 1 8 8 6.51 6.51 0 0 1-4.75 4.74 6.6 6.6 0 0 1-8-8 6.53 6.53 0 0 1 4.75-4.74z"/><circle class="cls-3" cx="117.63" cy="66.8" r="65.84"/><circle class="cls-4" cx="117.63" cy="66.8" r="56.44"/><path class="cls-3" d="M48.35 119.41L2.06 165.7a3.76 3.76 0 0 0 0 5.32l11.35 11.36a3.78 3.78 0 0 0 5.32 0l43.64-43.64a3.76 3.76 0 0 0 0-5.32l-5.68-5.68 14.39-14.38"/></svg>