<svg id="Layer_1" xmlns="http://www.w3.org/2000/svg" viewBox="0 0 20.5 25.5"><style>.st0{fill:#19212d}.st1{fill:#a0cd4c}</style><path id="XMLID_33_" class="st0" d="M13.3 19.1h-.6v-2.2c0-1.4 1.1-2.3 2.1-3.1.9-.7 1.8-1.4 1.8-2.4V.6H3.9v10.8c0 1 .9 1.7 1.8 2.4 1 .8 2.1 1.7 2.1 3.1v2.2h-.6v-2.2c0-1.1-.9-1.9-1.9-2.6-1-.8-2-1.6-2-2.9V0h13.9v11.4c0 1.3-1 2.1-2 2.9-1 .8-1.9 1.5-1.9 2.6v2.2z"/><path id="XMLID_32_" class="st0" d="M3.1 10.6h-.7c-.4 0-.7-.1-1-.4l-.7-.7C.3 9 0 8.3 0 7.7V2.8h3.6v.6h-3v4.3c0 .5.2 1 .6 1.4l.7.7c.1.1.3.2.5.2H3v.6z"/><path id="XMLID_31_" class="st0" d="M18.1 10.6h-.6V10h.6c.2 0 .4-.1.6-.2l.6-.8c.4-.4.6-.8.6-1.4V3.4h-3v-.6h3.6v4.9c0 .7-.3 1.3-.7 1.8l-.7.7c-.3.2-.6.4-1 .4z"/><path id="XMLID_30_" class="st0" d="M15 21.9h-.6v-1.7c0-.4-.4-.8-.8-.8h-1.7v-.6h1.7c.8 0 1.4.6 1.4 1.4v1.7z"/><path id="XMLID_29_" class="st0" d="M6.1 21.9h-.6v-1.7c0-.8.6-1.4 1.4-1.4h3.9v.6H6.9c-.4 0-.8.4-.8.8v1.7z"/><path id="XMLID_28_" class="st0" d="M16.6 25.5H3.9V23c0-.8.6-1.4 1.4-1.4h6.1v.6H5.3c-.4 0-.8.4-.8.8v1.9H16V23c0-.4-.4-.8-.8-.8h-2.8v-.6h2.8c.8 0 1.4.6 1.4 1.4v2.5z"/><path class="st1" d="M10.3 3.6l1 2.8 2.8.2L12 8.5l.6 2.8-2.3-1.5-2.4 1.5.6-2.8-2.1-1.9 2.8-.2z"/></svg>