<svg id="Layer_1" xmlns="http://www.w3.org/2000/svg" viewBox="0 0 47 57.2"><style>.st0,.st1,.st2{stroke:#fff;stroke-width:1.5;stroke-miterlimit:10}.st0{stroke-linecap:round;stroke-linejoin:round;fill:none}.st1,.st2{fill:#fff}.st2{fill:none;stroke:#9fd34a;stroke-linecap:round;stroke-linejoin:round}</style><path class="st0" d="M46.2 33.8c0 12.5-10.2 22.7-22.7 22.7S.8 46.3.8 33.8C.7 21.2 10.9 11 23.5 11v22.7l12.3-19.1c6.2 4 10.4 11.1 10.4 19.2z"/><path class="st1" d="M11.7 31.6h3.6v.7H9.8v-.7h1v-3.2h-1v-.5h1v-1.5c0-.8.2-1.4.6-1.8.4-.4 1-.6 1.7-.6.4 0 .8.1 1.2.3.4.2.7.5 1 .8l-.3.5c-.2-.3-.5-.6-.8-.7-.3-.2-.6-.3-1-.3-.5 0-.9.2-1.1.5-.3.3-.4.7-.4 1.3v1.5h2.2v.5h-2.2v3.2z"/><path class="st2" d="M27.2.8v19.8L38 3.9S33.9 1 27.2.8z"/></svg>