<svg xmlns="http://www.w3.org/2000/svg" viewBox="0 0 126.93 80.35"><defs><style>.cls-1,.cls-2,.cls-3,.cls-4{fill:none;}.cls-1,.cls-2,.cls-3{stroke:#19212d;}.cls-1{stroke-linecap:round;}.cls-1,.cls-3{stroke-linejoin:round;}.cls-2,.cls-4{stroke-miterlimit:10;}.cls-4{stroke:#a0c74f;}</style></defs><title>Asset 3</title><g id="Layer_2" data-name="Layer 2"><g id="Artwork"><path class="cls-1" d="M63.47,68.46H17.67a8.57,8.57,0,0,1-8.58-8.55V45.14A17,17,0,0,1,12,35.66l2.84-4.24L3.36,28.57A2.85,2.85,0,0,1,.5,25.72V20a2.85,2.85,0,0,1,2.86-2.85H17.67l5.73,8.54L32,28.57H63.47"/><path class="cls-2" d="M20.53,22.88s7.28-15.55,8.59-17.1a11.41,11.41,0,0,1,6.06-3.33C39.06,1.91,44.8,1,52,.5L80.64,1c4.57.48,8.32,1.05,11.11,1.44a11.33,11.33,0,0,1,6.06,3.33c1.32,1.55,8.59,17.1,8.59,17.1"/><polyline class="cls-2" points="17.67 39.97 23.4 45.67 37.71 45.67"/><path class="cls-3" d="M12,65.61V77a2.85,2.85,0,0,0,2.86,2.85h20A2.85,2.85,0,0,0,37.71,77V74.16"/><path class="cls-1" d="M63.47,68.46h45.79a8.57,8.57,0,0,0,8.59-8.55V45.14A17.06,17.06,0,0,0,115,35.66l-2.84-4.24,11.45-2.85a2.85,2.85,0,0,0,2.86-2.85V20a2.85,2.85,0,0,0-2.86-2.85H109.26l-5.72,8.54L95,28.57H63.47"/><polyline class="cls-2" points="109.26 39.97 103.54 45.67 89.23 45.67"/><path class="cls-3" d="M115,65.61V77a2.86,2.86,0,0,1-2.87,2.85h-20A2.85,2.85,0,0,1,89.23,77V74.16"/><rect class="cls-4" x="37.63" y="53.99" width="50.18" height="8.74" rx="2.47"/></g></g></svg>