<svg xmlns="http://www.w3.org/2000/svg" viewBox="0 0 106.54 136.73"><defs><style>.cls-1,.cls-2{fill:none;stroke-linecap:round;stroke-linejoin:round;stroke-width:2px;}.cls-1{stroke:#19212d;}.cls-2{stroke:#9fd34a;}</style></defs><title>Asset 5</title><g id="Layer_2" data-name="Layer 2"><g id="Content"><path class="cls-1" d="M55,126.81v-6c0-2.55-8.43-9.86-10.51-13.12-1.29-2-10.32-27.85-10.32-27.85,0-2.87,7.29-6.55,12,0l7.77,12,4-3.81V43.5a6,6,0,0,1,6-6h0a6,6,0,0,1,6,6V64.33h6c1.87,0,4.81,1.19,5.95,3h6a6.25,6.25,0,0,1,6,6h6a6.25,6.25,0,0,1,6,6V109c0,6-6,10.86-6,14.87v3"/><line class="cls-1" x1="81.74" y1="67.3" x2="81.74" y2="82.18"/><line class="cls-1" x1="93.64" y1="73.25" x2="93.64" y2="85.16"/><polyline class="cls-1" points="105.54 135.73 105.54 126.81 49.02 126.81 49.02 135.73"/><path class="cls-2" d="M75.79,34.4a26.47,26.47,0,0,0,2.61-8.13c1-6.56-.18-15.58-7.39-21.14-8.07-6.22-23.76-6.25-31.15,5.73C32.46-1.12,16.78-1.09,8.7,5.13,1.49,10.69.31,19.71,1.31,26.27c2,12.94,12.42,22.07,38.55,41.1,4.48-3.27,8.5-6.24,12.09-9"/></g></g></svg>