<svg id="Layer_1" xmlns="http://www.w3.org/2000/svg" viewBox="0 0 76.4 95.1"><style>.st0{fill:none;stroke:#19212d;stroke-width:1.5;stroke-miterlimit:10}.st1{fill:#9fd34a}.st2{font-family:&apos;Montserrat-Medium&apos;}.st3{font-size:29.6584px}</style><path class="st0" d="M48.6 71.5v-8.3c0-9.5 14.6-12.1 14.6-20.8V.8h-50v41.6c0 8.8 14.6 11.3 14.6 20.8v8.3M13.2 11.2H.8v17.4c0 2.2.9 4.3 2.4 5.9L5.8 37c.8.8 1.8 1.2 2.9 1.2h2.4M63.2 11.2h12.5v17.4c0 2.2-.9 4.3-2.4 5.9L70.6 37c-.8.8-1.8 1.2-2.9 1.2h-2.4M44.4 71.5h6.2c2.3 0 4.2 1.9 4.2 4.2v6.2M21.6 81.9v-6.2c0-2.3 1.9-4.2 4.2-4.2h14.6M46.5 81.9h10.4c2.3 0 4.2 1.9 4.2 4.2v8.3H15.3v-8.3c0-2.3 1.9-4.2 4.2-4.2h22.9"/><g><text id="XMLID_14_" transform="translate(28.561 39.178)" class="st1 st2 st3">£</text></g></svg>