<svg id="Layer_1" xmlns="http://www.w3.org/2000/svg" viewBox="0 0 89.3 89.3"><style>.st0,.st1{fill:none;stroke:#19212d;stroke-width:1.6;stroke-linecap:round;stroke-linejoin:round;stroke-miterlimit:10}.st1{stroke:#9ace4a}</style><path class="st0" d="M30.7 74.6c.8-.8 1.5-2 4-2h27.9c2.2 0 14.4-12.2 15.9-14 1.5-1.7 8.1-11.6 10-15.9-1.2-1.6-4.3-2.9-8-2-3.5.8-5.6 3.3-8 8l-9.1 4.7"/><path class="st0" d="M42.7 60.6h15.9c8 0 8-10 0-10H48.1c-1.7 0-4.8-4-7.4-4h-10c-2.7 0-6 2.2-8 4l-8 8"/><path transform="rotate(134.999 17.744 71.566)" class="st0" d="M10.7 54.7h14.1v33.8H10.7z"/><path class="st0" d="M10.8 64.6l4 4"/><path class="st1" d="M64.6 10.8L62 4.9C61.2 2.5 58.9.8 56.3.8H33c-2.6 0-4.9 1.6-5.7 4.1l-2.6 5.9M34.7 26.7h19.9"/><path class="st1" d="M74.6 8.8h-6c-.7 0-6 6-10 6H30.7c-3.9 0-9.3-6-10-6h-6c-1.1 0-2 .9-2 2v2.7c0 1.1.9 2 2 2l4 1.3v2c-1.3 1.3-2 3-2 4.8v3.2c0 1.8.8 3.3 2 4.4v5.5c0 1.1.9 2 2 2h8c1.1 0 2-.9 2-2v-4h27.9v4c0 1.1.9 2 2 2h8c1.1 0 2-.9 2-2v-5.5c1.2-1.1 2-2.7 2-4.4v-3.2c0-1.8-.7-3.5-2-4.8v-2l4-1.3c1.1 0 2-.9 2-2v-2.7c-.1-1.1-.9-2-2-2zM65.8 19.5c-2.5 2.1-5.9 3.2-9.1 3.2M23.5 19.5c2.5 2.1 5.9 3.2 9.1 3.2M30.7 32.7h-8M66.6 32.7h-8"/></svg>