<svg id="Layer_1" xmlns="http://www.w3.org/2000/svg" viewBox="0 0 83.8 74.5"><style>.st0,.st1{fill:#9fd34a;stroke:#9fd34a;stroke-width:.75;stroke-miterlimit:10}.st1{fill:none;stroke:#19212d;stroke-width:2;stroke-linecap:round;stroke-linejoin:round}</style><path class="st0" d="M42.8 18.1l2.9-3.4.6.6-4.4 5.2-.6-.6.9-1-3.2-2.6-.9 1-.5-.4.9-1-1.4-1.2c-.8-.7-1.2-1.3-1.3-2.1-.1-.7.2-1.4.8-2.2.3-.4.8-.7 1.3-.9.5-.2 1-.3 1.6-.3l.3.9c-.5 0-1 0-1.4.2-.4.1-.7.4-1 .7-.4.5-.6 1-.5 1.5.1.5.4 1 .9 1.4l1.4 1.2L41 13l.5.4-1.8 2.1 3.1 2.6z"/><path class="st1" d="M29.6 10.7H6.7c-3.2 0-5.7 2.5-5.7 5.7M73.3 22.1V10.7H48.6"/><path class="st1" d="M60.2 22.1L39.1 1l-21 21.1"/><path class="st1" d="M79 56.4v17.1H6.7C3.5 73.5 1 71 1 67.8V16.4c0 3.2 2.5 5.7 5.7 5.7H79v15.2"/><path class="st1" d="M80.8 58.3h-31c-2.8 0-5-2.2-5-5V40.4c0-2.8 2.2-5 5-5h31.1c1.1 0 2 .9 2 2v18.8c-.1 1.2-.9 2.1-2.1 2.1z"/><path class="st1" d="M61.9 46.8c0 2.1-1.7 3.8-3.8 3.8h-1.9c-2.1 0-3.8-1.7-3.8-3.8 0-2.1 1.7-3.8 3.8-3.8h1.9c2.1 0 3.8 1.7 3.8 3.8z"/></svg>