<svg id="Layer_1" xmlns="http://www.w3.org/2000/svg" viewBox="0 0 40.5 46.6"><style>.st0{fill:none;stroke:#19212d;stroke-width:.8;stroke-linecap:round;stroke-linejoin:round;stroke-miterlimit:10}.st1{fill:#19212d}.st2{font-family:&apos;Montserrat-Light&apos;}.st3{font-size:14px}</style><path class="st0" d="M28.5.4l-5.8 10.4M40.1.4l-8.5 15.4"/><path id="XMLID_20_" class="st1" d="M29 9.4l.3.2.6 2.7-3.6-2 2.7-.9m0-.8h-.3l-2.6.9c-.3.1-.5.4-.5.7 0 .3.1.6.4.8l3.6 2c.1.1.3.1.4.1.2 0 .3-.1.5-.2.3-.2.4-.5.3-.8l-.6-2.7c-.1-.2-.2-.4-.4-.5l-.3-.2c-.2-.1-.4-.1-.5-.1z"/><path id="XMLID_16_" class="st1" d="M30.2 25.7l2.9 9.2-4.2 7.6-11.6 3.3 1.4-2.5 8.8-2.5 3.4-6.2-2.7-8.3 2-.6m0-.8H30l-2 .6c-.2.1-.4.2-.5.4-.1.2-.1.4-.1.6l2.6 8-3.1 5.6-8.5 2.5c-.2.1-.4.2-.5.4l-1.4 2.5c-.2.3-.1.6.1.9.2.2.4.3.6.3h.2L29 43.4c.2-.1.4-.2.5-.4v-.1l4.2-7.5c.1-.2.1-.4.1-.6L31 25.4c-.2-.3-.5-.5-.8-.5z"/><path id="XMLID_12_" class="st1" d="M14.4 17.5l.6 2-8.5 2.2L3 27.8l2.5 8.8-1.4 2.6L.8 27.5 5 19.9l9.4-2.4m0-.8h-.2l-9.4 2.4c-.2.1-.4.2-.5.4L.1 27.1c-.1.2-.1.5 0 .7l3.3 11.5c.1.3.4.5.7.6h.1c.3 0 .6-.2.7-.4l1.4-2.6c.1-.2.1-.4.1-.6L4 27.8l3-5.5 8.2-2.1c.2-.1.4-.2.5-.4.1-.2.1-.4.1-.6l-.6-2c-.1-.3-.5-.5-.8-.5z"/><path class="st0" d="M21.5 18l4.8 2.7"/><path transform="rotate(29.002 25.131 16.952)" class="st0" d="M18.5 14.3h13.2v5.4H18.5z"/><text transform="translate(12.308 34.746)" class="st1 st2 st3">£</text></svg>