<svg xmlns="http://www.w3.org/2000/svg" viewBox="0 0 93.46 86.67"><defs><style>.cls-1,.cls-2{fill:none;stroke-linecap:round;stroke-linejoin:round;stroke-width:2.05px}.cls-1{stroke:#19212d}.cls-2{stroke:#9fd34a}</style></defs><title>location map</title><path d="M31.5 76.75L2.15 85.3A.88.88 0 0 1 1 84.47V10.6a.9.9 0 0 1 .64-.87L31.5 1zM62 12V9.92l29.3-8.56a.9.9 0 0 1 1.13.85v73.9a.9.9 0 0 1-.64.84L62 85.64v-10m-.04-61.94V9.92L31.5 1.02v75.73l30.46 8.9v-14.1" class="cls-1"/><path d="M79.9 35.8C79.9 51.1 62 67.4 62 67.4S44 51.1 44 35.8a18 18 0 1 1 35.9 0z" class="cls-2"/><circle cx="61.96" cy="36.38" r="6.43" class="cls-2"/></svg>