<svg id="Layer_1" xmlns="http://www.w3.org/2000/svg" viewBox="0 0 96.3 74.2"><style>.st0{fill:#a0cd4c}.st1{fill:#19212d}</style><path id="XMLID_31_" class="st0" d="M79.3 34c-9.4 0-17-7.6-17-17S70 0 79.3 0s17 7.6 17 17-7.6 17-17 17zm0-33c-8.8 0-16 7.2-16 16s7.2 16 16 16 16-7.2 16-16-7.1-16-16-16z"/><path id="XMLID_32_" class="st1" d="M77.7 74.2H.5c-.3 0-.5-.2-.5-.5V19.3c0-.3.2-.5.5-.5h59.3v1H1v53.4h76.2V39h1v34.7c0 .3-.2.5-.5.5z"/><path id="XMLID_30_" class="st1" d="M38.9 46.8c-.1 0-.2 0-.3-.1l-32-22.3.6-.8 31.7 22.1 24.4-17 .6.8-24.7 17.2c-.1 0-.2.1-.3.1z"/><path id="XMLID_29_" class="st0" d="M79.1 6.7h1v20.5h-1z"/><path id="XMLID_28_" class="st0" d="M69.3 16.5h20.5v1H69.3z"/></svg>