<svg id="Layer_1" xmlns="http://www.w3.org/2000/svg" viewBox="0 0 121.9 97"><style>.st0{fill:#19212d}.st1{fill:#a0cd4c}</style><path id="XMLID_47_" class="st0" d="M117 86.1h-4.3v-1h4.3c2.1 0 3.8-1.7 3.8-3.8V66.6c0-2.6-1.5-4.3-3.8-4.3h-2.5L107 48.8c-.7-1-1.9-1.6-3.1-1.6H86.7v-1h17.2c1.6 0 3.1.8 4 2.1l7.2 13h1.9c2.9 0 4.8 2.1 4.8 5.3v14.7c.1 2.7-2.1 4.8-4.8 4.8z"/><path id="XMLID_46_" class="st0" d="M87.2 86.1H54.3v-1h31.9V31.5h1z"/><path id="XMLID_45_" class="st0" d="M18.7 85.1H37v1H18.7z"/><path id="XMLID_42_" class="st0" d="M104 97c-5.1 0-9.2-4.1-9.2-9.1s4.1-9.1 9.2-9.1 9.2 4.1 9.2 9.1-4.1 9.1-9.2 9.1zm0-17.3c-4.5 0-8.2 3.7-8.2 8.1S99.5 96 104 96s8.2-3.7 8.2-8.1-3.7-8.2-8.2-8.2z"/><path id="XMLID_39_" class="st0" d="M45.6 97c-5.1 0-9.2-4.1-9.2-9.1s4.1-9.1 9.2-9.1 9.2 4.1 9.2 9.1-4.1 9.1-9.2 9.1zm0-17.3c-4.5 0-8.2 3.7-8.2 8.1s3.7 8.1 8.2 8.1 8.2-3.7 8.2-8.1-3.6-8.1-8.2-8.1z"/><path id="XMLID_38_" class="st0" d="M86.7 85.1h8.7v1h-8.7z"/><path id="XMLID_37_" class="st1" d="M106.2 64.5H91.1v-1h14.6V62l-4.2-6.4.8-.6 4.3 6.5c.1.1.1.2.1.3V64c0 .3-.2.5-.5.5z"/><path id="XMLID_33_" class="st1" d="M37.7 57h26.5v1H37.7z"/><path id="XMLID_32_" class="st1" d="M46.9 44h28.8v1H46.9z"/><g><path id="XMLID_28_" class="st0" d="M18.7 78.7h68.1v1H18.7z"/></g><g><path id="XMLID_34_" class="st0" d="M20.6 28.7c-2.2 0-4.2-.8-5.6-2.3-1.5-1.5-2.3-3.4-2.3-5.6 0-4.5 3.4-7.8 7.8-7.8 4.5 0 7.9 3.4 7.9 7.8 0 2.2-.8 4.1-2.3 5.6-1.4 1.5-3.3 2.3-5.5 2.3zm0-14.7c-3.9 0-6.8 2.9-6.8 6.8 0 1.9.7 3.6 2 4.9 1.3 1.3 3 2 4.9 2 1.9 0 3.7-.7 4.9-2 1.3-1.3 2-3 2-4.9-.1-3.9-3.1-6.8-7-6.8z"/><path id="XMLID_29_" class="st0" d="M20.6 58.2c-.2 0-.3-.1-.4-.2-.2-.2-14-20.3-16.7-24.6C.6 28.7 0 25.1 0 20.6 0 9.2 9.2 0 20.6 0s20.6 9.2 20.6 20.6c0 4.5-.6 8-3.5 12.8C35 37.7 21.2 57.8 21 58c-.1.1-.2.2-.4.2zm0-57.2C9.8 1 1 9.8 1 20.6c0 4.3.5 7.7 3.4 12.2 2.4 3.9 13.9 20.6 16.2 24 2.3-3.4 13.8-20.1 16.2-24 2.8-4.5 3.4-7.9 3.4-12.2C40.2 9.8 31.4 1 20.6 1z"/></g></svg>