<svg id="Layer_1" xmlns="http://www.w3.org/2000/svg" viewBox="0 0 79.8 83.4"><style>.st0,.st1{fill:none;stroke:#19212d;stroke-width:1.6;stroke-linecap:round;stroke-linejoin:round;stroke-miterlimit:10}.st1{stroke:#9ace4a;stroke-width:1.9097}</style><path class="st0" d="M59.5 77.3v3.6c0 1 .8 1.8 1.8 1.8h8.9c1 0 1.8-.8 1.8-1.8v-7.1"/><path class="st0" d="M47 75.5H25.7c-2.9 0-5.3-2.4-5.3-5.3v-4.6c0-1.6.6-3.2 1.8-4.3v-1.8l-5.3-1.2c-1 0-1.8-.8-1.8-1.8v-2.4c0-1 .8-1.8 1.8-1.8H24c.6 0 5.4 5.3 8.9 5.3H61.2c3.5 0 8.3-5.3 8.9-5.3h7.1c1 0 1.8.8 1.8 1.8v2.4c0 1-.8 1.8-1.8 1.8l-5.3 1.2v1.8c1.1 1.1 1.8 2.7 1.8 4.3v4.6c0 2.9-2.4 5.3-5.3 5.3H47z"/><path class="st0" d="M66.6 54.1l-2.3-7c-.7-2.2-2.8-3.6-5.1-3.6H34.9c-2.3 0-4.3 1.5-5.1 3.6l-2.3 7M38.1 70.2h17.8M34.6 77.3v3.6c0 1-.8 1.8-1.8 1.8h-8.9c-1 0-1.8-.8-1.8-1.8v-7.1M67.6 61.9c-2.2 1.9-5 2.9-7.9 2.9h-2.1M26.4 61.9c2.2 1.9 5 2.9 7.9 2.9h2.1"/><path class="st0" d="M16.8 66.6H4.4C2.4 66.6.8 65 .8 63V18.6h69.4V47"/><path class="st0" d="M9.7 4.4H4.4C2.4 4.4.8 6 .8 8v10.7h69.4V7.9c0-2-1.6-3.6-3.6-3.6h-5.3M50.6 4.4H20.4"/><path class="st0" d="M9.7.8h10.7v8.9H9.7zM50.6.8h10.7v8.9H50.6z"/><path class="st1" d="M9.7 27.5h12.4v8.9H9.7z"/><path class="st0" d="M9.7 54.1V43.5h12.4v5.3M29.3 27.5h12.4v8.9H29.3zM48.8 27.5h12.4v8.9H48.8z"/></svg>