<svg id="Layer_1" xmlns="http://www.w3.org/2000/svg" viewBox="0 0 131.9 42"><style>.st0{fill:none;stroke:#19212d;stroke-width:2;stroke-miterlimit:10}.st1{fill:#9fd34a}.st2{fill:#19212d}.st3{fill:none}.st4{font-family:&apos;UKNumberPlate&apos;}.st5{font-size:22px}</style><path class="st0" d="M128.9 41H2.9c-1 0-1.9-.8-1.9-1.9V2.9C1 1.8 1.8 1 2.9 1h126c1 0 1.9.8 1.9 1.9v36.2c0 1.1-.8 1.9-1.9 1.9z"/><path class="st1" d="M19.7 7.5l-.2.9h-.9l.7.5-.3.8.7-.5.8.5-.3-.8.7-.5H20zM20 22.9l-.3-.8-.2.8h-.9l.7.5-.3.8.7-.5.8.5-.3-.8.7-.5zM12.5 16.5l.7.5-.3-.9.7-.5h-.9l-.2-.8-.3.8h-.9l.7.5-.2.9zM15.7 9.8l-.3.9.7-.5.7.5-.3-.9.8-.5h-.9l-.3-.8-.3.8H15zM13.4 11.2l-.2.8h-.9l.7.5-.3.8.7-.5.8.5-.3-.8.7-.5h-.9zM13.7 19.3l-.3-.9-.2.9h-.9l.7.5-.3.8.7-.5.8.5-.3-.8.7-.5zM16.4 21.9l-.3-.8-.3.8H15l.7.5-.3.9.7-.5.7.5-.3-.9.8-.5zM28.2 15.6h-.9l-.3-.8-.3.8h-.8l.7.5-.3.9.7-.5.7.5-.3-.9zM23.4 8.5l-.3.8h-.9l.7.5-.2.9.7-.5.7.5-.3-.9.7-.5h-.9zM25.6 12.5l-.3.8.7-.5.7.5-.2-.8.7-.5h-.9l-.3-.8-.2.8h-.9zM26.3 19.3l-.3-.9-.2.9h-.9l.7.5-.3.8.7-.5.7.5-.2-.8.7-.5zM23.6 21.9l-.2-.8-.3.8h-.9l.7.5-.2.9.7-.5.7.5-.3-.9.7-.5z"/><g><path class="st2" d="M18.3 31.5h1v2.4c-.3.2-.7.4-1.2.6-.4.2-.9.2-1.3.2-.6 0-1.2-.1-1.7-.4-.5-.3-.9-.7-1.2-1.2-.3-.5-.4-1-.4-1.6 0-.6.1-1.1.4-1.6.3-.5.7-.9 1.2-1.1.5-.3 1.1-.4 1.7-.4.4 0 .9.1 1.3.2.4.2.8.4 1.1.7l-.5.7c-.2-.2-.5-.4-.8-.5-.3-.1-.6-.2-.9-.2-.4 0-.7.1-1.1.3-.3.2-.6.4-.8.8-.2.3-.3.7-.3 1.1 0 .4.1.7.3 1.1.2.3.5.6.8.8.3.2.7.3 1.1.3.2 0 .4 0 .7-.1.2-.1.5-.2.7-.3v-1.8zM25 28.8c.4.3.6.7.6 1.1 0 .3-.1.6-.3.9-.2.2-.5.4-.8.5.4.1.7.3 1 .5s.4.6.4 1c0 .5-.2 1-.6 1.3-.4.3-1 .5-1.7.5h-2.8v-6.2h2.8c.5-.1 1 .1 1.4.4zm-.9 1.9c.2-.1.3-.3.3-.6 0-.2-.1-.4-.3-.6-.2-.1-.4-.2-.7-.2h-1.5v1.5h1.5c.3.1.5 0 .7-.1zm.2 2.6c.2-.1.3-.4.3-.6 0-.3-.1-.5-.3-.6-.2-.1-.5-.2-.9-.2h-1.5v1.6h1.5c.3 0 .6 0 .9-.2z"/></g><g><path id="XMLID_24_" class="st3" d="M19.2 14.2h125.9v15.5H19.2z"/><text id="XMLID_23_" transform="matrix(.9998 0 0 1 54.98 29.221)" class="st2 st4 st5">CAR 1</text></g><path class="st0" d="M38.9 1v39.2"/></svg>