<svg id="Layer_1" xmlns="http://www.w3.org/2000/svg" viewBox="0 0 99.7 74.1"><style>.st0,.st1{fill:none;stroke:#9ace4a;stroke-width:1.9097;stroke-linecap:round;stroke-linejoin:round;stroke-miterlimit:10}.st1{stroke:#19212d;stroke-width:1.6}</style><path class="st0" d="M74.5 35.2L58.7 23.7v19.5c0 .6.5.8 1 .3l4.4-4.3 4.3 7.5c.4.6 1.2.7 1.9.3l1.8-1.1c.7-.4.9-1.2.6-1.8L68.6 37H74c.6.1 1-1.4.5-1.8z"/><path class="st1" d="M92.5 73.3H7.2c-3.5 0-6.4-2.9-6.4-6.4v-4.3h38.4l2.1 2.1h17.1l2.1-2.1h38.4v4.3c0 3.6-2.8 6.4-6.4 6.4z"/><path class="st1" d="M7.2 62.7V5.1C7.2 2.7 9.1.8 11.5.8h76.8c2.4 0 4.3 1.9 4.3 4.3v57.6"/></svg>