<svg id="Layer_1" xmlns="http://www.w3.org/2000/svg" viewBox="0 0 26.1 17.5"><style>.st0{fill:#a0cd4c}.st1{fill:#fff}</style><path id="XMLID_30_" class="st0" d="M12.5 17.5c-.1 0-.2 0-.3-.1l-4.2-2-4.2 2.1c-.2.1-.5.1-.7-.1-.2-.2-.3-.4-.3-.7l.9-4.4L.2 8.9C0 8.7 0 8.4 0 8.1c.1-.3.3-.4.6-.4l4.7-.4 2-4.5c.2-.5 1-.5 1.2 0l2 4.5 4.7.4c.3 0 .5.2.6.4.1.3 0 .5-.2.7l-3.5 3.4.9 4.5c0 .3 0 .5-.3.7.1.1-.1.1-.2.1zM8 14.7h.1l4.3 2.2h.1v-.1l-.9-4.6c0-.1 0-.2.1-.3l3.6-3.5v-.1h-.1l-4.9-.4c-.1 0-.2-.1-.2-.2L8 3h-.1L5.8 7.7c0 .1-.1.2-.2.2l-4.9.4s-.1 0-.1.1v.1L4.2 12c.1.1.1.2.1.3l-.9 4.6v.1h.1l4.3-2.2c.1-.1.1-.1.2-.1z"/><path id="XMLID_29_" class="st1" d="M18 14.2c-.1 0-.2 0-.3-.1l-3.6-1.8.3-.5 3.6 1.8-.7-3.8c0-.1 0-.2.1-.3l3-2.9-4-.4c-.3 0-.4-.1-.4-.2l-1.8-3.9L12.4 6l-.5-.2 1.8-3.9c.2-.4.9-.4 1.1 0l1.7 3.7 3.8.4c.2 0 .4.2.5.4.1.2 0 .5-.1.6l-2.8 2.8.7 3.7c0 .2 0 .5-.2.6-.2.1-.3.1-.4.1z"/><path id="XMLID_28_" class="st1" d="M23.2 12.7c-.1 0-.2 0-.3-.1l-3.6-1.8.3-.5 3.6 1.8-.7-3.8c0-.1 0-.2.1-.3l3-2.9-4-.4c-.1 0-.2-.1-.2-.2L19.6.6l-1.8 3.9-.5-.2L19.1.4c-.1-.3.1-.4.3-.4.2 0 .5.1.6.4l1.7 3.7 3.9.3c.2 0 .4.2.5.4.1.2 0 .5-.1.6l-3 2.9.7 3.7c0 .2 0 .5-.2.6-.1 0-.2.1-.3.1z"/></svg>