<svg id="Layer_1" xmlns="http://www.w3.org/2000/svg" viewBox="0 0 62.9 87.9"><style>.st0,.st1{fill:none;stroke:#19212d;stroke-width:1.6;stroke-linecap:round;stroke-linejoin:round;stroke-miterlimit:10}.st1{stroke:#9bcb4c;stroke-width:1.9097}</style><path class="st0" d="M36.9 8.5c.2-.6.4-1.2.4-1.9 0-3.2-2.6-5.8-5.8-5.8s-5.8 2.6-5.8 5.8c0 .7.1 1.3.4 1.9H12.3v9.6h38.3V8.5H36.9z"/><path class="st0" d="M50.6 12.3h11.5v74.8H.8V12.3h11.5"/><path class="st0" d="M25.7 43v3.8H10.4V31.5H20"/><path class="st1" d="M16.1 37.2l3.9 3.9 10.5-10.6"/><path class="st0" d="M25.7 69.8v3.8H10.4V58.3H20"/><path class="st1" d="M16.1 64.1l3.9 3.8 10.5-10.5"/><path class="st0" d="M35.3 35.3h19.2M35.3 43h11.5M35.3 62.1h19.2M35.3 69.8h11.5"/></svg>