<svg id="Layer_1" xmlns="http://www.w3.org/2000/svg" viewBox="0 0 103.9 69.8"><style>.st0,.st1{fill:none;stroke:#9fd34a;stroke-width:2.1196;stroke-linejoin:round;stroke-miterlimit:10}.st1{stroke:#19212d}.st2{fill:#9fd34a}.st3{font-family:&apos;Montserrat-Medium&apos;}.st4{font-size:21.4727px}</style><path class="st0" d="M33 11.5l8.5 18.6 19.4 1.7c1.3.1 1.8 1.7.9 2.6L47.6 48.5l3.6 18.4c.2 1.2-1 2.2-2.1 1.6l-17.3-8.7-17.3 8.6c-1.1.6-2.4-.4-2.1-1.6L16 48.5 1.5 34.4c-.9-.9-.3-2.4.9-2.6l19.4-1.7 8.5-18.6c.5-1.2 2.2-1.2 2.7 0z"/><path class="st1" d="M48.5 23.4l7-15.4c.4-1 1.8-1 2.3 0l7 15.4 16.1 1.4c1.1.1 1.5 1.4.8 2.1L69.8 38.7l3 15.3c.2 1-.9 1.8-1.8 1.3l-14.4-7.2"/><path class="st1" d="M69.3 17.2l7-15.4c.4-1 1.8-1 2.3 0l7 15.4 16.1 1.4c1.1.1 1.5 1.4.8 2.1L90.6 32.4l3 15.3c.2 1-.9 1.8-1.8 1.3l-14.4-7.2"/><g><text id="XMLID_14_" transform="translate(24.637 49.9)" class="st2 st3 st4">£</text></g></svg>