<svg id="Layer_1" xmlns="http://www.w3.org/2000/svg" viewBox="0 0 92.7 69.1"><style>.st0,.st1{fill:none;stroke:#19212d;stroke-width:2.0522;stroke-linecap:round;stroke-linejoin:round;stroke-miterlimit:10}.st1{stroke:#9fd34a}</style><path class="st0" d="M83.8 68H8.9C4.6 68 1 66.5 1 62.1v-3.9h33.5l3.9 2h15.8l3.9-2h33.5v3.9c.1 4.4-3.5 5.9-7.8 5.9zM6.9 58.2V5c0-2.2 1.8-4 4-4h70.9c2.2 0 4 1.8 4 4v53.2"/><path class="st1" d="M66.1 20.7l-2.6-5.8c-.8-2.4-3.1-4-5.6-4H34.8c-2.5 0-4.8 1.6-5.6 4l-2.6 5.8M36.5 36.5H56.2"/><path class="st1" d="M75.9 18.8H70c-.7 0-6 5.9-9.9 5.9H32.6c-3.9 0-9.2-5.9-9.9-5.9h-5.9c-1.1 0-2 .9-2 2v2.6c0 1.1.9 2 2 2l3.9 1.3v2c-1.3 1.3-2 3-2 4.8v3.1c0 1.7.8 3.3 2 4.4v5.5c0 1.1.9 2 2 2h7.9c1.1 0 2-.9 2-2v-3.9h27.6v3.9c0 1.1.9 2 2 2H70c1.1 0 2-.9 2-2V41c1.2-1.1 2-2.6 2-4.4v-3.1c0-1.8-.7-3.5-2-4.8v-2l3.9-1.3c1.1 0 2-.9 2-2v-2.6c0-1.2-.9-2-2-2zM67.2 29.4c-2.4 2.1-5.8 3.2-9 3.2M25.5 29.4c2.4 2.1 5.8 3.2 9 3.2M32.6 42.4h-7.9M68 42.4h-7.9"/></svg>