<svg id="Layer_1" xmlns="http://www.w3.org/2000/svg" viewBox="0 0 58 76.6"><style>.st0,.st1{fill:none;stroke:#19212d;stroke-width:2;stroke-miterlimit:10}.st1{stroke:#9ace4a;stroke-width:1.9097;stroke-linecap:round;stroke-linejoin:round}</style><g id="XMLID_2_"><path id="XMLID_7_" class="st0" d="M10.7 22.1c2.6.1 5.9.6 5.9.6 1.3 2.9 5.7 5.5 6.7 6.4 2.7 2.2 8.1 2.6 10.2 4.2 3 2.3 5.5 5 9.4 5 4.5.1 4.9-3 4.5-4.7-.5-1.5-.9-3.3-4.2-4.9-2.3-1.1-4.9-2.1-6.1-4.7-.7-1.5-1.2-3-1-4.3.4-2.2 2.6-2.5 3.8-2.3 1.9.3 7.1 5.5 8.3 6.7-.2.9-1.2 3.2-1.3 5.2-.1 5.5 2.5 9.2 4.3 9.2 3.3 0 2.9-4 3.6-7 .5-2.2 2.8-10.8 2-12.1-.8-1.4-8.9-11-11.1-11.6-2.2-.7-15.5-5.1-20.4-5.1H10.7"/><path id="XMLID_6_" class="st0" d="M1 1h9.7v24.3H1z"/><path id="XMLID_5_" class="st1" d="M46.4 43.2c-4.5 0-8.1 3.6-8.1 8.1 0 3.3 2 6.2 4.9 7.4v16.9h3.2l3.2-3.2V58.7c2.9-1.3 4.9-4.1 4.9-7.4 0-4.5-3.6-8.1-8.1-8.1z"/><path id="XMLID_4_" class="st1" d="M36.7 45.4c-2.1 0-4.2.8-5.7 2.4-2.4 2.4-2.9 5.8-1.8 8.7l-12 12 2.3 2.3h4.2l9.7-9.7c2 .8 4.4.8 6.5-.1"/><path id="XMLID_3_" class="st0" d="M46.4 49.7v-13"/></g></svg>