<svg id="Layer_1" xmlns="http://www.w3.org/2000/svg" viewBox="0 0 329.6 238"><style>.st0{opacity:.1;fill:url(#SVGID_1_)}.st1{fill:#19212d}.st2{fill:#9fd34a}.st3{fill:none;stroke:#9fd34a;stroke-width:2;stroke-linejoin:round;stroke-miterlimit:10}</style><linearGradient id="SVGID_1_" gradientUnits="userSpaceOnUse" x1="-4033.903" y1="-1183.974" x2="-3795.944" y2="-1183.974" gradientTransform="rotate(-134.999 -1582.31 -1386.934)"><stop offset="0" stop-color="#19212d" stop-opacity=".2"/><stop offset="1" stop-color="#19212d" stop-opacity=".5"/></linearGradient><circle class="st0" cx="210.6" cy="119" r="119"/><path class="st1" d="M145.7 163.9c-.6 0-1.1-.5-1.1-1.1s.5-1.1 1.1-1.1c8.1 0 11.8-6.7 16.3-15.2 6.1-11.3 13.7-25.3 35.6-27.1.7-.1 1.3-.4 1.7-1 .4-.6.5-1.5.2-2.2l-9.3-24.7-.6.2c-3 1-5.9 1.5-8.6 1.5h-35.4c-.6 0-1.1-.5-1.1-1.1s.5-1.1 1.1-1.1H181c2.4 0 5-.5 7.8-1.3l.6-.2-9.2-24.6-34.8-7c-.3-.1-.6-.2-.7-.5-.2-.3-.2-.6-.2-.9.1-.5.6-.9 1.1-.9h.3l35.4 7.1c.1 0 .2.1.3.1L210 76.7c.3.2.6.5.6.9.1.4-.1.7-.3 1-.1.1-7.5 7.6-17.2 11.8l-.5.2 9.3 24.7c.5 1.2.3 2.9-.5 4.2-.5.9-1.6 1.9-3.4 2.1-20.7 1.7-27.6 14.5-33.7 25.8l-.1.1c-4.7 8.4-9 16.4-18.5 16.4zm46-75.5l.6-.3c6.4-2.8 11.8-7.1 14.5-9.5l.7-.6-24.3-12.1 8.5 22.5z"/><path class="st1" d="M237.8 107.2c-.3 0-.6-.1-.8-.3l-14.2-14.2c-.3-.3-.4-.8-.2-1.3s.6-.7 1.1-.7h18.5l-23.9-23.9c-1.8-1.8-1.8-4.8 0-6.6l2.9-2.9-75.5-6.9c-.3 0-.6-.2-.8-.4-.2-.2-.3-.5-.3-.8 0-.2.1-1.1 1.1-1.1h.2l77.9 7.1c.4 0 .8.3 1 .7.2.4 0 .9-.3 1.2l-4.6 4.6c-.9.9-.9 2.4 0 3.3l30.9 30.9c.3.3.4.7.4 1.1 0 .3-.1.5-.3.7-.2.2-.5.3-.8.3-.3 0-.7-.1-.9-.4l-4.8-4.8h-18l11.9 11.9h1.9c.6 0 1.1.5 1.1 1.1s-.5 1.1-1.1 1.1h-2.4zM202.4 192.2c-15.6 0-28.5-12.2-29.4-27.7v-.6h-4.9l-.1.5c-.8 3.8-4.2 6.6-8.1 6.6h-14.1c-.6 0-1.1-.5-1.1-1.1 0-.6.5-1.1 1.1-1.1h14.1c3.3 0 6-2.6 6-5.7 0-5.1 1-10.1 2.9-14.8 4.5-10.5 13.6-18.3 24.5-20.9 3-.7 6.1-1.1 9.2-1.1 3.7 0 7.4.5 10.8 1.6.6.2.9.8.8 1.4-.1.5-.6.8-1.1.8h-.3c-3.2-1-6.6-1.5-10.1-1.5-2.9 0-5.8.3-8.7 1-10 2.4-18.8 9.9-22.9 19.6-1.6 3.8-2.5 7.8-2.7 11.8v.7h4.8v-.6c.9-15.6 13.8-27.7 29.4-27.7 1.5 0 2.7.1 3.9.3.3.1.6.2.7.5.2.3.2.6.2.9-.1.5-.6.9-1.1.9h-.2c-1-.2-2.1-.3-3.5-.3-15 0-27.2 12.2-27.2 27.2s12.2 27.2 27.2 27.2c6.8 0 13.4-2.6 18.3-7.2.2-.2.5-.3.8-.3.3 0 .6.1.8.4.4.5.4 1.2-.1 1.6-5.4 4.9-12.5 7.6-19.9 7.6z"/><path class="st1" d="M202.4 185.2c-12.4 0-22.4-10-22.4-22.4 0-10.3 6.9-19.2 16.9-21.7h.3c.5 0 1 .4 1.1.9.1.6-.2 1.2-.8 1.4-8.9 2.2-15.1 10.2-15.1 19.4 0 11.1 9 20.1 20.1 20.1 4.2 0 8.5-1.4 11.9-3.9.2-.1.4-.2.7-.2.4 0 .7.2.9.5.2.2.3.5.2.9s-.2.6-.5.8c-3.9 2.6-8.6 4.2-13.3 4.2z"/><path class="st1" d="M202.4 178.1c-.6 0-1.1-.5-1.1-1.1v-6l-.5-.1c-1-.2-2-.6-2.9-1.2l-.4-.3-4.2 4.2c-.2.2-.5.3-.8.3s-.6-.1-.8-.3c-.2-.2-.3-.5-.3-.8s.1-.6.3-.8l4.2-4.2-.3-.4c-.6-.9-1-1.9-1.2-2.9l-.1-.5h-6c-.6 0-1.1-.5-1.1-1.1s.5-1.1 1.1-1.1h6l.1-.5c.3-1.3.8-2.5 1.6-3.5.2-.3.5-.4.9-.4.3 0 .5.1.7.3.5.4.6 1.1.2 1.6-.8 1-1.3 2.3-1.3 3.7 0 1.6.6 3 1.7 4.2 1.1 1.1 2.7 1.7 4.3 1.7 1 0 1.9-.2 2.7-.7.2-.1.4-.2.6-.2.4 0 .8.2 1 .6.2.3.2.6.1.9-.1.3-.3.5-.5.7-.7.4-1.4.7-2.2.8l-.5.1v6c-.2.5-.7 1-1.3 1zM220.1 121.4c-4.5 0-8.2-3.7-8.2-8.2s3.7-8.2 8.2-8.2c4.5 0 8.2 3.7 8.2 8.2s-3.6 8.2-8.2 8.2zm0-14.2c-3.3 0-5.9 2.7-5.9 5.9 0 3.3 2.7 5.9 5.9 5.9 3.3 0 5.9-2.7 5.9-5.9.1-3.2-2.6-5.9-5.9-5.9zM167 100.2c-.6 0-1.1-.5-1.1-1.1s.5-1.1 1.1-1.1h14.2c.6 0 1.1.5 1.1 1.1s-.5 1.1-1.1 1.1H167z"/><path class="st2" d="M259.1 192.2c-.6 0-1.1-.5-1.1-1.1V91.9c0-.6.5-1.1 1.1-1.1h28.3c.6 0 1.1.5 1.1 1.1v99.2c0 .6-.5 1.1-1.1 1.1h-28.3zm1.1-2.2h26v-19h-26v19zm0-21.3h26v-19h-26v19zm0-21.3h26v-19h-26v19zm0-21.2h26V93.1h-26v33.1z"/><path class="st1" d="M273.2 114.3c-4.5 0-8.2-3.7-8.2-8.2s3.7-8.2 8.2-8.2c4.5 0 8.2 3.7 8.2 8.2s-3.6 8.2-8.2 8.2zm0-14.1c-3.3 0-5.9 2.7-5.9 5.9 0 3.3 2.7 5.9 5.9 5.9s5.9-2.7 5.9-5.9c.1-3.3-2.6-5.9-5.9-5.9z"/><path class="st2" d="M217.2 172.8c-.3 0-.7-.1-.9-.4l-18.2-21.8c-.2-.2-.3-.5-.3-.8 0-.3.2-.6.4-.8l53-44.4c.2-.2.5-.3.7-.3.3 0 .7.1.9.4.2.2.3.5.3.8 0 .3-.2.6-.4.8l-19.5 16.4 6 7.2c.4.5.3 1.2-.1 1.6-.2.2-.5.3-.7.3-.3 0-.7-.2-.9-.4l-6-7.2-14.5 12.2 12.4 14.8c.2.2.3.5.3.8 0 .3-.2.6-.4.8-.2.2-.5.3-.7.3-.3 0-.7-.1-.9-.4l-12.4-14.8-14.7 12.1 16.7 20 2.4-2c.2-.2.5-.3.7-.3.3 0 .7.2.9.4.2.2.3.5.3.8 0 .3-.2.6-.4.8l-3.3 2.8c-.2.2-.4.3-.7.3zM250.1 190.3c-.2 0-.3 0-.5-.1l-25.6-12c-.3-.1-.5-.4-.6-.6-.1-.3-.1-.6 0-.9l28.8-61.8c.2-.4.6-.7 1-.7.2 0 .3 0 .5.1.3.1.5.4.6.6.1.3.1.6 0 .9L244 138.1l8.5 4c.3.1.5.4.6.6.1.3.1.6 0 .9-.2.4-.6.7-1 .7-.2 0-.3 0-.5-.1l-8.5-4-8 17.2 17.5 8.1c.3.2.6.5.6.8.1.3 0 .7-.1.8-.2.4-.5.6-.9.6-.3 0-.6-.1-.9-.2l-17.2-8-8 17.1 23.6 11 1.4-2.9c.2-.4.6-.7 1-.7.2 0 .3 0 .5.1.3.1.5.4.6.6.1.3.1.6 0 .9l-1.8 4c-.4.4-.8.7-1.3.7z"/><g><path class="st1" d="M51.3 183c-.2 0-.3 0-.5-.1-.5-.3-.8-.9-.5-1.4l2.4-4.7h-7.4L33 183c-.1.1-.3.1-.5.1-.4 0-.8-.2-1-.6-.1-.2-.2-.5-.1-.8.1-.3.3-.5.5-.6l12.5-6.3c.1-.1.3-.1.5-.1h8.8l2.7-5.5v-5H55c-1.3 0-2.4-.5-3.3-1.5-.8-1-1.1-2.2-.9-3.4l3.4-20.2h-2.3l-6 12c-.2.4-.5.6-1 .6-.2 0-.3 0-.5-.1-.5-.3-.7-.9-.5-1.4l6.3-12.5c.2-.4.5-.6 1-.6h8.6l1-4.1H45.5L27 157.5c-.1.1-.2.2-.4.3L1.5 170.3c-.1.1-.3.1-.5.1s-.7-.1-.9-.6c-.1-.2-.1-.5 0-.8.1-.3.3-.5.5-.6L25.5 156l18.7-24.9c.2-.3.5-.4.9-.4h10.6l.7-4.1h-5c-.6 0-1.1-.5-1.1-1.1 0-.6.5-1.1 1.1-1.1h5.2v-4.1h-5.2c-.6 0-1.1-.5-1.1-1.1s.5-1.1 1.1-1.1H69v-5.2c0-.6.5-1.1 1.1-1.1h6.2l-2.2-6.5-.4.1c-1.1.3-2.2.4-3.3.4-6.7 0-11.4-4.8-12.8-9.3l-10-29.7c-.1-.3-.1-.6.1-.8.1-.3.4-.5.6-.5l29.8-10c.1 0 .2-.1.3-.1.4 0 .9.3 1 .7l10 29.8c2.2 6.3-.9 13.7-6.8 16.5l-.4.2 3.1 9.3h16.3c.6 0 1.1.5 1.1 1.1 0 .6-.5 1.1-1.1 1.1h-5.2v10.4h5.2c.6 0 1.1.5 1.1 1.1 0 .6-.5 1.1-1.1 1.1H75l2.1 4.1H89c.4 0 .7.2.9.5.2.3.2.7 0 1l-3.1 6.3c-.2.4-.5.6-1 .6h-4.5l2.4 4.7c.1.3.1.6.1.8-.1.3-.3.5-.5.6-.2.1-.3.1-.5.1-.4 0-.8-.2-.9-.6l-2.8-5.7h-9.9l-1.7 10.4h9.2c.6 0 1.1.5 1.1 1.1v6.3c0 .6-.5 1.1-1.1 1.1h-2.1v5.2c0 .6-.5 1.1-1.1 1.1h-2.1v5.2c0 .6-.5 1.1-1.1 1.1h-5.6l-2.8 5.7c-.2.4-.5.6-1 .6h-5.6l-2.8 5.7c-.5.2-.9.4-1.2.4zm4.8-8.4H60l2.1-4.1h-3.9l-2.1 4.1zm2.5-6.3H69v-4.1H58.6v4.1zm3.1-6.3h10.4v-4.1H61.7v4.1zm-8.8-2.4c-.1.7.1 1.3.5 1.7.4.5 1 .7 1.6.7h4.6v-5.2c0-.6.5-1.1 1.1-1.1h2.1v-5.2c0-.6.5-1.1 1.1-1.1H65l3.6-21.6c.2-1.4 1.2-2.6 2.5-3.2l.5-.2-2.1-4.3H58.6v5.2l-.9 5.2h4.5c.3 0 .6.1.8.4.2.3.3.6.2.9l-1.6 6.3c-.1.5-.5.8-1 .8h-4.3l-3.4 20.7zm12-3.9h10.4v-4.1H64.9v4.1zm15.3-18.8h5l2.1-4.1h-9.1l2 4.1zm-10.9 0h8.5l-2.1-4.1h-5.8l-.6 4.1zm2.8-10.3c-.8.2-1.3.9-1.4 1.6l-.4 2.4h4.3l-2.1-4.2-.4.2zm11.6-2.2h10.4V114H90v5.2c0 .6-.5 1.1-1.1 1.1s-1.1-.5-1.1-1.1V114h-4.1v10.4zm-12.5-5.5l2.7 5.5h7.7V114H71.2v4.9zm4.9-14.3l2.4 7.2h4.4l-2.8-8.6-4 1.4zM51.9 73l7.6 22.8c1.6 4.7 6 7.8 10.9 7.8 1.2 0 2.5-.2 3.6-.6l5.9-2c2.8-.9 5.2-3 6.6-5.7 1.4-2.8 1.6-5.9.6-8.8l-7.6-22.8L51.9 73zm-2-5.9l1.3 3.9 27.7-9.3-1.3-3.9-27.7 9.3z"/><circle class="st2" cx="126.6" cy="112.9" r="1.1"/><circle class="st2" cx="120.5" cy="113.2" r="1.1"/><circle class="st2" cx="114.6" cy="114.2" r="1.1"/><circle class="st2" cx="109.1" cy="116.6" r="1.1"/><circle class="st2" cx="126.6" cy="125.4" r="1.1"/><circle class="st2" cx="120.5" cy="125.1" r="1.1"/><circle class="st2" cx="114.6" cy="124.1" r="1.1"/><circle class="st2" cx="109.1" cy="121.8" r="1.1"/></g><path class="st3" d="M158.9 130.7l-5.2-7.8-13.1 10.4-5.2-13.1"/></svg>