<svg xmlns="http://www.w3.org/2000/svg" viewBox="0 0 94.95 229.28"><defs><style>.cls-1,.cls-2{fill:none;stroke-linecap:round;stroke-linejoin:round;stroke-width:2px}.cls-1{stroke:#19212d}.cls-2{stroke:#9fd34a}</style></defs><title>car</title><path d="M31.86 1v105.53M62.6 1v105.53M46.67 100.3h1.13l5.65 6.23H41.02l5.65-6.22zm47.27 73.84v-26.26l-21-19.88-4.38 4.4 19.17 18.03v21.2l-19.4 19.5v8.68l25.62-25.62-.06-.06.04.02zM26.5 132.36l-4.4-4.4L1 147.93v26.27l25.66 25.65v-8.8L7.2 171.62v-21.1l19.3-18.14zm12.86-5.09h16.5" class="cls-1"/><path d="M56.66 207.46a5.76 5.76 0 0 0 6.9 6.92 5.7 5.7 0 0 0 4.3-4.3 5.75 5.75 0 1 0-11.2-2.62zm.02-57.76a5.75 5.75 0 1 0 4.32-4.27 5.7 5.7 0 0 0-4.32 4.28zM54 132.58H35.57v1a4.27 4.27 0 0 0 4.27 4.26V139l-8.4 5.1a6.67 6.67 0 0 0-3.2 5.7v36.38a6.7 6.7 0 0 0 1.47 4.18l11 13.7 2.24 17.1a3.93 3.93 0 0 0 2.76 3.24l6.1 1.83 1.7 2.05 10.07-1.54v-8.37a9.42 9.42 0 0 1-4.2 0 10.06 10.06 0 0 1-7.73-10.1 9.87 9.87 0 0 1 11.9-9.27v-38.3a9.73 9.73 0 0 1-3.28.14 10.44 10.44 0 0 1-8.65-10 9.9 9.9 0 0 1 9.9-9.7 10.55 10.55 0 0 1 2 .2v-3.76l-5.7-.57a4.28 4.28 0 0 1-3.8-4.42zm-13.27 12.7v49.1m0-26.23h-6.4" class="cls-2"/><path d="M27.34 111.05H67.1v16.22H27.35z" class="cls-1"/></svg>