<svg id="Layer_1" xmlns="http://www.w3.org/2000/svg" viewBox="0 0 61.6 38.4"><style>.st0{fill:none;stroke:#1a222e;stroke-width:1.5;stroke-miterlimit:10}</style><path class="st0" d="M30.8 32.2H9c-2.3 0-4.1-1.8-4.1-4.1V21c0-1.6.5-3.2 1.4-4.5l1.4-2-5.5-1.4c-.8 0-1.4-.6-1.4-1.4V9c0-.8.6-1.4 1.4-1.4H9l2.7 4.1 4.1 1.4h15"/><path class="st0" d="M9 18.5l.7.7c1.3 1.3 3 2 4.8 2h4M6.2 30.8v5.5c0 .8.6 1.4 1.4 1.4h9.6c.8 0 1.4-.6 1.4-1.4v-4.1M30.8 32.2h21.9c2.3 0 4.1-1.8 4.1-4.1V21c0-1.6-.5-3.2-1.4-4.5l-1.4-2 5.5-1.4c.8 0 1.4-.6 1.4-1.4V9c0-.8-.6-1.4-1.4-1.4h-6.8L50 11.7l-4.1 1.4h-15"/><path class="st0" d="M51.3 10.3s-3.5-7.5-4.1-8.2c-.6-.7-1.8-1.4-2.7-1.4H17.2c-1 0-2.1.6-2.7 1.4-.6.7-4.1 8.2-4.1 8.2M52.7 18.5l-.7.8c-1.3 1.3-3 2-4.8 2h-4M55.4 30.8v5.5c0 .8-.6 1.4-1.4 1.4h-9.6c-.8 0-1.4-.6-1.4-1.4v-4.1M18.5 26.7h24.6"/></svg>