<svg id="Layer_1" xmlns="http://www.w3.org/2000/svg" viewBox="0 0 17 21">
  <style>.st0{fill:#19212d}</style>
  <path id="XMLID_31_" class="st0" d="M8.5 20.7l-.3-.3c-.3-.2-7.8-5.9-7.8-12C.4 3.9 4 .3 8.5.3s8.1 3.6 8.1 8.1c0 6.1-7.5 11.8-7.8 12l-.3.3zm0-19.2c-3.8 0-7 3.1-7 7 0 4.9 5.5 9.6 7 10.8 1.5-1.2 7-6 7-10.8 0-3.9-3.2-7-7-7z"/>
  <path id="XMLID_28_" class="st0" d="M8.5 10.9C7.1 10.9 6 9.8 6 8.4S7.1 6 8.5 6 11 7.1 11 8.4s-1.1 2.5-2.5 2.5zm0-3.8c-.7 0-1.3.6-1.3 1.3s.6 1.3 1.3 1.3 1.3-.6 1.3-1.3-.6-1.3-1.3-1.3z"/>
</svg>
