<svg id="Layer_1" xmlns="http://www.w3.org/2000/svg" viewBox="0 0 113.7 70.4"><style>.st0,.st1{fill:none;stroke:#9ace4a;stroke-width:1.6;stroke-linecap:round;stroke-linejoin:round;stroke-miterlimit:10}.st1{stroke:#19212d}</style><path class="st0" d="M52.9 32.6c4.4-1.1 8.3 2.8 7.2 7.2-.5 2.1-2.2 3.8-4.3 4.3-4.4 1.1-8.3-2.8-7.2-7.2.5-2.1 2.2-3.8 4.3-4.3zM16.6 31.8c5-1.2 9.5 3.2 8.2 8.2-.6 2.4-2.5 4.3-4.9 4.9-5 1.2-9.4-3.2-8.2-8.2.6-2.3 2.5-4.3 4.9-4.9z"/><path class="st0" d="M11.6 39.3H5.8l-1.4-6.7-3.6.1V20.1h3.6V23h.8l4.9-8h29.1l10.7 8.6 13.5 1.7 1.7 5.9 1.4 1.2-1 6.9H61M47.7 39.3H24.9"/><path class="st0" d="M27.3 16.9v6.6h15.5M9.9 23.5h14.7v-6.6M4.4 20.1V30"/><g><path class="st1" d="M76.2 16.9h18.2c1.5 0 2.9.7 3.8 2l7.8 14h2.3c2.6 0 4.6 1.7 4.6 5.1v15.6c0 2.5-2.1 4.6-4.6 4.6h-4.6M76.2.8v57.3H41.8M23.5 58.1H4.1"/><ellipse class="st1" cx="94.5" cy="60.4" rx="9.2" ry="9.2"/><ellipse class="st1" cx="32.7" cy="60.4" rx="9.2" ry="9.2"/><path class="st1" d="M76.2 58.1h9.2M80.8 35.2h16v-2.3L92.3 26M75 51.3H2.9"/></g></svg>