<svg id="Layer_1" xmlns="http://www.w3.org/2000/svg" viewBox="-469 270.9 19.3 20.1"><style>.st0{fill:#9fd34a}.st1{fill:#fff}</style><title>Reports</title><g id="Layer_2"><g id="Artwork"><path class="st0" d="M-467.1 287c-1 0-1.9-.8-1.9-1.8s.8-1.8 1.9-1.8 1.8.8 1.8 1.8-.8 1.8-1.8 1.8zm0-3.1c-.7 0-1.3.6-1.3 1.3s.6 1.3 1.3 1.3c.7 0 1.3-.6 1.3-1.3s-.7-1.3-1.3-1.3zM-462.7 291c-.5 0-1-.2-1.3-.5-.4-.3-.5-.8-.5-1.3 0-1 .8-1.9 1.9-1.9 1 0 1.9.8 1.9 1.9s-1 1.8-2 1.8zm0-3.1c-.7 0-1.3.6-1.3 1.3 0 .3.1.7.4.9.2.2.5.4.9.4.7 0 1.3-.6 1.3-1.3 0-.7-.6-1.3-1.3-1.3z"/><path transform="rotate(39.122 -464.958 287.146)" class="st0" d="M-465.2 282.6h.6v9.1h-.6z"/><path class="st1" d="M-460.3 290.4h1.3v.6h-1.3zM-463.1 282.7h-.6v-7.4h4.8v.6h-4.2z"/><path class="st1" d="M-454.2 291h-5v-20.1h5V291zm-4.4-.6h3.8v-18.9h-3.8v18.9z"/><path class="st1" d="M-449.8 291h-4.7v-.6h4.2v-9.6h-4.2v-.6h4.7z"/></g></g></svg>