<svg id="Layer_1" xmlns="http://www.w3.org/2000/svg" viewBox="0 0 22.6 22.6"><style>.st0{fill:#fff}.st1{fill:#a0cd4c}</style><path id="XMLID_31_" class="st0" d="M9.1 22.6l-4.3-1.8.7-2.2c-.6-.5-1.2-1-1.6-1.6l-2.2.7L0 13.5l2-1c-.1-.8-.1-1.5 0-2.3l-2-1 1.8-4.3 2.2.7c.4-.6 1-1.2 1.6-1.7l-.7-2.1L9.1 0l1 2c.8-.1 1.5-.1 2.3 0l1-2 4.3 1.8-.7 2.1c.6.5 1.2 1 1.6 1.6l2.2-.7 1.8 4.3-2 1c.1.8.1 1.6 0 2.3l2 1-1.8 4.3-2.1-.7c-.5.6-1 1.2-1.6 1.6l.7 2.2-4.3 1.8-1-2c-.8.1-1.6.1-2.3 0l-1.1 2zm3.9-3.1l.9 1.9 2.5-1.1-.7-2 .3-.2c.7-.5 1.4-1.2 1.9-1.9l.2-.3 2 .7 1.1-2.5-1.8-1.1.1-.4c.2-.9.2-1.8 0-2.7l-.1-.4 1.9-.9-1.1-2.5-2 .7-.2-.3c-.5-.7-1.2-1.4-1.9-1.9l-.3-.2.7-2L14 1.3l-1 1.8-.4-.1c-.9-.2-1.8-.2-2.7 0l-.3.1-1-1.8-2.5 1 .7 2-.3.2c-.8.6-1.4 1.2-2 2l-.2.3-2-.7-1 2.5 1.9.9-.1.4c-.2.9-.2 1.8 0 2.7v.4l-1.8 1 1.1 2.5 2-.7.2.3c.5.7 1.2 1.4 1.9 1.9l.3.2-.7 2 2.5 1.1.9-1.9.4.1c.9.2 1.8.2 2.7 0h.4z"/><path id="XMLID_28_" class="st1" d="M11.4 15.4c-2.2 0-4-1.8-4-4s1.8-4 4-4 4 1.8 4 4-1.8 4-4 4zm0-7c-1.7 0-3 1.3-3 3s1.3 3 3 3 3-1.3 3-3c0-1.6-1.3-3-3-3z"/></svg>