<svg id="Layer_1" xmlns="http://www.w3.org/2000/svg" viewBox="-449 236.8 61 88.2"><style>.st0{fill:none;stroke:#19212d;stroke-width:1.74;stroke-miterlimit:10}.st1{fill:#9fd34a}</style><title>calculator</title><path class="st0" d="M-445.1 237.6h53.1c1.7 0 3.1 1.4 3.1 3.1v80.4c0 1.7-1.4 3.1-3.1 3.1h-53.1c-1.7 0-3.1-1.4-3.1-3.1v-80.4c.1-1.7 1.4-3.1 3.1-3.1z"/><path class="st0" d="M-438.2 245.1h39c1.7 0 3.1 1.4 3.1 3.1v14.2c0 1.7-1.4 3.1-3.1 3.1h-39c-1.7 0-3.1-1.4-3.1-3.1v-14.2c.1-1.8 1.4-3.1 3.1-3.1zM-438.8 273.6h2.7c1.2 0 2.2 1 2.2 2.2v2.7c0 1.2-1 2.2-2.2 2.2h-2.7c-1.2 0-2.2-1-2.2-2.2v-2.7c-.1-1.2.9-2.2 2.2-2.2zM-426 273.6h2.7c1.2 0 2.2 1 2.2 2.2v2.7c0 1.2-1 2.2-2.2 2.2h-2.7c-1.2 0-2.2-1-2.2-2.2v-2.7c0-1.2 1-2.2 2.2-2.2zM-413.2 273.6h2.7c1.2 0 2.2 1 2.2 2.2v2.7c0 1.2-1 2.2-2.2 2.2h-2.7c-1.2 0-2.2-1-2.2-2.2v-2.7c0-1.2 1-2.2 2.2-2.2zM-401 296.9h2.7c1.2 0 2.2 1 2.2 2.2v14.4c0 1.2-1 2.2-2.2 2.2h-2.7c-1.2 0-2.2-1-2.2-2.2v-14.4c-.1-1.2.9-2.2 2.2-2.2zM-438.8 285.2h2.7c1.2 0 2.2 1 2.2 2.2v2.7c0 1.2-1 2.2-2.2 2.2h-2.7c-1.2 0-2.2-1-2.2-2.2v-2.7c-.1-1.2.9-2.2 2.2-2.2zM-426 285.2h2.7c1.2 0 2.2 1 2.2 2.2v2.7c0 1.2-1 2.2-2.2 2.2h-2.7c-1.2 0-2.2-1-2.2-2.2v-2.7c0-1.2 1-2.2 2.2-2.2zM-413.2 285.2h2.7c1.2 0 2.2 1 2.2 2.2v2.7c0 1.2-1 2.2-2.2 2.2h-2.7c-1.2 0-2.2-1-2.2-2.2v-2.7c0-1.2 1-2.2 2.2-2.2zM-401 273.6h2.7c1.2 0 2.2 1 2.2 2.2v2.7c0 1.2-1 2.2-2.2 2.2h-2.7c-1.2 0-2.2-1-2.2-2.2v-2.7c-.1-1.2.9-2.2 2.2-2.2zM-401 285.2h2.7c1.2 0 2.2 1 2.2 2.2v2.7c0 1.2-1 2.2-2.2 2.2h-2.7c-1.2 0-2.2-1-2.2-2.2v-2.7c-.1-1.2.9-2.2 2.2-2.2zM-438.8 296.9h2.7c1.2 0 2.2 1 2.2 2.2v2.7c0 1.2-1 2.2-2.2 2.2h-2.7c-1.2 0-2.2-1-2.2-2.2v-2.7c-.1-1.2.9-2.2 2.2-2.2zM-426 296.9h2.7c1.2 0 2.2 1 2.2 2.2v2.7c0 1.2-1 2.2-2.2 2.2h-2.7c-1.2 0-2.2-1-2.2-2.2v-2.7c0-1.2 1-2.2 2.2-2.2zM-413.2 296.9h2.7c1.2 0 2.2 1 2.2 2.2v2.7c0 1.2-1 2.2-2.2 2.2h-2.7c-1.2 0-2.2-1-2.2-2.2v-2.7c0-1.2 1-2.2 2.2-2.2zM-438.8 308.5h2.7c1.2 0 2.2 1 2.2 2.2v2.7c0 1.2-1 2.2-2.2 2.2h-2.7c-1.2 0-2.2-1-2.2-2.2v-2.7c-.1-1.2.9-2.2 2.2-2.2zM-426 308.5h2.7c1.2 0 2.2 1 2.2 2.2v2.7c0 1.2-1 2.2-2.2 2.2h-2.7c-1.2 0-2.2-1-2.2-2.2v-2.7c0-1.2 1-2.2 2.2-2.2zM-413.2 308.5h2.7c1.2 0 2.2 1 2.2 2.2v2.7c0 1.2-1 2.2-2.2 2.2h-2.7c-1.2 0-2.2-1-2.2-2.2v-2.7c0-1.2 1-2.2 2.2-2.2z"/><path class="st1" d="M-429.9 252.1c.5-.4 1.2-.4 1.7-.1.3.2.6.4.9.7l.6.7 1.2-2.4-.3-.3c-.4-.5-.9-.9-1.5-1.2-.6-.3-1.2-.4-1.9-.4-1 0-2 .4-2.7 1.1-.7.8-1 1.8-.9 2.9v1h-1.3v2.1h1.3v2.4h-1.1v2.5l8.4-.2v-2.5l-4.4.1v-2.4h2.7V254l-2.7.1v-1c-.2-.2-.1-.6 0-1zm10.8 0c.5-.4 1.2-.4 1.7-.1.3.2.6.4.8.7l.6.7 1.2-2.4-.3-.3c-.4-.5-.9-.9-1.5-1.2-.6-.3-1.2-.4-1.9-.4-1 0-2 .4-2.7 1.1-.6.8-.9 1.9-.8 2.9v1h-1.3v2.1h1.3v2.5h-1.3v2.5l8.4-.2v-2.5l-4.4.2-.1-2.4 2.7-.1v-2.1l-2.7.1v-1c.1-.3.1-.7.3-1.1zm10.8 0c.5-.4 1.2-.4 1.7-.1.3.2.6.4.9.7l.6.7 1.2-2.4-.3-.3c-.4-.5-.9-.9-1.5-1.2-.6-.3-1.2-.4-1.9-.4-1 0-2 .4-2.7 1.1-.7.8-1 1.8-.9 2.9v1h-1.3v2.1h1.3v2.4h-1.3v2.5l8.4-.2v-2.5l-4.3.2v-2.4h2.7v-2.1l-2.7.1v-1c-.1-.3-.1-.7.1-1.1z"/></svg>