<svg id="Layer_1" xmlns="http://www.w3.org/2000/svg" viewBox="0 0 22.5 20.1"><style>.st0{fill:#19212d}.st1{fill:#a0cd4c}</style><path id="XMLID_43_" class="st0" d="M2.7 11.5h-1c-1 0-1.7-.8-1.7-1.7V1.7C0 .8.8 0 1.7 0H15c1 0 1.7.8 1.7 1.7v6.2h-.6V1.7c0-.6-.5-1.1-1.1-1.1H1.7C1.1.6.6 1.1.6 1.7v8.1c0 .6.5 1.1 1.1 1.1h1v.6z"/><path id="XMLID_42_" class="st0" d="M1.7 6.7h2.9v.6H1.7z"/><path id="XMLID_39_" class="st0" d="M16.8 5.4H0v-3h16.8v3zM.6 4.8h15.6V3H.6v1.8z"/><path id="XMLID_36_" class="st0" d="M22.5 20.1H3.3V8.6h19.2v11.5zm-18.6-.6h18V9.2h-18v10.3z"/><path id="XMLID_33_" class="st0" d="M19.2 18.2H6.7v-.3c0-.7-.4-1.1-1.1-1.1h-.4v-4.9h.3c.7 0 1.1-.4 1.1-1.1v-.3h12.5v.3c0 .6.5 1.1 1.1 1.1h.3v4.9h-.3c-.6 0-1.1.5-1.1 1.1v.3zm-12-.6h11.3c.1-.7.7-1.3 1.4-1.4v-3.7c-.7-.1-1.3-.7-1.4-1.4H7.2c-.1.8-.6 1.3-1.4 1.4v3.7c.8.1 1.3.6 1.4 1.4z"/><path id="XMLID_32_" class="st0" d="M8.4 14.3h1v.6h-1z"/><path id="XMLID_31_" class="st0" d="M16.5 14.3h1v.6h-1z"/><path id="XMLID_28_" class="st1" d="M12.9 16.8c-.7 0-1.3-.3-1.7-.7-.5-.5-.7-1.1-.7-1.7 0-1.3 1.1-2.4 2.4-2.4 1.3 0 2.4 1.1 2.4 2.4 0 .7-.3 1.3-.7 1.7-.4.4-1 .7-1.7.7zm0-4.3c-1 0-1.8.8-1.8 1.8 0 .5.2 1 .5 1.3.3.3.8.5 1.3.5s1-.2 1.3-.5c.3-.3.5-.8.5-1.3s-.2-1-.5-1.3c-.3-.3-.8-.5-1.3-.5z"/></svg>