<svg id="Layer_1" xmlns="http://www.w3.org/2000/svg" viewBox="0 0 108.2 75"><style>.st0{fill:none;stroke:#19212d;stroke-width:2;stroke-linejoin:round;stroke-miterlimit:10}</style><path class="st0" d="M84.1.7s-8.4 7.5-9.2 7.6c-2.5.4-13.9-4.9-16.2-5.5-2.3-.6-25.1 6.7-26.8 9.4-1.7 2.8 5.1 9.3 11.6 8.4 6.5-.8 16.2-4.3 19-1.5 4.6 4.6 17.9 18.5 24.2 24.1 5.3 4.7 20.7-19.4 20.7-19.4M56.2 68.3l-7.5-7.6M68.6 64.2L55.5 50M79.9 57.6L64.3 41.4M29.7 68.3c1.8 1.8 4.7 1.8 6.6 0l4.1-4.1c1.8-1.8 1.3-4.6-.7-6.7-2-2-4.9-2.5-6.7-.7 1.8-1.8 1.3-4.6-.7-6.7s-4.9-2.5-6.7-.7c1.8-1.8 1.3-4.6-.7-6.7s-4.9-2.5-6.7-.7c1.8-1.8 1.3-4.6-.7-6.7-2-2-4.9-2.5-6.7-.7l-4.1 4.1c-1.8 1.8-1.8 4.7 0 6.6l23 23z"/><path class="st0" d="M38.1 66.4l1.4 1.5 3.5 3.5c5.4 5.4 10.4 1.4 13.1-3.1 5 2.6 10.5-.3 12.5-4.1 6.3 3.1 11.7-3.3 11.3-6.6 6.8-.4 11.3-8.1 6.7-14.3M.7 26.2l4.9 5.1c.5 1.8 1.7 3.8 3 5.3M32.2 11.9l-8.3-8.3M18.2 42l-7.3 7.5M18.2 42l-7.3 7.5M25.6 49.4l-7.3 7.5M33 56.7l-7.3 7.6"/></svg>