<svg id="Layer_1" xmlns="http://www.w3.org/2000/svg" viewBox="0 0 79.7 69.5"><style>.st0,.st1{fill:none;stroke:#fff;stroke-width:1.4873;stroke-miterlimit:10}.st1{stroke:#9fd34a}</style><path class="st0" d="M73.9 34.8v23.8h-68V17.7c0-1.9 1.5-3.4 3.4-3.4h15.3M79 58.6H.7v7.2c0 1.6 1.3 3 3 3H76c1.6 0 3-1.3 3-3v-7.2zM36.5 63.7H45"/><path class="st1" d="M28 21.1V5.8C28 3 30.3.7 33.1.7h40.8C76.7.7 79 3 79 5.8v20.4c0 2.8-2.3 5.1-5.1 5.1H60.3L47.9 43.8c-1.1 1.1-2.9.3-2.9-1.2V31.4h-6.8"/><path class="st0" d="M41.6 55.2v-2.7c0-4.7-9.8-7.5-13.6-7.5-3.8 0-13.6 2.7-13.6 7.5v2.7M28 24.6c-3.7 0-6.8 3-6.8 6.8v1.8c0 3.7 3.1 6.8 6.8 6.8 3.7 0 6.8-3 6.8-6.8v-1.8c0-3.8-3.1-6.8-6.8-6.8z"/><path class="st1" d="M39.9 12.6h27.2M39.9 19.4h15.3"/></svg>