<svg id="Layer_1" xmlns="http://www.w3.org/2000/svg" viewBox="0 0 37.1 41.3"><style>.st0{fill:none;stroke:#19212d;stroke-width:1.6;stroke-miterlimit:10}</style><g id="XMLID_15_"><path id="XMLID_21_" class="st0" d="M4.4 9C2.3 9 .8 7.3.8 5.1v-.4C.8 2.5 2.3.8 4.4.8 6.6.8 8 2.5 8 4.7v.4C8.1 7.3 6.6 9 4.4 9z"/><path id="XMLID_20_" class="st0" d="M14.5 26c2.6.6 6.1 1.5 6.4 2.2L27.3 41"/><path id="XMLID_19_" class="st0" d="M5.4 28.1S2.1 15.8 1.8 14.4c-.5-1.4.2-2.7 1.7-2.7h.9c2.5 0 3.5 2.6 4.6 5.5l1.8 5.5"/><path id="XMLID_18_" class="st0" d="M22.7 40.9l-5.5-9.1H9"/><circle id="XMLID_17_" class="st0" cx="25.4" cy="11.7" r="10.9"/><path id="XMLID_16_" class="st0" d="M14.5 22.7l-11 10.9"/></g></svg>