<svg id="Layer_1" xmlns="http://www.w3.org/2000/svg" viewBox="0 0 45.8 45.8"><style>.st0{fill:#19212d}.st1{fill:#a0cd4c}</style><path id="XMLID_40_" class="st0" d="M38.9 31.3l-.9-.5c1.1-2.2 1.7-4.9 1.7-7.7 0-1.4-.2-2.8-.5-4.1l1-.2c.4 1.4.5 2.9.5 4.4 0 2.9-.6 5.7-1.8 8.1z"/><path id="XMLID_39_" class="st0" d="M7 31.3C6.3 30 5.8 28.5 5.5 27c-.3-1.3-.4-2.6-.4-3.9 0-9.9 8-18 17.8-18 5.7 0 11 2.7 14.4 7.3l-.9.6c-3.2-4.4-8.1-6.9-13.5-6.9-9.3 0-16.8 7.6-16.8 17 0 1.2.1 2.5.4 3.7.3 1.4.8 2.8 1.4 4l-.9.5z"/><path id="XMLID_36_" class="st0" d="M22.9 27.5c-2.5 0-4.6-2.1-4.6-4.6s2.1-4.6 4.6-4.6 4.6 2.1 4.6 4.6-2.1 4.6-4.6 4.6zm0-8.2c-2 0-3.6 1.6-3.6 3.6s1.6 3.6 3.6 3.6 3.6-1.6 3.6-3.6-1.6-3.6-3.6-3.6z"/><path id="XMLID_35_" transform="rotate(66.29 16.278 25.845)" class="st0" d="M15.8 23.1h1v5.6h-1z"/><path id="XMLID_34_" transform="rotate(65.788 34.093 17.948)" class="st0" d="M33.6 10.1h1v15.6h-1z"/><path id="XMLID_31_" class="st1" d="M29.9 38.7h-14c-.9 0-1.6-.7-1.6-1.6v-2.8c0-.9.7-1.6 1.6-1.6h14c.9 0 1.6.7 1.6 1.6V37c0 .9-.7 1.7-1.6 1.7zm-14-5.1c-.3 0-.6.3-.6.6V37c0 .3.3.6.6.6h14c.3 0 .6-.3.6-.6v-2.8c0-.3-.3-.6-.6-.6h-14z"/><path id="XMLID_28_" class="st0" d="M22.9 45.8C10.3 45.8 0 35.5 0 22.9 0 10.3 10.3 0 22.9 0c12.6 0 22.9 10.3 22.9 22.9 0 12.6-10.3 22.9-22.9 22.9zm0-44.8C10.8 1 1 10.8 1 22.9s9.8 21.9 21.9 21.9S44.8 35 44.8 22.9 35 1 22.9 1z"/></svg>