<svg xmlns="http://www.w3.org/2000/svg" viewBox="-425 221.7 107.2 119.3"><style>.st0{fill:#f4f4f5}.st1,.st2,.st3{fill:none;stroke:#9fd34a;stroke-width:2.05;stroke-linecap:round;stroke-linejoin:round}.st2,.st3{stroke:#8c9096}.st3{stroke:#19212d}</style><title>4</title><path d="M-318.8 226.5l-104.1 31c-.9-2.9.8-5.9 3.6-6.7l93.7-27.9c2.9-.8 5.9.8 6.8 3.6-.1 0-.1 0 0 0z" class="st0"/><path d="M-388.2 294.7c1.7 0 3.2 1.4 3.2 3.2s-1.4 3.2-3.2 3.2c-1.7 0-3.2-1.4-3.2-3.2 0-1.7 1.4-3.2 3.2-3.2zm-25.4 0c1.7 0 3.2 1.4 3.2 3.2s-1.4 3.2-3.2 3.2-3.2-1.4-3.2-3.2c.1-1.7 1.5-3.2 3.2-3.2z" class="st1"/><path d="M-414.7 283.8l12.2-24.8c.5-1 1.7-1.4 2.7-.9.4.2.7.5.9.9l12.7 27.5M-412.9 318.1h23.9l3.2-13h-30.3z" class="st2"/><path d="M-409.7 299.5h17.7m7.7 0h3.5l.6-4.2-.8-.6-1.2-2.6-8.8-1.1-7.3-4.6h-11.9l-6.6 3.9-5.1.9-.9 3.8-1.1.5 1.1 4.2h5.5m12.7-8.3h-7.9m17 0h-7.9v-4M-353 277.9c-1.7-.4-3.4.6-3.8 2.3-.1.5-.1 1 0 1.5.3 1.1 1.1 2 2.3 2.3 1.7.4 3.4-.6 3.8-2.3.1-.5.1-1 0-1.6-.3-1.1-1.2-2-2.3-2.2zm21.9 0c-1.7-.4-3.4.6-3.8 2.2-.1.5-.1 1.1 0 1.6.3 1.1 1.1 2 2.3 2.3 1.7.5 3.4-.4 3.9-2.1.5-1.7-.4-3.4-2.1-3.9-.1-.1-.2-.1-.3-.1z" class="st1"/><path d="M-356.9 267.4l12.7-25.7c.5-1 1.7-1.4 2.7-.9.4.2.7.5.9.9l9.8 19.5M-354.6 300.8h23.6l3.2-12.9h-30z" class="st2"/><path d="M-327.8 281.7h3.5l.9-4v.1h2.2v-7.7m-28.5 11.6h13.8m14.6-9.8h-2.7l-2.9-4.8h-17.7l-6.5 5.2-8.2 1.1-1.1 3.6-.9.7.6 4.2h2.7m20.6-13.8v4h-12.1m24.1 0h-10.8" class="st1"/><path d="M-398.7 334.6h54.1c1.5 0 2.7 1.2 2.7 2.7v2.7h-59.5v-2.7c0-1.5 1.2-2.7 2.7-2.7zm17.4-10.9h19.3c1.5 0 2.7 1.2 2.7 2.7v2.7H-384v-2.7c0-1.5 1.2-2.7 2.7-2.7zm62.5-97.2l-104.1 31c-.9-2.9.8-5.9 3.6-6.7l93.7-27.9c2.9-.8 5.9.8 6.8 3.6-.1 0-.1 0 0 0zm-50.2 3.6v-1.9c0-1.5-1.2-2.7-2.7-2.7-1.5 0-2.7 1.2-2.7 2.7v3.5l5.4-1.6zm-5.4 18.2v69.8h5.4v-71.4z" class="st3"/></svg>