<svg id="Layer_1" xmlns="http://www.w3.org/2000/svg" viewBox="0 0 27.1 24.1"><style>.st0{fill:#19212d}.st1{fill:#da2a4f}</style><path id="XMLID_40_" class="st0" d="M16.9 14.1h-.3c-.4-.1-.7-.3-.9-.6l-.4-.6.6-1.1-.4-.5-.9.7-3-4.2.9-.8-.4-.5-1.3.2-.8-1.1c-.5-.7-.3-1.6.4-2L15.1.3c.4-.3.7-.3 1.1-.3.4.1.7.3.9.6l.8 1.1-.6 1.1.4.5.9-.7 3 4.2-.9.7.3.6 1.3-.2.4.6c.2.4.3.8.3 1.1-.1.4-.3.7-.6.9l-4.7 3.3c-.3.2-.5.3-.8.3zm-.9-1.3l.2.3c.1.2.3.3.5.3s.4 0 .6-.1L22 10c.2-.1.3-.3.3-.5s0-.4-.1-.6l-.2-.3-1.3.2-.9-1.3.9-.7-2.3-3.2-.9.7-.9-1.3.6-1.1-.5-.9c-.1-.2-.3-.3-.5-.3s-.4 0-.6.1L10.8 4c-.4.3-.5.8-.2 1.2l.6.8 1.3-.2.9 1.3-.9.7 2.3 3.2.9-.7.9 1.3-.6 1.2z"/><path id="XMLID_39_" transform="rotate(55.012 14.104 6.235)" class="st0" d="M13.8 4.8h.6v2.9h-.6z"/><path id="XMLID_38_" transform="rotate(55.012 16.909 4.27)" class="st0" d="M16.6 3.4h.6v1.7h-.6z"/><path id="XMLID_37_" transform="rotate(55.012 16.722 9.974)" class="st0" d="M16.4 8.5h.6v2.9h-.6z"/><path id="XMLID_36_" transform="rotate(55.012 19.527 8.01)" class="st0" d="M19.2 7.2h.6v1.7h-.6z"/><path id="XMLID_35_" class="st0" d="M2 19.5h-.4c-.4-.1-.8-.4-1.2-.9-.7-1-.6-2.1.5-2.8.3-.2 1.7-1 3.3-2 1.3-.8 2.8-1.7 4-2.4.7-.4 1.9-1.3 2.6-2.3.2-.3.5-.6.8-.8l.5-.3.3.5-.4.2c-.3.2-.5.4-.7.7-.7 1.1-2.1 2-2.8 2.4-1.2.8-2.7 1.6-4 2.4-1.6 1-3 1.8-3.3 2-.8.5-.9 1.2-.3 2 .3.4.5.6.8.7.3.1.7 0 1.1-.3.3-.2 1.6-1.2 3-2.4 1.2-1 2.5-2.1 3.7-3 .7-.5 2-1.4 3.2-1.8.3-.1.6-.2.8-.4l.5-.3.3.5-.3.3c-.3.2-.7.4-1 .5-1.2.3-2.4 1.2-3 1.7-1.1.9-2.5 2-3.7 3-1.5 1.2-2.7 2.2-3 2.4-.5.3-.9.4-1.3.4z"/><path id="XMLID_34_" class="st0" d="M22.9 20.9h-.6v-1.7c0-.1-.1-.3-.3-.3h-1.7v-.6H22c.5 0 .9.4.9.9v1.7z"/><path id="XMLID_33_" class="st0" d="M13.2 20.9h-.6v-1.7c0-.5.4-.9.9-.9h5.1v.7h-5.1c-.1 0-.3.1-.3.3v1.6z"/><path id="XMLID_32_" class="st0" d="M24 24.1H11.4v-2.6c0-.5.4-.9.9-.9h6.3v.6h-6.3c-.1 0-.3.1-.3.3v2h11.4v-2c0-.1-.1-.3-.3-.3h-2.9v-.6h2.9c.5 0 .9.4.9.9v2.6z"/><path id="XMLID_31_" class="st1" d="M21.7 13.5h.6v2.3h-.6z"/><path id="XMLID_30_" transform="rotate(30.068 23.984 15.195)" class="st1" d="M23.7 14.1h.6v2.3h-.6z"/><path id="XMLID_29_" transform="rotate(59.932 25.446 16.655)" class="st1" d="M25.1 15.5h.6v2.3h-.6z"/><path id="XMLID_28_" class="st1" d="M24.8 18.4h2.3v.6h-2.3z"/></svg>