<svg id="Layer_1" xmlns="http://www.w3.org/2000/svg" viewBox="0 0 25.7 23.5"><style>.st0{fill:#fff}.st1{fill:#a0cd4c}.st2{fill:none;stroke:#a0cd4c;stroke-width:.6;stroke-linecap:round;stroke-linejoin:round;stroke-miterlimit:10}</style><path id="XMLID_45_" class="st0" d="M21.6 21.6c-.2 0-.3-.1-.3-.3V.6h-1.8c-.2 0-.3-.1-.3-.3s.1-.3.3-.3h2.1c.2 0 .3.1.3.3v21c0 .2-.2.3-.3.3z"/><path id="XMLID_44_" class="st0" d="M.3 21.6c-.2 0-.3-.1-.3-.3V.3C0 .1.1 0 .3 0h19.2c.2 0 .3.1.3.3s-.1.3-.3.3H.6v20.7c0 .2-.1.3-.3.3z"/><path id="XMLID_43_" class="st1" d="M18.3 11.5H3.1c-.2 0-.3-.1-.3-.3s.1-.3.3-.3h15.2c.2 0 .3.1.3.3s-.1.3-.3.3z"/><path id="XMLID_42_" class="st1" d="M18.5 15.4h-3.7c-.2 0-.3-.1-.3-.3s.1-.3.3-.3h3.7c.2 0 .3.1.3.3s-.1.3-.3.3z"/><path id="XMLID_41_" class="st1" d="M16.3 17.8h-1.5c-.2 0-.3-.1-.3-.3s.1-.3.3-.3h1.5c.2 0 .3.1.3.3s-.1.3-.3.3z"/><path id="XMLID_38_" class="st1" d="M12.5 19.6H3.3c-.2 0-.3-.1-.3-.3v-5.9c0-.2.1-.3.3-.3h9.2c.2 0 .3.1.3.3v5.9c0 .1-.1.3-.3.3zM3.6 19h8.6v-5.3H3.6V19z"/><path id="XMLID_37_" class="st1" d="M12.5 19.6h-.2l-9.2-5.9c-.1-.2-.1-.4 0-.5.1-.1.3-.2.4-.1l9.2 5.9c.1.1.2.3.1.4-.1.1-.2.2-.3.2z"/><path id="XMLID_36_" class="st1" d="M3.3 19.6c-.1 0-.2 0-.3-.1 0-.2 0-.4.2-.5l9.2-5.9c.1-.1.3-.1.4.1.1.1 0 .3-.1.4l-9.2 5.9c-.1 0-.1.1-.2.1z"/><path id="XMLID_33_" class="st1" d="M18.5 9.3H3.3c-.1 0-.3-.2-.3-.3V3.6c0-.2.1-.3.3-.3h15.1c.2 0 .3.1.3.3V9c.1.1-.1.3-.2.3zM3.6 8.7h14.5V3.9H3.6v4.8z"/><path id="XMLID_32_" class="st1" d="M18.5 9.3h-.1L3.2 3.8c-.1 0-.2-.2-.1-.3.1-.2.2-.2.4-.2l15.1 5.4c.2.1.2.2.2.4-.1.1-.2.2-.3.2z"/><path id="XMLID_31_" class="st1" d="M3.3 9.3c-.1 0-.2-.1-.3-.2 0-.2.1-.4.2-.4l15.1-5.4c.2-.1.3 0 .4.2.1.2 0 .3-.2.4L3.4 9.2s0 .1-.1.1z"/><path id="XMLID_30_" class="st0" d="M23.5 23.5c-1.2 0-2.2-1-2.2-2.2 0-.2.1-.3.3-.3s.3.1.3.3c0 .9.7 1.6 1.6 1.6s1.6-.7 1.6-1.6c0-.2.1-.3.3-.3s.3.1.3.3c0 1.2-1 2.2-2.2 2.2z"/><path id="XMLID_29_" class="st0" d="M23.5 23.5H2.2c-1.2 0-2.2-1-2.2-2.2 0-.2.2-.3.3-.3s.3.1.3.3c0 .9.7 1.6 1.6 1.6h21.2c.2 0 .3.1.3.3s-.1.3-.2.3z"/><path id="XMLID_28_" class="st0" d="M25.4 21.6c-.2 0-.3-.1-.3-.3V5.1h-3.5c-.2 0-.3-.1-.3-.3s.1-.3.3-.3h3.8c.2 0 .3.1.3.3v16.5c0 .2-.1.3-.3.3z"/></svg>