<svg id="Layer_1" xmlns="http://www.w3.org/2000/svg" viewBox="0 0 20 23.7"><style>.st0{fill:#19212d}.st1{fill:#a0cd4c}</style><path id="XMLID_41_" class="st0" d="M10 21c-4 0-7.3-3.3-7.3-7.3 0-3 1.8-5.6 4.5-6.7l.2.6c-2.5 1-4.1 3.5-4.1 6.2 0 3.7 3 6.7 6.7 6.7 2.1 0 4-.9 5.3-2.6l.5.4C14.3 20 12.2 21 10 21z"/><path id="XMLID_44_" class="st0" d="M11.4 3.9V2.8H13V0H7v2.8h1.6v1.1C3.7 4.5 0 8.7 0 13.7c0 5.5 4.5 10 10 10s10-4.5 10-10c0-5-3.7-9.2-8.6-9.8zM10 23.1c-5.2 0-9.4-4.2-9.4-9.4C.6 9 4.2 5 8.9 4.4h.3V2.2H7.6V.6h4.8v1.6h-1.6v2.2h.3c4.8.5 8.3 4.5 8.3 9.3 0 5.2-4.2 9.4-9.4 9.4z"/><path id="XMLID_35_" class="st1" d="M10 15.7c-1.1 0-1.9-.9-1.9-1.9 0-1.1.9-1.9 1.9-1.9 1.1 0 1.9.9 1.9 1.9 0 1-.9 1.9-1.9 1.9zm0-3.3c-.7 0-1.3.6-1.3 1.3S9.3 15 10 15s1.3-.6 1.3-1.3-.6-1.3-1.3-1.3z"/><path id="XMLID_34_" class="st1" d="M9.7 6.2h.6v5.9h-.6z"/><path id="XMLID_33_" class="st1" d="M9.7 15.4h.6V17h-.6z"/><path id="XMLID_32_" transform="rotate(45.009 18.051 4.065)" class="st0" d="M16.5 3.8h3v.6h-3z"/><path id="XMLID_31_" transform="rotate(45.065 17.514 4.604)" class="st0" d="M17.2 3.8h.6v1.5h-.6z"/><path id="XMLID_30_" transform="rotate(45.001 1.914 4.065)" class="st0" d="M1.6 2.5h.6v3h-.6z"/><path id="XMLID_29_" transform="rotate(45.001 2.452 4.604)" class="st0" d="M1.7 4.3h1.5v.6H1.7z"/><path id="XMLID_28_" class="st0" d="M8.9 2.2h2.2v.6H8.9z"/></svg>