<svg id="Layer_1" xmlns="http://www.w3.org/2000/svg" viewBox="0 0 157.8 104.8"><style>.st0{fill:#19212d}.st1{fill:#a0cd4c}</style><path id="XMLID_42_" class="st0" d="M113.7 74.9H57.3c-.6 0-1-.4-1-1s.4-1 1-1h56.3c.6 0 1 .4 1 1s-.3 1-.9 1z"/><path id="XMLID_41_" class="st0" d="M30.8 74.9H10.9c-.6 0-1-.4-1-1s.4-1 1-1h19.9c.6 0 1 .4 1 1s-.4 1-1 1z"/><path id="XMLID_40_" class="st0" d="M156.8 74.9h-16.6c-.6 0-1-.4-1-1s.4-1 1-1h15.6V57.5c0-7.4-10.3-12.9-35.7-19-.1 0-.3-.1-.4-.2-15.3-11.2-28.8-16.5-42.5-16.5h-63c-.6 0-1-.4-1-1s.4-1 1-1h63c14.1 0 27.9 5.3 43.5 16.7 26.6 6.4 37 12.3 37 20.9v16.4c.1.7-.4 1.1-.9 1.1z"/><path id="XMLID_39_" class="st1" d="M104.1 45.1H57.3c-.6 0-1-.4-1-1s.4-1 1-1h46.5l6.5-2.6c.5-.2 1.1 0 1.3.6.2.5 0 1.1-.6 1.3l-6.6 2.6c-.1.1-.2.1-.3.1z"/><path id="XMLID_36_" class="st0" d="M126.9 88.2c-7.8 0-14.2-6.4-14.2-14.2s6.4-14.2 14.2-14.2 14.2 6.4 14.2 14.2-6.4 14.2-14.2 14.2zm0-26.4c-6.7 0-12.2 5.5-12.2 12.2s5.5 12.2 12.2 12.2c6.7 0 12.2-5.5 12.2-12.2s-5.5-12.2-12.2-12.2z"/><path id="XMLID_33_" class="st0" d="M44 88.2c-7.8 0-14.2-6.4-14.2-14.2S36.2 59.8 44 59.8c7.8 0 14.2 6.4 14.2 14.2S51.8 88.2 44 88.2zm0-26.4c-6.7 0-12.2 5.5-12.2 12.2S37.3 86.2 44 86.2 56.2 80.7 56.2 74 50.7 61.8 44 61.8z"/><path id="XMLID_32_" class="st0" d="M117 104.8H83.9c-.6 0-1-.4-1-1s.4-1 1-1H117c.6 0 1 .4 1 1s-.4 1-1 1z"/><path id="XMLID_31_" class="st0" d="M34.1 35.1H1c-.6 0-1-.4-1-1s.4-1 1-1h33.1c.6 0 1 .4 1 1s-.4 1-1 1z"/><path id="XMLID_30_" class="st0" d="M77.2 104.8H64c-.6 0-1-.4-1-1s.4-1 1-1h13.3c.6 0 1 .4 1 1s-.5 1-1.1 1z"/><path id="XMLID_29_" class="st0" d="M60.7 2H27.5c-.6 0-1-.4-1-1s.4-1 1-1h33.1c.6 0 1 .4 1 1s-.4 1-.9 1z"/><path id="XMLID_28_" class="st0" d="M20.9 2H7.6c-.6 0-1-.4-1-1s.4-1 1-1h13.3c.6 0 1 .4 1 1s-.5 1-1 1z"/></svg>