<svg id="Layer_1" xmlns="http://www.w3.org/2000/svg" viewBox="0 0 108.4 48"><style>.st0{fill:none;stroke:#19212d;stroke-width:1.6;stroke-linecap:round;stroke-linejoin:round;stroke-miterlimit:10}</style><path class="st0" d="M33.3 37.9h41.8m18.5 0h13.9v-9.3l-2.3-9.3s-11.7-3.6-27.9-7C71.1 4.9 60.9.8 56.5.8H37.9c-9 0-21.5 9.3-25.5 11.6h-7c-1.3 0-2.3 1-2.3 2.3V24L.8 28.6v4.6c0 2.6 2.1 4.6 4.6 4.6h9.3"/><path class="st0" d="M72.7 14.7L68.1 17H49.5L44.9 5.4M49.5 17H21.7l-2.3-2.3"/><ellipse class="st0" cx="84.3" cy="37.9" rx="9.3" ry="9.3"/><ellipse class="st0" cx="24" cy="37.9" rx="9.3" ry="9.3"/></svg>