<svg id="Layer_1" xmlns="http://www.w3.org/2000/svg" viewBox="-466 269.5 25.7 23.5"><style>.st0{fill:#fff}.st1{fill:#9fd34a}</style><title>News</title><g id="Layer_2"><g id="Artwork"><path class="st0" d="M-444.4 291.1c-.2 0-.3-.1-.3-.3v-20.7h-1.8c-.2 0-.3-.1-.3-.3s.1-.3.3-.3h2.1c.2 0 .3.1.3.3v21c0 .2-.2.3-.3.3z"/><path class="st0" d="M-465.7 291.1c-.2 0-.3-.1-.3-.3v-21c0-.2.1-.3.3-.3h19.2c.2 0 .3.1.3.3s-.1.3-.3.3h-18.9v20.7c0 .2-.1.3-.3.3z"/><path class="st1" d="M-447.7 281h-15.2c-.2 0-.3-.1-.3-.3s.1-.3.3-.3h15.2c.2 0 .3.1.3.3s-.1.3-.3.3zM-447.5 284.9h-3.7c-.2 0-.3-.1-.3-.3s.1-.3.3-.3h3.7c.2 0 .3.1.3.3s-.1.3-.3.3zM-449.7 287.3h-1.5c-.2 0-.3-.1-.3-.3s.1-.3.3-.3h1.5c.2 0 .3.1.3.3s-.1.3-.3.3zM-453.5 289.1h-9.1c-.2 0-.3-.1-.3-.3v-5.9c0-.2.1-.3.3-.3h9.1c.2 0 .3.1.3.3v5.9c0 .1-.2.3-.3.3zm-8.9-.6h8.6v-5.3h-8.6v5.3z"/><path class="st1" d="M-453.5 289h-.2l-9.1-5.9c-.1-.1-.2-.3-.1-.4.1-.1.3-.2.4-.1l9.1 5.9c.1.1.2.3.1.4 0 .1-.1.1-.2.1z"/><path class="st1" d="M-462.7 289c-.1 0-.2 0-.3-.1-.1-.1 0-.3.1-.4l9.1-5.9c.1-.1.3-.1.4.1.1.1 0 .3-.1.4l-9.1 5.9h-.1zM-447.5 278.7h-15.1c-.2 0-.3-.1-.3-.3V273c0-.2.1-.3.3-.3h15.1c.2 0 .3.1.3.3v5.4c-.1.2-.2.3-.3.3zm-14.9-.6h14.5v-4.8h-14.5v4.8z"/><path class="st1" d="M-447.5 278.7h-.1l-15.1-5.4c-.2-.1-.2-.2-.2-.4.1-.2.2-.2.4-.2l15.1 5.4c.2.1.2.2.2.4-.1.2-.2.2-.3.2z"/><path class="st1" d="M-462.7 278.7c-.1 0-.2-.1-.3-.2-.1-.2 0-.3.2-.4l15.1-5.4c.2-.1.3 0 .4.2.1.2 0 .3-.2.4l-15.1 5.4h-.1z"/><path class="st0" d="M-442.5 293c-1.2 0-2.2-1-2.2-2.2 0-.2.1-.3.3-.3s.3.1.3.3c0 .9.7 1.6 1.6 1.6.9 0 1.6-.7 1.6-1.6 0-.2.1-.3.3-.3.2 0 .3.1.3.3 0 1.2-1 2.2-2.2 2.2z"/><path class="st0" d="M-442.5 293h-21.3c-1.2 0-2.2-1-2.2-2.2 0-.2.1-.3.3-.3.2 0 .3.1.3.3 0 .9.7 1.6 1.6 1.6h21.2c.2 0 .3.1.3.3s-.1.3-.2.3zM-440.6 291.1c-.2 0-.3-.1-.3-.3v-16.2h-3.5c-.2 0-.3-.1-.3-.3s.1-.3.3-.3h3.8c.2 0 .3.1.3.3v16.5c0 .2-.1.3-.3.3z"/></g></g></svg>