<svg id="Layer_1" xmlns="http://www.w3.org/2000/svg" viewBox="0 0 57.6 53.4"><style>.st0,.st1{fill:none;stroke:#fff;stroke-width:1.5;stroke-linecap:round;stroke-linejoin:round;stroke-miterlimit:10}.st1{stroke:#9fd34a}</style><path class="st0" d="M19.4 47.2l-18 5.3c-.3.1-.7-.2-.7-.5V6.6c0-.2.2-.5.4-.5L19.4.8v46.4zM38.1 7.5V6.2l18-5.3c.3-.1.7.2.7.5v45.3c0 .2-.2.5-.4.5l-18.3 5.3v-6.1M38.1 8.5V6.2L19.4.7v46.5l18.7 5.5V44"/><path class="st1" d="M49.1 22.1c0 9.4-11 19.4-11 19.4s-11-10-11-19.4c0-6.1 4.9-11 11-11s11 4.9 11 11z"/><circle class="st1" cx="38.1" cy="22.4" r="3.9"/></svg>