<svg xmlns="http://www.w3.org/2000/svg" viewBox="-429 232.4 100.1 96.7"><style>.st0{fill:none;stroke:#9fd34a;stroke-width:1.91;stroke-linecap:round;stroke-linejoin:round}.st1{fill:#9fd34a}.st2,.st3{fill:none;stroke:#8c9096;stroke-width:1.91;stroke-linecap:round;stroke-linejoin:round}.st3{stroke:#19212d}</style><title>1</title><path d="M-384 289.5c-2.2-1.6-3.7-3.9-4.4-6.5m10.5-14.2c6.3-.4 11.7 4.5 12.1 10.8.2 3.8-1.4 7.4-4.4 9.7" class="st0"/><path d="M-378.1 277.1c.4-.5 1.1-.7 1.7-.5.4.1.7.3 1 .5l.8.6.7-2.7-.4-.3c-.5-.4-1.2-.7-1.8-.8-.7-.2-1.3-.2-2 0-1 .2-2 .8-2.5 1.8s-.6 2.1-.3 3.1l.3 1-1.3.4.5 2 1.3-.3.6 2.5-1.3.3.6 2.5 8.4-2.1-.6-2.5-4.4 1.1-.6-2.5 2.7-.7-.5-2.1-2.7.7-.3-1c0-.2 0-.6.1-1z" class="st1"/><path d="M-409.7 315.5c-3.4-.9-6.9 1.2-7.8 4.6-.9 3.4 1.2 6.9 4.6 7.8s6.9-1.2 7.8-4.6c.3-1 .3-2.1 0-3.2-.5-2.3-2.3-4-4.6-4.6zm49.7 0c-3.4-.9-6.9 1.2-7.8 4.6-.9 3.4 1.2 6.9 4.6 7.8s6.9-1.2 7.8-4.6c.3-1 .3-2.1 0-3.2-.5-2.3-2.3-4-4.6-4.6z" class="st2"/><path d="M-337.5 313.8v-17.4h-5v4h-1.1l-6.7-11h-40.2l-14.7 11.8-18.6 2.4-2.4 8.1-1.9 1.6 1.5 9.5h6.1c-.5-2.2-.1-4.4 1-6.3 2.4-4.6 8.1-6.3 12.6-3.9 3.1 1.6 5 4.8 5 8.3 0 .6-.1 1.3-.2 1.9h31.4c-1-4.9 1.9-9.7 6.7-11 5-1.3 10.1 1.6 11.5 6.6.4 1.4.4 2.9.1 4.4h8l1.9-9.2 5 .2z" class="st3"/><path d="M-374 292v9.1h-21.4m45.4 0h-20.3V292" class="st2"/><path d="M-341.1 254.4l8.1-2.3c2.3-.6 3.7-3 3-5.3-.1-.3-.2-.6-.4-.9l-5.5-10.3c-1.1-2.1-3.8-2.9-5.9-1.8-.2.1-.3.2-.5.3l-8.6 6.3 9.8 14zM-368 270l9.8-5.3 1.6-.6c4.1-1.5 7.8-4 10.7-7.4l4.9-2.4-9.8-13.9-16.2 6.6c-.5.2-1 .5-1.4.8l-16.2 12.4c-.7.6-1.4 1.3-1.8 2.1l-8.5 15.8.4 2.1 2.3 1.5 2.7-1.4 11-14.8 13.1-8.4 1.7 1.4-9.8 8.5m31 29.4v13.8" class="st3"/></svg>