<svg id="Layer_1" xmlns="http://www.w3.org/2000/svg" viewBox="0 0 87.7 75.2"><style>.st0{fill:none;stroke:#9ace4a;stroke-width:1.5;stroke-miterlimit:10}.st0,.st1{stroke-linecap:round;stroke-linejoin:round}.st1,.st2,.st3{fill:none;stroke:#19212d;stroke-width:1.5;stroke-miterlimit:10}.st3{stroke-linejoin:round}</style><path class="st0" d="M61.5 13.7h12.1c2.7 0 4.8 2.2 4.8 4.8v12.1"/><path class="st0" d="M84.5 23.4l-6.1 7.3-7.2-7.3"/><path class="st1" d="M27 26.8H8.8c-1.9 0-3.4-1.5-3.4-3.4v-5.9c0-1.3.4-2.7 1.1-3.8L7.6 12l-4.4-1C2.5 11 2 10.5 2 9.8V7.6c0-.6.5-1.1 1.1-1.1h5.7l2.3 3.4 3.4 1.1H27"/><path class="st2" d="M8.8 15.5l.6.6c1.1 1.1 2.5 1.7 4 1.7h3.3"/><path class="st3" d="M6.6 25.7v4.5c0 .6.5 1.1 1.1 1.1h7.9c.6 0 1.1-.5 1.1-1.1v-3.4"/><path class="st1" d="M27 26.8h18.2c1.9 0 3.4-1.5 3.4-3.4v-5.9c0-1.3-.4-2.7-1.1-3.8L46.4 12l4.5-1.1c.6 0 1.1-.5 1.1-1.1V7.6c0-.6-.5-1.1-1.1-1.1h-5.7l-2.3 3.4-3.4 1.1H27"/><path class="st2" d="M44 8.7s-2.9-6.2-3.4-6.8c-.5-.6-1.5-1.1-2.3-1.1H15.6c-.8 0-1.7.5-2.3 1.1-.5.6-3.3 6.8-3.3 6.8M45.1 15.5l-.6.6c-1.1 1.1-2.5 1.7-4 1.7h-3.3"/><path class="st3" d="M47.4 25.7v4.5c0 .6-.5 1.1-1.1 1.1h-7.9c-.6 0-1.1-.5-1.1-1.1v-3.4"/><path class="st2" d="M16.8 22.3h20.4"/><g><path class="st0" d="M23.8 59H11.7c-2.7 0-4.8-2.2-4.8-4.8V42"/><path class="st0" d="M.8 49.3l6-7.3 7.3 7.3"/></g><g><path class="st1" d="M62 69.9H43.8c-1.9 0-3.4-1.5-3.4-3.4v-5.9c0-1.3.4-2.7 1.1-3.8l1.1-1.7-4.5-1.1c-.6 0-1.1-.5-1.1-1.1v-2.3c0-.6.5-1.1 1.1-1.1h5.7l2.3 3.4 3.4 1.1H62"/><path class="st2" d="M43.8 58.5l.6.6c1.1 1.1 2.5 1.7 4 1.7h3.3"/><path class="st3" d="M41.5 68.8v4.5c0 .6.5 1.1 1.1 1.1h7.9c.6 0 1.1-.5 1.1-1.1v-3.4"/><path class="st1" d="M62 69.9h18.2c1.9 0 3.4-1.5 3.4-3.4v-5.9c0-1.3-.4-2.7-1.1-3.8l-1.1-1.7 4.5-1.1c.6 0 1.1-.5 1.1-1.1v-2.3c0-.6-.5-1.1-1.1-1.1h-5.7l-2.3 3.4-3.4 1.1H62"/><path class="st2" d="M79 51.7s-2.9-6.2-3.4-6.8c-.5-.6-1.5-1.1-2.3-1.1H50.6c-.8 0-1.7.5-2.3 1.1-.5.6-3.4 6.8-3.4 6.8M80.1 58.5l-.6.6c-1.1 1.1-2.5 1.7-4 1.7h-3.3"/><path class="st3" d="M82.4 68.8v4.5c0 .6-.5 1.1-1.1 1.1h-7.9c-.6 0-1.1-.5-1.1-1.1v-3.4"/><path class="st2" d="M51.8 65.3h20.4"/></g></svg>