<svg id="Layer_1" xmlns="http://www.w3.org/2000/svg" viewBox="0 0 43.1 53.5"><style>.st0{fill:none;stroke:#19212d;stroke-width:1.3535;stroke-miterlimit:10}.st1{fill:#a0cd4c}.st2{font-family:&apos;Montserrat-Medium&apos;}.st3{font-size:16.5174px}</style><path class="st0" d="M27.3 40.1v-4.6c0-5.3 8.1-6.7 8.1-11.6V.7H7.6v23.2c0 4.9 8.1 6.3 8.1 11.6v4.6M7.6 6.5h-7v9.7c0 1.2.5 2.4 1.4 3.3l1.4 1.4c.4.4 1 .7 1.6.7h1.4m29-15.1h7v9.7c0 1.2-.5 2.4-1.4 3.3l-1.4 1.4c-.4.4-1 .7-1.6.7h-1.4M25 40.1h3.5c1.3 0 2.3 1 2.3 2.3v3.5m-18.5 0v-3.5c0-1.3 1-2.3 2.3-2.3h8.1m3.5 5.8H32c1.3 0 2.3 1 2.3 2.3v4.6H8.8v-4.6c0-1.3 1-2.3 2.3-2.3h12.7"/><text id="XMLID_14_" transform="translate(16.167 22.078)" class="st1 st2 st3">£</text></svg>