<svg id="Layer_1" xmlns="http://www.w3.org/2000/svg" viewBox="0 0 67.3 67.2"><style>.st0,.st1{fill:none;stroke:#fff;stroke-width:2;stroke-miterlimit:10}.st1{stroke:#9fd34a}</style><path class="st0" d="M19.9 47.3c15.4 15.4 30 18.6 35.4 18.9 3.5-5.1 4.9-9.3 5.9-13-3.7-3.6-9.2-7.4-14.2-9.5l-5.9 5.9c-2-.5-7.6-2.8-14.2-9.5-6.5-6.5-8.8-12.1-9.3-14.1l5.9-5.9c-2.1-5-5.8-10.4-9.5-14.2-3.7 1-7.9 2.4-13 5.9.3 5.4 3.6 20.1 18.9 35.5z"/><path class="st1" d="M36.2 17.7c7.4 0 13.4 6 13.4 13.4M36.2 9.4c12 0 21.7 9.7 21.7 21.7M36.2 1c16.6 0 30.1 13.5 30.1 30.1"/></svg>