<svg id="Layer_1" xmlns="http://www.w3.org/2000/svg" viewBox="0 0 67.1 58.7"><style>.st0{fill:none;stroke:#da2a4f;stroke-miterlimit:10}</style><path class="st0" d="M3.5 58.2c-2.3 0-3.7-2.5-2.5-4.5L31 1.9c1.2-1.9 3.9-1.9 5 0l30.1 51.8c1.2 2-.2 4.5-2.5 4.5H3.5z"/><path class="st0" d="M33.5 43.5c-2.4 0-4.4 2-4.4 4.4s2 4.4 4.4 4.4c2.4 0 4.4-2 4.4-4.4s-1.9-4.4-4.4-4.4zm0-28c-2.4 0-4.4 1.9-4.4 4.6 0 4.6 1.1 13.2 1.5 14.6.4 1.3 1.3 2.9 2.9 2.9 1.6 0 2.6-1.6 2.9-2.9.4-1.3 1.5-9.9 1.5-14.6.1-2.7-1.9-4.6-4.4-4.6z"/></svg>