<svg xmlns="http://www.w3.org/2000/svg" viewBox="0 0 151.72 151.72"><defs><style>.cls-1,.cls-2{fill:none;stroke-linecap:round;stroke-linejoin:round;stroke-width:2px;}.cls-1{stroke:#19212d;}.cls-2{stroke:#9fd34a;}</style></defs><title>Asset 11</title><g id="Layer_2" data-name="Layer 2"><g id="Content"><path class="cls-1" d="M137.77,53A61.85,61.85,0,0,0,79.11,10.76h-13"/><path class="cls-1" d="M98.61,137.82A61.91,61.91,0,0,0,141,79.11V62.84"/><path class="cls-1" d="M13,95.38A61.83,61.83,0,0,0,72.63,141H88.88"/><path class="cls-1" d="M56.27,13A61.84,61.84,0,0,0,10.76,72.65v13"/><polyline class="cls-1" points="75.86 1 66.09 10.76 75.86 20.53"/><polyline class="cls-1" points="1 75.86 10.76 85.62 20.53 75.86"/><polyline class="cls-1" points="79.11 131.19 88.88 140.95 79.11 150.72"/><polyline class="cls-1" points="150.72 72.59 140.97 62.84 131.2 72.6"/><path class="cls-2" d="M101.78,101.57V95A13,13,0,0,0,88.73,82H62.63A13,13,0,0,0,49.58,95v6.53"/><circle class="cls-2" cx="75.68" cy="55.89" r="13.05"/></g></g></svg>