<svg id="Layer_1" xmlns="http://www.w3.org/2000/svg" viewBox="0 0 63.8 90.2"><style>.st0,.st1{fill:none;stroke:#9fd34a;stroke-width:1.6;stroke-linecap:round;stroke-linejoin:round;stroke-miterlimit:10}.st1{stroke:#19212d}</style><g id="XMLID_2_"><path id="XMLID_14_" class="st0" d="M14 12.1h37.7v9.4H14z"/><path id="XMLID_13_" class="st1" d="M49.8 29.1h-7.5"/><path id="XMLID_12_" class="st1" d="M36.6 29.1h-7.5"/><path id="XMLID_11_" class="st1" d="M23.4 29.1h-7.5"/><path id="XMLID_10_" class="st1" d="M49.8 36.6h-7.5"/><path id="XMLID_9_" class="st1" d="M36.6 36.6h-7.5"/><path id="XMLID_8_" class="st1" d="M29.1 44.2h7.5"/><path id="XMLID_7_" class="st1" d="M42.3 44.2h7.5"/><path id="XMLID_6_" class="st1" d="M14 89.4v-4.9c0-1.6-5.3-6.2-6.7-8.3C6.5 74.9.8 61.6.8 61.6c0-1.8 4.6-4.2 7.6 0l4.9 7.6 2.5-2.4V40.4c0-2.1 1.7-3.8 3.8-3.8 2.1 0 3.8 1.7 3.8 3.8v18.8-7.5h3.8c1.2 0 3 .8 3.8 1.9h3.8c1.8 0 3.8 1.6 3.8 3.8h3.8c1.8 0 3.8 1.6 3.8 3.8V77c0 3.8-3.8 6.9-3.8 9.4v3"/><path id="XMLID_5_" class="st1" d="M31 53.6v7.5"/><path id="XMLID_4_" class="st1" d="M38.5 57.3V63"/><path id="XMLID_3_" class="st1" d="M10.2 51.7H2.7V.8H63v50.9H42.3"/></g></svg>