<svg id="Layer_1" xmlns="http://www.w3.org/2000/svg" viewBox="0 0 47.5 49"><style>.st0{fill:none;stroke:#1a222e;stroke-width:1.5;stroke-miterlimit:10}</style><path class="st0" d="M23 .7C9.9.7-.7 11.4-.7 24.5-.7 37.6 9.9 48.2 23 48.2M23 .7c13.1 0 23.7 10.6 23.7 23.7S36.1 48.1 23 48.1"/><path class="st0" d="M23 7.3c8.1 0 14.9 5.1 17.1 13 .2.9-.5 1.7-1.3 1.5-4.3-1.2-9.7-2.7-15.7-2.7s-11.5 1.4-15.7 2.7c-.8.2-1.6-.6-1.3-1.5 2-7.8 8.8-13 16.9-13zM17.7 41.3c-5.9-1.6-10.2-5.8-11.8-11.5-.2-.7.3-1.3 1-1.3h5.8c.4 0 .8.3 1 .7 1 2.2 2.4 3.6 4.7 4.6.4.2.7.5.7 1v5.6c-.1.6-.8 1.1-1.4.9zM26.9 40.3v-5.6c0-.4.3-.8.7-1 2.2-1 3.7-2.4 4.7-4.6.2-.4.6-.7 1-.7H39c.7 0 1.2.7 1 1.3-1.6 5.7-5.9 9.9-11.8 11.5-.6.3-1.3-.2-1.3-.9z"/></svg>