<svg id="Layer_1" xmlns="http://www.w3.org/2000/svg" viewBox="0 0 75.9 62.1"><style>.st0{fill:none;stroke:#19212d;stroke-width:2;stroke-miterlimit:10}</style><path class="st0" d="M3.2 61.1V18.4h6.3v42.7M28.5 35.8H7.9M47.5 35.8h18.9M0 61.1h17.4M72.8 61.1V18.4h-6.4v42.7M75.9 61.1H58.5M53.8 8.9l-2.1-4.7C51.1 2.3 49.3 1 47.2 1H28.8c-2 0-3.9 1.3-4.5 3.2l-2.1 4.7M30.1 21.6h15.8"/><path class="st0" d="M61.7 7.3H57c-.5 0-4.8 4.7-7.9 4.7H26.9c-3.1 0-7.4-4.7-7.9-4.7h-4.7c-.9 0-1.6.7-1.6 1.6V11c0 .9.7 1.6 1.6 1.6l3.2 1v1.6c-1 1-1.6 2.4-1.6 3.8v2.5c0 1.4.6 2.6 1.6 3.5v4.4c0 .9.7 1.6 1.6 1.6h6.3c.9 0 1.6-.7 1.6-1.6v-3.2h22v3.2c0 .9.7 1.6 1.6 1.6H57c.9 0 1.6-.7 1.6-1.6V25c1-.9 1.6-2.1 1.6-3.5V19c0-1.4-.6-2.8-1.6-3.8v-1.6l3.2-1c.9 0 1.6-.7 1.6-1.6V8.9c-.1-.9-.8-1.6-1.7-1.6zM54.7 15.8c-1.9 1.6-4.7 2.6-7.3 2.6M21.2 15.8c1.9 1.6 4.7 2.6 7.3 2.6M26.9 26.3h-6.3M55.4 26.3H49"/></svg>