<svg id="Layer_1" xmlns="http://www.w3.org/2000/svg" viewBox="0 0 62.1 62.1"><style>.st0{fill:none;stroke:#19212d;stroke-width:2;stroke-miterlimit:10}</style><g id="XMLID_2_"><circle id="XMLID_6_" class="st0" cx="31.1" cy="31.1" r="30.1"/><path id="XMLID_5_" class="st0" d="M24.9 53.1c-7.7-2.1-13.8-8.2-16-16-.3-.9.4-1.8 1.4-1.8H18c.6 0 1.1.4 1.3.9 1.3 2.9 3.7 5.3 6.6 6.6.5.2.9.7.9 1.3v7.6c0 1-.9 1.7-1.9 1.4z"/><path id="XMLID_4_" class="st0" d="M10.9 26.2c-1.1.3-2-.7-1.7-1.7C11.9 15 20.7 8.2 31.1 8.2S50.2 15 53 24.5c.3 1-.7 2-1.7 1.7-5.5-1.5-12.5-2.3-20.2-2.3-7.7 0-14.8.9-20.2 2.3z"/><path id="XMLID_3_" class="st0" d="M35.3 51.7v-7.6c0-.6.4-1.1.9-1.3 2.9-1.3 5.3-3.7 6.6-6.6.2-.5.7-.9 1.3-.9h7.6c.9 0 1.6.9 1.4 1.8-2.1 7.7-8.2 13.8-16 16-.9.3-1.8-.4-1.8-1.4z"/></g></svg>