<svg xmlns="http://www.w3.org/2000/svg" viewBox="0 0 60.99 88.24"><defs><style>.cls-1{fill:none;stroke:#fff;stroke-miterlimit:10;stroke-width:1.74px}.cls-2{fill:#9fd34a}</style></defs><title>calculator</title><rect width="59.26" height="86.5" x=".87" y=".87" class="cls-1" rx="3.06" ry="3.06"/><rect width="45.14" height="20.34" x="7.76" y="8.3" class="cls-1" rx="3.06" ry="3.06"/><rect width="7.18" height="7.18" x="7.93" y="36.81" class="cls-1" rx="2.23" ry="2.23"/><rect width="7.18" height="7.18" x="20.76" y="36.81" class="cls-1" rx="2.23" ry="2.23"/><rect width="7.18" height="7.18" x="33.6" y="36.81" class="cls-1" rx="2.23" ry="2.23"/><rect width="7.18" height="18.82" x="45.72" y="60.1" class="cls-1" rx="2.23" ry="2.23"/><rect width="7.18" height="7.18" x="7.93" y="48.45" class="cls-1" rx="2.23" ry="2.23"/><rect width="7.18" height="7.18" x="20.76" y="48.45" class="cls-1" rx="2.23" ry="2.23"/><rect width="7.18" height="7.18" x="33.6" y="48.45" class="cls-1" rx="2.23" ry="2.23"/><rect width="7.18" height="7.18" x="45.72" y="36.81" class="cls-1" rx="2.23" ry="2.23"/><rect width="7.18" height="7.18" x="45.72" y="48.45" class="cls-1" rx="2.23" ry="2.23"/><rect width="7.18" height="7.18" x="7.93" y="60.1" class="cls-1" rx="2.23" ry="2.23"/><rect width="7.18" height="7.18" x="20.76" y="60.1" class="cls-1" rx="2.23" ry="2.23"/><rect width="7.18" height="7.18" x="33.6" y="60.1" class="cls-1" rx="2.23" ry="2.23"/><rect width="7.18" height="7.18" x="7.93" y="71.74" class="cls-1" rx="2.23" ry="2.23"/><rect width="7.18" height="7.18" x="20.76" y="71.74" class="cls-1" rx="2.23" ry="2.23"/><rect width="7.18" height="7.18" x="33.6" y="71.74" class="cls-1" rx="2.23" ry="2.23"/><path d="M19.15 15.34a1.47 1.47 0 0 1 1.7-.1 2.94 2.94 0 0 1 .85.72l.62.75 1.2-2.37-.3-.33a4.48 4.48 0 0 0-1.53-1.17 4.32 4.32 0 0 0-1.9-.4 3.56 3.56 0 0 0-2.72 1.12 4 4 0 0 0-.93 2.88v1h-1.3v2.1h1.3v2.43L15 22v2.47l8.4-.16-.05-2.45L19 22v-2.44l2.72-.05v-2.07l-2.72.05v-1a1.62 1.62 0 0 1 .15-1.14zm10.79 0a1.47 1.47 0 0 1 1.7-.1 2.82 2.82 0 0 1 .85.72l.6.75 1.2-2.37L34 14a4.57 4.57 0 0 0-1.54-1.17 4.36 4.36 0 0 0-1.9-.4 3.58 3.58 0 0 0-2.72 1.12 4 4 0 0 0-.84 2.9v1h-1.3v2.08H27l.05 2.47h-1.3l.04 2.47 8.38-.16v-2.45l-4.4.15-.06-2.44 2.72-.05v-2.07l-2.7.05v-1a1.63 1.63 0 0 1 .2-1.14zm10.8 0a1.47 1.47 0 0 1 1.7-.1 2.94 2.94 0 0 1 .85.72l.6.75 1.2-2.37-.28-.33a4.57 4.57 0 0 0-1.54-1.17 4.32 4.32 0 0 0-1.88-.4 3.6 3.6 0 0 0-2.74 1.12 4.06 4.06 0 0 0-.92 2.88v1h-1.3v2.1h1.3v2.43h-1.3v2.47l8.4-.16V21.8l-4.28.2v-2.44l2.7-.05v-2.07l-2.7.05v-1a1.62 1.62 0 0 1 .18-1.14z" class="cls-2"/></svg>