<svg id="Layer_1" xmlns="http://www.w3.org/2000/svg" viewBox="0 0 72.7 75.8"><style>.st0,.st1,.st2{stroke-miterlimit:10}.st0{fill:none;stroke-width:2;stroke-linecap:round;stroke-linejoin:round;stroke:#19212d}.st1,.st2{stroke:#9fd34a}.st1{stroke-linecap:round;stroke-linejoin:round;fill:none;stroke-width:2}.st2{fill:#9fd34a;stroke-width:.75}</style><path class="st0" d="M51.3 5.7h20.4v40.8H67M16.7 26.1h3.1"/><ellipse class="st1" cx="32.7" cy="26.1" rx="8.6" ry="9.3"/><path class="st0" d="M41.8 12H12c0 2.6-2.1 4.7-4.7 4.7v18.9c3.1 0 4.7 2 4.7 4.6h29.8M51.3 12h9.4c0 3.1 2.1 4.8 4.7 4.8v9.3M46.5 1v6.3M46.5 12v6.3M46.5 23v6.3M46.5 34v6.3"/><path class="st0" d="M46.5 49.7l-3.1-3.2H1V5.7h40.8M38.7 52.8l-6.3-6.3"/><path class="st0" d="M43.4 54.4l-9.3 9.3c-1.1-.9-2.5-1.5-4-1.5-3.5 0-6.3 2.8-6.3 6.3s2.8 6.3 6.3 6.3c2.9 0 4.3-2 5.5-3.1l25.1-25.1c2.6-2.6 3.1-5.7 3.1-9.4v-4.7l-14.1 14M54.4 59.1l4.6 4.6c1.1-.9 2.5-1.5 4-1.5 3.5 0 6.3 2.8 6.3 6.3s-2.8 6.3-6.3 6.3c-2.9 0-4.3-2-5.5-3.1l-7.9-7.9"/><path class="st2" d="M31.5 29.4H36v.9h-6.8v-.9h1.3v-4h-1.3v-.6h1.3v-1.9c0-1 .2-1.8.7-2.3.5-.5 1.2-.8 2.1-.8.5 0 1 .1 1.5.4.5.2.9.6 1.3 1l-.5.8c-.3-.4-.7-.7-1-.9-.4-.2-.8-.3-1.2-.3-.6 0-1.1.2-1.4.6-.3.4-.5.9-.5 1.6v1.9h2.8v.6h-2.8v3.9z"/></svg>