<svg xmlns="http://www.w3.org/2000/svg" viewBox="0 0 156.09 79.64"><defs><style>.cls-1,.cls-2,.cls-3,.cls-4{fill:none;}.cls-1,.cls-3{stroke:#19212d;}.cls-1{stroke-miterlimit:10;}.cls-2{stroke:#9fd34a;}.cls-2,.cls-3,.cls-4{stroke-linejoin:round;}.cls-4{stroke:#a0c74f;}</style></defs><title>Asset 1</title><g id="Layer_2" data-name="Layer 2"><g id="Artwork"><line class="cls-1" x1="106.43" y1="63.77" x2="118.72" y2="63.77"/><path class="cls-1" d="M106.43,8.47h24.4a6.13,6.13,0,0,1,5.08,2.68L146.37,30h3.07c3.46,0,6.15,2.29,6.15,6.8V57.63a6.14,6.14,0,0,1-6.15,6.14H143.3"/><polyline class="cls-1" points="106.43 0 106.43 63.77 60.34 63.77"/><line class="cls-1" x1="35.77" y1="63.77" x2="9.76" y2="63.77"/><path class="cls-1" d="M143.3,66.88A12.32,12.32,0,1,1,131,54.62,12.29,12.29,0,0,1,143.3,66.88Z"/><path class="cls-1" d="M60.4,66.88A12.32,12.32,0,1,1,48.08,54.62,12.29,12.29,0,0,1,60.4,66.88Z"/><polyline class="cls-2" points="112.57 33.05 134.08 33.05 134.08 29.97 127.94 20.76"/><line class="cls-1" x1="106.43" y1="54.62" x2="9.81" y2="54.62"/><path class="cls-3" d="M28.82,39.88H65.24"/><path class="cls-3" d="M81.43,39.88H93.57v-8.1l-2-8.09s-10.18-3.16-24.27-6.07C61.78,11.08,52.85,7.51,49.06,7.51H32.87C25,7.51,14.09,15.6,10.62,17.62H4.53a2,2,0,0,0-2,2v8.09l-2,4v4a4,4,0,0,0,4.05,4.05h8.09"/><polyline class="cls-4" points="63.22 19.64 59.17 21.67 42.99 21.67 38.94 11.55"/><polyline class="cls-4" points="42.99 21.67 18.71 21.67 16.69 19.64"/><path class="cls-3" d="M65.23,39.88a8.1,8.1,0,1,0,8.1-8.08A8.1,8.1,0,0,0,65.23,39.88Z"/><path class="cls-3" d="M12.64,39.88a8.1,8.1,0,1,0,8.1-8.08A8.09,8.09,0,0,0,12.64,39.88Z"/></g></g></svg>