<svg id="Layer_1" xmlns="http://www.w3.org/2000/svg" viewBox="0 0 60 57.3"><style>.st0{fill:#a0cd4c}</style><path class="st0" d="M59.9 21.8c-.1-.5-.5-1-1-1-2.2-.3-4.4-.6-6.6-1l-10.5-1.5L40 18l-2.7-5.4C35.6 9.4 34 6.2 32.4 3c-.4-.7-.7-1.5-1.1-2.2-.3-.6-1.2-.9-1.9-.6-.3.1-.6.3-.7.6-1 2-2 4-3.1 6.1l-4.8 9.6c-.2.5-.5 1-.8 1.5l-6 .9-10.5 1.5c-.8.1-1.6.2-2.4.4-.5.1-.9.6-1 1-.1.5 0 1.1.4 1.5C2 24.9 3.6 26.5 5.2 28c2.5 2.5 5.1 5 7.6 7.5l1.2 1.2c-.3 1.9-.7 3.8-1 5.7l-1.8 10.5c-.1.8-.3 1.6-.4 2.4-.1.6 0 1.2.5 1.6.5.4 1.1.4 1.7.1 2-1 4-2.1 6-3.1 3.2-1.7 6.3-3.3 9.5-5 .5-.2 1-.5 1.4-.7 1.7.9 3.5 1.8 5.2 2.7 3.2 1.7 6.3 3.3 9.5 5 .7.4 1.4.8 2.2 1.1.5.3 1.2.3 1.7-.1s.6-1 .5-1.6c-.4-2.2-.8-4.4-1.1-6.6l-1.8-10.5-.3-1.5c1.4-1.4 2.8-2.8 4.3-4.2 2.6-2.5 5.1-5 7.7-7.5.6-.6 1.2-1.2 1.8-1.7.3-.4.5-.9.3-1.5z"/></svg>