<svg xmlns="http://www.w3.org/2000/svg" viewBox="0 0 87.61 99.36"><defs><style>.cls-1,.cls-2{fill:none;stroke-linecap:round;stroke-linejoin:round;stroke-width:2px}.cls-1{stroke:#19212d}.cls-2{stroke:#9fd34a}</style></defs><title>instant</title><path d="M13.33 39.12A39.36 39.36 0 1 1 7.93 59" class="cls-1"/><path d="M78.24 63.46a31.28 31.28 0 0 1-52.4 18.35M71.4 39.12a31.18 31.18 0 0 1 3.37 5m3.75 13.36v1.54a30.94 30.94 0 0 1-.32 4.44" class="cls-2"/><path d="M37 1h20.55v8.68H37zm5.2 14.9V9.7h10.37v6.23M75.58 32l5.95-5.96m3.57 3.56l-7.12-7.1M1 66.95l6.93-7.9 7.9 6.9" class="cls-1"/><circle cx="47.28" cy="59.02" r="3.65" class="cls-2"/><path d="M47.28 55.37V36.34" class="cls-2"/></svg>