<svg id="Layer_1" xmlns="http://www.w3.org/2000/svg" viewBox="0 0 68.2 47"><style>.st0,.st1{fill:none;stroke-width:1.5;stroke-miterlimit:10}.st0{stroke-linecap:round;stroke-linejoin:round;stroke-dasharray:15.4013;stroke:#9fd34a}.st1{stroke:#fff}</style><path class="st0" d="M58.9 14.8l6.6-3.3M59.1 26.8l6.9 2.3M60.1 20.4h7.3"/><path class="st1" d="M42.9 41.4c-.1 0-2.9 0-3.8-2.6 0 0-2.2-4.7-6-6.5 0 0-6.3-2.9-12.8-2.9h-1.6c-.2.1-.4.1-.6.1H2.4c-.9 0-1.7-.8-1.7-1.7V14.2c0-.9.7-1.7 1.7-1.7h15.8c.2 0 .5.1.7.2v-.1s16 1.2 20.2-9.2c0 0 .7-2.1 2.9-2.5 0 0 2.5-.6 2.6.7v38.5c.1-.1.4 1.5-1.7 1.3zM51.5 20.3c0 3.4-2.9 6.2-6.6 6.3V14.1c3.7 0 6.6 2.8 6.6 6.2zM18.9 12.6l-.2 16.8"/><path class="st1" d="M7.9 46.3H5.2c-.8 0-1.5-.7-1.5-1.5V31c0-.8.7-1.5 1.5-1.5h2.7c.8 0 1.5.7 1.5 1.5v13.8c0 .8-.7 1.5-1.5 1.5z"/></svg>