<svg id="Layer_1" xmlns="http://www.w3.org/2000/svg" viewBox="0 0 78.5 80.2"><style>.st0{fill:none}.st1{fill:#19212d}.st2{fill:#a0cd4c}</style><g id="XMLID_27_"><path id="XMLID_44_" class="st0" d="M18.2 76.3c0 1.6 1.3 2.9 2.9 2.9h36.2c1.6 0 2.9-1.3 2.9-2.9v-6.4h-42v6.4zM36.7 74h5.2v1h-5.2v-1z"/><path id="XMLID_45_" class="st0" d="M57.3 1H21.2c-1.6 0-2.9 1.3-2.9 2.9v4.7h42.1V3.9C60.3 2.3 59 1 57.3 1z"/><path id="XMLID_48_" class="st0" d="M18.2 68.9h42.1V9.6H18.2v59.3zm33.5-27.1h1v20.7h-1V41.8zm-8.6 10.4h1v10.3h-1V52.2zm-8.7-17.3h1v27.6h-1V34.9zM26.8 47v15.5h-1V47h1z"/><path id="XMLID_54_" class="st1" d="M57.3 0H21.2c-2.2 0-3.9 1.8-3.9 3.9v72.3c0 2.2 1.8 3.9 3.9 3.9h36.2c2.2 0 3.9-1.8 3.9-3.9V3.9c0-2.1-1.8-3.9-4-3.9zm3.5 8.6v1h-.5v59.3h.5v1h-.5v6.4c0 1.6-1.3 2.9-2.9 2.9H21.2c-1.6 0-2.9-1.3-2.9-2.9v-6.4h-.5v-1h.5V9.6h-.5v-1h.5V3.9c0-1.6 1.3-2.9 2.9-2.9h36.2c1.6 0 2.9 1.3 2.9 2.9v4.7h.5z"/><path id="XMLID_55_" class="st1" d="M18.2 68.9h42.1v1H18.2z"/><path id="XMLID_56_" class="st1" d="M60.3 68.9h.5v1h-.5z"/><path id="XMLID_57_" class="st1" d="M17.7 68.9h.5v1h-.5z"/><path id="XMLID_58_" class="st1" d="M18.2 8.6h42.1v1H18.2z"/><path id="XMLID_59_" class="st1" d="M17.7 8.6h.5v1h-.5z"/><path id="XMLID_60_" class="st1" d="M60.3 8.6h.5v1h-.5z"/><path id="XMLID_61_" class="st1" d="M36.7 74h5.2v1h-5.2z"/><path id="XMLID_62_" class="st2" d="M25.8 47h1v15.5h-1z"/><path id="XMLID_63_" class="st2" d="M34.4 34.9h1v27.6h-1z"/><path id="XMLID_64_" class="st2" d="M43.1 52.2h1v10.3h-1z"/><path id="XMLID_65_" class="st2" d="M51.7 41.8h1v20.7h-1z"/><path id="XMLID_66_" class="st1" d="M68.9 52.2h1v10.3h-1z"/><path id="XMLID_67_" class="st1" d="M77.5 38.4h1v24.1h-1z"/><path id="XMLID_68_" class="st1" d="M0 52.2h1v10.3H0z"/><path id="XMLID_69_" class="st1" d="M8.6 34.9h1v27.6h-1z"/></g></svg>