<svg id="Layer_1" xmlns="http://www.w3.org/2000/svg" viewBox="0 0 54 61.2"><style>.st0,.st1{fill:none;stroke:#fff;stroke-width:1.5;stroke-linecap:round;stroke-linejoin:round;stroke-miterlimit:10}.st1{stroke:#9fd34a}.st2{display:none}.st3{display:inline}.st4{fill:none;stroke:#9fd34a;stroke-width:1.5;stroke-linecap:round;stroke-linejoin:round}</style><g id="XMLID_28_"><path id="XMLID_42_" class="st0" d="M8.3 24.1c4.2-7.1 11.9-11.9 20.8-11.9 13.3 0 24.1 10.8 24.1 24.1S42.5 60.5 29.1 60.5 5 49.7 5 36.3"/><path id="XMLID_41_" class="st1" d="M48.1 39.1c-1.3 9.3-9.3 16.5-19 16.5-5.1 0-9.7-2-13.1-5.2"/><g id="XMLID_36_" class="st2"><g id="XMLID_38_" class="st3"><path id="XMLID_40_" class="st4" d="M226.8 729.8c1.3 1.5 2.3 3.3 3 5.1"/><path id="XMLID_39_" class="st4" d="M230.9 738.8c.2 1.1.3 2.1.3 3.3 0 .9-.1 1.8-.2 2.7"/></g></g><path id="XMLID_35_" class="st0" d="M22.8.7h12.6V6H22.8z"/><path id="XMLID_34_" class="st0" d="M26 9.9V6.1h6.4v3.8"/><path id="XMLID_33_" class="st0" d="M46.5 19.8l3.7-3.7"/><path id="XMLID_32_" class="st0" d="M52.3 18.3L48 13.9"/><path id="XMLID_31_" class="st0" d="M.7 41.2L5 36.4l4.9 4.2"/><circle id="XMLID_30_" class="st1" cx="29.1" cy="36.3" r="2.2"/><path id="XMLID_29_" class="st1" d="M29.1 34.1V22.4"/></g></svg>