<svg id="Layer_1" xmlns="http://www.w3.org/2000/svg" viewBox="0 0 232.8 223.5"><style>.st0,.st1{fill:none;stroke:#19212d;stroke-width:2;stroke-linecap:round;stroke-linejoin:round;stroke-miterlimit:10}.st1{stroke:#9fd34a}</style><path class="st0" d="M204.5 57.5V1H39.7v174.1M204.5 203v-95M1 203c0 10.7 8.7 19.5 19.4 19.5M165.6 203c0 10.7 8.7 19.5 19.4 19.5s19.5-8.7 19.5-19.4"/><path class="st0" d="M165.6 203v-27.9L1 175v28M20.4 222.4l163 .1M58.3 34.7l125.1.1M58.3 72.4H131M58.3 110l87.7.1M58.3 128.9h76M58.3 53.6h118.1"/><path class="st1" d="M58.3 147.7h76M155.5 144.6l-13.7 3.1 3.1-13.8z"/><path transform="rotate(45.009 185.788 103.739)" class="st1" d="M178.2 59.5h15.1v88.4h-15.1z"/><path class="st1" d="M229.6 59.9c-2.9-2.9-7.7-2.9-10.6 0l-3.6 3.6L226 74.1l3.6-3.6c2.9-2.9 2.9-7.6 0-10.6zM211.7 67.2c-3-3.1-8-3.1-11 0l-24.2 24.2"/><path class="st0" d="M1 190.8h13.2"/></svg>