<svg id="Layer_1" xmlns="http://www.w3.org/2000/svg" viewBox="0 0 109.3 78.1"><style>.st0{fill:#19212d}.st1{fill:#a0cd4c}</style><path id="XMLID_58_" class="st0" d="M104.9 68.4H101v-1h3.9c1.9 0 3.4-1.5 3.4-3.4V50.8c0-2.4-1.3-3.8-3.4-3.8h-2.2l-6.8-12.2c-.6-.9-1.7-1.4-2.8-1.4H77.7v-1h15.5c1.5 0 2.8.7 3.6 1.9l6.5 11.7h1.7c2.7 0 4.4 1.9 4.4 4.8V64c-.1 2.4-2 4.4-4.5 4.4z"/><path id="XMLID_57_" class="st0" d="M78.2 68.4H48.4v-1h28.8V19.2h1z"/><path id="XMLID_56_" class="st0" d="M16.4 67.4h16.5v1H16.4z"/><path id="XMLID_53_" class="st0" d="M93.2 78.1c-4.6 0-8.3-3.7-8.3-8.3s3.7-8.3 8.3-8.3 8.3 3.7 8.3 8.3-3.7 8.3-8.3 8.3zm0-15.5c-4 0-7.3 3.3-7.3 7.3s3.3 7.3 7.3 7.3 7.3-3.3 7.3-7.3-3.2-7.3-7.3-7.3z"/><path id="XMLID_50_" class="st0" d="M40.7 78.1c-4.6 0-8.3-3.7-8.3-8.3s3.7-8.3 8.3-8.3 8.3 3.7 8.3 8.3-3.8 8.3-8.3 8.3zm0-15.5c-4 0-7.3 3.3-7.3 7.3s3.3 7.3 7.3 7.3 7.3-3.3 7.3-7.3-3.3-7.3-7.3-7.3z"/><path id="XMLID_49_" class="st0" d="M77.7 67.4h7.8v1h-7.8z"/><path id="XMLID_48_" class="st1" d="M95.2 48.9H81.6v-1h13.1v-1.3l-3.8-5.7.8-.6 3.9 5.8c.1.1.1.2.1.3v1.9c0 .4-.2.6-.5.6z"/><path id="XMLID_47_" class="st1" d="M28 42.1h29.4v1H28z"/><path id="XMLID_46_" class="st1" d="M41.8 30.4h25.9v1H41.8z"/><g><path id="XMLID_43_" class="st0" d="M19.2 38.3C8.6 38.3 0 29.7 0 19.2 0 8.6 8.6 0 19.2 0s19.2 8.6 19.2 19.2c-.1 10.5-8.7 19.1-19.2 19.1zm0-37.3C9.2 1 1 9.2 1 19.2s8.2 18.2 18.2 18.2 18.2-8.2 18.2-18.2C37.3 9.2 29.2 1 19.2 1z"/><path id="XMLID_42_" class="st0" d="M26.6 19.7h-7.9V6.1h1v12.6h6.9z"/></g><g><path id="XMLID_41_" class="st0" d="M16.4 61.6h61.3v1H16.4z"/></g></svg>