<svg id="Layer_1" xmlns="http://www.w3.org/2000/svg" viewBox="0 0 97.6 72.5"><style>.st0{fill:#19212d}</style><path id="XMLID_11_" class="st0" d="M92.3 61.1h-4.6c-.4 0-.8-.4-.8-.8s.4-.8.8-.8h4.6c2.1 0 3.8-1.7 3.8-3.8V40.2c0-2.7-1.4-4.3-3.8-4.3H90c-.3 0-.6-.2-.7-.4l-7.8-14c-.7-1-1.8-1.6-3.1-1.6H60.3c-.4 0-.8-.4-.8-.8s.4-.8.8-.8h18.2c1.8 0 3.4.9 4.4 2.3l7.6 13.7h1.8c3.3 0 5.4 2.3 5.4 5.9v15.5c-.1 2.9-2.5 5.4-5.4 5.4z"/><path id="XMLID_10_" class="st0" d="M60.3 61.1h-32c-.4 0-.8-.4-.8-.8s.4-.8.8-.8h31.2V1.6H1.6v57.9h8.3c.4 0 .8.4.8.8s-.4.8-.8.8H.8c-.4 0-.8-.4-.8-.8V.8C0 .4.4 0 .8 0h59.5c.4 0 .8.4.8.8v59.5c0 .4-.4.8-.8.8z"/><path id="XMLID_7_" class="st0" d="M78.5 72.5c-5.5 0-10-4.5-10-9.9s4.5-9.9 10-9.9 10 4.5 10 9.9-4.5 9.9-10 9.9zm0-18.3c-4.6 0-8.4 3.7-8.4 8.3s3.8 8.3 8.4 8.3 8.4-3.7 8.4-8.3-3.8-8.3-8.4-8.3z"/><path id="XMLID_4_" class="st0" d="M19.1 72.5c-5.5 0-10-4.5-10-9.9s4.5-9.9 10-9.9 10 4.5 10 9.9-4.5 9.9-10 9.9zm0-18.3c-4.6 0-8.4 3.7-8.4 8.3s3.8 8.3 8.4 8.3c4.6 0 8.4-3.7 8.4-8.3s-3.8-8.3-8.4-8.3z"/><path id="XMLID_3_" class="st0" d="M69.4 61.1h-9.1c-.4 0-.8-.4-.8-.8s.4-.8.8-.8h9.1c.4 0 .8.4.8.8s-.4.8-.8.8z"/><path id="XMLID_2_" class="st0" d="M80.8 38.2h-16c-.4 0-.8-.4-.8-.8s.4-.8.8-.8H80v-1.2l-4.4-6.7c-.2-.4-.1-.9.2-1.1.4-.2.9-.1 1.1.2l4.6 6.9c.1.1.1.3.1.4v2.3c0 .4-.3.8-.8.8z"/></svg>