<svg id="Layer_1" xmlns="http://www.w3.org/2000/svg" viewBox="0 0 87.9 61.1"><style>.st0{fill:none;stroke:#19212d;stroke-width:2;stroke-miterlimit:10}</style><path class="st0" d="M68.3.7s-6.8 6.1-7.5 6.2c-2 .3-11.2-4-13.1-4.5C45.9 2 27.4 7.9 26 10.1c-1.4 2.2 4.1 7.5 9.4 6.8 5.3-.7 13.1-3.5 15.4-1.2 3.7 3.7 14.5 15 19.6 19.5C74.5 39 87 19.5 87 19.5M45.6 55.5l-6.1-6.2M55.7 52.1L45.1 40.6M64.9 46.8L52.2 33.7M24.2 55.4c1.5 1.5 3.8 1.5 5.3 0l3.3-3.3c1.4-1.4 1.1-3.7-.6-5.4-1.7-1.7-4-2-5.4-.6 1.4-1.4 1.1-3.7-.6-5.4-1.7-1.7-4-2-5.4-.6 1.4-1.4 1.1-3.7-.6-5.4-1.7-1.7-4-2-5.4-.6 1.4-1.4 1.1-3.7-.6-5.4-1.7-1.7-4-2-5.4-.6l-3.3 3.3c-1.5 1.5-1.5 3.8 0 5.3l18.7 18.7z"/><path class="st0" d="M31 53.9l1.2 1.2 2.9 2.9c4.4 4.4 8.5 1.2 10.6-2.5 4 2.1 8.5-.2 10.1-3.3 5.1 2.5 9.5-2.7 9.2-5.3 5.5-.3 9.2-6.6 5.4-11.6M.7 21.4l4 4.2c.4 1.5 1.4 3 2.4 4.3M26.2 9.8L19.5 3M14.9 34.1L9 40.2M14.9 34.1L9 40.2M20.8 40.1L15 46.2M26.8 46.1l-5.9 6.1"/></svg>