<svg id="Layer_1" xmlns="http://www.w3.org/2000/svg" viewBox="0 0 65.3 73.2"><style>.st0{fill:none;stroke:#19212d;stroke-width:2;stroke-miterlimit:10}</style><g id="XMLID_2_"><path id="XMLID_9_" class="st0" d="M18.4 1v11.1H8.9V1C4 1 1 5.3 1 10.5v3.2c0 4.7 2.7 8.1 6.3 9.5v42.7c0 3.5 2.8 6.3 6.3 6.3s6.3-2.8 6.3-6.3V23.1c3.6-1.4 6.3-4.8 6.3-9.5v-3.2c.1-5.1-2.9-9.4-7.8-9.4z"/><path id="XMLID_8_" class="st0" d="M13.7 62.7v3.2"/><path id="XMLID_7_" class="st0" d="M23.1 54.8h31.6c2.6 0 4.7-2.1 4.7-4.7v-9.5c0-.8-.1-1.7-.3-2l-1.7-2.5c-.6-.9-.1-2.1.9-2.4l4.2-1c.9 0 1.6-.7 1.6-1.6v-3.2c0-.9-.7-1.6-1.6-1.6h-7.1c-.5 0-1 .3-1.3.7L52 30.1c-.3.4-3.4 2.5-5.3 2.5H23"/><path id="XMLID_6_" class="st0" d="M29.5 16.8c7 0 12.5.9 15.6 1.3 1.1.2 2.6 1 3.3 1.8.7.9 4.5 9 4.5 9"/><path id="XMLID_5_" class="st0" d="M54.8 39c-2 2-4.8 3.2-7.6 3.2h-3.4"/><path id="XMLID_4_" class="st0" d="M58 53.2v6.3c0 .9-.7 1.6-1.6 1.6H45.3c-.9 0-1.6-.7-1.6-1.6v-4.7"/><path id="XMLID_3_" class="st0" d="M23.1 48.5h20.6"/></g></svg>