<svg id="Layer_1" xmlns="http://www.w3.org/2000/svg" viewBox="0 0 91.8 56"><style>.st0,.st1,.st2{fill:none;stroke:#a3a6ab;stroke-linecap:round;stroke-linejoin:round;stroke-miterlimit:10}.st1,.st2{stroke:#fff}.st2{stroke:#9fd34a}</style><circle class="st0" cx="74.9" cy="48.9" r="6.6"/><circle class="st0" cx="22.2" cy="48.9" r="6.6"/><path class="st1" d="M34 52.2h29.1"/><path class="st0" d="M37 35.4H24.3M59.7 35.4H43.2v-7.7"/><path class="st1" d="M86.7 52.2h3.4l1.2-8.7-1.6-1.3-2.6-5.6-18.4-2.4-15-9.5H29l-13.7 8.1-10.8 1.7-1.8 8-2.2 1 2.2 8.7h7.6M54.5 17.6c-.1-.6-.1-1.2-.1-1.8C54.4 7.4 61.2.5 69.7.5S85 7.3 85 15.8c0 3.6-1.3 6.9-3.4 9.6"/><path class="st2" d="M69.6 22.2V9.3M63.2 15.8h12.9"/></svg>