<svg id="Layer_1" xmlns="http://www.w3.org/2000/svg" viewBox="0 0 49 49"><style>.st0{fill:none;stroke:#1a222e;stroke-width:1.5;stroke-miterlimit:10}</style><path class="st0" d="M24.5.7C11.4.7.8 11.4.8 24.5c0 13.1 10.6 23.7 23.7 23.7s23.7-10.6 23.7-23.7S37.6.7 24.5.7z"/><path class="st0" d="M24.5 40.3c-8.7 0-15.8-7.1-15.8-15.8 0-8.7 7.1-15.8 15.8-15.8 8.7 0 15.8 7.1 15.8 15.8 0 8.7-7.1 15.8-15.8 15.8zM24.5 23.4v2.1"/><path class="st0" d="M26.6 13.3v6.8c0 .7.7 1.2 1.4 1l6.5-2.1c.7-.2.9-1 .6-1.6-1.7-2.5-4.1-4.3-7.1-5.1-.7-.2-1.4.3-1.4 1zM13.2 23c-.7-.2-1.4.3-1.4 1v.5c0 3 1 5.7 2.7 7.8.4.6 1.3.5 1.7 0l4-5.5c.4-.6.2-1.4-.5-1.6L13.2 23zM21 12.3c-2.9.8-5.4 2.7-7.1 5.1-.4.6-.1 1.4.6 1.6l6.5 2.1c.7.2 1.4-.3 1.4-1v-6.8c0-.7-.7-1.2-1.4-1zm-1.4 22.4c-.4.6-.2 1.4.5 1.6 1.4.5 2.8.8 4.4.8 1.5 0 3-.3 4.4-.8.6-.2.9-1 .5-1.6l-4-5.5c-.4-.6-1.3-.6-1.7 0l-4.1 5.5zM35.7 23l-6.5 2.1c-.7.2-.9 1-.5 1.6l4 5.5c.4.6 1.3.6 1.7 0 1.7-2.2 2.7-4.9 2.7-7.8v-.5c0-.6-.7-1.1-1.4-.9z"/></svg>