<svg id="Layer_1" xmlns="http://www.w3.org/2000/svg" viewBox="0 0 61 58.3"><style>.st0{fill:#fff;stroke:#d5d3d0;stroke-miterlimit:10}</style><path class="st0" d="M60.4 22.3c-.1-.5-.5-1-1-1-2.2-.3-4.4-.6-6.6-1l-10.5-1.5-1.8-.3-2.7-5.4L33 3.5c-.4-.7-.7-1.5-1.1-2.2-.3-.6-1.2-.9-1.9-.6-.3.1-.6.3-.7.6-1 2-2 4-3.1 6.1L21.4 17c-.3.5-.5 1.1-.8 1.6l-6 .9L4.1 21c-.8.1-1.6.2-2.4.4-.5.1-.9.6-1 1-.1.5 0 1.1.4 1.5 1.6 1.6 3.2 3.2 4.8 4.7 2.5 2.5 5.1 5 7.6 7.5l1.2 1.2c-.3 1.9-.7 3.8-1 5.7l-1.8 10.5c-.1.8-.3 1.6-.4 2.4-.1.6 0 1.2.5 1.6.5.4 1.1.4 1.7.1 2-1 4-2.1 6-3.1 3.2-1.7 6.3-3.3 9.5-5 .5-.2 1-.5 1.4-.7 1.7.9 3.5 1.8 5.2 2.7 3.2 1.7 6.3 3.3 9.5 5 .7.4 1.4.8 2.2 1.1.5.3 1.2.3 1.7-.1s.6-1 .5-1.6c-.4-2.2-.8-4.4-1.1-6.6l-1.8-10.5-.3-1.5c1.4-1.4 2.8-2.8 4.3-4.2 2.6-2.5 5.1-5 7.7-7.5.6-.6 1.2-1.2 1.8-1.7.1-.5.3-1 .1-1.6z"/></svg>