<svg id="Layer_1" xmlns="http://www.w3.org/2000/svg" viewBox="0 0 26.4 26.4"><style>.st0{fill:#a0cd4c}.st1{fill:#fff}</style><path id="XMLID_73_" class="st0" d="M19.6 19.9h-1v-1.5c0-1.4-1.1-2.5-2.5-2.5h-5.9c-1.4 0-2.5 1.1-2.5 2.5v1.5h-1v-1.5c0-1.9 1.6-3.5 3.5-3.5h5.9c1.9 0 3.5 1.6 3.5 3.5v1.5z"/><path id="XMLID_70_" class="st0" d="M13.2 13c-1.9 0-3.5-1.6-3.5-3.5S11.3 6 13.2 6s3.5 1.6 3.5 3.5-1.6 3.5-3.5 3.5zm0-6c-1.4 0-2.5 1.1-2.5 2.5s1.1 2.5 2.5 2.5 2.5-1.1 2.5-2.5S14.6 7 13.2 7z"/><g><path id="XMLID_67_" class="st1" d="M13.2 26.4C5.9 26.4 0 20.5 0 13.2S5.9 0 13.2 0s13.2 5.9 13.2 13.2-5.9 13.2-13.2 13.2zm0-25.6C6.4.8.8 6.4.8 13.2s5.6 12.4 12.4 12.4S25.6 20 25.6 13.2 20 .8 13.2.8z"/></g></svg>