<svg id="Layer_1" xmlns="http://www.w3.org/2000/svg" viewBox="0 0 150.6 93.7"><style>.st0,.st1{fill:none;stroke:#19212d;stroke-width:1.6;stroke-linecap:round;stroke-linejoin:round;stroke-miterlimit:10}.st1{stroke:#9ace4a}</style><path class="st0" d="M36.2 30.2l-1.7-3.8c-.5-1.6-2-2.6-3.6-2.6h-15c-1.7 0-3.1 1.1-3.6 2.6l-1.7 3.8M16.9 40.4h12.8"/><path class="st0" d="M42.6 28.9h-3.8c-.4 0-3.9 3.8-6.4 3.8h-18c-2.5 0-6-3.8-6.4-3.8H4.1c-.7 0-1.3.6-1.3 1.3v1.7c0 .7.6 1.3 1.3 1.3l2.6.8v1.3c-.8.8-1.3 1.9-1.3 3.1v2c0 1.1.5 2.1 1.3 2.8v3.6c0 .7.6 1.3 1.3 1.3h5.1c.7 0 1.3-.6 1.3-1.3v-2.6h17.9v2.6c0 .7.6 1.3 1.3 1.3h5.1c.7 0 1.3-.6 1.3-1.3v-3.6c.8-.7 1.3-1.7 1.3-2.8v-2c0-1.2-.5-2.3-1.3-3.1V34l2.6-.8c.7 0 1.3-.6 1.3-1.3v-1.7c-.1-.7-.6-1.3-1.3-1.3zM36.9 35.8c-1.6 1.3-3.8 2.1-5.9 2.1M9.8 35.8c1.6 1.3 3.8 2.1 5.9 2.1M14.4 44.3H9.3M37.4 44.3h-5.1"/><g><path class="st0" d="M140.4 41.5l-1.7-3.8c-.5-1.6-2-2.6-3.6-2.6h-15c-1.7 0-3.1 1.1-3.6 2.6l-1.7 3.8M121.2 51.8H134"/><path class="st0" d="M146.8 40.2H143c-.4 0-3.9 3.8-6.4 3.8h-17.9c-2.5 0-6-3.8-6.4-3.8h-3.8c-.7 0-1.3.6-1.3 1.3v1.7c0 .7.6 1.3 1.3 1.3l2.6.8v1.3c-.8.8-1.3 1.9-1.3 3.1v2c0 1.1.5 2.1 1.3 2.8v3.6c0 .7.6 1.3 1.3 1.3h5.1c.7 0 1.3-.6 1.3-1.3v-2.6h17.9v2.6c0 .7.6 1.3 1.3 1.3h5.1c.7 0 1.3-.6 1.3-1.3v-3.6c.8-.7 1.3-1.7 1.3-2.8v-2c0-1.2-.5-2.3-1.3-3.1v-1.3l2.6-.8c.7 0 1.3-.6 1.3-1.3v-1.7c-.2-.7-.8-1.3-1.5-1.3zM141.2 47.1c-1.6 1.3-3.8 2.1-5.9 2.1M114 47.1c1.6 1.3 3.8 2.1 5.9 2.1M118.6 55.6h-5.1M141.7 55.6h-5.1"/></g><g><path class="st1" d="M88.1 7.2l-1.7-3.8c-.5-1.6-2-2.6-3.6-2.6h-15c-1.7 0-3.1 1.1-3.6 2.6l-1.7 3.8M68.8 17.5h12.9"/><path class="st1" d="M94.5 5.9h-3.8c-.4 0-3.9 3.8-6.4 3.8h-18c-2.5 0-6-3.8-6.4-3.8H56c-.7 0-1.3.6-1.3 1.3v1.7c0 .7.6 1.3 1.3 1.3l2.6.8v1.3c-.8.8-1.3 1.9-1.3 3.1v2c0 1.1.5 2.1 1.3 2.8v3.6c0 .7.6 1.3 1.3 1.3H65c.7 0 1.3-.6 1.3-1.3v-2.6h17.9v2.6c0 .7.6 1.3 1.3 1.3h5.1c.7 0 1.3-.6 1.3-1.3v-3.6c.8-.7 1.3-1.7 1.3-2.8v-2c0-1.2-.5-2.3-1.3-3.1V11l2.6-.8c.7 0 1.3-.6 1.3-1.3V7.2c-.1-.7-.6-1.3-1.3-1.3zM88.8 12.8c-1.6 1.3-3.8 2.1-5.9 2.1M61.7 12.8c1.6 1.3 3.8 2.1 5.9 2.1M66.3 21.3h-5.1M89.3 21.3h-5.1"/></g><path class="st0" d="M.8 54.1h45.1v38.8H.8zM52.7 32h45.1v60.8H52.7zM104.7 65.7h45.1v27.2h-45.1z"/></svg>