<svg id="Layer_1" xmlns="http://www.w3.org/2000/svg" viewBox="-466 272.5 26.1 17.5"><style>.st0{fill:#9fd34a}.st1{fill:#fff}</style><title>Reviews</title><g id="Layer_2"><g id="Artwork"><path class="st0" d="M-453.5 290c-.1 0-.2 0-.3-.1l-4.2-2.1-4.2 2.1c-.3.2-.7 0-.9-.3-.1-.1-.1-.3-.1-.5l.9-4.4-3.5-3.4c-.3-.2-.3-.7 0-.9.1-.1.3-.2.4-.2l4.7-.4 2-4.5c.2-.3.6-.5.9-.3.1.1.3.2.3.3l2 4.5 4.7.4c.4 0 .6.4.6.8 0 .1-.1.3-.2.4l-3.4 3.4.9 4.5c0 .2 0 .4-.1.5-.1.1-.2.3-.4.3 0-.1 0-.1-.1-.1zm-4.5-2.8h.1l4.4 2.2h.1l-.9-4.7c0-.1 0-.2.1-.3l3.5-3.5c0-.1 0-.1-.1-.1l-4.9-.4c-.1 0-.2-.1-.2-.2l-2.1-4.6h-.1l-2.1 4.6c0 .1-.1.2-.2.2l-4.9.4-.1.1 3.6 3.6c.1.1.1.2.1.3l-.9 4.6c0 .1.1.1.1.1l4.4-2.2c0-.1.1-.1.1-.1z"/><path class="st1" d="M-448 286.7c-.1 0-.2 0-.3-.1l-3.6-1.8.3-.5 3.6 1.8-.7-3.8c0-.1 0-.2.1-.3l2.9-2.9-4-.4c-.1 0-.2-.1-.2-.2l-1.8-3.9-1.8 3.8-.5-.2 1.8-3.9c.1-.1.2-.3.3-.3.2-.1.3-.1.5 0 .1.1.3.2.3.3l1.7 3.7 3.8.3c.3 0 .6.3.6.7 0 .1-.1.3-.2.4l-2.8 2.8.7 3.7c.1.3-.1.6-.5.7l-.2.1z"/><path class="st1" d="M-442.8 285.1c-.1 0-.2 0-.3-.1l-3.6-1.8.3-.5 3.6 1.8-.8-3.8c0-.1 0-.2.1-.3l3-2.9-4-.4c-.1 0-.2-.1-.2-.2l-1.8-3.9-1.8 3.9-.5-.2 1.8-3.9c.2-.3.5-.4.8-.3l.3.3 1.7 3.7 3.8.3c.2 0 .3.1.4.2.1.1.2.3.1.4 0 .1-.1.3-.2.4l-2.9 2.8.8 3.7c0 .4-.2.8-.6.8z"/></g></g></svg>