<svg id="Layer_1" xmlns="http://www.w3.org/2000/svg" viewBox="0 0 80.7 67.8"><style>.st0{fill:#19212d}.st1{fill:#a0cd4c}</style><path id="XMLID_33_" class="st0" d="M37.7 47.7l3-10.7.1-.1L72.4 5.2c.4-.4.8-.5 1.4-.5.8 0 1.6.4 2.3 1.1l3.5 3.5c1.2 1.2 1.4 2.8.5 3.7L48.4 44.8l-10.7 2.9zm3.9-10.2l-2.4 8.8 8.7-2.4 31.6-31.6c.5-.5.2-1.5-.5-2.3l-3.5-3.5c-.5-.5-1.1-.8-1.6-.8-.2 0-.5 0-.7.2L41.6 37.5z"/><path id="XMLID_32_" transform="rotate(44.996 72.554 12.798)" class="st0" d="M67.6 12.3h10v1h-10z"/><path id="XMLID_31_" class="st0" d="M16.3 67.8c-.2 0-.5 0-.7-.1-.9-.3-1.5-1.2-1.5-2.1v-10H9.3c-5.1 0-9.3-4.2-9.3-9.3v-37C0 4.2 4.2 0 9.3 0h42.2c5.1 0 9.3 4.2 9.3 9.3v3.5h-1V9.3C59.8 4.7 56 1 51.5 1H9.3C4.7 1 1 4.7 1 9.3v36.9c0 4.6 3.7 8.3 8.3 8.3h5.8v11c0 .7.4 1.1.9 1.2.4.1 1 .1 1.4-.4l12.9-11.8h21.3c4.6 0 8.3-3.7 8.3-8.3v-7h1v7c0 5.1-4.2 9.3-9.3 9.3h-21L18.1 66.9c-.4.6-1.1.9-1.8.9z"/><path id="XMLID_30_" class="st1" d="M14.6 15.8h31.6v1H14.6z"/><path id="XMLID_29_" class="st1" d="M14.6 22.8h31.6v1H14.6z"/><path id="XMLID_28_" class="st1" d="M14.6 29.9h17.6v1H14.6z"/></svg>