<svg id="Layer_1" xmlns="http://www.w3.org/2000/svg" viewBox="0 0 46.5 52.9"><style>.st0,.st1{fill:none;stroke:#fff;stroke-width:2;stroke-linecap:round;stroke-linejoin:round;stroke-miterlimit:10}.st1{stroke:#9fd34a}</style><path class="st0" d="M26.9 51.9v-8.8c0-4.8-8.4-7.2-13-7.2-4.5 0-13 2.5-13 7.2v8.8M14 31.8c-4 0-7.2-3.2-7.2-7.2v-1.4c0-4 3.2-7.2 7.2-7.2s7.2 3.2 7.2 7.2v1.4c0 3.9-3.3 7.2-7.2 7.2z"/><g><path class="st1" d="M18.7 10.3c1.9-5.4 7-9.3 13-9.3 7.6 0 13.8 6.2 13.8 13.8s-6.2 13.8-13.8 13.8c-1.7 0-3.3-.3-4.8-.9M31.7 22V7.5M24.4 14.8H39"/></g></svg>