<svg id="Layer_1" xmlns="http://www.w3.org/2000/svg" viewBox="0 0 121 116"><style>.st0{fill:#9fc751}.st1{fill:#181f2c}</style><path id="XMLID_30_" class="st0" d="M60.5 71.5C53 71.5 47 65.5 47 58s6-13.5 13.5-13.5S74 50.5 74 58s-6 13.5-13.5 13.5zm0-26C53.6 45.5 48 51.1 48 58s5.6 12.5 12.5 12.5S73 64.9 73 58s-5.6-12.5-12.5-12.5z"/><path id="XMLID_29_" class="st1" d="M102.2 115.9h-.2c-.2-.1-.3-.3-.3-.5v-4.7H57.9c-27.6 0-50-22.5-50-50 0-2.7.2-5.3.6-7.9l1 .2c-.5 2.4-.7 5-.7 7.6 0 27 22 49 49 49h44.3c.3 0 .5.2.5.5v4.1l16.9-14.5-16.9-12.1v4.2c0 .3-.2.5-.5.5h-26c-1.6 0-15.4-.1-21.3-1.9l-3.4 6.9c-.1.2-.4.3-.6.2l-12.6-5.2c-.2-.1-.4-.4-.3-.6l2.4-7.3c-2.8-2-5.2-4.4-7.2-7.2l-7.3 2.4c-.3.1-.5 0-.6-.3L20 66.7c-.1-.2 0-.5.2-.6l6.9-3.5c-.5-3.4-.5-6.8 0-10.2l-6.9-3.5c-.2-.1-.3-.4-.2-.6l5.2-12.6c.1-.2.4-.4.6-.3l7.3 2.4c1.7-2.4 3.7-4.5 6-6.3l.6.8c-2.3 1.8-4.3 4-6 6.4-.1.2-.4.3-.6.2l-7.3-2.4L21 48.2l6.8 3.4c.2.1.3.3.3.5-.6 3.5-.6 7.1 0 10.6 0 .2-.1.4-.3.5L21 66.7l4.9 11.8 7.2-2.4c.2-.1.4 0 .6.2 2.1 2.9 4.6 5.4 7.5 7.5.2.1.3.4.2.6L39 91.6l11.8 4.9 3.4-6.8c.1-.2.4-.3.6-.2 4.5 1.6 15.5 2 21.4 2h25.6v-4.7c0-.2.1-.4.3-.4.2-.1.4-.1.5 0l18.3 13.1c.1.1.2.2.2.4s-.1.3-.2.4l-18.3 15.6c-.1-.1-.3 0-.4 0z"/><path id="XMLID_28_" class="st1" d="M81.9 84.5l-.6-.8c2.3-1.8 4.3-4 6-6.4.1-.2.4-.3.6-.2l7.3 2.4 4.9-11.8-6.8-3.4c-.2-.1-.3-.3-.3-.5.6-3.5.6-7.1 0-10.6 0-.2.1-.4.3-.5l6.8-3.4-4.9-11.8-7.2 2.4c-.2.1-.4 0-.6-.2-2.1-2.9-4.6-5.4-7.5-7.5-.2-.1-.3-.4-.2-.6l2.4-7.3-11.8-4.9-3.4 6.8c-.1.2-.4.3-.6.2-4.5-1.6-15.5-2-21.4-2H19.3v4.7c0 .2-.1.4-.3.4-.2.1-.4.1-.5 0L.2 16.5c-.1.1-.2-.1-.2-.2 0-.2.1-.3.2-.4L18.4.2c.1-.1.4-.2.5-.1.2.1.3.3.3.5v4.7H63c27.6 0 50 22.5 50 50 0 3.6-.4 7.1-1.1 10.5l-1-.2c.7-3.4 1.1-6.8 1.1-10.3 0-27-22-49-49-49H18.8c-.3 0-.5-.2-.5-.5V1.7l-17 14.5 16.9 12.1v-4.2c0-.3.2-.5.5-.5h26.1c1.6 0 15.4.1 21.3 1.9l3.4-6.9c.1-.2.4-.3.6-.2l12.6 5.2c.2.1.4.4.3.6l-2.4 7.3c2.8 2 5.2 4.4 7.2 7.2l7.3-2.4c.3-.1.5 0 .6.3l5.2 12.6c.1.2 0 .5-.2.6l-6.9 3.5c.5 3.4.5 6.8 0 10.2l6.9 3.5c.2.1.3.4.2.6l-5.2 12.6c-.1.2-.4.4-.6.3l-7.3-2.4c-1.6 2.4-3.7 4.5-5.9 6.4z"/></svg>