<svg id="Layer_1" xmlns="http://www.w3.org/2000/svg" viewBox="0 0 72.1 73.8"><style>.st0,.st1{fill:none;stroke:#19212d;stroke-width:2;stroke-miterlimit:10}.st1{stroke:#9ace4a;stroke-width:1.9097;stroke-linecap:round;stroke-linejoin:round}</style><g id="XMLID_2_"><path id="XMLID_12_" class="st0" d="M36 66.4H10.6c-2.6 0-4.8-2.1-4.8-4.8v-8.3c0-1.9.6-3.7 1.6-5.3L9 45.7l-6.4-1.6c-.9 0-1.6-.7-1.6-1.6v-3.2c0-.9.7-1.6 1.6-1.6h8l3.2 4.8 4.8 1.6H36"/><path id="XMLID_11_" class="st0" d="M29.7 28.4c-4 .3-7.2.8-9.4 1.1-1.1.2-2.6 1-3.4 1.9-.7.9-4.8 9.6-4.8 9.6"/><path id="XMLID_10_" class="st0" d="M10.6 50.5l3.1 3.2h8"/><path id="XMLID_9_" class="st0" d="M7.4 64.8v6.4c0 .9.7 1.6 1.6 1.6h11.1c.9 0 1.6-.7 1.6-1.6v-1.6"/><path id="XMLID_8_" class="st0" d="M36 66.4h25.5c2.6 0 4.8-2.1 4.8-4.8v-8.3c0-1.9-.6-3.7-1.6-5.3l-1.6-2.4 6.4-1.6c.9 0 1.6-.7 1.6-1.6v-3.2c0-.9-.7-1.6-1.6-1.6h-8l-3.2 4.8-4.8 1.6H36"/><path id="XMLID_7_" class="st0" d="M45.6 28.7c2.5.3 4.6.6 6.2.8 1.1.2 2.6 1 3.4 1.9.7.9 4.8 9.6 4.8 9.6"/><path id="XMLID_6_" class="st0" d="M61.5 50.5l-3.2 3.2h-7.9"/><path id="XMLID_5_" class="st0" d="M64.7 64.8v6.4c0 .9-.7 1.6-1.6 1.6H52c-.9 0-1.6-.7-1.6-1.6v-1.6"/><path id="XMLID_4_" class="st0" d="M21.7 60h28.7"/><path id="XMLID_3_" class="st1" d="M39.2 16.3L42 1 26.7 23.9l9.3-1.3-2.7 15.3L48.5 15z"/></g></svg>