<svg id="Layer_1" xmlns="http://www.w3.org/2000/svg" viewBox="0 0 57.5 39.3"><style>.st0{fill:none;stroke:#fff;stroke-linecap:round;stroke-linejoin:round}.st0,.st1,.st2,.st3{stroke-width:1.5;stroke-miterlimit:10}.st1{fill:none;stroke:#fff}.st2,.st3{stroke:#9fd34a}.st2{stroke-linecap:round;stroke-linejoin:round;fill:none}.st3{fill:#9fd34a}</style><path class="st0" d="M6.4 12.6v25.9h48.9c.8 0 1.5-.7 1.5-1.5V8.1c0-.8-.7-1.5-1.5-1.5H12.7"/><circle class="st2" cx="31.5" cy="22.5" r="9.9"/><path class="st3" d="M30.8 25.2h2.7v.5h-4.2v-.5h.8v-2.5h-.8v-.4h.8v-1.2c0-.6.2-1.1.5-1.4.3-.3.7-.5 1.3-.5.3 0 .6.1.9.2.3.2.6.4.8.6l-.3.5c-.2-.3-.4-.4-.6-.6-.2-.1-.5-.2-.7-.2-.4 0-.7.1-.9.3-.2.2-.3.6-.3 1v1.1h1.7v.4h-1.7v2.7z"/><g><path class="st2" d="M6.5.7C3.3.7.8 3.3.8 6.4c0 3.2 2.6 5.7 5.7 5.7 3.2 0 5.7-2.6 5.7-5.7S9.6.7 6.5.7z"/><path class="st2" d="M8.7 4.9L5.6 8 4.2 6.6"/></g></svg>