<svg id="Layer_1" xmlns="http://www.w3.org/2000/svg" viewBox="0 0 403.9 230"><style>.st0,.st1{fill:none;stroke:#9fd34a;stroke-width:2;stroke-linecap:round;stroke-linejoin:round;stroke-miterlimit:10}.st1{stroke:#19212d}</style><circle class="st0" cx="83.2" cy="109.1" r="6.7"/><circle class="st0" cx="209.7" cy="109.1" r="6.7"/><path class="st1" d="M67 147.3H1v-11.6h265.9v11.6H119.8"/><circle class="st1" cx="92.6" cy="176.3" r="20.2"/><circle class="st1" cx="330.5" cy="176.3" r="20.2"/><path class="st1" d="M65.4 168.5H36.8l-10.9-10.9M301.6 168.5H119.8M277.5 147.4V43.1c0-8.1 6.5-14.6 14.6-14.6h51.6c6.2 0 11.7 3.9 13.8 9.8l14.7 42.5h12c4.1 0 7.4 3.3 7.4 7.4v62.9h2.6c4.8 0 8.7 3.9 8.7 8.7 0 4.8-3.9 8.7-8.7 8.7h-36.5"/><path class="st1" d="M357.8 79.3H292V50.9c0-4.4 3.6-7.9 7.9-7.9H338c4.3 0 8.1 2.7 9.5 6.8l10.3 29.5zM302.3 175.5c0-15.5 12.6-28.1 28.1-28.1s28.1 12.6 28.1 28.1M64.5 175.5c0-15.5 12.6-28.1 28.1-28.1s28.1 12.6 28.1 28.1"/><path class="st0" d="M205.7 93.4c12.1-2.9 22.7 7.7 19.8 19.8-1.4 5.7-6 10.3-11.7 11.7-12.1 2.9-22.7-7.7-19.8-19.8 1.4-5.7 6-10.4 11.7-11.7zM79.1 93.4c12.1-2.9 22.7 7.7 19.8 19.8-1.4 5.7-6 10.3-11.7 11.7-12.1 2.9-22.7-7.7-19.8-19.8 1.4-5.7 6.1-10.4 11.7-11.7z"/><path class="st0" d="M21.9 89.2V44.8h12.7v10.3h2.7l17-27.9h102.3l37.4 30 42.5 5.5c2.9.4 5.3 2.4 6.1 5.2l4.1 13.8c.4 1.4 1.2 2.6 2.4 3.6 2 1.7 3 4.3 2.6 6.8l-2.1 13.8c-.6 3.6-3.7 6.3-7.3 6.3H233c1-4.9.7-10.4-2.4-16.2-3.2-6-8.9-10.5-15.5-12-15.5-3.4-29.3 8.3-29.3 23.2 0 1.7.2 3.3.5 4.9h-79.9c1-4.5.7-9.5-1.6-14.7-2.8-6.4-8.6-11.5-15.4-13.2-15.8-4-30 7.9-30 23 0 1.7.2 3.3.5 4.9H39.6l-4.9-23.4-12.8.5z"/><path class="st0" d="M114.9 33.6v23.1h54.3M53.7 56.7h51.7V33.6M34.7 44.8v35"/><path class="st1" d="M391.7 151.1h-30.2M277.5 147.4h29M292 89v41.3M357.8 89v41.3M382.5 92.4h9.2v16.2c-5.1 0-9.2-4.1-9.2-9.2v-7zM311.5 89h-9.2v9.3"/><path class="st0" d="M245.8 78H232v-9.7M114.9 72.7h13.6M53.7 72.7h13.6"/><path class="st1" d="M75 206.6h53.5M134 218.1h17.1M33.8 229h26.7M265.3 218.1h19.5M361.5 218.1H381M311.5 229h22.2M284.8 206.6h53.4"/><circle class="st1" cx="92.6" cy="176.3" r="9.9"/><circle class="st1" cx="330.4" cy="176.3" r="9.9"/><path class="st0" d="M50.8 102.4H37.6M178.8 102.4h-72.3M241.6 102.4H233"/><path class="st1" d="M302.1 181.3h-21.9c-7.1 0-12.8-5.7-12.8-12.8h34.7v12.8z"/></svg>