<svg id="Layer_1" xmlns="http://www.w3.org/2000/svg" viewBox="0 0 47 47"><style>.st0{fill:#a0cd4c}.st1{fill:#19212d}.st2{display:none}.st3{display:inline;fill:#19212d}</style><path id="XMLID_31_" transform="rotate(45.001 19.447 34.857)" class="st0" d="M18.9 32h1v5.6h-1z"/><path id="XMLID_40_" transform="rotate(45.001 16.266 44.008)" class="st0" d="M15.8 40.9h1v6.2h-1z"/><path id="XMLID_39_" transform="rotate(45.001 11.486 41.822)" class="st0" d="M11 37.6h1V46h-1z"/><path id="XMLID_38_" transform="rotate(45.001 9.25 36.097)" class="st0" d="M8.8 34.3h1v3.5h-1z"/><path id="XMLID_37_" transform="rotate(45.001 4.023 35.354)" class="st0" d="M3.5 30.4h1v9.9h-1z"/><path id="XMLID_36_" transform="rotate(45.001 3.526 30.876)" class="st0" d="M3 28.1h1v5.6H3z"/><g id="XMLID_44_"><path id="XMLID_45_" class="st1" d="M30.4 33.6L13.8 16.9l8.6-8.6.3.2c1.7 1.2 6.6 4 8.6 2.7 1.5-.9 2.5-3.1 3.5-5.2.8-1.7 1.5-3.2 2.5-4.2 2.1-2.1 5.6-2 7.8.2s2.3 5.7.2 7.8c-.9.9-2.5 1.7-4.2 2.5-2.1 1-4.3 2-5.2 3.5-1.3 2 1.6 7 2.8 8.7l.3.5-8.6 8.6zM15.2 16.9l15.2 15.2 7.3-7.3c-1-1.5-4.2-6.8-2.6-9.5 1.1-1.7 3.4-2.8 5.6-3.8 1.6-.7 3.1-1.4 3.9-2.3 1.7-1.7 1.6-4.6-.2-6.4-1.8-1.7-4.7-1.8-6.4-.2-.8.8-1.5 2.3-2.3 3.9-1 2.2-2.1 4.5-3.8 5.6-2.7 1.7-7.9-1.5-9.4-2.5l-7.3 7.3z"/></g><path id="XMLID_35_" class="st1" d="M20.4 40.5L6.8 26.9l8.3-8.3.7.7-7.6 7.6 12.2 12.2 7.6-7.6.8.7z"/><g id="XMLID_27_"><path class="st1" d="M30.4 28.6L18.7 16.9l3.7-3.7 11.7 11.7-3.7 3.7zM20.2 16.9l10.2 10.2 2.3-2.3-10.3-10.1-2.2 2.2z" id="XMLID_32_"/></g><path id="XMLID_30_" transform="rotate(45.001 11.984 27.393)" class="st0" d="M11.5 25.3h1v4.2h-1z"/><g id="XMLID_42_"><path id="XMLID_29_" transform="rotate(45.001 14.471 30.876)" class="st0" d="M14 29.5h1v2.8h-1z"/></g><g id="XMLID_41_" class="st2"><path id="XMLID_28_" transform="rotate(45.001 41.338 5.998)" class="st3" d="M40.8 4.6h1v2.8h-1z"/></g></svg>