<svg id="Layer_1" xmlns="http://www.w3.org/2000/svg" viewBox="0 0 145.1 78"><style>.st0{fill:#19212d}.st1{fill:#a0cd4c}</style><path id="XMLID_40_" class="st0" d="M31.3 51.6L29 46.9c-2.1.3-4.2.3-6.3 0l-2.4 4.7-8.9-3.7 1.7-5c-1.7-1.3-3.2-2.7-4.4-4.4l-5 1.7L0 31.3 4.7 29c-.3-2.1-.3-4.2 0-6.3L0 20.3l3.7-8.9 5 1.7c1.3-1.7 2.7-3.2 4.4-4.4l-1.7-5L20.3 0l2.3 4.7c2.1-.3 4.2-.3 6.3 0L31.3 0l8.9 3.7-1.7 5c1.7 1.3 3.2 2.7 4.4 4.4l5-1.7 3.7 8.9-4.7 2.3c.3 2.1.3 4.2 0 6.3l4.7 2.4-3.7 8.9-5-1.7c-1.3 1.7-2.7 3.2-4.4 4.4l1.7 5-8.9 3.7zm-18.6-4.2l7.2 3 2.3-4.5.4.1c2.2.4 4.5.4 6.7 0l.4-.1 2.3 4.5 7.2-3-1.6-4.8.3-.2c1.8-1.3 3.4-2.9 4.7-4.7l.2-.3 4.8 1.6 3-7.2-4.5-2.3.1-.4c.4-2.2.4-4.5 0-6.7l-.1-.4 4.5-2.3-3-7.2-4.8 1.6-.4-.1c-1.3-1.8-2.9-3.4-4.7-4.7l-.4-.3 1.6-4.8-7.2-3-2.3 4.5-.4-.1c-2.2-.4-4.5-.4-6.7 0l-.4.1-2.3-4.5-7.2 3L14.3 9l-.3.3c-1.8 1.3-3.4 2.9-4.7 4.7l-.3.3-4.8-1.6-3 7.2 4.5 2.3-.1.4c-.4 2.2-.4 4.5 0 6.7l.1.4L1.2 32l3 7.2L9 37.3l.2.3c1.3 1.8 2.9 3.4 4.7 4.7l.3.2-1.5 4.9z"/><path id="XMLID_37_" class="st0" d="M26.1 34.9c-4.8 0-8.8-3.9-8.8-8.8s3.9-8.8 8.8-8.8 8.8 3.9 8.8 8.8-3.9 8.8-8.8 8.8zm0-16.6c-4.3 0-7.8 3.5-7.8 7.8s3.5 7.8 7.8 7.8 7.8-3.5 7.8-7.8-3.5-7.8-7.8-7.8z"/><g><path id="XMLID_34_" class="st0" d="M122.6 78c-2.3 0-4.6-.9-6.3-2.6-2.2-2.2-3.1-5.4-2.3-8.4.8-3.1 3.3-5.6 6.4-6.4 3.1-.7 6.2.1 8.5 2.3s3.1 5.4 2.3 8.5c-.7 3.1-3.3 5.6-6.4 6.4-.7.2-1.5.2-2.2.2zm-2-16.4c-2.7.7-5 2.9-5.7 5.7-.7 2.7.1 5.6 2.1 7.5 2 2 4.8 2.7 7.5 2.1 2.7-.7 5-2.9 5.7-5.7.7-2.7-.1-5.6-2.1-7.5-1.9-2-4.7-2.8-7.5-2.1z"/><path id="XMLID_31_" class="st0" d="M57.5 78c-2.3 0-4.6-.9-6.3-2.6-2.2-2.2-3.1-5.4-2.3-8.4.8-3.1 3.3-5.6 6.4-6.4 3.1-.7 6.3.1 8.5 2.3 2.2 2.2 3.1 5.4 2.3 8.5-.8 3.1-3.3 5.6-6.4 6.4-.8.2-1.5.2-2.2.2zm-2-16.4c-2.7.7-5 2.9-5.6 5.7-.7 2.7.1 5.6 2.1 7.5s4.8 2.7 7.5 2.1c2.7-.7 5-2.9 5.7-5.6.7-2.8-.1-5.6-2.1-7.5-2-2.1-4.8-2.9-7.6-2.2z"/><path id="XMLID_30_" class="st0" d="M142.7 71.3h-8.1c-.2 0-.3-.1-.4-.2-.1-.1-.1-.3-.1-.4.6-2.8.2-5.4-1.2-8-1.6-3-4.5-5.2-7.6-5.9-3.6-.8-7.3 0-10 2.3s-4.4 5.6-4.4 9.2c0 .8.1 1.6.3 2.4 0 .1 0 .3-.1.4-.1.1-.2.2-.4.2H69.5c-.2 0-.3-.1-.4-.2-.1-.1-.2-.3-.1-.4.5-2.5.3-4.9-.8-7.3-1.4-3.3-4.3-5.7-7.6-6.6-3.7-.9-7.4-.2-10.3 2.1-2.9 2.2-4.5 5.6-4.5 9.3 0 .8.1 1.6.3 2.4 0 .1 0 .3-.1.4-.1.1-.2.2-.4.2H35.1c-.2 0-.4-.2-.5-.4l-2.5-11.6-6.1.2c-.1 0-.3 0-.4-.1-.1-.1-.2-.2-.2-.4v-5.8c0-.3.2-.5.5-.5s.5.2.5.5v5.3l6-.2c.2 0 .5.2.5.4l2.5 11.7h9.4c-.1-.7-.2-1.4-.2-2 0-4 1.8-7.6 4.9-10.1 3.1-2.4 7.2-3.3 11.2-2.3 3.6.9 6.7 3.6 8.3 7.1 1.1 2.4 1.4 4.8 1 7.3h40c-.1-.7-.2-1.4-.2-2 0-3.9 1.7-7.5 4.8-10 3-2.4 7-3.4 10.9-2.5 3.4.8 6.5 3.2 8.3 6.4 1.4 2.6 1.9 5.3 1.4 8.1h7.1l1.8-11.8-2.3-1.9-.2-.2-3.1-10.3-24-3.1c-.1 0-.2 0-.2-.1L95.1 27.5H53.7c-.3 0-.5-.2-.5-.5s.2-.5.5-.5h41.7c.1 0 .2 0 .3.1L114.8 42l24.2 3.2c.2 0 .4.2.4.4l3.1 10.4 2.4 2c.1.1.2.3.2.5L143.2 71c-.1.1-.3.3-.5.3z"/><path id="XMLID_29_" class="st1" d="M101.8 42.7H73.3V30.3h1v11.4h27.5z"/><path id="XMLID_28_" class="st1" d="M69.4 42.7H52.2v-1h16.2V30.3h1z"/></g></svg>