<svg id="Layer_1" xmlns="http://www.w3.org/2000/svg" viewBox="0 0 38.6 55"><style>.st0{fill:#19212d}.st1{fill:#a0cd4c}</style><path id="XMLID_33_" class="st0" d="M29.2 40.4h-1v-2.3c0-2.3-1.9-4.2-4.2-4.2h-9.4c-2.3 0-4.2 1.9-4.2 4.2v2.3h-1v-2.3c0-2.9 2.3-5.2 5.2-5.2H24c2.9 0 5.2 2.3 5.2 5.2v2.3z"/><path id="XMLID_32_" class="st0" d="M4.5 47.5h-1v-2.3c0-2.9 2.3-5.2 5.2-5.2h10.6v1H8.7c-2.3 0-4.2 1.9-4.2 4.2v2.3z"/><path id="XMLID_31_" class="st0" d="M35.1 47.5h-1v-2.3c0-2.3-1.9-4.2-4.2-4.2h-7v-1h7c2.9 0 5.2 2.3 5.2 5.2v2.3z"/><path id="XMLID_30_" class="st0" d="M38.6 55H0v-2.8C0 49.3 2.3 47 5.2 47h14.1v1H5.2C2.9 48 1 49.9 1 52.2V54h36.6v-1.8c0-2.3-1.9-4.2-4.2-4.2h-8.2v-1h8.2c2.9 0 5.2 2.3 5.2 5.2V55z"/><path id="XMLID_29_" class="st0" d="M24.5 33.4h-1V16.2c0-1.2.3-2.3.9-3.3l1.8-3.1c.6-.8.8-1.7.8-2.7V5.2C27 2.9 25.1 1 22.8 1h-7c-2.3 0-4.2 1.9-4.2 4.2v1.9c0 1 .3 1.9.8 2.8l1.9 3.1c.6 1 .9 2.1.9 3.3v17.2h-1V16.2c0-1-.3-1.9-.8-2.8l-1.9-3.1c-.6-1-.9-2.1-.9-3.3V5.2c0-2.9 2.3-5.2 5.2-5.2h7C25.7 0 28 2.3 28 5.2v1.9c0 1.2-.3 2.3-.9 3.3l-1.8 3.1c-.5.8-.8 1.8-.8 2.8v17.1z"/><path id="XMLID_28_" class="st1" d="M14.6 8.2H24v1h-9.4z"/></svg>