<svg id="Layer_1" xmlns="http://www.w3.org/2000/svg" viewBox="0 0 131.8 86.1"><style>.st0{fill:none;stroke:#19212d;stroke-width:2;stroke-linejoin:round;stroke-miterlimit:10}</style><path class="st0" d="M88.2 51.1l-9.6-5.9 1.8-16.8S78 17 85 10c7-7 15.2-4.5 15.2-4.5s8.2-2.6 15.2 4.5c7.1 7.1 4.6 18.4 4.6 18.4l1.8 16.8-9.6 5.9"/><path class="st0" d="M94.6 17.8c3.8 8.8 18.9 13.5 18.9 13.5l-2.1 9.3c-.2 1.1-.5 2.1-1 3.1-2 4.2-5.8 7-10.2 7-4.4 0-8.2-2.8-10.2-7-.5-1-.8-2.1-1-3.1l-2.1-9.3s7.7-.1 12.4-7.6"/><path class="st0" d="M109 46.1v11.4h2.8c10.5 0 19.1 8.5 19.1 19.1v8.7M91.5 46.1v11.4h-2.8c-3.9 0-7.6 1.2-10.7 3.3"/><path class="st0" d="M109 57.5l-8.8 28.7 9.8-14.3 8.3-2.5-4.8-6.9M86.9 62.5l-4.8 6.9 8.3 2.5 9.8 14.3-8.7-28.7M118.3 78.9v6.4"/><g><path class="st0" d="M52.3 34.2s.4 9.5-6.2 13.2v1.7c0 2.2-1.2 4.2-3.1 5.3l-6 3.4-6-3.4c-1.9-1.1-3.1-3.1-3.1-5.3v-1.7c-6.6-3.6-6.2-13.2-6.2-13.2"/><path class="st0" d="M28 49.1s-3 4-4.5 9.1l6.5 6.7 7-6.1 7 6.1 6.5-6.7c-1.4-5.1-4.5-9.1-4.5-9.1"/><path class="st0" d="M24.6 55.3l-17.7 6C3.4 62.4 1 65.8 1 69.5V86M49.5 55.3l17.7 6c3.5 1.2 5.9 4.5 5.9 8.2V86M32.3 63l2.8 5.8-4 16.8M41.8 63l-2.9 5.8L43 85.6M52.3 36.7s4.7-.4 5.1-5.8c.5-5.4-3.8-3.5-3.8-3.5 1.3-3.1 1.1-5 1.3-8.5C54.9 9 46.9 1 37 1c-9.8 0-17.8 8-17.8 17.8-.1 3.6 0 5.5 1.3 8.5 0 0-4.3-1.9-3.8 3.5s5.1 5.8 5.1 5.8M28 15.6s4.7 12 20.3 12"/></g></svg>