<svg id="Layer_1" xmlns="http://www.w3.org/2000/svg" viewBox="-395 195.5 169 170.5"><style>.st0{fill:none;stroke:#1a222e;stroke-width:1.5;stroke-miterlimit:10}.st1{fill:none;stroke:#9fd34a;stroke-width:2}</style><title>icon3</title><path class="st0" d="M-311.3 196.3c-46.7 0-84.5 37.8-84.5 84.5s37.8 84.5 84.5 84.5m0-169c46.7 0 84.5 37.8 84.5 84.5s-37.8 84.5-84.5 84.5"/><path class="st0" d="M-311.3 219.7c28.8 0 53 18.2 60.9 46.3.7 2.1-.5 4.4-2.6 5.1-.7.2-1.5.3-2.2.1-15.2-4.3-34.7-9.5-56.1-9.5s-40.9 5.1-56.1 9.5c-2.2.5-4.4-.8-4.9-3-.2-.7-.1-1.5.1-2.2 7.9-28 32.2-46.3 60.9-46.3zM-330.2 340.5c-20.9-5.6-36.1-20.5-41.9-40.9-.5-2 .6-4.1 2.7-4.6.3-.1.7-.1 1-.1h20.5c1.5 0 2.9.9 3.6 2.4 3.2 7.4 9.2 13.3 16.7 16.3 1.4.6 2.4 1.9 2.4 3.5v20c0 2.1-1.8 3.8-3.9 3.8-.5-.3-.8-.3-1.1-.4zM-297.2 336.9v-20c0-1.5 1-2.9 2.4-3.5 7.5-3 13.5-8.8 16.6-16.3.6-1.4 2-2.3 3.6-2.4h20.5c2.1 0 3.8 1.7 3.8 3.8 0 .3 0 .7-.1 1-5.8 20.4-21 35.3-41.9 40.9-2 .6-4.2-.6-4.7-2.6-.1-.2-.2-.5-.2-.9z"/><circle class="st1" cx="-311.3" cy="288.6" r="13.3"/></svg>