<svg id="Layer_1" xmlns="http://www.w3.org/2000/svg" viewBox="0 0 67 95.4"><style>.st0{fill:none;stroke:#19212d;stroke-width:2;stroke-linejoin:round;stroke-miterlimit:10}</style><path class="st0" d="M17.3 70.1V66c0-4.5 3.6-8.1 8.1-8.1h16.3c4.5 0 8.1 3.6 8.1 8.1v4.1M7.1 82.3v-4.1c0-4.5 3.6-8.1 8.1-8.1h18.3M39.6 70.1h12.2c4.5 0 8.1 3.6 8.1 8.1v4.1M43.7 82.3h14.2c4.5 0 8.1 3.6 8.1 8.1v4.1H1v-4.1c0-4.5 3.6-8.1 8.1-8.1h24.4M41.6 57.9V28.2c0-1.8.5-3.6 1.4-5.2l3.2-5.3c.9-1.6 1.4-3.4 1.4-5.2V9.1C47.6 4.6 44 1 39.5 1H27.4c-4.5 0-8.1 3.6-8.1 8.1v3.3c0 1.8.5 3.6 1.4 5.2l3.2 5.3c.9 1.6 1.4 3.4 1.4 5.2v29.7M25.4 15.2h16.2"/></svg>