<svg id="Layer_1" xmlns="http://www.w3.org/2000/svg" viewBox="0 0 36.9 40.4"><style>.st0{fill:none;stroke:#19212d;stroke-width:1.6;stroke-miterlimit:10}</style><g id="XMLID_15_"><circle id="XMLID_23_" class="st0" cx="33.1" cy="36.6" r="3"/><path id="XMLID_22_" class="st0" d="M13.7 19.8c0 1.4-1.2 2.6-2.6 2.6h-.9c-1.4 0-2.6-1.2-2.6-2.6v-6c0-1.4 1.2-2.6 2.6-2.6h.9c1.4 0 2.6 1.2 2.6 2.6"/><path id="XMLID_21_" class="st0" d="M20.2 22.4h-.9c-1.7 0-3-1.3-3-3v-5.2c0-1.7 1.3-3 3-3h.9c1.7 0 3 1.3 3 3v5.2c0 1.6-1.3 3-3 3z"/><path id="XMLID_19_" class="st0" d="M30.1 24.1v1.7h-4.3v-.9c2.1-2 3.1-2.4 3.8-3.1.5-.6.8-2.5-.7-3-1.2-.4-2.7-.1-3.1 1.6"/><path id="XMLID_18_" class="st0" d="M31.1 14c.5-1.1.7-2.4.7-3.7 0-5.2-4.2-9.5-9.5-9.5-3.1 0-5.9 1.5-7.6 3.9-.8-.3-1.7-.5-2.7-.5-5.2 0-9.5 4.2-9.5 9.5 0 .4 0 .7.1 1.1-1.1 1.3-1.8 3.1-1.8 5 0 4.3 3.5 7.8 7.8 7.8H9c1.1 3 3.9 5.2 7.3 5.2 2.1 0 4-.9 5.4-2.2 1.4.9 3.1 1.4 4.9 1.4 5.2 0 9.5-4.2 9.5-9.5 0-3.8-2-6.9-5-8.5z"/><path id="XMLID_17_" class="st0" d="M13.6 6.6c.3-.7.7-1.4 1.1-2"/><path id="XMLID_16_" class="st0" d="M23.1 28.6c-.4.7-.8 1.3-1.3 1.8"/></g></svg>