<svg id="Layer_1" xmlns="http://www.w3.org/2000/svg" viewBox="0 0 261 219.2"><style>.st0,.st1{fill:none;stroke:#19212d;stroke-width:2;stroke-linecap:round;stroke-linejoin:round;stroke-miterlimit:10}.st1{stroke:#9fd34a}</style><path class="st0" d="M117.3 182.1l-5.6 5.6-5.7-5.6-5.6 5.6-5.7-5.6"/><circle class="st0" cx="106" cy="192.9" r="1.3"/><circle class="st0" cx="106" cy="204.5" r="1.3"/><path class="st1" d="M19 48.2l4.8 10.5 10.9 1c.7.1 1 .9.5 1.4l-8 8 2 10.4c.1.7-.6 1.2-1.2.9l-9.8-4.9-9.8 4.9c-.6.3-1.3-.2-1.2-.9l2-10.3-8-8c-.5-.5-.2-1.4.5-1.4l10.9-1 4.8-10.5c.4-.7 1.3-.7 1.6-.1zM131.3 1.5L136 12l10.9 1c.7.1 1 .9.5 1.4l-8 8 2 10.4c.1.7-.6 1.2-1.2.9l-9.8-4.9-9.8 4.9c-.6.3-1.3-.2-1.2-.9l2-10.3-8-8c-.5-.5-.2-1.4.5-1.4l10.9-1 4.8-10.5c.4-.8 1.4-.8 1.7-.1zM243.5 48.2l4.8 10.5 10.9 1c.7.1 1 .9.5 1.4l-8 8 2 10.4c.1.7-.6 1.2-1.2.9l-9.8-4.9-9.8 4.9c-.6.3-1.3-.2-1.2-.9l2-10.3-8-8c-.5-.5-.2-1.4.5-1.4l10.9-1 4.8-10.5c.3-.7 1.3-.7 1.6-.1zM71.6 13.2l4.8 10.5 10.9 1c.7.1 1 .9.5 1.4l-8 8 2 10.4c.1.7-.6 1.2-1.2.9l-9.8-4.9-9.8 4.9c-.6.3-1.3-.2-1.2-.9l2-10.3-8-8c-.5-.5-.2-1.4.5-1.4l10.9-1L70 13.3c.4-.8 1.3-.8 1.6-.1zM190.9 13.2l4.8 10.5 10.9 1c.7.1 1 .9.5 1.4l-8 8 2 10.4c.1.7-.6 1.2-1.2.9l-9.8-4.9-9.8 4.9c-.6.3-1.3-.2-1.2-.9l2-10.3-8-8c-.5-.5-.2-1.4.5-1.4l10.9-1 4.8-10.5c.3-.8 1.3-.8 1.6-.1z"/><path class="st0" d="M136.7 218.2v-20.7c0-11.3-20-17.1-30.7-17.1s-30.7 5.8-30.7 17.1v20.7M106 170.5c-9.4 0-17-7.7-17-17V150c0-9.4 7.7-17 17-17 9.4 0 17 7.7 17 17v3.4c.1 9.4-7.6 17.1-17 17.1z"/><path class="st0" d="M82.2 146.6h-6.8c-5.6 0-10.2-4.6-10.2-10.2V71.6c0-5.6 4.6-10.2 10.2-10.2h115.9c5.6 0 10.2 4.6 10.2 10.2v64.8c0 5.6-4.6 10.2-10.2 10.2h-21.5L145.7 173c-2.2 1.8-5.5.4-5.5-2.5v-23.9H130M95.8 88.7h71.6M95.8 102.3h71.6M95.8 115.9h47.7"/></svg>