<svg xmlns="http://www.w3.org/2000/svg" viewBox="0 0 78.24 85.96"><defs><style>.cls-1,.cls-2{fill:none;stroke-linejoin:round;}.cls-1{stroke:#19212d;}.cls-2{stroke:#9fd34a;}</style></defs><title>Asset 4</title><g id="Layer_2" data-name="Layer 2"><g id="Artwork"><path class="cls-1" d="M19.81,44.91V39.12a3.86,3.86,0,0,1,3.86-3.86H73.88a3.86,3.86,0,0,1,3.86,3.86V81.6a3.86,3.86,0,0,1-3.86,3.86H23.67a3.86,3.86,0,0,1-3.86-3.86V77.74"/><path class="cls-1" d="M29.46,35.26V19.81A19.32,19.32,0,0,1,48.77.5h0A19.31,19.31,0,0,1,68.08,19.81V35.26"/><path class="cls-2" d="M48.77,56.5l-23.83,0a12.45,12.45,0,0,0-11.77-7.77A12.47,12.47,0,0,0,.5,61.21a12.65,12.65,0,0,0,23.28,6.87h5.68l1.94-1.93,1.93,1.93h5.79l1.93-1.93h3.86l1.93,1.93h1.93"/><line class="cls-2" x1="10.15" y1="58.43" x2="10.15" y2="64.22"/><line class="cls-1" x1="48.77" y1="52.64" x2="48.77" y2="71.95"/></g></g></svg>