<svg xmlns="http://www.w3.org/2000/svg" viewBox="0 0 120.94 54.05"><defs><style>.cls-1,.cls-2{fill:none;stroke-linecap:round;stroke-linejoin:round;stroke-width:2px}.cls-1{stroke:#19212d}.cls-2,.cls-3{stroke:#9fd34a}.cls-3{fill:#9fd34a;stroke-miterlimit:10}</style></defs><title>money</title><path d="M37.86 1h79.6a2.5 2.5 0 0 1 2.48 2.5v47.06a2.5 2.5 0 0 1-2.5 2.5h-63M24.25 9.67h25.5m-37.13 8.68h25.52m-25.52 8.67h25.52M1 35.7h25.5m-13.88 8.67h25.52" class="cls-1"/><circle cx="78.9" cy="27.02" r="16.16" class="cls-2"/><path d="M77.76 31.42h4.45v.85h-6.8v-.85h1.33v-4H75.4v-.6h1.33V24.9a3.26 3.26 0 0 1 .75-2.3 2.74 2.74 0 0 1 2.13-.82 3.26 3.26 0 0 1 1.54.37 3.83 3.83 0 0 1 1.25 1l-.47.78a3.32 3.32 0 0 0-1-.93 2.35 2.35 0 0 0-1.2-.32 1.85 1.85 0 0 0-1.44.56 2.45 2.45 0 0 0-.5 1.65v1.86h2.74v.6h-2.78z" class="cls-3"/></svg>