<svg id="Layer_1" xmlns="http://www.w3.org/2000/svg" viewBox="0 0 86.4 70.1"><style>.st0{fill:#a0cd4c}.st1{fill:#19212d}</style><g id="XMLID_1_"><g id="XMLID_2_"><path id="XMLID_48_" class="st0" d="M.5 10.9h78.2v1H.5z"/></g><g id="XMLID_3_"><path id="XMLID_47_" class="st0" d="M.5 21.8h78.2v1H.5z"/></g><g id="XMLID_4_"><path id="XMLID_46_" class="st1" d="M6 29.1h12.7v1H6z"/></g><g id="XMLID_5_"><g id="XMLID_6_"><path id="XMLID_43_" class="st1" d="M67.8 70.1c-10.3 0-18.7-8.4-18.7-18.7s8.4-18.7 18.7-18.7 18.7 8.4 18.7 18.7-8.4 18.7-18.7 18.7zm0-36.4c-9.7 0-17.7 7.9-17.7 17.7S58 69.1 67.8 69.1s17.7-7.9 17.7-17.7-8-17.7-17.7-17.7z"/></g><g id="XMLID_7_"><path id="XMLID_42_" class="st1" d="M75 51.9h-7.7V38.7h1v12.2H75z"/></g></g><g id="XMLID_8_"><path id="XMLID_41_" class="st1" d="M40.5 55.5H6.1c-3.3 0-6.1-2.7-6.1-6V5.9C0 2.7 2.7 0 6.1 0h67.3c3.3 0 5.8 2.6 5.8 5.9v21.8h-1V5.9C78.2 3.2 76 1 73.3 1H6.1C3.3 1 1 3.3 1 5.9v43.6c0 2.7 2.3 5 5.1 5h34.4v1z"/></g></g></svg>