<svg id="Layer_1" xmlns="http://www.w3.org/2000/svg" viewBox="0 0 39.5 37.8"><style>.st0{fill:#a0cd4c}.st1{fill:#fff}</style><path class="st0" d="M39.5 14.4c-.1-.3-.4-.6-.7-.7-1.5-.2-2.9-.4-4.4-.6-2.3-.3-4.6-.7-6.9-1-.4-.1-.8-.1-1.2-.2l-1.8-3.6c-1.1-2.1-2.1-4.2-3.2-6.3-.2-.5-.5-1-.7-1.5-.2-.4-.8-.6-1.2-.4-.2.1-.4.2-.5.4-.7 1.3-1.3 2.7-2 4-1.1 2.1-2.1 4.2-3.2 6.3-.2.4-.4.7-.5 1.1l-3.9.6c-2.3.3-4.6.7-6.9 1-.5.1-1.1.2-1.6.2-.3 0-.6.4-.7.7-.1.3 0 .7.3 1 1.1 1 2.1 2.1 3.2 3.1 1.7 1.7 3.4 3.3 5 5 .1.2.4.5.7.7-.2 1.3-.4 2.5-.6 3.8l-1.2 6.9c-.1.5-.2 1.1-.3 1.6-.1.4 0 .8.4 1 .3.2.7.3 1.1.1l3.9-2.1 6.3-3.3c.3-.2.6-.3.9-.5 1.1.6 2.3 1.2 3.4 1.8 2.1 1.1 4.2 2.2 6.2 3.3.5.3 1 .5 1.4.8.4.2.8.2 1.1-.1.3-.3.4-.6.4-1-.3-1.5-.5-2.9-.8-4.4l-1.2-6.9c-.1-.3-.1-.7-.2-1 .9-.9 1.9-1.8 2.8-2.8 1.7-1.7 3.4-3.3 5.1-5 .4-.4.8-.8 1.2-1.1.3-.2.4-.6.3-.9z"/><path id="XMLID_28_" class="st1" d="M16.9 15.4c.7-.7 1.7-1 2.9-1s2.1.3 2.8.8c.7.5 1 1.3 1 2.3 0 .5-.1.9-.2 1.2-.2.4-.4.7-.6.9l-.9.9c-.5.4-.9.8-1.1 1.2-.3.4-.4.8-.4 1.3h-1.9c0-.5.1-.9.2-1.3s.3-.7.5-.9l.8-.8c.4-.4.7-.7.9-1 .2-.3.3-.6.3-1.1 0-.5-.2-.8-.5-1.1-.3-.2-.7-.4-1.3-.4-.6 0-1 .2-1.3.5-.3.3-.5.8-.5 1.3h-1.9c.1-1.1.5-2.1 1.2-2.8zm3.3 9.8c.2.2.4.6.4.9 0 .4-.1.7-.4 1-.2.3-.5.4-.9.4s-.7-.1-.9-.4c-.2-.3-.4-.6-.4-1s.1-.7.4-.9c.2-.2.5-.4.9-.4.4.1.7.2.9.4z"/></svg>