<svg id="Layer_1" xmlns="http://www.w3.org/2000/svg" viewBox="0 0 56 52"><style>.st0,.st1{fill:none;stroke:#19212d;stroke-width:2;stroke-linecap:round;stroke-linejoin:round;stroke-miterlimit:10}.st1{stroke:#9fd34a}</style><path class="st0" d="M19 45.7L1.7 50.8c-.4.1-.7-.2-.7-.5V6.6c0-.2.2-.4.4-.5L19 1v44.7zM37 7.5V6.3l17.3-5.1c.4-.1.7.2.7.5v43.7c0 .2-.2.4-.4.5L37 51v-5.9M37 8.5V6.3L19 1v44.7L37 51v-8.3"/><path class="st1" d="M47.6 21.5c0 9-10.6 18.7-10.6 18.7s-10.6-9.6-10.6-18.7c0-5.9 4.7-10.6 10.6-10.6s10.6 4.8 10.6 10.6z"/><circle class="st1" cx="37" cy="21.9" r="3.8"/></svg>