<svg id="Layer_1" xmlns="http://www.w3.org/2000/svg" viewBox="0 0 77.4 81.8"><style>.st0,.st1{fill:none;stroke:#9ace4a;stroke-width:1.9097;stroke-linecap:round;stroke-linejoin:round;stroke-miterlimit:10}.st1{stroke:#19212d;stroke-width:1.6}</style><path class="st0" d="M52.4 54.3l13.3 13.3c2.5 2.5 6.4 2.5 8.9 0s2.5-6.4 0-8.9L61.3 45.4M39.9 24.1L34 18.2c1.4-4.6.3-9.7-3.3-13.4-4.1-4.1-10.2-5-15.2-2.6l9.5 9.5-6.3 6.3-9.5-9.5c-2.4 5-1.5 11.1 2.6 15.2 3.1 3.1 7.3 4.3 11.3 3.8l7.9 7.3"/><path class="st1" d="M11.5 50.7l7.1-7.1c1-1 1.8-1.8 1.8-5.3 0-4.4 1.2-6.6 3.6-8.9"/><path transform="rotate(134.999 16.805 64.974)" class="st1" d="M10.5 48.6h12.6v32.7H10.5z"/><path class="st1" d="M9.7 57.9l3.5 3.5M31.5 34.3l13.8-13.8c1.9-1.9 5.4 0 7.1 1.8 5.1 5.4 15 17 12.4 19.6C61.3 45.4 47 59.6 47 59.6c-2.9 2.9-7.4 2.1-8.9 3.6L31 70.3"/><path class="st0" d="M66.6 59.6l3.6 3.6"/></svg>