<svg xmlns="http://www.w3.org/2000/svg" viewBox="0 0 59.3 59.3"><style>.st0{opacity:.5;fill:#9fd34a}.st1{fill:#19212d}.st2{fill:none;stroke:#19212d;stroke-width:.4503;stroke-linecap:round;stroke-linejoin:round;stroke-miterlimit:10}</style><path d="M29.7 0C13.3 0 .1 13.3.1 29.6s13.2 29.6 29.6 29.6S59.3 46 59.3 29.6 46 0 29.7 0zm0 51.2C17.7 51.2 8 41.6 8 29.6S17.7 8 29.7 8s21.6 9.7 21.6 21.6-9.7 21.6-21.6 21.6z" class="st0"/><path d="M30.9 36.7c-.5-.5-1.1-.7-1.8-.7s-1.3.2-1.8.7c-.5.5-.7 1.1-.7 1.8s.2 1.4.7 1.9c.5.5 1.1.8 1.8.8s1.3-.3 1.8-.8.7-1.1.7-1.9c0-.7-.2-1.3-.7-1.8zm3.6-16.3c-1.2-.9-2.8-1.4-4.8-1.4-2.1 0-3.7.6-5 1.8-1.2 1.2-1.9 2.9-1.9 4.9 0 .2.2.4.4.4h3c.2 0 .4-.2.4-.4 0-.9.3-1.5.7-1.9.4-.4 1.1-.6 1.9-.6.8 0 1.4.2 1.8.5.4.3.6.8.6 1.4 0 .6-.1 1.1-.4 1.5-.3.4-.8 1-1.4 1.6-.6.5-1.1 1-1.4 1.4-.4.4-.7 1-.9 1.6-.3.7-.4 1.4-.4 2.3 0 .2.2.4.4.4h3c.2 0 .4-.2.4-.4 0-.8.2-1.4.5-1.9.4-.5 1-1.2 1.8-1.8.6-.6 1.1-1 1.5-1.5.4-.4.7-1 1-1.6.3-.6.4-1.4.4-2.2.3-1.7-.3-3.1-1.6-4.1z" class="st1"/><circle cx="29.7" cy="29.7" r="29.4" class="st2"/><circle cx="29.7" cy="29.7" r="19.4" class="st2"/><path d="M28.4 2.9L30.9.3m-2.5 58.8l2.5-2.6M26 3.1L28.4.3m2.5 58.8l2.4-2.8M23.7 3.5L25.8.6m7.7 58.3l2.1-3M21.5 4.1L23.3 1M36 58.4l1.8-3.1M19.3 4.9l1.5-3.2m17.7 56l1.5-3.2M17.2 5.9l1.2-3.4m22.5 54.4l1.2-3.4m-27-46.4l1-3.5m27.1 52.2l1-3.5m-31-43.8l.6-3.6m31.7 49.6l.6-3.6M11.4 10l.3-3.6M47.6 53l.3-3.6M9.8 11.6V8m39.7 43.4v-3.6M8.3 13.4L8 9.8m43.3 39.8L51 46M7 15.4l-.7-3.6M53 47.6l-.6-3.6M5.8 17.4l-.9-3.5m49.6 31.6l-1-3.5M4.8 19.5l-1.2-3.4m52.1 27.2l-1.2-3.4M4 21.7l-1.5-3.2M56.8 41l-1.5-3.3M3.4 24l-1.8-3.1m56.1 17.6l-1.8-3.1M3 26.3l-2.1-3m57.5 12.8l-2.1-3M2.8 28.6L.5 25.9m58.3 7.6l-2.3-2.7M2.8 31L.3 28.4M59 31l-2.5-2.6M3 33.3L.3 31M59 28.4l-2.7-2.3M3.5 35.6l-3-2.1m58.3-7.6l-3-2.1M4.1 37.9L1 36.1m57.4-12.8l-3.2-1.8M4.9 40.1l-3.3-1.5m56.1-17.7l-3.3-1.6M5.9 42.2L2.5 41m54.3-22.6l-3.4-1.2m-46.3 27l-3.5-.9m52.1-27.2l-3.5-.9M8.4 46.1l-3.5-.6m49.5-31.6l-3.5-.6m-41 34.6l-3.6-.3M53 11.8l-3.6-.3M11.6 49.6H8M51.3 9.8h-3.6M13.4 51.1l-3.6.3M49.5 8l-3.6.3M15.3 52.4l-3.5.6M47.5 6.4L44 7M17.3 53.6l-3.4.9M45.4 4.9l-3.4.9M19.5 54.6l-3.4 1.2M43.2 3.6l-3.4 1.3M21.7 55.3l-3.3 1.6M40.9 2.5l-3.3 1.6M23.9 55.9l-3.1 1.8m17.7-56l-3.1 1.8m-9.1 52.8l-3 2.1M36 1l-2.9 2.1m-4.5 53.4l-2.8 2.4M33.5.6l-2.8 2.3m8.7 11.6l-3 3c-1.1 1.1-3 .3-3-1.2V12m13.9 13.9H43c-1.5 0-2.3-1.9-1.2-3l3-3m0 19.5l-3-3c-1.1-1.1-.3-3 1.2-3h4.3M33.4 47.3V43c0-1.5 1.9-2.3 3-1.2l3 3m-19.5 0l3-3c1.1-1.1 3-.3 3 1.2v4.3M12 33.4h4.3c1.5 0 2.3 1.9 1.2 3l-3 3m0-19.5l3 3c1.1 1.1.3 3-1.2 3H12M25.9 12v4.3c0 1.5-1.9 2.3-3 1.2l-3-3" class="st2"/><circle cx="29.7" cy="29.7" r="21.7" class="st2"/></svg>