<svg id="Layer_1" xmlns="http://www.w3.org/2000/svg" viewBox="0 0 122.2 66"><style>.st0{fill:#19212d}</style><path id="XMLID_53_" class="st0" d="M100.9 20c-.1 0-.2 0-.3-.1l-.9-.3c-2.4-.9-4.6-2-6.1-3-1-.7-1.8-1.4-2.4-2.1l-.3-.3c-.1-.1-.1-.2-.2-.4l-.1-.4c-.2-.9-.3-1.7-.3-2.7 0-.9.1-1.8.3-2.7l.1-.4c0-.1.1-.3.2-.4l.3-.3c.6-.7 1.4-1.4 2.4-2.1 1.6-1 3.7-2.1 6.1-3l.9-.3c.3-.1.6 0 .8.2l.7.6c2 1.8 3.2 4.9 3.2 8.3s-1.2 6.5-3.2 8.3l-.7.6c-.2.5-.3.5-.5.5zm-8.6-6.6l.1.1c.5.6 1.2 1.2 2 1.8 1.5 1 3.5 2 5.8 2.8l.4.2.4-.3c1.7-1.5 2.7-4.1 2.7-7.1s-1-5.6-2.7-7.1l-.3-.3-.4.2c-2.3.9-4.3 1.9-5.8 2.8-.9.6-1.6 1.2-2.1 1.8l-.1.1v.2c-.1.7-.2 1.5-.2 2.3 0 .8.1 1.6.2 2.3v.2z"/><path id="XMLID_50_" class="st0" d="M103.8 66c-1.2 0-2.4-.1-3.6-.3-7.3-1.4-13.2-7.2-14.5-14.5-1-5.5.4-11.1 3.9-15.4 4.3-5.2 11.1-7.6 17.8-6.4 7.3 1.4 13.2 7.2 14.5 14.5 1 5.5-.4 11.1-3.9 15.4-3.5 4.2-8.7 6.7-14.2 6.7zm0-35.4c-5 0-9.8 2.2-13.1 6.1-3.2 3.9-4.5 9-3.6 14 1.3 6.7 6.6 12 13.3 13.3 1.1.2 2.2.3 3.3.3 5 0 9.8-2.2 13-6.1 3.2-3.9 4.5-9 3.6-14-1.3-6.7-6.6-12-13.3-13.3-1-.2-2.1-.3-3.2-.3z"/><path id="XMLID_47_" class="st0" d="M17.9 65.6c-1.2 0-2.3-.1-3.5-.3C7.3 64 1.7 58.3.3 51.2c-1-5.3.4-10.8 3.8-14.9 4.2-5 10.8-7.4 17.3-6.2 7.1 1.3 12.7 7 14.1 14.1 1 5.3-.4 10.8-3.8 14.9s-8.5 6.5-13.8 6.5zm.1-34.2c-4.9 0-9.5 2.1-12.6 5.9C2.2 41 1 46 1.9 50.9c1.2 6.4 6.4 11.6 12.8 12.8 5.9 1.1 12-1 15.7-5.6 3.1-3.8 4.4-8.7 3.4-13.6-1.2-6.4-6.4-11.6-12.8-12.8-1-.2-2-.3-3-.3z"/><path id="XMLID_44_" class="st0" d="M65.6 55.8c-5.5 0-10.7-.8-15.2-2.2l-1.4-.5c-.3-.1-.6-.4-.6-.8v-1.5c.2-3.8-2.8-14.8-10.3-22.4C27 19.6 11 14.7 10.8 14.6l-2.6-.8c-.2-.1-.4-.3-.5-.5-.1-.2 0-.5.1-.7l5.5-8c.2-.3.5-.4.8-.3l1.3.3c.8.2 18.8 3.8 24.8 6.3 3.3 1.4 5.9 2 8.1 2 2.5 0 4-.9 6-2 .7-.4 1.4-.8 2.1-1.1 3.4-1.6 9.8-2 14.5-2 2 0 3.4.1 3.4.1h1c.2 0 .5.1.6.3l.6.8c3 4.1 12.7 17.6 13.6 19.4l.6 1.2c.1.3.1.7-.1.9l-1 1-1.4 1.4c-3.6 3.6-7.3 7.3-8.9 19.3l-.2 1.4c0 .3-.3.6-.6.7l-1.4.3c-3.6.8-7.6 1.2-11.5 1.2zm-15.6-4l.8.3c4.3 1.4 9.4 2.1 14.7 2.1 3.8 0 7.7-.4 11.2-1.1l.8-.2.1-.8C79.4 39.6 83.2 35.7 87 32l1.4-1.4.6-.6-.4-.7C87.9 27.8 80.9 18 75.2 10l-.3-.5h-.6s-1.4-.1-3.4-.1c-4.6 0-10.7.3-13.8 1.8-.7.3-1.4.7-2 1.1-2 1.1-3.9 2.2-6.7 2.2-2.4 0-5.2-.7-8.7-2.1-5.9-2.4-23.8-6.1-24.5-6.2l-.9-.2-4.6 6.6 1.6.5c.2.1 16.5 5.1 27.9 14.1 0 0 .1 0 .1.1 7.8 8 10.9 19.5 10.8 23.6l-.1.9z"/><path id="XMLID_42_" class="st0" d="M103.9 47.4c-.3 0-.5-.1-.7-.4L77.9 3l-8.3-1.4c-.4-.1-.7-.5-.7-.9.1-.5.5-.8 1-.7l8.7 1.5c.2 0 .4.2.6.4l25.5 44.3c.2.4.1.9-.3 1.1-.2.1-.3.1-.5.1z"/><path id="XMLID_41_" class="st0" d="M20.2 46.9c-.2 0-.5-.1-.6-.3-.3-.3-.2-.8.1-1.1l20-16.2c.3-.3.8-.2 1.1.1.3.3.2.8-.1 1.1l-20 16.2c-.1.2-.3.2-.5.2z"/></svg>