<svg id="Layer_1" xmlns="http://www.w3.org/2000/svg" viewBox="0 0 135.4 102.7"><style>.st0{stroke-linecap:round;stroke-linejoin:round}.st0,.st1,.st2,.st3{fill:none;stroke:#19212d;stroke-width:1.5;stroke-miterlimit:10}.st2,.st3{stroke-linejoin:round}.st3{stroke:#9fd34a;stroke-linecap:round}</style><path class="st0" d="M92.5 94.3H61.9c-3.2 0-5.7-2.6-5.7-5.7v-9.9c0-2.3.7-4.5 1.9-6.4l1.9-2.8-7.7-1.9c-1.1 0-1.9-.9-1.9-1.9v-3.8c0-1.1.9-1.9 1.9-1.9h9.6l3.8 5.7 5.7 1.9h21.1"/><path class="st1" d="M84.8 48.6c-4.8.3-8.7.9-11.3 1.3-1.3.2-3.2 1.2-4.1 2.2-.9 1-5.7 11.5-5.7 11.5M61.9 75.1l3.8 3.9h9.6"/><path class="st2" d="M58 92.4v7.7c0 1.1.9 1.9 1.9 1.9h13.4c1.1 0 1.9-.9 1.9-1.9v-1.9"/><path class="st0" d="M92.5 94.3h30.6c3.2 0 5.7-2.6 5.7-5.7v-9.9c0-2.3-.7-4.5-1.9-6.4l-1.9-2.8 7.7-1.9c1.1 0 1.9-.9 1.9-1.9v-3.8c0-1.1-.9-1.9-1.9-1.9h-9.6l-3.8 5.7-5.7 1.9H92.5"/><path class="st1" d="M104 49c3.1.3 5.6.7 7.4 1 1.3.2 3.2 1.2 4.1 2.2.9 1 5.7 11.5 5.7 11.5M123.1 75.1l-3.8 3.9h-9.6"/><path class="st2" d="M127 92.4v7.7c0 1.1-.9 1.9-1.9 1.9h-13.4c-1.1 0-1.9-.9-1.9-1.9v-1.9"/><path class="st1" d="M75.3 86.6h34.4"/><g><path class="st3" d="M94.5 59.3s11.8-6 11.8-17.3v-2.4c-5.4-.3-10.7-6-11.8-7.9-1 1.9-6.4 7.5-11.8 7.9V42c0 11.3 11.8 17.3 11.8 17.3z"/><path class="st3" d="M94.5 39.6l1.5 4 4 .2-3.1 2.8 1 4-3.4-2.1-3.4 2.1 1-4-3.1-2.8 4-.2z"/></g><g><path class="st0" d="M27.6 40.6H8.1c-2 0-3.7-1.6-3.7-3.7v-6.3c0-1.4.4-2.9 1.2-4.1l1.2-1.8L2 23.5c-.7 0-1.2-.5-1.2-1.2v-2.4c0-.7.5-1.2 1.2-1.2h6.1l2.4 3.7 3.7 1.2h13.4"/><path class="st1" d="M22.7 11.5c-3.1.2-5.5.6-7.2.8-.8.1-2 .8-2.6 1.4S9.2 21 9.2 21M8.1 28.4l2.4 2.4h6.1"/><path class="st2" d="M5.6 39.4v4.9c0 .7.5 1.2 1.2 1.2h8.5c.7 0 1.2-.5 1.2-1.2V43"/><path class="st0" d="M27.6 40.6h19.5c2 0 3.7-1.6 3.7-3.7v-6.3c0-1.4-.4-2.9-1.2-4.1l-1.2-1.8 4.9-1.2c.7 0 1.2-.5 1.2-1.2v-2.4c0-.7-.5-1.2-1.2-1.2h-6.1l-2.4 3.7-3.8 1.1H27.6"/><path class="st1" d="M34.9 11.7c1.9.2 3.5.4 4.7.6.8.1 2 .8 2.6 1.4.6.7 3.7 7.3 3.7 7.3M47.1 28.4l-2.4 2.4h-6.1"/><path class="st2" d="M49.5 39.4v4.9c0 .7-.5 1.2-1.2 1.2h-8.5c-.7 0-1.2-.5-1.2-1.2V43"/><path class="st1" d="M16.6 35.7h22"/></g><g><path class="st0" d="M28.8 18.3s7.5-3.8 7.5-11V5.8c-3.5-.2-6.8-3.8-7.5-5-.7 1.2-4 4.8-7.5 5v1.5c0 7.1 7.5 11 7.5 11z"/><path class="st0" d="M28.9 5.8l.9 2.5 2.6.1-2 1.8.6 2.5-2.1-1.3-2.2 1.3.6-2.5-2-1.8 2.6-.1z"/></g><g><path class="st1" d="M67.5 2.3h12.1c2.7 0 4.8 2.2 4.8 4.8v12.1"/><path class="st1" d="M90.6 12l-6.1 7.3-7.3-7.3"/></g></svg>