<svg xmlns="http://www.w3.org/2000/svg" viewBox="0 0 112.58 157.06"><defs><style>.cls-1,.cls-2{fill:none;stroke-linecap:round;stroke-linejoin:round;stroke-width:2.24px;}.cls-1{stroke:#19212d;}.cls-2{stroke:#9fd34a;}</style></defs><title>Asset 12</title><g id="Layer_2" data-name="Layer 2"><g id="Content"><path class="cls-1" d="M87.47,80.12S78.83,87.85,77.93,88c-2.62.41-14.36-5.1-16.73-5.69s-26,6.92-27.78,9.77,5.23,9.58,12,8.72S62.1,96.36,65,99.27c4.72,4.72,18.49,19.17,25,24.91,5.46,4.82,21.46-20.08,21.46-20.08"/><line class="cls-1" x1="58.51" y1="150.07" x2="50.74" y2="142.18"/><line class="cls-1" x1="71.41" y1="145.81" x2="57.79" y2="131.11"/><line class="cls-1" x1="83.1" y1="138.99" x2="66.94" y2="122.24"/><path class="cls-1" d="M31.11,150a4.79,4.79,0,0,0,6.79,0l4.26-4.26c1.81-1.81,1.35-4.77-.76-6.89s-5.08-2.58-6.89-.76c1.81-1.82,1.34-4.78-.77-6.89s-5.08-2.58-6.89-.77c1.81-1.81,1.35-4.77-.76-6.89S21,121,19.2,122.78c1.81-1.82,1.34-4.78-.77-6.89s-5.08-2.58-6.89-.77l-4.26,4.26a4.81,4.81,0,0,0,0,6.79Z"/><path class="cls-1" d="M39.84,148.06l1.5,1.51L45,153.23c5.59,5.6,10.81,1.48,13.5-3.16,5.13,2.64,10.86-.28,12.9-4.26,6.48,3.2,12.16-3.43,11.69-6.82A9.2,9.2,0,0,0,90,124.18"/><path class="cls-1" d="M1.12,106.5l5.13,5.31a16.62,16.62,0,0,0,3.12,5.49"/><line class="cls-1" x1="33.75" y1="91.7" x2="25.12" y2="83.06"/><line class="cls-1" x1="19.2" y1="122.78" x2="11.66" y2="130.55"/><line class="cls-1" x1="19.2" y1="122.78" x2="11.66" y2="130.55"/><line class="cls-1" x1="26.85" y1="130.43" x2="19.32" y2="138.21"/><line class="cls-1" x1="34.51" y1="138.09" x2="26.97" y2="145.86"/><polygon class="cls-2" points="44.13 67.17 16.32 39.36 30.22 25.45 44.13 39.36 82.36 1.12 96.27 15.03 44.13 67.17"/></g></g></svg>