<svg id="Layer_1" xmlns="http://www.w3.org/2000/svg" viewBox="0 0 886.8 538.5"><style>.st0{fill:none;stroke:#19212d;stroke-width:2;stroke-linecap:round;stroke-linejoin:round;stroke-miterlimit:10}</style><path class="st0" d="M886.7 166.2c-42.1-1.6-84.1-2-126.3-2.4-37.7-.4-75.8-.7-112.8 7-36.1 7.5-71.2 22.6-102.6 41.6-5.4 3.3-10.8 6.7-16 10.3l-30.8 21-158.2 34c-32.1 6.9-62.2 21.2-87.8 41.8l-1.5 1.2-9.6 2.8c-7.9 2.3-14.5 7.8-18.3 15.1l-7.4 14.4c-1.1 2.1-1.6 4.4-1.6 6.7v7c0 1.7-1.4 3.1-3.1 3.1s-3.1 1.4-3.1 3.1v20c0 1.7 1.4 3.1 3.1 3.1s3.1 1.4 3.1 3.1l-2.8 24.3h137.8V406"/><path class="st0" d="M252 319.4l-15.5 25.2s104.7-18 125.3-71.7M236.5 344.7l-8.5 9-14.5 5.3M237.3 344.5l-21.6 7.3M241.8 336.1l-22 7.9M246.8 327.9l-23.1 8.8M500.4 242.1L341.9 60.7c-6.9-7.9-16.5-13.1-26.9-14.2-7.2-.8-15.2.3-21.6 6-1.3 1.1-1.5 3-.4 4.3.9 1.2 2.5 1.6 3.8 1 6.5-3 26.4-9.4 44.4 12.5 22 26.7 152 174.3 152 174.3M405.7 145.6l11.1 52.5M210.7 423.4l5 19.9h132.8v-19.9M886.7 443.3H542.1l-5.1-19.9h349.7M537 423.4v-17.1M348.5 406c0-52.1 42.2-94.2 94.2-94.2S537 354 537 406"/><path class="st0" d="M327.7 404.7c0-63.6 51.5-115.1 115.1-115.1s115.1 51.5 115.1 115.1M536.8 278.7h-11c-2.3 0-4.2-1.9-4.2-4.2 0-2.3 1.9-4.2 4.2-4.2h11c2.3 0 4.2 1.9 4.2 4.2 0 2.3-1.9 4.2-4.2 4.2zM730.4 300.3c2 0 3.6-1.6 3.6-3.6s-1.6-3.6-3.6-3.6h-33.8c-2 0-3.6 1.6-3.6 3.6s1.6 3.6 3.6 3.6M274.2 313.9l30.8-17.7M269.7 325.2l56.5-30.8M642 222.5l30.8-17.7M637.5 233.8L694 203M842.3 222.5l30.7-17.7M837.8 233.8l56.5-30.8M886.7 490.5H1M331.8 537.5H153.9M793.8 518H615.9"/><circle class="st0" cx="442.8" cy="410" r="80.4"/><circle class="st0" cx="442.8" cy="410" r="55.3"/><path class="st0" d="M442.8 389.1c1.3 0 2.4-1 2.6-2.2l3.5-21.7c.3-1.6-1-3.1-2.6-3.1h-6.9c-1.6 0-2.9 1.5-2.6 3.1l3.5 21.7c0 1.2 1.1 2.2 2.5 2.2zM440.1 433.2l-3.5 21.7c-.3 1.6 1 3.1 2.6 3.1h6.9c1.6 0 2.9-1.5 2.6-3.1l-3.5-21.7c-.2-1.3-1.3-2.2-2.6-2.2-1.2 0-2.3.9-2.5 2.2zM415 374.2l13.9 17.1c.8 1 2.3 1.3 3.4.6 1.1-.7 1.6-2 1.2-3.3l-7.8-20.5c-.6-1.5-2.4-2.2-3.8-1.4l-6 3.5c-1.6.8-1.9 2.7-.9 4zM452.1 431.4l7.8 20.5c.6 1.5 2.4 2.2 3.8 1.4l6-3.5c1.4-.8 1.8-2.7.7-4l-13.9-17.1c-.8-1-2.3-1.3-3.4-.6-1 .7-1.5 2.1-1 3.3zM424 396.2l-17.1-13.9c-1.3-1-3.2-.7-4 .7l-3.5 6c-.8 1.4-.2 3.2 1.4 3.8l20.5 7.8c1.2.5 2.6 0 3.3-1.2.7-1 .4-2.4-.6-3.2zM461.5 423.9l17.1 13.9c1.3 1 3.2.7 4-.7l3.5-6c.8-1.4.2-3.2-1.4-3.8l-20.5-7.8c-1.2-.5-2.6 0-3.3 1.2-.7.9-.4 2.4.6 3.2zM419.6 407.4l-21.7-3.5c-1.6-.3-3.1 1-3.1 2.6v6.9c0 1.6 1.5 2.9 3.1 2.6l21.7-3.5c1.3-.2 2.2-1.3 2.2-2.6 0-1.2-.9-2.3-2.2-2.5zM463.7 410c0 1.3 1 2.4 2.2 2.6l21.7 3.5c1.6.3 3.1-1 3.1-2.6v-6.9c0-1.6-1.5-2.9-3.1-2.6l-21.7 3.5c-1.3.1-2.2 1.2-2.2 2.5zM421.4 419.3l-20.5 7.8c-1.5.6-2.2 2.4-1.4 3.8l3.5 6c.8 1.4 2.7 1.8 4 .7l17.1-13.9c1-.8 1.3-2.3.6-3.4-.7-.9-2.1-1.4-3.3-1zM464.1 400.7l20.5-7.8c1.5-.6 2.2-2.4 1.4-3.8l-3.5-6c-.8-1.4-2.7-1.8-4-.7l-17.1 13.9c-1 .8-1.3 2.3-.6 3.4.7 1 2.1 1.5 3.3 1zM415.8 449.8l6 3.5c1.4.8 3.2.2 3.8-1.4l7.8-20.5c.5-1.2 0-2.6-1.2-3.3-1.1-.7-2.6-.4-3.4.6L415 445.9c-1 1.2-.7 3.1.8 3.9zM469.7 370.2l-6-3.5c-1.4-.8-3.2-.2-3.8 1.4l-7.8 20.5c-.5 1.2 0 2.6 1.2 3.3 1.1.7 2.6.4 3.4-.6l13.9-17.1c.9-1.3.6-3.2-.9-4z"/><circle class="st0" cx="442.8" cy="410" r="9.1"/><path class="st0" d="M425.6 259.2l-11.9-56.4c-.5-2.2.9-4.3 3.1-4.7 2.2-.5 4.3.9 4.7 3.1l11.9 56.4M213.5 399.1v-23.4M246.8 379.5h27.4M246.8 387.4h17.5M749.5 423.4s-11-83.7 5.5-160.7l22.5-88.5h-52s-166.3.1-171.4 81.2M745.8 256.1l20.8-81.9M767.9 256.1l20.9-81.5M581.4 366.5h306.3M611.4 379.5h276.3M777.5 174.2l109.2 4"/><path class="st0" d="M886.7 262.3H563.4c-5.1 0-9.1 4.2-9 9.3L556 328"/><g><path class="st0" d="M322 262.3s20.7-8.6 21.7-20.3l-16-11.7s-.5.9-1.4 2.4c-3.3 5.5-11.7 18.7-15.9 19l11.6 10.6zM343.3 244.2l44 23.3M328.1 259.2l36.8 13.1"/><path class="st0" d="M313.1 250.2s-50.1-20.6-52.6-26.6-25.3-12-25.3-12"/><path class="st0" d="M264.3 165.3c-17.5-5-35-4.3-48.6 15.7s-17.7 15-22.4 27-22.3 29-28 38.3-20.7 30-20.7 30 5.3 4.2 19.3 0 32.5-4.2 37.5 7.8 27 14.6 27 14.6-10-10.1-2-20.1 8.5-11.4 10.8-19.4c2.2-8.1 1.8-15.6 9.5-18.6 7.7-3 13.7-17 13.7-17"/><path class="st0" d="M269.7 190c9.1-2.3 14.9 1.8 14.9 1.8 2.7-16.9-8-31.5-8-31.5l-12.3 5 7.7-3.3M326.3 232.7s-11.6-3-15.9-9c-4.3-6-14.7-15-16-18-1.3-3 0-11.4-9.7-13.9M150.3 278.1s-1 14.6 2.4 27c.9 3.2 2.1 6.3 3.6 8.9 7.7 12.8-.3 17.8 3 28.8s.2 5.3.5 16.3c.2 11-7.8 51.3-7.1 57.5.7 6.2-1.7 44.7 0 45.4 1.7.7 39 2 40.7 0s3.3-13.5 3-24.5-1.7-37.3 2-45.8-.3-10.7 1.7-20.9 3.9-33.7 7.3-42.6c3.4-8.9-.3-18.9 3.4-25.9l3.7-7"/><path class="st0" d="M180.2 280.3s-4.6 16.4-5.2 20.4c-.7 4-1.7 8.1-1.7 8.1l-11 5.1-8.4-5.1M191.9 281.7s-1.3 33-5.9 43.5c-4.7 10.5-9.3 64.1-9.3 64.1l-2 57.4M278.7 163.6s-2.1-22.1 25.3-24.6c27.3-2.5 25.8 24.3 30.7 29.7 4.8 5.3-4 8.3-4.7 7.4-.7-.9-.7-8.7-5-8.9-4.3-.2-16 8.5-17.6 7s-4.2-5.5-4.2-6.7c0-1.2-1.3-11.6-7.7-4.8-6.3 6.8-13.6 7.6-13.6 7.6"/><path class="st0" d="M293.3 200.9s2.7.4 5.9-1.1 9.5-2.7 9.5-2.7l3.3 3.8s2.8-1.6 3.2-3.8c.3-2.2 2.7-9.2 3.8-9.7 1.2-.5 9.9-9.5 10.5-13.3M158.7 462.1s1.5 5.6 1.2 7c-.3 1.4-3.5 8.6-3.9 15.6h70.3s-1.9-14.7-18.9-14.1c-17 .7-18.9-4-22.7-7.7"/><path class="st0" d="M154.8 486.9v1.3c0 1.2 1 2.2 2.2 2.2h68.4c1.2 0 2.2-1 2.2-2.2v-1.3c0-1.2-1-2.2-2.2-2.2H157c-1.2 0-2.2 1-2.2 2.2zM158.7 472.7s9.3 2 9.3 12M190.3 468.7l-8.8 4M194.2 470.1l-3.9 3.6M199.6 470.7l-2.8 3.6"/></g><path class="st0" d="M264.3 8.3c-8.2 16-23.3 35.4-12.7 53.9 10.2 17.9 33.2 23.3 51.6 28.1 22.3 5.8 39 15.6 47.5 38.3 9.1 24.3 2.6 51.3 14.2 74.6 10.1 20.3 27.4 32.4 46.4 43.3M278.7 111.5c-44.5-5.9-76.3-39.1-89.8-80.2-3.4-10.5-2.4-19.6-3-30.3"/></svg>