<svg id="Layer_1" xmlns="http://www.w3.org/2000/svg" viewBox="0 0 383 253.1"><style>.st0,.st1{fill:none;stroke:#19212d;stroke-width:3;stroke-miterlimit:10}.st1{stroke:#9fd34a}</style><path class="st0" d="M1.5 250.9V5.5c0-2.2 1.8-4 4-4H313L381.5 70v180.8"/><path class="st0" d="M381.5 70H317c-2.2 0-4-1.8-4-4V1.5"/><path class="st1" d="M227.8 53.5c-10-10-26.3-10-36.3 0-10-10-26.3-10-36.3 0-10 10-10 26.3 0 36.3l36.3 36.3 36.3-36.3c10.1-10 10.1-26.3 0-36.3z"/><circle class="st0" cx="137.7" cy="235.3" r="6.7"/><circle class="st0" cx="264.3" cy="235.3" r="6.7"/><path class="st0" d="M260.3 219.6c12.1-2.9 22.7 7.7 19.8 19.8-1.4 5.7-6 10.3-11.7 11.7-12.1 2.9-22.7-7.7-19.8-19.8 1.3-5.7 6-10.3 11.7-11.7zM133.7 219.6c12.1-2.9 22.7 7.7 19.8 19.8-1.4 5.7-6 10.3-11.7 11.7-12.1 2.9-22.7-7.7-19.8-19.8 1.4-5.7 6-10.3 11.7-11.7z"/><path class="st0" d="M76.5 215.4V171h12.7v10.3H92l17-27.9h102.3l37.4 30 42.5 5.5c2.9.4 5.3 2.4 6.1 5.2l4.1 13.8c.4 1.4 1.2 2.6 2.4 3.6 2 1.7 3 4.3 2.6 6.8l-2.1 13.8c-.6 3.6-3.7 6.3-7.3 6.3h-9.3c1-4.9.7-10.4-2.4-16.2-3.2-6-8.9-10.5-15.5-12-15.5-3.4-29.3 8.3-29.3 23.2 0 1.7.2 3.3.5 4.9h-80c1-4.5.7-9.5-1.6-14.7-2.9-6.5-8.6-11.6-15.5-13.3-15.8-4-30 7.9-30 23 0 1.7.2 3.3.5 4.9H94.2L89.3 215l-12.8.4z"/><path class="st0" d="M169.5 159.8v23.1h54.3M108.3 182.9h51.6v-23.1M89.3 171v35M300.4 204.3h-13.8v-9.8M169.5 199H183M108.3 199h13.6M105.4 228.6H92.1M233.4 228.6H161M296.2 228.6h-8.6"/></svg>