<svg xmlns="http://www.w3.org/2000/svg" viewBox="0 0 90.1 131.09"><defs><style>.cls-1,.cls-2{fill:none;stroke-linecap:round;stroke-linejoin:round;stroke-width:1.91px;}.cls-1{stroke:#19212d;}.cls-2{stroke:#9fd34a;}</style></defs><title>independent-living</title><g id="Layer_2" data-name="Layer 2"><g id="Content"><path class="cls-1" d="M30.54,118.3a4.69,4.69,0,0,1,3.94-2h29c2.19,0,14.24-12.09,15.77-13.8s8-11.52,9.86-15.78c-1.14-1.54-4.23-2.82-7.89-2-3.48.81-5.53,3.31-7.88,7.88l-9.05,4.7"/><path class="cls-1" d="M41.81,104.5H59.56c7.89,0,7.89-9.86,0-9.86H47.73c-1.65,0-4.73-4-7.33-4H30.54c-2.67,0-6,2.16-7.89,4-3,3-8.17,7.89-8.17,7.89"/><rect class="cls-1" x="9.76" y="99.02" width="13.95" height="30.68" transform="translate(-75.96 45.33) rotate(-45)"/><line class="cls-1" x1="10.82" y1="108.44" x2="14.76" y2="112.39"/><line class="cls-1" x1="14.14" y1="74.29" x2="14.14" y2="47.66"/><rect class="cls-2" x="26.56" y="47.66" width="14.2" height="26.63"/><polyline class="cls-1" points="7.04 74.29 46.09 74.29 78.18 74.24 78.18 49.39 78.04 47.11"/><polyline class="cls-1" points="30.11 16.93 30.11 6.28 19.46 6.28 19.46 27.58"/><polygon class="cls-1" points="46.09 0.95 7.04 40.01 14.14 47.11 46.09 15.16 78.04 47.11 85.14 40.01 46.09 0.95"/></g></g></svg>