<svg id="Layer_1" xmlns="http://www.w3.org/2000/svg" xmlns:xlink="http://www.w3.org/1999/xlink" viewBox="0 0 486.6 100.6"><style>.st0,.st1{fill:none;stroke:#9fd34a;stroke-width:2;stroke-linejoin:round;stroke-miterlimit:10}.st1{stroke:#fff}</style><path class="st0" d="M122.7 36.9l-8.9 19.6-20.5 1.8c-1.3.1-1.9 1.8-1 2.7l15 15-3.8 19.5c-.3 1.3 1.1 2.3 2.3 1.7l18.3-9.2 18.3 9.1c1.2.6 2.5-.4 2.3-1.7L140.9 76 156 61c1-1 .4-2.6-1-2.7l-20.5-1.8-8.9-19.6c-.6-1.2-2.4-1.2-2.9 0z"/><path class="st1" d="M106.3 49.5l-7.4-16.3c-.5-1-1.9-1-2.4 0l-7.4 16.3-17 1.5c-1.1.1-1.6 1.5-.8 2.2l12.5 12.4-3.1 16.1c-.2 1.1.9 1.9 1.9 1.4l15.2-7.6"/><path class="st1" d="M84.3 42.9l-7.4-16.3c-.5-1-1.9-1-2.4 0l-7.4 16.3-17 1.5c-1.1.1-1.6 1.5-.8 2.2L61.8 59l-3.1 16.1c-.2 1.1.9 1.9 1.9 1.4L75.7 69"/><path class="st1" d="M58.9 35.2L51.5 19c-.5-1-1.9-1-2.4 0l-7.4 16.3-17 1.5c-1.1.1-1.6 1.5-.8 2.2l12.5 12.4-3.1 16.1c-.2 1.1.9 1.9 1.9 1.4l15.2-7.6"/><path class="st1" d="M36.4 28.7L29 12.4c-.5-1-1.9-1-2.4 0l-7.4 16.3-17 1.5c-1.1.1-1.6 1.5-.8 2.2l12.5 12.4L10.7 61c-.2 1.1.9 1.9 1.9 1.4l15.2-7.6"/><g><path class="st0" d="M363.9 36.9l8.9 19.6 20.5 1.8c1.3.1 1.9 1.8 1 2.7l-15 15 3.8 19.5c.3 1.3-1.1 2.3-2.3 1.7L362.5 88l-18.3 9.1c-1.2.6-2.5-.4-2.3-1.7l3.8-19.4-15.1-15c-1-1-.4-2.6 1-2.7l20.5-1.8 8.9-19.6c.6-1.2 2.3-1.2 2.9 0z"/><path class="st1" d="M380.2 49.5l7.4-16.3c.5-1 1.9-1 2.4 0l7.4 16.3 17 1.5c1.1.1 1.6 1.5.8 2.2l-12.5 12.4 3.1 16.1c.2 1.1-.9 1.9-1.9 1.4l-15.2-7.6"/><path class="st1" d="M402.2 42.9l7.4-16.3c.5-1 1.9-1 2.4 0l7.4 16.3 17 1.5c1.1.1 1.6 1.5.8 2.2L424.7 59l3.1 16.1c.2 1.1-.9 1.9-1.9 1.4L410.8 69"/><path class="st1" d="M427.7 35.2l7.4-16.3c.5-1 1.9-1 2.4 0l7.4 16.3 17 1.5c1.1.1 1.6 1.5.8 2.2l-12.5 12.4 3.1 16.1c.2 1.1-.9 1.9-1.9 1.4l-15.2-7.6"/><path class="st1" d="M450.1 28.7l7.4-16.3c.5-1 1.9-1 2.4 0l7.4 16.3 17 1.5c1.1.1 1.6 1.5.8 2.2l-12.5 12.4 3.1 16.1c.2 1.1-.9 1.9-1.9 1.4l-15.2-7.6"/></g><image width="650" height="440" xlink:href="D:\xampp\htdocs\Jobs\Batch_12(1-st_dev)\input\Car.co.uk - GAP Insurance pages\Car.co.uk - GAP Insurance pages\Links\Esure-Car-Insurance-Rating-Category-and-Year-2014-2018.png" transform="translate(168.968) scale(.2286)" overflow="visible"/></svg>