<svg xmlns="http://www.w3.org/2000/svg" viewBox="0 0 147.39 96.15"><defs><style>.cls-1,.cls-2,.cls-3{fill:none;stroke-linecap:round;stroke-linejoin:round;}.cls-1,.cls-3{stroke:#19212d;}.cls-1,.cls-2{stroke-width:1.91px;}.cls-2{stroke:#9fd34a;}.cls-3{stroke-width:1.42px;}</style></defs><title>meal-delivery</title><g id="Layer_2" data-name="Layer 2"><g id="Content"><path class="cls-1" d="M105.24,36h20.45a5.16,5.16,0,0,1,4.25,2.24L138.71,54h2.57c2.9,0,5.15,1.92,5.15,5.69V77.17a5.15,5.15,0,0,1-5.15,5.15h-5.15"/><polyline class="cls-1" points="105.24 17.95 105.24 82.32 66.62 82.32"/><line class="cls-1" x1="46.03" y1="82.32" x2="24.24" y2="82.32"/><path class="cls-1" d="M136.13,84.92a10.32,10.32,0,1,1-10.32-10.27A10.3,10.3,0,0,1,136.13,84.92Z"/><path class="cls-1" d="M66.67,84.92A10.32,10.32,0,1,1,56.35,74.65,10.3,10.3,0,0,1,66.67,84.92Z"/><line class="cls-1" x1="105.24" y1="82.32" x2="115.54" y2="82.32"/><polyline class="cls-1" points="110.39 56.57 128.41 56.57 128.41 54 123.26 46.27"/><line class="cls-1" x1="59" y1="58.85" x2="85.72" y2="58.85"/><line class="cls-1" x1="71.57" y1="43.4" x2="95.15" y2="43.4"/><circle class="cls-2" cx="27.95" cy="27.95" r="27"/><line class="cls-1" x1="105.24" y1="74.65" x2="24.27" y2="74.65"/><path class="cls-3" d="M36,42.55H33.74a.58.58,0,0,1-.58-.58V32.31H31.69a.59.59,0,0,1-.59-.59V18.79a7.73,7.73,0,0,1,4.72-6.24.58.58,0,0,1,.54.06.59.59,0,0,1,.26.48V42A.58.58,0,0,1,36,42.55Z"/><path class="cls-3" d="M26.58,14.16v6.39a4.64,4.64,0,1,1-9.27,0V14.16"/><line class="cls-3" x1="21.95" y1="25.19" x2="21.95" y2="42.55"/><line class="cls-3" x1="20.21" y1="13.55" x2="20.21" y2="19.81"/><line class="cls-3" x1="23.68" y1="13.55" x2="23.68" y2="19.81"/></g></g></svg>