<svg id="Layer_1" xmlns="http://www.w3.org/2000/svg" viewBox="0 0 210.3 34.6"><style>.st0{fill:#757a81}</style><g id="FINAL-V1.3_2_"><g id="Homepage-Desktop-v1.3_2_" transform="translate(-1109 -677)"><g id="Lenders-Logos_2_" transform="translate(120 677)"><g id="Paragon_1_" transform="translate(989)"><g id="Layer_2_2_"><g id="Layer_1-2_2_"><path id="Shape_41_" class="st0" d="M53.1 17.8c0-2.3 1.2-3.9 3-3.9s3 1.6 3 3.9-1.2 3.9-3 3.9c-1.9.1-3-1.5-3-3.9zm.4 5.2c-.7.3-2.8.9-2.8 2.4 0 1.4 1.2 2 2.7 2.4l5.7 1.1c1.7.3 2.2 1.1 2.3 1.8 0 .7-.3 1.3-.8 1.7-.8.6-2 1.1-4.8.9-3.4-.2-4.5-2-4.5-2.9-.1-.8.3-1.6.9-2.1l-.5-.3c-.5.5-2 1.3-2 2.8 0 2.8 3.4 3.9 6.3 3.8 2 0 3.9-.7 5.4-1.8.9-.8 1.5-1.9 1.6-3.1 0-2.2-2.2-2.9-3.3-3.1l-5.1-.9c-.6-.1-1.4-.4-1.4-1.1s1.3-1.2 2.4-1.5c1.2-.3 3-.8 4.5-2.1.9-.8 1.4-2 1.4-3.2 0-2.6-2.4-4.6-5.4-4.6-3 0-5.4 2.1-5.4 4.6 0 1.3.6 2.6 1.6 3.5 1 .9 2.3 1.3 3.6 1.1-.6.1-1.7.4-2.4.6z"/><path id="Shape_40_" class="st0" d="M49.3 24.3c-.2.4-.8.9-1.3.7-.3-.1-.6-.4-.6-1.2v-6.6c0-2.7-1.5-4-3.7-4-2.1.1-3.9 1.3-4.8 3.2l.3.3c.6-.7 1.6-2.2 3.6-2.1 1.7 0 2.2 1.3 2.2 2.5v1.6c-1.4 0-2.8.2-4.1.6-1.6.5-3.3 1.7-3.3 3.5s1.2 3.4 3.7 3.4c1.5 0 2.9-.7 3.8-2 .2 1.3 1 2 2.1 2 1 0 2-.6 2.5-1.6l-.4-.3zm-6.9.6c-.6 0-1.2-.2-1.6-.6-.4-.4-.6-1-.6-1.6 0-1.6 1.3-3.2 4.9-3.4v4.3c-.7.8-1.7 1.3-2.7 1.3z"/><path id="Shape_39_" class="st0" d="M62.7 19.7c-.1-2.7 1.5-5.2 4-6.3s5.3-.5 7.2 1.4c1.9 1.9 2.5 4.8 1.5 7.3s-3.4 4.2-6.1 4.2c-1.7 0-3.4-.6-4.6-1.9-1.3-1.2-2-2.9-2-4.7zm2.6 0c0 3.4 1.5 5.7 3.9 5.7s3.9-2.3 3.9-5.7-1.3-5.7-3.8-5.7-4 2.3-4 5.7z"/><path id="Shape_38_" class="st0" d="M86.7 23.4c0 2.2-.9 2-2 2v.6h6.5v-.6c-1.1-.1-2 .1-2-2v-6.6c0-2.5-2-3.6-4.1-3.6-1.6.1-3.2.8-4.3 2.1v-2.1l-4.5 1.2v.5c1.9 0 2.1.3 2.1 1.1v7.4c0 2.2-.9 2-2 2v.6h6.5v-.6c-1.1-.1-2 .1-2-2V16c.9-.9 2.1-1.4 3.3-1.5 1.2 0 2.6.5 2.6 2.4-.1.1-.1 6.5-.1 6.5z"/><path id="Shape_37_" class="st0" d="M32 15.5v-2.3l-4.5 1.2v.5c1.9 0 2.1.3 2.1 1.1v7.4c0 2.2-.9 2-2 2v.6h6.7v-.6c-1.2-.1-2.2.1-2.2-2v-7.3c1.5-1.2 3.6-1.1 5 .2l1.1-2.6c-2.6-1.4-4.9.2-6.2 1.8z"/><path id="Shape_36_" class="st0" d="M8.3 13.2c-1.4.2-2.7.9-3.7 1.9v-1.9L0 14.4v.5c1.9 0 2.1.3 2.1 1.1v14.9c0 2.2-.9 2-2 2v.6h6.6v-.6c-1.3 0-2.1.1-2.1-2v-5.8c.9.7 2.1 1.2 3.2 1.2 1.4 0 2.8-.5 3.8-1.5 1.3-1.3 2.1-3.2 2-5.1 0-4.8-3-6.7-5.3-6.5zm-.8 12c-1.1.1-2.1-.3-2.9-1v-8.3c.8-.8 1.8-1.2 2.9-1.2 1.5-.1 3.6 1 3.6 5.1-.1 4.1-2.2 5.3-3.6 5.4z"/><path id="Shape_35_" class="st0" d="M26.5 24.3c-.2.4-.8.9-1.3.7-.3-.1-.6-.4-.6-1.2v-6.6c0-2.7-1.5-4-3.7-4-2.1.1-3.9 1.3-4.8 3.2l.3.3c.6-.7 1.6-2.1 3.6-2.1 1.7 0 2.2 1.3 2.2 2.5v1.6c-1.4 0-2.8.2-4.1.6-1.6.5-3.3 1.7-3.3 3.5s1.2 3.4 3.7 3.4c1.5 0 2.9-.7 3.8-2 .2 1.3 1 2 2.1 2 1 0 2-.6 2.5-1.6l-.4-.3zm-7 .6c-.6 0-1.2-.2-1.6-.6-.4-.4-.6-1-.6-1.6 0-1.6 1.3-3.2 4.9-3.4v4.3c-.6.8-1.6 1.3-2.7 1.3z"/><path id="Shape_34_" class="st0" d="M65.8 0c-1.8 2.1-2.9 4.6-3.1 7.4 2 .4 4.1.3 6.1-.4l.2-.3s-6.8 1-2.9-6.5l-.3-.2z"/><path id="Shape_33_" class="st0" d="M61 14.1s2.9-3.6 3.1-7.7c-1.8-.6-3.7-.6-5.5.1l-.1.3c1.3-.2 6.1.2 2.3 7.1l.2.2z"/><path id="Shape_32_" class="st0" d="M105.8 22.6l-.1.1c-.8 1.3-2.2 2.1-3.8 2.1-.8 0-1.6-.2-2.3-.6-.7-.4-1.2-1-1.6-1.8-.4-.8-.6-1.6-.6-2.5 0-1.3.4-2.5 1.3-3.4.8-.9 2-1.4 3.2-1.4 1.5 0 3 .8 3.8 2.1l.1.1 1.3-1-.1-.1c-.3-.6-.7-1.1-1.2-1.6-.5-.4-1.1-.8-1.7-1-.7-.3-1.4-.4-2.1-.4-1.1 0-2.2.3-3.2.9-.9.6-1.7 1.4-2.2 2.4-.5 1.1-.8 2.2-.8 3.4 0 1.7.6 3.4 1.7 4.6 1.1 1.3 2.7 2 4.4 1.9 1.1 0 2.1-.2 3.1-.8.9-.5 1.6-1.2 2.1-2.1l.1-.1-1.4-.8z"/><path id="Shape_31_" class="st0" d="M118.7 13.6v1.9c-.4-.6-1-1.2-1.7-1.6-.8-.4-1.6-.7-2.5-.7-1.6 0-3.1.7-4.1 1.9-1.1 1.3-1.7 3-1.7 4.7 0 1.7.5 3.4 1.7 4.8 1 1.2 2.5 2 4.1 2 .9 0 1.7-.2 2.5-.6.7-.4 1.3-.9 1.7-1.5v1.8h1.7V13.6h-1.7zm-.4 8.9c-.3.7-.9 1.3-1.5 1.7-.6.4-1.3.6-2.1.6-.7 0-1.4-.2-2-.6-.7-.4-1.2-1.1-1.5-1.8a5.1 5.1 0 0 1 0-4.8c.3-.7.9-1.3 1.5-1.8 1.6-1.1 3.7-.7 5 .8.8 1 1.2 2.2 1.2 3.5-.1.8-.3 1.6-.6 2.4z"/><path id="Shape_30_" class="st0" d="M128.9 13.7c-.4-.3-.8-.4-1.3-.4-.6 0-1.1.2-1.6.6-.4.3-.8.7-1.1 1.2v-1.4h-1.7v12.7h1.7v-4.3c-.1-1.4 0-2.8.3-4.2.1-.7.5-1.4.9-2 .3-.4.8-.6 1.2-.6.2 0 .5.1.7.2l.1.1.9-1.6-.1-.3z"/><path id="Shape_29_" class="st0" d="M136.4 10.8c.1-.1.1-.3.3-.3.4-.3 1-.2 1.8.2l.2.1V8.9h-.1c-1.4-.5-2.3-.4-3 0-.4.2-.6.6-.8 1-.2.6-.3 1.3-.2 2v1.8h-1.4v1.7h1.4v11h1.7v-11h2.3v-1.7h-2.3v-1.5c0-.5.1-.9.1-1.4z"/><path id="Rectangle-path_1_" class="st0" d="M140.7 13.6h1.7v12.7h-1.7z"/><path id="Shape_28_" class="st0" d="M142.4 9c-.2-.3-.6-.4-.9-.4s-.7.2-.9.4c-.2.3-.4.7-.4 1 0 .4.1.7.4 1 .2.3.6.4.9.4s.7-.2.9-.4c.2-.3.4-.6.4-1s-.1-.8-.4-1z"/><path id="Shape_27_" class="st0" d="M154.7 16c-.3-.8-.8-1.5-1.5-2-.6-.5-1.4-.7-2.2-.7-.8 0-1.6.2-2.3.7-.6.4-1.2.9-1.6 1.5v-1.8h-1.7v12.7h1.7v-4.7c0-1.1 0-2.2.2-3.3.2-.9.6-1.7 1.3-2.3.6-.6 1.3-.9 2.2-.9.6 0 1.2.2 1.7.6.5.5.8 1.1.9 1.8.1.9.2 1.9.2 2.8v6.1h1.7V20c-.1-1.5-.2-2.8-.6-4z"/><path id="Shape_26_" class="st0" d="M167.8 13.6v1.9c-.4-.6-1-1.2-1.7-1.6-.8-.4-1.6-.7-2.5-.7-1.6 0-3.1.7-4.1 1.9-1.1 1.3-1.7 3-1.7 4.7 0 1.7.6 3.4 1.7 4.8 1 1.2 2.5 2 4.1 2 .8 0 1.7-.2 2.4-.6.7-.4 1.3-.9 1.7-1.5v1.8h1.7V13.6h-1.6zm.1 6.4c0 .9-.2 1.7-.5 2.5-.3.7-.9 1.3-1.5 1.7-.6.4-1.4.6-2.1.6-.7 0-1.4-.2-2-.6-.7-.4-1.2-1.1-1.5-1.8a5.1 5.1 0 0 1 0-4.8c.3-.7.9-1.3 1.5-1.8 1.6-1.1 3.7-.7 5 .8.7.9 1.1 2.1 1.1 3.4z"/><path id="Shape_25_" class="st0" d="M182.1 16c-.3-.8-.8-1.5-1.4-2-.6-.5-1.4-.7-2.2-.7-.8 0-1.6.2-2.3.7-.6.4-1.2.9-1.6 1.5v-1.8h-1.7v12.7h1.7v-4.7c0-1.1 0-2.2.2-3.3.2-.9.6-1.7 1.3-2.3.6-.6 1.3-.9 2.2-.9.6 0 1.2.2 1.7.6.5.5.8 1.1.9 1.8.1.9.2 1.9.2 2.8v6.1h1.7V20c-.2-1.5-.4-2.8-.7-4z"/><path id="Shape_24_" class="st0" d="M195.2 22.6l-.1.1c-.8 1.3-2.2 2.1-3.8 2.1-.8 0-1.6-.2-2.3-.6-.7-.4-1.2-1-1.6-1.8-.4-.8-.6-1.6-.6-2.5 0-1.3.4-2.5 1.3-3.4.8-.9 2-1.4 3.2-1.4 1.5 0 3 .8 3.8 2.1l.1.1 1.3-1-.1-.1c-.3-.6-.7-1.1-1.2-1.6-.5-.4-1.1-.8-1.7-1-.7-.3-1.4-.4-2.1-.4-1.1 0-2.2.3-3.2.9-.9.6-1.7 1.4-2.2 2.4-.5 1.1-.8 2.2-.8 3.4 0 1.7.6 3.4 1.7 4.6 1.1 1.3 2.7 2 4.4 1.9 1.1 0 2.1-.2 3.1-.8.9-.5 1.6-1.2 2.1-2.1l.1-.1-1.4-.8z"/><path id="Shape_23_" class="st0" d="M208.5 21.9c-.3.6-.7 1.2-1.2 1.7-.4.4-.8.6-1.3.8-.5.2-1 .3-1.5.3-1.1 0-2.1-.5-2.8-1.3-.7-.9-1.2-2.1-1.2-3.3h9.7v-.2c0-1.5-.4-3-1.2-4.3-1-1.6-2.7-2.5-4.5-2.5-1.8 0-3.4.9-4.4 2.4-1.8 2.7-1.7 6.3.2 8.9 1 1.4 2.6 2.1 4.3 2 .8 0 1.5-.1 2.2-.4.7-.3 1.2-.7 1.7-1.2.6-.6 1-1.4 1.4-2.1l.1-.1-1.4-.9-.1.2zm-7.7-3.4c.2-.8.6-1.6 1.2-2.3.7-.7 1.6-1.1 2.6-1.1 1.2 0 2.4.6 3.1 1.6.4.5.6 1.1.7 1.8h-7.6z"/></g></g></g></g></g></g></svg>