<svg xmlns="http://www.w3.org/2000/svg" viewBox="0 0 98.64 109.48"><defs><style>.cls-1,.cls-2{fill:none;stroke-miterlimit:10;stroke-width:2px;}.cls-1{stroke:#9fd34a;}.cls-2{stroke:#19212d;}</style></defs><title>qualifications-and-training</title><g id="Layer_2" data-name="Layer 2"><g id="Content"><path class="cls-1" d="M56.64,52.19h0a5.14,5.14,0,0,0,4.47,1.64h0a5.19,5.19,0,0,1,5.83,4.94h0a5.26,5.26,0,0,0,2.38,4.17h0a5.25,5.25,0,0,1,1.33,7.57h0a5.25,5.25,0,0,0-.82,4.74h0A5.21,5.21,0,0,1,66,81.9h0A5.16,5.16,0,0,0,62.39,85h0a5.12,5.12,0,0,1-7.14,2.63h0a5.13,5.13,0,0,0-4.76,0h0A5.13,5.13,0,0,1,43.35,85h0A5.19,5.19,0,0,0,39.7,81.9h0a5.21,5.21,0,0,1-3.8-6.65h0a5.28,5.28,0,0,0-.83-4.74h0a5.25,5.25,0,0,1,1.31-7.57h0a5.2,5.2,0,0,0,2.37-4.17h0a5.18,5.18,0,0,1,5.82-4.94h0A5.12,5.12,0,0,0,49,52.19h0A5.12,5.12,0,0,1,56.64,52.19Z"/><circle class="cls-1" cx="52.87" cy="69.35" r="7.07"/><polyline class="cls-1" points="59.93 88.21 59.93 107.07 52.85 100 45.78 107.07 45.78 88.21"/><line class="cls-2" x1="34" y1="29.28" x2="71.71" y2="29.28"/><line class="cls-2" x1="43.43" y1="38.71" x2="62.28" y2="38.71"/><path class="cls-2" d="M41.07,97.64h-33A7.08,7.08,0,0,1,1,90.57V85.85H15.14"/><path class="cls-2" d="M85.85,12.79V90.57a7.07,7.07,0,0,1-7.07,7.07H64.64"/><path class="cls-2" d="M8.07,97.64a7.07,7.07,0,0,0,7.07-7.07V8.07a7.07,7.07,0,0,1,14.14,0v4.72H97.64V8.07A7.08,7.08,0,0,0,90.57,1H22.21"/></g></g></svg>