<svg xmlns="http://www.w3.org/2000/svg" viewBox="0 0 120.85 103.45"><defs><style>.cls-1,.cls-2{fill:none;stroke-miterlimit:10;stroke-width:2px;}.cls-1{stroke:#19212d;}.cls-2{stroke:#9fd34a;}</style></defs><title>real-job-prospects</title><g id="Layer_2" data-name="Layer 2"><g id="Content"><rect class="cls-1" x="40.87" y="43.88" width="11.28" height="13.54"/><rect class="cls-1" x="83.75" y="43.88" width="11.28" height="13.54"/><path class="cls-1" d="M81.49,12.28V5.51A4.51,4.51,0,0,0,77,1H56.66a4.51,4.51,0,0,0-4.51,4.51v6.77"/><line class="cls-1" x1="83.75" y1="48.39" x2="52.15" y2="48.39"/><path class="cls-1" d="M40.87,48.39H29.58C22.05,48.39,16,44.3,16,37.11V12.28H119.85V37.11c0,7.19-6,11.28-13.54,11.28H95"/><polygon class="cls-2" points="21.2 70.29 24.57 78.09 32.38 78.82 26.65 84.82 28.11 92.62 21.2 88.97 14.3 92.62 15.76 84.82 10.03 78.82 17.84 78.09 21.2 70.29"/><circle class="cls-1" cx="21.2" cy="82.24" r="20.2"/><line class="cls-1" x1="18.3" y1="43.88" x2="18.3" y2="57.42"/><polyline class="cls-1" points="45.73 82.24 117.6 82.24 117.6 43.88"/></g></g></svg>