<svg id="Layer_1" xmlns="http://www.w3.org/2000/svg" viewBox="0 0 257.8 276.8"><style>.st0,.st1,.st2{fill:none;stroke:#fff;stroke-width:2.9314;stroke-miterlimit:10}.st1,.st2{stroke:#9fd34a}.st2{stroke-linejoin:round}</style><path class="st0" d="M222.7 76.7l-1-1.1c-5.1-5.4-6.6-12.4-3.2-15.6l14.3-13.4c5.2-4.9 13.6-4.5 18.7.9l1 1.1c5.1 5.4 5.1 13.8 0 18.7l-14.3 13.4c-3.4 3.3-10.3 1.4-15.5-4zM115 263.8l6.3-5.9c48.6 3.6 66.7-30.1 71.5-35.8M109.4 234c12.9-37 .3-70.2-11.4-85 4.9-14.8 6.9-25.3 8.6-42.7.9-10-3.3-18.6-7.7-24.7-4.5-6.3-15.5-4.9-17.8 2.2-9.8 31.2-11.6 39.7-17.6 55.4-6.7 17.5-2.9 42.1-6.2 49.3-.7 1.4-9.5 15.5-9.5 15.5M226.5 150.8l-1-.9c-5.2-4.5-7.2-10.9-4.3-14.2l12.2-14c4.4-5.1 12.3-5.6 17.5-1l1 .9c5.2 4.5 5.9 12.4 1.5 17.5l-12.2 14c-2.8 3.2-9.4 2.3-14.7-2.3z"/><path class="st0" d="M226.5 114.3l-1-.9c-5.2-4.5-7.2-10.9-4.3-14.2l12.2-14c4.4-5.1 12.3-5.6 17.5-1l1 .9c5.2 4.5 5.9 12.4 1.5 17.5l-12.2 14c-2.8 3.2-9.4 2.2-14.7-2.3z"/><path class="st1" d="M151.1 204.2H169M228.6 42.2V19.4c0-9.9-8-17.9-17.9-17.9H109.4c-9.9 0-17.9 8-17.9 17.9 0 17.6.1 49.6.1 49.6M121.4 222.1h89.4c9.9 0 17.9-8 17.9-17.9v-11.9"/><path class="st0" d="M109.4 275.7l-77.5-77.5L2.1 228l47.7 47.7M31.9 228l5.9 6"/><path class="st1" d="M121.4 186.3h101.3M91.5 31.3h137.1"/><path class="st2" d="M163 64.5L175.3 86l23 4.1-15.4 20.5 2 22.2-21.9-6.9-21.8 7.2 1.9-22.6-15.3-20.4 22.9-4.1z"/><path class="st0" d="M226.5 188.3l-1-.9c-5.1-4.4-7.1-10.7-4.3-14l12-13.8c4.3-5 12.1-5.5 17.2-1l1 .9c5.1 4.4 5.8 12.2 1.5 17.2l-12 13.8c-2.8 3.2-9.3 2.3-14.4-2.2z"/></svg>