<svg xmlns="http://www.w3.org/2000/svg" viewBox="0 0 112.11 112.27"><defs><style>.cls-1,.cls-2{fill:none;stroke-linecap:round;stroke-linejoin:round;stroke-width:1.91px;}.cls-1{stroke:#9fd34a;}.cls-2{stroke:#19212d;}</style></defs><title>rehabilitation</title><g id="Layer_2" data-name="Layer 2"><g id="Content"><polyline class="cls-1" points="24.59 87.61 8.83 87.61 8.83 103.36"/><path class="cls-1" d="M5.83,78.5A55.07,55.07,0,0,1,95.09,17.1l7.1,7.1"/><path class="cls-1" d="M106.28,33.77A55.07,55.07,0,0,1,17,95.17l-7.09-7.1"/><polyline class="cls-1" points="87.61 24.59 103.36 24.59 103.36 8.83"/><path class="cls-2" d="M92.61,35A42.08,42.08,0,0,1,32.5,90.81"/><path class="cls-2" d="M19.73,77.06A42.08,42.08,0,0,1,79.84,21.24"/><line class="cls-1" x1="67.76" y1="57.49" x2="67.76" y2="68.98"/><line class="cls-1" x1="62.97" y1="49.83" x2="62.97" y2="68.98"/><path class="cls-1" d="M72.55,59.41a3.91,3.91,0,0,0,3.83-3.84V49.83c0-4.3-3-5.75-4.78-5.75H63.93c-1.79,0-4.79,1.45-4.79,5.75v5.74A3.92,3.92,0,0,0,63,59.41"/><line class="cls-1" x1="72.55" y1="49.83" x2="72.55" y2="68.98"/><rect class="cls-1" x="64.89" y="33.54" width="6.7" height="7.66" rx="1.2"/><polyline class="cls-2" points="60.1 78.56 60.1 68.98 75.43 68.98 75.43 78.56"/><polyline class="cls-2" points="46.69 78.56 46.69 71.86 60.1 71.86 60.1 78.56"/><polyline class="cls-2" points="34.24 78.56 34.24 75.69 46.69 75.69 46.69 78.56"/></g></g></svg>