<svg id="Layer_1" xmlns="http://www.w3.org/2000/svg" viewBox="0 0 159.7 47"><style>.st0{fill:#757a81}</style><g id="Symbols_2_"><g id="consumer-finance_black_1_"><path id="Fill-1_1_" class="st0" d="M43.8 47c-1.3 0-2.3-.4-3-1.1-.7-.7-1-1.8-1-3.2 0-1.4.4-2.4 1.1-3.2.7-.8 1.7-1.1 3-1.1.7 0 1.6.1 2.6.4v1.1c-1.1-.4-2-.6-2.6-.6-.9 0-1.6.3-2.1.9-.5.6-.7 1.5-.7 2.5s.3 1.9.8 2.5c.5.6 1.2.9 2.1.9.8 0 1.6-.2 2.5-.7v1c-.8.4-1.7.6-2.7.6"/><path id="Fill-2_1_" class="st0" d="M51.8 46.1c.8 0 1.5-.3 1.9-.9.5-.6.7-1.5.7-2.6s-.2-1.9-.7-2.5c-.5-.6-1.1-.9-1.9-.9-.8 0-1.5.3-1.9.9-.5.6-.7 1.4-.7 2.5s.2 1.9.7 2.5c.4.7 1 1 1.9 1zm-.1.9c-1.1 0-2.1-.4-2.8-1.2-.7-.8-1-1.8-1-3.1s.3-2.3 1-3.1c.7-.8 1.6-1.2 2.8-1.2 1.2 0 2.1.4 2.8 1.2.7.8 1 1.8 1 3.1s-.3 2.4-1 3.2c-.6.7-1.6 1.1-2.8 1.1z"/><path id="Fill-3_1_" class="st0" d="M57.6 46.8v-8.3h1.1l4.1 6.4v-6.4h1v8.3h-1.1l-4.1-6.4v6.4h-1"/><path id="Fill-4_1_" class="st0" d="M67.8 47c-.6 0-1.3-.1-2.1-.4v-1.2c.9.4 1.7.6 2.3.6.5 0 .8-.1 1.1-.4.3-.2.4-.6.4-.9 0-.3-.1-.6-.3-.8-.2-.2-.5-.5-1-.8l-.6-.3c-.7-.4-1.2-.8-1.5-1.1-.3-.4-.4-.8-.4-1.2 0-.6.2-1.2.7-1.6.5-.4 1.1-.6 1.8-.6.6 0 1.3.1 2 .3v1.1c-.9-.3-1.5-.5-2-.5-.4 0-.7.1-1 .3-.3.2-.4.5-.4.8 0 .3.1.5.3.7.2.2.5.5 1.1.8l.6.3c.7.4 1.2.8 1.5 1.1.3.4.4.8.4 1.3 0 .7-.3 1.3-.8 1.7-.5.6-1.2.8-2.1.8"/><path id="Fill-5_1_" class="st0" d="M72.5 38.5h1.2v5.2c0 .8.2 1.4.5 1.8.3.4.8.6 1.5.6s1.1-.2 1.4-.5c.3-.4.4-1 .4-1.8v-5.2h1v5.2c0 1.1-.2 1.9-.7 2.5-.5.5-1.2.8-2.2.8-1 0-1.8-.3-2.3-.8-.5-.5-.7-1.4-.7-2.5v-5.3"/><path id="Fill-6_1_" class="st0" d="M80.8 46.8v-8.3h1.6l2.3 6.4 2.3-6.4h1.4v8.3h-1.1v-6.7l-2.2 6.1H84L81.8 40v6.8h-1"/><path id="Fill-7_1_" class="st0" d="M90.8 46.8v-8.3h4.6v.9H92V42h2.9v.9H92v3h3.7v.9h-4.9"/><path id="Fill-8_1_" class="st0" d="M98.4 42.4h.4c1.5 0 2.2-.6 2.2-1.7 0-.8-.6-1.3-1.9-1.3h-.7v3zm-1.1 4.4v-8.2h2.5c.8 0 1.4.2 1.8.5.4.3.6.9.6 1.5 0 1.1-.6 1.9-1.7 2.3l2.8 3.8h-1.4l-2.4-3.5h-1.1v3.5h-1.1v.1z"/><path id="Fill-9_1_" class="st0" d="M107.8 46.8v-8.3h4.6v.9H109v2.8h2.9v.8H109v3.8h-1.2"/><path id="Fill-10_1_" class="st0" d="M114.2 46.8h1.2v-8.3h-1.2z"/><path id="Fill-11_1_" class="st0" d="M117.8 46.8v-8.3h1.1l4.1 6.4v-6.4h1v8.3h-1.1l-4.1-6.4v6.4h-1"/><path id="Fill-12_1_" class="st0" d="M131.8 46.8l-.9-2.3h-3.5l-.9 2.3h-1.1l3.2-8.2h1.2l3.2 8.2h-1.2zm-1.2-3.2l-1.4-3.5-1.4 3.5h2.8z"/><path id="Fill-13_1_" class="st0" d="M134.5 46.8v-8.3h1.2l4.1 6.4v-6.4h1v8.3h-1.1l-4.2-6.4v6.4h-1"/><path id="Fill-14_1_" class="st0" d="M146.8 47c-1.3 0-2.3-.4-3-1.1-.7-.7-1-1.8-1-3.2 0-1.4.4-2.4 1.1-3.2.7-.8 1.7-1.1 3-1.1.7 0 1.6.1 2.6.4v1.1c-1.1-.4-2-.6-2.6-.6-.9 0-1.6.3-2.1.9-.5.6-.7 1.5-.7 2.5s.3 1.9.8 2.5c.5.6 1.2.9 2.1.9.8 0 1.6-.2 2.5-.7v1c-.9.4-1.8.6-2.7.6"/><g id="Group-18_1_"><path id="Fill-15_1_" class="st0" d="M151.3 46.8v-8.3h4.6v.9h-3.4v2.7h2.9v.8h-2.9v3h3.7v.9h-4.9"/><path id="Fill-17_1_" class="st0" d="M16.4 1.4c0 3.5 6 7.5 6 11.5 0 0 0 .4-.2.8 5.6 1.2 9.6 3.9 9.6 7.1 0 4.3-7.1 7.9-15.9 7.9h-.2C7.1 28.7 0 25.3 0 21c0-3.2 4.3-5.8 9.5-7.2 0 1.8 5.9 7.4 6.1 9.7v.7c1.3-.7 1.3-2.8 1.3-2.8 0-5-5.8-7.1-5.8-12 0-1.9.9-3.3 1.7-3.7v1.4c0 3.5 6.2 7.5 6.2 10.7v1.1c1.4-.6 1.4-3.2 1.4-3.2 0-4.5-5.8-6.9-5.8-12 0-1.9.9-3.3 1.7-3.7v1.4"/></g><path id="Fill-19_1_" class="st0" d="M44.5 27.4c-3 0-5.2-.9-5.2-.9v-5.3h.7c.4 2.8 2.5 4.9 4.9 4.9 2.4 0 4.1-1.3 4.1-3.4 0-2.3-2.3-3.3-3.8-4L43 17.6c-2.1-1-3.7-2.7-3.7-5 0-2.9 2.2-5.4 6.3-5.4 2.8 0 5.2.9 5.2.9v4.7H50c-.4-2.5-1.8-4.5-4.7-4.5-2.1 0-3.4 1.4-3.4 2.9 0 1.9 1.3 2.8 2.9 3.6l2.2 1.1c2 1 4.4 2.7 4.4 5.5.2 3.6-2.3 6-6.9 6"/><path id="Fill-20_1_" class="st0" d="M58.5 21.6c-.6.2-1.6.7-1.6 2.1 0 .7.4 1.9 1.9 1.9.7 0 1.7-.4 2.4-.9v-4.1l-2.7 1zm-1.2 5.6c-1.9 0-3.1-1.2-3.1-3.1 0-1.3 1-2.4 3.1-3.1l3.7-1.4v-1.2c0-1.7-.8-2.8-2-2.8-.8 0-1.7.4-2.1 1.1-.2.2-.2.6-.2.9 0 .5.3 1 .3 1l-1.8.8c-.2-.4-.5-1-.5-1.6v-.3c.1-1 1-1.7 2.2-2.4 1.1-.7 2.1-.9 2.8-.9 3.5 0 4.1 2.8 4.1 3.7v5.7c0 .9.1 1.5.8 1.5.2 0 .4 0 .7-.1l.7-.2v.8L62.1 27c-.6-.4-.9-1.2-1-1.8-.9 1-2.4 2-3.8 2z"/><path id="Fill-21_1_" class="st0" d="M66.9 27v-.7l.9-.2c.6-.1.9-.5.9-1.1v-7.4c0-.6-.3-1-.9-1-.2 0-.4 0-.6.1l-.4.1V16l4-1.7h.6v2.1c1.2-1.4 2.7-2.1 4-2.1 2.8 0 4.2 2 4.2 4.4V25c0 .6.4 1 1 1.1l.9.2v.7h-6.6v-.7l.9-.2c.6-.1 1-.5 1-1.1v-6.3c0-.8-.2-2.7-2.4-2.7-1.2 0-2.3.8-2.9 1.3V25c0 .6.4 1 1 1.1l.9.2v.7h-6.5"/><path id="Fill-22_1_" class="st0" d="M91.1 16h-3.9v6.9c0 1.5.8 2.4 2 2.4.5 0 1.2-.1 1.9-.5l.3.7-2.5 1.5s-.5.1-.8.1c-2.4 0-3.7-1.4-3.7-4.4V16h-2v-.7s3.1-1.2 4.3-4h.6v3.5h4.4l-.6 1.2"/><path id="Fill-23_1_" class="st0" d="M96.9 21.6c-.6.2-1.6.7-1.6 2.1 0 .7.4 1.9 1.9 1.9.7 0 1.7-.4 2.4-.9v-4.1l-2.7 1zm-1.1 5.6c-1.9 0-3.1-1.2-3.1-3.1 0-1.3 1-2.4 3.1-3.1l3.7-1.4v-1.2c0-1.7-.8-2.8-2-2.8-.8 0-1.7.4-2.1 1.1-.2.2-.2.6-.2.9 0 .5.3 1 .3 1l-1.8.8c-.2-.4-.5-1-.5-1.6v-.3c.1-1 1-1.7 2.2-2.4 1.1-.7 2.1-.9 2.8-.9 3.5 0 4.1 2.8 4.1 3.7v5.7c0 .9.1 1.5.8 1.5.2 0 .4 0 .7-.1l.7-.2v.8l-3.9 1.4c-.6-.4-.9-1.2-1-1.8-.9 1-2.5 2-3.8 2z"/><path id="Fill-24_1_" class="st0" d="M105.4 27v-.7l.9-.2c.6-.1.9-.5.9-1.1v-7.4c0-.6-.3-1-.9-1-.2 0-.4 0-.6.1l-.4.1V16l4-1.7h.6v2.1c1.2-1.4 2.7-2.1 4-2.1 2.8 0 4.2 2 4.2 4.4V25c0 .6.4 1 1 1.1l.9.2v.7h-6.6v-.7l.9-.2c.6-.1 1-.5 1-1.1v-6.3c0-.8-.2-2.7-2.4-2.7-1.2 0-2.3.8-2.9 1.3V25c0 .6.4 1 1 1.1l.9.2v.7h-6.5"/><path id="Fill-25_1_" class="st0" d="M128.3 15.5c-2 0-4.1 1.3-4.1 5 0 3.1 1.6 5 4 5 1.5 0 2.4-.9 2.6-1.3V17c-.3-.9-1.3-1.5-2.5-1.5zm-1.2 11.8c-2.6 0-5.8-1.9-5.8-6.2 0-3.7 2.9-6.7 6.7-6.7 1.3 0 2.2.3 2.9.5V8.5c0-.7-.4-.9-.8-.9-.3 0-.5.1-.8.1l-.6.3v-.8l4.3-1.8h.6v18.3c0 1.1.2 1.7.9 1.7.2 0 .4 0 .7-.1l.7-.2v.8l-3.9 1.4c-.6-.4-.9-1.2-1.1-1.8-.7.7-2 1.8-3.8 1.8z"/><path id="Fill-26_1_" class="st0" d="M145.6 18.6c0-2.1-1.2-3.1-2.6-3.1-1.6 0-2.7 1-3.1 3.1h5.7zm-5.6 1.2v.1c0 3.7 2.1 5.6 4.7 5.6 1.3 0 2.6-.5 3.5-1.2v1.1c-1.1 1-2.8 1.9-4.9 1.9-4.3 0-6.2-3.2-6.2-6.3 0-3.6 2.7-6.5 6.3-6.5 2.9 0 5.2 2.1 5.2 5.1v.4H140v-.2z"/><path id="Fill-27_1_" class="st0" d="M150.3 27v-.7l.9-.2c.5-.1.9-.5.9-1.1v-7.4c0-.6-.3-1-.9-1-.2 0-.4 0-.6.1l-.4.1V16l3.9-1.7h.6V17c1-2 2.2-2.8 3.6-2.8 1.1 0 1.4.3 1.4.3v3h-.6c-.1-.8-.7-1.2-1.5-1.2-.9 0-2 .3-2.8 1.9v6.9c0 .6.6 1 1.1 1.1l1.3.2v.6h-6.9"/></g></g></svg>