<svg xmlns="http://www.w3.org/2000/svg" viewBox="0 0 65.67 105.58"><defs><style>.cls-1,.cls-2{fill:none;stroke-linecap:round;stroke-linejoin:round;stroke-width:1.91px;}.cls-1{stroke:#19212d;}.cls-2{stroke:#9fd34a;}</style></defs><title>savings</title><g id="Layer_2" data-name="Layer 2"><g id="Content"><path class="cls-1" d="M64.72,50.43c0,5.28-7.85,9.57-17.54,9.57s-17.53-4.29-17.53-9.57"/><path class="cls-1" d="M64.72,58.4c0,5.28-7.85,9.57-17.54,9.57S29.65,63.68,29.65,58.4"/><path class="cls-1" d="M64.72,66.37c0,5.28-7.85,9.57-17.54,9.57a30.51,30.51,0,0,1-7-.8"/><path class="cls-1" d="M64.72,74.34c0,5.28-7.85,9.57-17.54,9.57a30.51,30.51,0,0,1-7-.8"/><path class="cls-1" d="M18.49,69.56C8.81,69.56,1,73.84,1,79.12V95.06c0,5.29,7.86,9.57,17.54,9.57S36,100.35,36,95.06V79.12C36,73.84,28.17,69.56,18.49,69.56Z"/><path class="cls-1" d="M36,79.12c0,5.29-7.85,9.57-17.53,9.57S1,84.41,1,79.12"/><path class="cls-1" d="M36,87.09c0,5.29-7.85,9.57-17.53,9.57S1,92.38,1,87.09"/><path class="cls-1" d="M40.17,91.08a30.51,30.51,0,0,0,7,.8c9.69,0,17.54-4.29,17.54-9.57V50.43c0-5.28-7.85-9.56-17.54-9.56s-17.53,4.28-17.53,9.56V66.37"/><polygon class="cls-2" points="8.13 43.99 25.66 26.46 35.23 36.02 59.14 12.11 63.92 16.9 63.92 0.95 47.98 0.95 52.76 5.74 35.23 23.27 25.66 13.71 1.75 37.62 8.13 43.99"/></g></g></svg>