<svg id="Layer_1" xmlns="http://www.w3.org/2000/svg" viewBox="0 0 89.5 40"><style>.st0{fill:#9fd34a}</style><path class="st0" d="M0 26V6.9h4.9v4H6L12.6 0h39.7l14.5 11.7L85.2 14l2.4 10.8 1.9.7-1.4 9.4H82c.4-1.9.3-4-.9-6.3s-3.4-4.1-6-4.7c-6-1.3-11.4 3.2-11.4 9 0 .7.1 1.3.2 1.9H32.8c.4-1.8.3-3.7-.6-5.7-1.1-2.5-3.3-4.5-6-5.2-6.2-1.6-11.7 3.1-11.7 9 0 .7.1 1.3.2 1.9H6.9L5 25.7 0 26z"/><path class="st0" d="M71.4 27.6c4.7-1.1 8.8 3 7.7 7.7-.5 2.2-2.3 4-4.5 4.5-4.7 1.1-8.8-3-7.7-7.7.5-2.2 2.3-4 4.5-4.5zM22.2 27.6c4.7-1.1 8.8 3 7.7 7.7-.5 2.2-2.3 4-4.5 4.5-4.7 1.1-8.8-3-7.7-7.7.5-2.2 2.3-4 4.5-4.5zM4.9 6.9v15.4"/></svg>