<svg id="Layer_1" xmlns="http://www.w3.org/2000/svg" viewBox="0 0 90.5 41"><style>.st0{fill:#fff;stroke:#19212d;stroke-linecap:round;stroke-linejoin:round;stroke-miterlimit:10}</style><path class="st0" d="M.5 26.5V7.4h4.9v4h1.1L13.1.5h39.7l14.5 11.7 18.4 2.4 2.4 10.8 1.9.6-1.4 9.4H82.5c.4-1.9.3-4-.9-6.3s-3.4-4.1-6-4.7c-6-1.3-11.4 3.2-11.4 9 0 .7.1 1.3.2 1.9H33.3c.4-1.8.3-3.7-.6-5.7-1.1-2.5-3.3-4.5-6-5.2C20.5 23 15 27.6 15 33.5c0 .7.1 1.3.2 1.9H7.4l-1.9-9.1-5 .2z"/><path class="st0" d="M71.9 28.1c4.7-1.1 8.8 3 7.7 7.7-.5 2.2-2.3 4-4.5 4.5-4.7 1.1-8.8-3-7.7-7.7.5-2.2 2.3-4 4.5-4.5zM22.7 28.1c4.7-1.1 8.8 3 7.7 7.7-.5 2.2-2.3 4-4.5 4.5-4.7 1.1-8.8-3-7.7-7.7.5-2.2 2.3-4 4.5-4.5zM5.4 7.4v15.4"/></svg>