<svg xmlns="http://www.w3.org/2000/svg" viewBox="0 0 113.73 113.23"><defs><style>.cls-1,.cls-2{fill:none;stroke-miterlimit:10;stroke-width:2px;}.cls-1{stroke:#19212d;}.cls-2{stroke:#9fd34a;}</style></defs><title>transferable-skills</title><g id="Layer_2" data-name="Layer 2"><g id="Content"><path class="cls-1" d="M96.44,17.47a55.91,55.91,0,0,0-79.07-.19L10.78,23.8,3.66,16.68H1V43.3H27.62V40.64L22,35l6.65-6.65A39.17,39.17,0,0,1,56.9,16.88a40.16,40.16,0,0,1,39.81,42.4h16C113.22,43.3,107.84,28.87,96.44,17.47Z"/><path class="cls-1" d="M86.11,69.92v2.67l5.57,5.57-6.62,6.49a39.93,39.93,0,0,1-56.47-.19A40.78,40.78,0,0,1,17,54H1c-.52,16,4.86,30.41,16.26,41.8a55.9,55.9,0,0,0,79.06.2l6.6-6.52,7.12,7.12h2.66V69.92Z"/><path class="cls-2" d="M52.58,62.18a12.72,12.72,0,0,0,8.36-12V45.42c0-.8,1.19-2.31,1.19-5.9s-.62-5-2.17-7-4.38-1.65-4.38.3v1.58c0,4.37-2.46,6.46-5.37,9.73,0,0-3.87,3.58-5.36,3.58H37.7L38,69.17h5c3.54,0,2.77,3.58,7.76,3.58H69.7A4.25,4.25,0,0,0,73.45,69L76,54.13a5.49,5.49,0,0,0-5.42-6.41h-6"/></g></g></svg>