<svg xmlns="http://www.w3.org/2000/svg" viewBox="32 123.1 1024 313.9"><style>.st0{fill:#fff}</style><title/><path d="M776.3 135.9c-16.5-6.2-42.2-12.8-74.2-12.8-81.9 0-139.7 41.3-140.2 100.5-.5 43.5 41.1 68 72.6 82.6 32.3 14.9 43.1 24.3 43 37.8-.2 20.4-25.8 29.6-49.6 29.6-32.7 0-50.6-4.6-78.1-16l-10.2-4.7-11.6 68c19.9 8.3 55.7 15.4 92.8 16 87.1 0 144-41 144.7-104.1.7-34.7-21.8-61-69.2-82.7-28.8-14.1-46.7-23.5-46.7-37.8 0-12.6 15.3-26.1 47.3-26.1 27.5-.4 46.8 5.5 62.1 11.6l7.7 3.5 11.6-65.9-2 .5zm212.6-7.2h-64c-19.9 0-34.8 5.4-43.6 25.2l-123 278.8h87.1l17.4-45.7 106.2.1c2.6 10.7 10.2 45.6 10.2 45.6h76.8l-67.1-304zm-544.7-2.6h82.9l-51.8 304.2h-82.9l51.8-304.2zM233.4 293.7L242 336l81.1-207.3H411L280.4 432.2h-87.6l-71.7-257.1c-1.5-4.4-3.3-7.4-7.7-10.1-24.2-12.7-51.3-23-81.4-30.2l1.1-6.4h133.6c18.1.7 32.7 6.4 37.7 25.8l29.1 139.6-.1-.1zm653.2 31.1l33.1-85.1c-.4.9 6.8-17.6 11-29l5.7 26.2 19.2 87.8-69 .1z" class="st0"/></svg>