<svg id="Layer_1" xmlns="http://www.w3.org/2000/svg" xmlns:xlink="http://www.w3.org/1999/xlink" viewBox="0 0 359.6 77.6"><style>.st0{fill:#19212d}</style><image width="524" height="94" xlink:href="../../input/Car.service - Vehicle Inspections/Car.service - Vehicle Inspections/Links/logo@2x.png" transform="translate(0 13.04) scale(.6863)" overflow="visible"/><g id="XMLID_40_"><path id="XMLID_41_" class="st0" d="M130.4 4.7c0 1.8-1.3 2.9-3.5 2.9h-2.1v2.5h-1.2V1.8h3.3c2.2 0 3.5 1.1 3.5 2.9zm-1.2 0c0-1.2-.8-1.9-2.3-1.9h-2v3.8h2c1.5 0 2.3-.7 2.3-1.9z"/><path id="XMLID_44_" class="st0" d="M137.6 8.1h-4.5l-.9 2.1H131l3.8-8.4h1.2l3.8 8.4h-1.3l-.9-2.1zm-.4-1L135.4 3l-1.8 4.1h3.6z"/><path id="XMLID_47_" class="st0" d="M146.7 10.2l-1.8-2.6h-2.6v2.6h-1.2V1.8h3.3c2.2 0 3.5 1.1 3.5 2.9 0 1.3-.7 2.2-1.8 2.7l2 2.8h-1.4zm-.1-5.5c0-1.2-.8-1.9-2.3-1.9h-2v3.8h2c1.5 0 2.3-.7 2.3-1.9z"/><path id="XMLID_50_" class="st0" d="M151.4 2.8h-2.9v-1h6.9v1h-2.9v7.4h-1.2V2.8z"/><path id="XMLID_52_" class="st0" d="M164 1.8v8.4h-1l-5-6.3v6.3h-1.2V1.8h1l5 6.3V1.8h1.2z"/><path id="XMLID_54_" class="st0" d="M172.7 9.2v1h-6.1V1.8h5.9v1h-4.7v2.6h4.2v1h-4.2v2.7h4.9z"/><path id="XMLID_56_" class="st0" d="M180.2 10.2l-1.8-2.6h-2.6v2.6h-1.2V1.8h3.3c2.2 0 3.5 1.1 3.5 2.9 0 1.3-.7 2.2-1.8 2.7l2 2.8h-1.4zm0-5.5c0-1.2-.8-1.9-2.3-1.9h-2v3.8h2c1.5 0 2.3-.7 2.3-1.9z"/><path id="XMLID_59_" class="st0" d="M189.4 9.2v1h-6.1V1.8h5.9v1h-4.7v2.6h4.2v1h-4.2v2.7h4.9z"/><path id="XMLID_61_" class="st0" d="M191.4 1.8h3.5c2.7 0 4.5 1.7 4.5 4.2s-1.8 4.2-4.5 4.2h-3.5V1.8zm3.4 7.4c2.1 0 3.4-1.3 3.4-3.2s-1.3-3.2-3.4-3.2h-2.3v6.3h2.3z"/><path id="XMLID_64_" class="st0" d="M216.4 1.8l-2.8 8.4h-1.3L210 3.5l-2.3 6.7h-1.3l-2.8-8.4h1.2l2.3 6.8 2.4-6.8h1.1l2.3 6.9 2.3-6.9h1.2z"/><path id="XMLID_66_" class="st0" d="M218 1.8h1.2v8.4H218V1.8z"/><path id="XMLID_68_" class="st0" d="M223.4 2.8h-2.9v-1h6.9v1h-2.9v7.4h-1.2V2.8z"/><path id="XMLID_70_" class="st0" d="M236 1.8v8.4h-1.2V6.5H230v3.7h-1.2V1.8h1.2v3.6h4.8V1.8h1.2z"/></g></svg>