<svg xmlns="http://www.w3.org/2000/svg" xmlns:xlink="http://www.w3.org/1999/xlink" viewBox="0 0 2625.19 1728.19"><defs><style>.cls-1{fill:none;}.cls-2{isolation:isolate;}.cls-3{opacity:0.6;}.cls-4{fill:#f4f4f5;}.cls-5{opacity:0.05;}.cls-6{clip-path:url(#clip-path);}.cls-7{mix-blend-mode:multiply;}.cls-8{clip-path:url(#clip-path-2);}.cls-9{fill:url(#linear-gradient);}.cls-10{clip-path:url(#clip-path-3);}.cls-11{fill:url(#linear-gradient-2);}.cls-12{clip-path:url(#clip-path-4);}.cls-13{fill:url(#linear-gradient-3);}.cls-14{clip-path:url(#clip-path-5);}.cls-15{fill:url(#linear-gradient-4);}.cls-16{clip-path:url(#clip-path-6);}.cls-17{clip-path:url(#clip-path-7);}.cls-18{fill:url(#linear-gradient-5);}.cls-19{clip-path:url(#clip-path-8);}.cls-20{fill:url(#linear-gradient-6);}</style><clipPath id="clip-path"><rect class="cls-1" x="1303.27" y="922.49" width="750" height="400.11"/></clipPath><clipPath id="clip-path-2"><rect class="cls-1" x="1406.94" y="1004.42" width="814.59" height="200.41" rx="28.23" transform="translate(3878.19 602.85) rotate(135)"/></clipPath><linearGradient id="linear-gradient" x1="270.51" y1="-399.56" x2="470.92" y2="-399.56" gradientTransform="translate(1443.53 1504.18)" gradientUnits="userSpaceOnUse"><stop offset="0" stop-color="#19212d" stop-opacity="0"/><stop offset="1" stop-color="#19212d"/></linearGradient><clipPath id="clip-path-3"><rect class="cls-1" x="1859.03" y="1269.12" width="814.59" height="200.41" transform="translate(2900.6 3940.13) rotate(-135)"/></clipPath><linearGradient id="linear-gradient-2" x1="-8571.5" y1="-4301.83" x2="-8371.08" y2="-4301.83" gradientTransform="translate(10737.62 5671.16)" xlink:href="#linear-gradient"/><clipPath id="clip-path-4"><rect class="cls-1" x="1063.83" y="615.58" width="814.59" height="200.41" rx="28.23" transform="translate(-75.26 1249.89) rotate(-45)"/></clipPath><linearGradient id="linear-gradient-3" x1="-7393.08" y1="5552.51" x2="-7192.66" y2="5552.51" gradientTransform="translate(8764 -4836.72)" xlink:href="#linear-gradient"/><clipPath id="clip-path-5"><rect class="cls-1" x="702.97" y="258.65" width="814.59" height="200.41" transform="translate(578.94 -679.97) rotate(45)"/></clipPath><linearGradient id="linear-gradient-4" x1="-2489.71" y1="3361.05" x2="-2289.29" y2="3361.05" gradientTransform="translate(3499.76 -3002.19)" xlink:href="#linear-gradient"/><clipPath id="clip-path-6"><rect class="cls-1" x="551.87" y="922.49" width="750" height="401.27"/></clipPath><clipPath id="clip-path-7"><rect class="cls-1" x="312.42" y="1034.21" width="814.59" height="200.41" rx="28.23" transform="translate(-591.36 841.18) rotate(-45)"/></clipPath><linearGradient id="linear-gradient-5" x1="-7157.77" y1="4725.17" x2="-6957.35" y2="4725.17" gradientTransform="translate(7777.28 -3590.75)" xlink:href="#linear-gradient"/><clipPath id="clip-path-8"><rect class="cls-1" x="-48.44" y="677.28" width="814.59" height="200.41" transform="translate(654.87 -26.03) rotate(45)"/></clipPath><linearGradient id="linear-gradient-6" x1="-3317.05" y1="3125.74" x2="-3116.63" y2="3125.74" gradientTransform="translate(3575.7 -2348.25)" xlink:href="#linear-gradient"/></defs><title>Asset 2</title><g class="cls-2"><g id="Layer_2" data-name="Layer 2"><g id="Banners"><g class="cls-3"><rect class="cls-4" x="552.57" y="922.49" width="1500" height="401.27"/><g class="cls-5"><g class="cls-6"><g class="cls-7"><g class="cls-8"><rect class="cls-9" x="1714.03" y="697.33" width="200.41" height="814.59" transform="translate(1312.47 -959.32) rotate(45)"/></g></g><g class="cls-7"><g class="cls-10"><rect class="cls-11" x="2166.12" y="962.03" width="200.41" height="814.59" transform="translate(4837.13 735.06) rotate(135)"/></g></g><g class="cls-7"><g class="cls-12"><rect class="cls-13" x="1370.92" y="308.5" width="200.41" height="814.59" transform="translate(2005.23 2262.17) rotate(-135)"/></g></g><g class="cls-7"><g class="cls-14"><rect class="cls-15" x="1010.06" y="-48.44" width="200.41" height="814.59" transform="translate(71.44 890.18) rotate(-45)"/></g></g></g></g><g class="cls-5"><g class="cls-16"><g class="cls-7"><g class="cls-17"><rect class="cls-18" x="619.51" y="727.12" width="200.41" height="814.59" transform="translate(426.48 2445.49) rotate(-135)"/></g></g><g class="cls-7"><g class="cls-19"><rect class="cls-20" x="258.65" y="370.19" width="200.41" height="814.59" transform="translate(-444.66 481.47) rotate(-45)"/></g></g></g></g></g></g></g></g></svg>